<?xml version="1.0" encoding="UTF-8"?>
<!DOCTYPE svg PUBLIC "-//W3C//DTD SVG 1.1//EN" "http://www.w3.org/Graphics/SVG/1.1/DTD/svg11.dtd">
<svg xmlns="http://www.w3.org/2000/svg" version="1.1" width="225px" height="225px" style="shape-rendering:geometricPrecision; text-rendering:geometricPrecision; image-rendering:optimizeQuality; fill-rule:evenodd; clip-rule:evenodd" xmlns:xlink="http://www.w3.org/1999/xlink">
<g><path style="opacity:1" fill="#fdfcfc" d="M -0.5,-0.5 C 74.5,-0.5 149.5,-0.5 224.5,-0.5C 224.5,68.8333 224.5,138.167 224.5,207.5C 213.779,205.116 202.779,203.616 191.5,203C 190.167,202 188.833,201 187.5,200C 177.114,199.633 166.614,199.8 156,200.5C 152.834,199.833 150,198.5 147.5,196.5C 150.075,191.682 150.741,186.349 149.5,180.5C 151.467,180.261 153.301,180.594 155,181.5C 155.464,180.906 155.631,180.239 155.5,179.5C 157.028,179.483 157.528,178.816 157,177.5C 153.581,174.588 150.748,171.254 148.5,167.5C 144.797,159.607 141.463,151.607 138.5,143.5C 138.296,140.482 137.963,137.482 137.5,134.5C 139.553,134.598 141.22,133.931 142.5,132.5C 143.302,131.048 143.802,129.382 144,127.5C 144.995,126.934 145.828,126.267 146.5,125.5C 147.147,118.748 148.147,111.915 149.5,105C 149.262,100.618 147.262,97.4516 143.5,95.5C 143.5,95.1667 143.5,94.8333 143.5,94.5C 141.648,90.6302 139.648,86.7969 137.5,83C 135.557,83.3052 133.557,83.3052 131.5,83C 129.807,81.287 128.474,79.287 127.5,77C 125.866,76.5065 124.199,76.3398 122.5,76.5C 122.082,75.7784 121.416,75.2784 120.5,75C 121.056,74.6174 121.389,74.1174 121.5,73.5C 123.5,72.1667 125.5,70.8333 127.5,69.5C 127.5,69.1667 127.5,68.8333 127.5,68.5C 130.014,66.503 132.681,64.8363 135.5,63.5C 135.833,63.5 136.167,63.5 136.5,63.5C 138.017,61.5379 138.684,59.2046 138.5,56.5C 138.994,53.3424 137.994,51.0091 135.5,49.5C 136.639,46.9963 137.306,44.3297 137.5,41.5C 138.693,41.0296 139.36,40.0296 139.5,38.5C 138.992,29.6578 134.326,24.6578 125.5,23.5C 125.5,21.8333 125.5,20.1667 125.5,18.5C 124.5,18.5 123.5,18.5 122.5,18.5C 122.5,17.5 122.5,16.5 122.5,15.5C 118.989,16.4868 115.656,16.4868 112.5,15.5C 112.167,15.3333 111.833,15.1667 111.5,15C 113.007,14.1627 113.507,12.9961 113,11.5C 111.008,12.3281 109.508,13.6614 108.5,15.5C 107.833,16.8333 107.167,18.1667 106.5,19.5C 105.2,18.8921 103.867,18.2255 102.5,17.5C 100.833,18.8333 99.1667,20.1667 97.5,21.5C 93.9982,22.0111 90.6649,22.6778 87.5,23.5C 85.2843,24.2026 83.451,25.5359 82,27.5C 79.3605,31.4442 77.8605,35.7775 77.5,40.5C 77.5,40.8333 77.5,41.1667 77.5,41.5C 76.4265,42.2506 76.2599,43.2506 77,44.5C 77.3333,44.1667 77.6667,43.8333 78,43.5C 78.4169,44.756 79.2502,45.4226 80.5,45.5C 80.8925,47.2838 81.5592,48.9505 82.5,50.5C 82.1788,52.0481 81.1788,52.7148 79.5,52.5C 79.1164,56.4885 79.783,60.1552 81.5,63.5C 81.9528,64.4584 82.6195,65.2917 83.5,66C 86.5044,66.1173 89.171,66.9507 91.5,68.5C 94.2558,71.3891 97.5891,73.5558 101.5,75C 100.429,75.8518 99.4293,76.6851 98.5,77.5C 95.5491,77.2872 92.8825,77.9539 90.5,79.5C 89.5041,79.4142 88.6708,79.7476 88,80.5C 86.0732,85.4277 82.5732,88.5944 77.5,90C 75.7866,91.3782 74.4533,93.0448 73.5,95C 69.0505,97.034 66.3838,100.534 65.5,105.5C 66.001,107.836 67.001,109.836 68.5,111.5C 70.9355,114.374 72.2688,117.707 72.5,121.5C 72.8674,125.201 74.8674,127.201 78.5,127.5C 78.8333,127.5 79.1667,127.5 79.5,127.5C 79.8079,131.009 81.8079,132.676 85.5,132.5C 85.7863,134.277 86.4529,135.944 87.5,137.5C 86.5123,140.782 85.8457,144.115 85.5,147.5C 79.8108,154.015 79.1441,161.015 83.5,168.5C 83.369,169.239 83.5357,169.906 84,170.5C 85.0491,168.382 86.5491,166.716 88.5,165.5C 88.5,166.833 88.5,168.167 88.5,169.5C 87.3622,172.304 87.1955,175.304 88,178.5C 89.0113,179.337 90.1779,179.67 91.5,179.5C 91.2322,181.099 91.5655,182.432 92.5,183.5C 92.2627,184.791 92.596,185.791 93.5,186.5C 93.665,189.85 93.4983,193.183 93,196.5C 92.0053,197.066 91.172,197.733 90.5,198.5C 89.8333,198.5 89.1667,198.5 88.5,198.5C 88.5,197.5 88.5,196.5 88.5,195.5C 86.1155,195.443 83.7822,195.777 81.5,196.5C 54.284,192.995 26.9507,191.328 -0.5,191.5C -0.5,127.5 -0.5,63.5 -0.5,-0.5 Z"/></g>
<g><path style="opacity:1" fill="#463933" d="M 108.5,15.5 C 109.931,16.0819 111.264,16.9152 112.5,18C 109.751,19.3462 109.417,20.6796 111.5,22C 109.825,22.9853 108.158,23.8186 106.5,24.5C 105.522,24.189 104.855,23.5223 104.5,22.5C 105.612,21.7348 106.279,20.7348 106.5,19.5C 107.167,18.1667 107.833,16.8333 108.5,15.5 Z"/></g>
<g><path style="opacity:1" fill="#705f53" d="M 137.5,41.5 C 136.491,38.9514 135.658,36.2848 135,33.5C 132.457,31.658 130.29,29.4913 128.5,27C 125.258,25.3605 121.924,24.3605 118.5,24C 122.462,25.4436 124.462,28.2769 124.5,32.5C 128.324,33.3354 131.49,35.3354 134,38.5C 134.749,39.635 134.583,40.635 133.5,41.5C 132.376,40.086 131.376,38.586 130.5,37C 129.207,36.51 127.873,36.3433 126.5,36.5C 123.707,33.9033 121.707,30.7366 120.5,27C 119.833,26.3333 119.167,26.3333 118.5,27C 119.554,28.3876 119.72,29.8876 119,31.5C 116.485,26.3187 112.319,23.9854 106.5,24.5C 108.158,23.8186 109.825,22.9853 111.5,22C 109.417,20.6796 109.751,19.3462 112.5,18C 111.264,16.9152 109.931,16.0819 108.5,15.5C 109.508,13.6614 111.008,12.3281 113,11.5C 113.507,12.9961 113.007,14.1627 111.5,15C 111.833,15.1667 112.167,15.3333 112.5,15.5C 115.656,16.4868 118.989,16.4868 122.5,15.5C 122.5,16.5 122.5,17.5 122.5,18.5C 123.5,18.5 124.5,18.5 125.5,18.5C 125.5,20.1667 125.5,21.8333 125.5,23.5C 134.326,24.6578 138.992,29.6578 139.5,38.5C 139.36,40.0296 138.693,41.0296 137.5,41.5 Z"/></g>
<g><path style="opacity:1" fill="#6d6260" d="M 106.5,19.5 C 106.279,20.7348 105.612,21.7348 104.5,22.5C 104.855,23.5223 105.522,24.189 106.5,24.5C 106.963,28.3525 105.463,29.0192 102,26.5C 101.617,27.056 101.117,27.3893 100.5,27.5C 99.7281,26.3065 98.7281,25.3065 97.5,24.5C 97.0069,22.5096 95.8402,22.5096 94,24.5C 91.9592,23.5769 89.7925,23.2436 87.5,23.5C 90.6649,22.6778 93.9982,22.0111 97.5,21.5C 99.1667,20.1667 100.833,18.8333 102.5,17.5C 103.867,18.2255 105.2,18.8921 106.5,19.5 Z"/></g>
<g><path style="opacity:1" fill="#362b25" d="M 106.5,24.5 C 112.319,23.9854 116.485,26.3187 119,31.5C 119.72,29.8876 119.554,28.3876 118.5,27C 119.167,26.3333 119.833,26.3333 120.5,27C 121.707,30.7366 123.707,33.9033 126.5,36.5C 124.62,36.2291 123.287,36.8958 122.5,38.5C 121.833,38.5 121.167,38.5 120.5,38.5C 119.833,38.5 119.5,38.1667 119.5,37.5C 114.11,34.6935 108.443,32.1935 102.5,30C 101.619,29.2917 100.953,28.4584 100.5,27.5C 101.117,27.3893 101.617,27.056 102,26.5C 105.463,29.0192 106.963,28.3525 106.5,24.5 Z"/></g>
<g><path style="opacity:1" fill="#1b130d" d="M 97.5,24.5 C 98.7281,25.3065 99.7281,26.3065 100.5,27.5C 100.953,28.4584 101.619,29.2917 102.5,30C 108.443,32.1935 114.11,34.6935 119.5,37.5C 116.833,38.8333 114.167,38.8333 111.5,37.5C 107.633,34.3982 103.3,32.0649 98.5,30.5C 97.5344,28.604 97.2011,26.604 97.5,24.5 Z"/></g>
<g><path style="opacity:1" fill="#3b2518" d="M 137.5,41.5 C 137.306,44.3297 136.639,46.9963 135.5,49.5C 134.442,50.6002 133.608,51.9336 133,53.5C 132.465,50.031 131.298,47.031 129.5,44.5C 129.158,43.6618 128.492,43.3284 127.5,43.5C 126.027,41.6053 124.36,39.9387 122.5,38.5C 123.287,36.8958 124.62,36.2291 126.5,36.5C 127.873,36.3433 129.207,36.51 130.5,37C 131.376,38.586 132.376,40.086 133.5,41.5C 134.583,40.635 134.749,39.635 134,38.5C 131.49,35.3354 128.324,33.3354 124.5,32.5C 124.462,28.2769 122.462,25.4436 118.5,24C 121.924,24.3605 125.258,25.3605 128.5,27C 130.29,29.4913 132.457,31.658 135,33.5C 135.658,36.2848 136.491,38.9514 137.5,41.5 Z"/></g>
<g><path style="opacity:1" fill="#514946" d="M 97.5,24.5 C 97.2011,26.604 97.5344,28.604 98.5,30.5C 103.3,32.0649 107.633,34.3982 111.5,37.5C 110.833,37.5 110.167,37.5 109.5,37.5C 108.828,36.7326 107.995,36.0659 107,35.5C 103.126,36.357 98.9595,36.5237 94.5,36C 93.2986,35.0975 92.4652,33.9308 92,32.5C 91.0796,35.9937 92.2463,38.327 95.5,39.5C 95.5,40.1667 95.5,40.8333 95.5,41.5C 93.1925,42.7633 91.8592,44.7633 91.5,47.5C 91.1667,47.5 90.8333,47.5 90.5,47.5C 90.5,46.5 90.5,45.5 90.5,44.5C 91.2344,43.1225 91.9011,41.6225 92.5,40C 90.9512,38.786 89.7845,37.286 89,35.5C 88.5046,38.5314 88.6713,41.5314 89.5,44.5C 89.1667,44.5 88.8333,44.5 88.5,44.5C 83.8529,39.72 84.1862,34.8867 89.5,30C 86.5061,30.3584 84.6728,32.1917 84,35.5C 81.6744,37.0657 79.5078,38.7324 77.5,40.5C 77.8605,35.7775 79.3605,31.4442 82,27.5C 83.451,25.5359 85.2843,24.2026 87.5,23.5C 89.7925,23.2436 91.9592,23.5769 94,24.5C 95.8402,22.5096 97.0069,22.5096 97.5,24.5 Z"/></g>
<g><path style="opacity:1" fill="#2e241e" d="M 109.5,37.5 C 104.662,37.9114 99.9949,38.5781 95.5,39.5C 92.2463,38.327 91.0796,35.9937 92,32.5C 92.4652,33.9308 93.2986,35.0975 94.5,36C 98.9595,36.5237 103.126,36.357 107,35.5C 107.995,36.0659 108.828,36.7326 109.5,37.5 Z"/></g>
<g><path style="opacity:1" fill="#221410" d="M 90.5,44.5 C 90.1667,44.5 89.8333,44.5 89.5,44.5C 88.6713,41.5314 88.5046,38.5314 89,35.5C 89.7845,37.286 90.9512,38.786 92.5,40C 91.9011,41.6225 91.2344,43.1225 90.5,44.5 Z"/></g>
<g><path style="opacity:1" fill="#583227" d="M 109.5,37.5 C 110.167,37.5 110.833,37.5 111.5,37.5C 114.167,38.8333 116.833,38.8333 119.5,37.5C 119.5,38.1667 119.833,38.5 120.5,38.5C 120.5,39.5 120.5,40.5 120.5,41.5C 117.753,41.1866 115.086,41.52 112.5,42.5C 114.969,43.1681 117.302,43.8347 119.5,44.5C 116.833,44.5 114.167,44.5 111.5,44.5C 111.5,42.8333 111.5,41.1667 111.5,39.5C 108.5,39.8333 106.833,41.5 106.5,44.5C 106.167,44.5 105.833,44.5 105.5,44.5C 105.762,43.0222 105.429,41.6888 104.5,40.5C 101.579,41.4066 98.5788,41.7399 95.5,41.5C 95.5,40.8333 95.5,40.1667 95.5,39.5C 99.9949,38.5781 104.662,37.9114 109.5,37.5 Z"/></g>
<g><path style="opacity:1" fill="#2e140b" d="M 120.5,41.5 C 123.061,41.4469 125.061,42.4469 126.5,44.5C 124.345,44.838 122.011,44.838 119.5,44.5C 117.302,43.8347 114.969,43.1681 112.5,42.5C 115.086,41.52 117.753,41.1866 120.5,41.5 Z"/></g>
<g><path style="opacity:1" fill="#8a8787" d="M 77.5,41.5 C 78.1894,42.7736 79.0228,42.7736 80,41.5C 80.49,42.7932 80.6567,44.1266 80.5,45.5C 79.2502,45.4226 78.4169,44.756 78,43.5C 77.6667,43.8333 77.3333,44.1667 77,44.5C 76.2599,43.2506 76.4265,42.2506 77.5,41.5 Z"/></g>
<g><path style="opacity:1" fill="#291207" d="M 105.5,44.5 C 100.48,44.0408 95.8134,45.0408 91.5,47.5C 91.8592,44.7633 93.1925,42.7633 95.5,41.5C 98.5788,41.7399 101.579,41.4066 104.5,40.5C 105.429,41.6888 105.762,43.0222 105.5,44.5 Z"/></g>
<g><path style="opacity:1" fill="#28211e" d="M 88.5,44.5 C 87.962,46.1172 87.6287,47.7839 87.5,49.5C 86.8354,51.3691 86.1687,53.3691 85.5,55.5C 84.3037,53.8554 83.3037,52.1887 82.5,50.5C 81.5592,48.9505 80.8925,47.2838 80.5,45.5C 80.6567,44.1266 80.49,42.7932 80,41.5C 79.0228,42.7736 78.1894,42.7736 77.5,41.5C 77.5,41.1667 77.5,40.8333 77.5,40.5C 79.5078,38.7324 81.6744,37.0657 84,35.5C 84.6728,32.1917 86.5061,30.3584 89.5,30C 84.1862,34.8867 83.8529,39.72 88.5,44.5 Z"/></g>
<g><path style="opacity:1" fill="#845648" d="M 105.5,44.5 C 105.833,44.5 106.167,44.5 106.5,44.5C 106.519,49.0623 105.686,53.3957 104,57.5C 103.722,56.5842 103.222,55.9175 102.5,55.5C 100.069,54.2591 100.069,53.0924 102.5,52C 100.861,50.4807 99.1942,50.314 97.5,51.5C 97.1034,50.475 96.4368,50.3083 95.5,51C 94.4178,52.3297 93.7512,53.8297 93.5,55.5C 93.6309,56.3764 93.2975,57.0431 92.5,57.5C 89.8422,54.844 89.8422,52.1773 92.5,49.5C 92.1543,48.3044 91.6543,48.3044 91,49.5C 90.5357,48.9056 90.369,48.2389 90.5,47.5C 90.8333,47.5 91.1667,47.5 91.5,47.5C 95.8134,45.0408 100.48,44.0408 105.5,44.5 Z"/></g>
<g><path style="opacity:1" fill="#b77553" d="M 120.5,38.5 C 121.167,38.5 121.833,38.5 122.5,38.5C 124.36,39.9387 126.027,41.6053 127.5,43.5C 127.374,45.1998 126.707,46.6998 125.5,48C 126.414,49.4064 127.08,50.9064 127.5,52.5C 126.883,52.6107 126.383,52.944 126,53.5C 124.748,51.9991 123.748,50.3325 123,48.5C 120.541,49.6489 118.041,49.6489 115.5,48.5C 115.5,47.5 115.5,46.5 115.5,45.5C 113.901,45.7678 112.568,45.4345 111.5,44.5C 114.167,44.5 116.833,44.5 119.5,44.5C 122.011,44.838 124.345,44.838 126.5,44.5C 125.061,42.4469 123.061,41.4469 120.5,41.5C 120.5,40.5 120.5,39.5 120.5,38.5 Z"/></g>
<g><path style="opacity:1" fill="#1a0f0c" d="M 102.5,55.5 C 101.081,56.4511 99.4147,56.7845 97.5,56.5C 96.1667,54.8333 96.1667,53.1667 97.5,51.5C 99.1942,50.314 100.861,50.4807 102.5,52C 100.069,53.0924 100.069,54.2591 102.5,55.5 Z"/></g>
<g><path style="opacity:1" fill="#dfc6bd" d="M 97.5,51.5 C 96.1667,53.1667 96.1667,54.8333 97.5,56.5C 97.1583,57.3382 96.4916,57.6716 95.5,57.5C 95.1667,56.5 94.5,55.8333 93.5,55.5C 93.7512,53.8297 94.4178,52.3297 95.5,51C 96.4368,50.3083 97.1034,50.475 97.5,51.5 Z"/></g>
<g><path style="opacity:1" fill="#eaac79" d="M 129.5,44.5 C 131.298,47.031 132.465,50.031 133,53.5C 133.608,51.9336 134.442,50.6002 135.5,49.5C 137.994,51.0091 138.994,53.3424 138.5,56.5C 138.684,59.2046 138.017,61.5379 136.5,63.5C 137.553,60.1485 137.553,56.8151 136.5,53.5C 134.082,54.7294 133.082,56.7294 133.5,59.5C 133.585,61.3328 134.252,62.6661 135.5,63.5C 132.681,64.8363 130.014,66.503 127.5,68.5C 127.366,66.7085 127.699,65.0418 128.5,63.5C 129.586,63.38 130.253,62.7133 130.5,61.5C 129.592,55.8748 129.258,50.2081 129.5,44.5 Z"/></g>
<g><path style="opacity:1" fill="#d0978a" d="M 88.5,44.5 C 88.8333,44.5 89.1667,44.5 89.5,44.5C 89.8333,44.5 90.1667,44.5 90.5,44.5C 90.5,45.5 90.5,46.5 90.5,47.5C 90.369,48.2389 90.5357,48.9056 91,49.5C 91.6543,48.3044 92.1543,48.3044 92.5,49.5C 89.8422,52.1773 89.8422,54.844 92.5,57.5C 93.2975,57.0431 93.6309,56.3764 93.5,55.5C 94.5,55.8333 95.1667,56.5 95.5,57.5C 94.791,58.404 93.791,58.7373 92.5,58.5C 92.5,60.1667 92.5,61.8333 92.5,63.5C 92.6347,64.9806 92.3014,66.6473 91.5,68.5C 89.171,66.9507 86.5044,66.1173 83.5,66C 82.6195,65.2917 81.9528,64.4584 81.5,63.5C 84.8332,64.1667 86.8332,62.8333 87.5,59.5C 87.1803,56.2855 87.1803,52.9521 87.5,49.5C 87.6287,47.7839 87.962,46.1172 88.5,44.5 Z"/></g>
<g><path style="opacity:1" fill="#f4a468" d="M 127.5,43.5 C 128.492,43.3284 129.158,43.6618 129.5,44.5C 129.258,50.2081 129.592,55.8748 130.5,61.5C 130.253,62.7133 129.586,63.38 128.5,63.5C 127.844,62.7222 127.011,62.0556 126,61.5C 121.696,61.0413 117.53,61.5413 113.5,63C 113.833,62.6667 114.167,62.3333 114.5,62C 112.373,60.9486 110.707,59.4486 109.5,57.5C 110.63,55.0017 110.63,52.6684 109.5,50.5C 109.579,49.0695 109.246,47.7362 108.5,46.5C 109.005,45.0815 110.005,44.4148 111.5,44.5C 112.568,45.4345 113.901,45.7678 115.5,45.5C 115.5,46.5 115.5,47.5 115.5,48.5C 113.73,58.135 117.396,60.8017 126.5,56.5C 127.429,55.3112 127.762,53.9778 127.5,52.5C 127.08,50.9064 126.414,49.4064 125.5,48C 126.707,46.6998 127.374,45.1998 127.5,43.5 Z"/></g>
<g><path style="opacity:1" fill="#d8a485" d="M 115.5,48.5 C 118.041,49.6489 120.541,49.6489 123,48.5C 123.748,50.3325 124.748,51.9991 126,53.5C 126.383,52.944 126.883,52.6107 127.5,52.5C 127.762,53.9778 127.429,55.3112 126.5,56.5C 117.396,60.8017 113.73,58.135 115.5,48.5 Z"/></g>
<g><path style="opacity:1" fill="#21130c" d="M 117.5,50.5 C 118.873,50.3433 120.207,50.51 121.5,51C 121.5,52.6667 121.5,54.3333 121.5,56C 116.728,56.8104 115.395,54.9771 117.5,50.5 Z"/></g>
<g><path style="opacity:1" fill="#c0716d" d="M 87.5,49.5 C 87.1803,52.9521 87.1803,56.2855 87.5,59.5C 86.8332,62.8333 84.8332,64.1667 81.5,63.5C 79.783,60.1552 79.1164,56.4885 79.5,52.5C 81.1788,52.7148 82.1788,52.0481 82.5,50.5C 83.3037,52.1887 84.3037,53.8554 85.5,55.5C 86.1687,53.3691 86.8354,51.3691 87.5,49.5 Z"/></g>
<g><path style="opacity:1" fill="#f89d5b" d="M 136.5,63.5 C 136.167,63.5 135.833,63.5 135.5,63.5C 134.252,62.6661 133.585,61.3328 133.5,59.5C 133.082,56.7294 134.082,54.7294 136.5,53.5C 137.553,56.8151 137.553,60.1485 136.5,63.5 Z"/></g>
<g><path style="opacity:1" fill="#c47d60" d="M 111.5,44.5 C 110.005,44.4148 109.005,45.0815 108.5,46.5C 109.246,47.7362 109.579,49.0695 109.5,50.5C 108.097,53.9085 107.43,57.5752 107.5,61.5C 102.725,63.1473 97.7249,63.814 92.5,63.5C 92.5,61.8333 92.5,60.1667 92.5,58.5C 93.791,58.7373 94.791,58.404 95.5,57.5C 96.4916,57.6716 97.1583,57.3382 97.5,56.5C 99.4147,56.7845 101.081,56.4511 102.5,55.5C 103.222,55.9175 103.722,56.5842 104,57.5C 105.686,53.3957 106.519,49.0623 106.5,44.5C 106.833,41.5 108.5,39.8333 111.5,39.5C 111.5,41.1667 111.5,42.8333 111.5,44.5 Z"/></g>
<g><path style="opacity:1" fill="#d98854" d="M 109.5,50.5 C 110.63,52.6684 110.63,55.0017 109.5,57.5C 110.707,59.4486 112.373,60.9486 114.5,62C 114.167,62.3333 113.833,62.6667 113.5,63C 117.53,61.5413 121.696,61.0413 126,61.5C 127.011,62.0556 127.844,62.7222 128.5,63.5C 127.699,65.0418 127.366,66.7085 127.5,68.5C 127.5,68.8333 127.5,69.1667 127.5,69.5C 123.039,70.0322 118.706,71.0322 114.5,72.5C 114.528,70.4176 113.861,68.5843 112.5,67C 112.833,66.6667 113.167,66.3333 113.5,66C 112.584,65.7216 111.918,65.2216 111.5,64.5C 112.598,63.603 112.598,62.7697 111.5,62C 110.207,61.51 108.873,61.3433 107.5,61.5C 107.43,57.5752 108.097,53.9085 109.5,50.5 Z"/></g>
<g><path style="opacity:1" fill="#b1764f" d="M 111.5,64.5 C 111.918,65.2216 112.584,65.7216 113.5,66C 113.167,66.3333 112.833,66.6667 112.5,67C 113.861,68.5843 114.528,70.4176 114.5,72.5C 118.706,71.0322 123.039,70.0322 127.5,69.5C 125.5,70.8333 123.5,72.1667 121.5,73.5C 119.847,73.6596 118.514,74.3263 117.5,75.5C 114.029,74.7998 112.029,72.7998 111.5,69.5C 108.833,69.5 106.167,69.5 103.5,69.5C 103.5,68.1667 103.5,66.8333 103.5,65.5C 105.144,65.2865 106.644,65.6198 108,66.5C 108.71,65.0267 109.876,64.3601 111.5,64.5 Z"/></g>
<g><path style="opacity:1" fill="#9d5945" d="M 107.5,61.5 C 108.873,61.3433 110.207,61.51 111.5,62C 112.598,62.7697 112.598,63.603 111.5,64.5C 109.876,64.3601 108.71,65.0267 108,66.5C 106.644,65.6198 105.144,65.2865 103.5,65.5C 103.5,66.8333 103.5,68.1667 103.5,69.5C 106.167,69.5 108.833,69.5 111.5,69.5C 112.029,72.7998 114.029,74.7998 117.5,75.5C 118.239,75.369 118.906,75.5357 119.5,76C 116.968,77.7653 114.301,79.2653 111.5,80.5C 111.574,78.5891 112.574,77.4224 114.5,77C 111.11,76.7537 107.777,76.2537 104.5,75.5C 102.677,76.7472 100.677,77.4139 98.5,77.5C 99.4293,76.6851 100.429,75.8518 101.5,75C 97.5891,73.5558 94.2558,71.3891 91.5,68.5C 92.3014,66.6473 92.6347,64.9806 92.5,63.5C 97.7249,63.814 102.725,63.1473 107.5,61.5 Z"/></g>
<g><path style="opacity:1" fill="#92261d" d="M 111.5,80.5 C 105.83,83.3328 100.497,86.6661 95.5,90.5C 94.8857,86.8648 94.5524,83.1981 94.5,79.5C 96.4832,79.8432 97.8166,79.1765 98.5,77.5C 100.677,77.4139 102.677,76.7472 104.5,75.5C 107.777,76.2537 111.11,76.7537 114.5,77C 112.574,77.4224 111.574,78.5891 111.5,80.5 Z"/></g>
<g><path style="opacity:1" fill="#f6e8ce" d="M 122.5,76.5 C 124.199,76.3398 125.866,76.5065 127.5,77C 128.474,79.287 129.807,81.287 131.5,83C 133.557,83.3052 135.557,83.3052 137.5,83C 139.648,86.7969 141.648,90.6302 143.5,94.5C 141.519,92.6969 139.352,91.0303 137,89.5C 135.348,90.3994 133.848,91.3994 132.5,92.5C 131.167,93.1667 130.167,94.1667 129.5,95.5C 128.508,95.3284 127.842,95.6618 127.5,96.5C 125.02,97.242 122.687,98.242 120.5,99.5C 114.001,97.2929 112.668,93.1262 116.5,87C 116.043,86.586 115.709,86.086 115.5,85.5C 117.53,83.393 119.697,81.393 122,79.5C 122.483,78.552 122.649,77.552 122.5,76.5 Z"/></g>
<g><path style="opacity:1" fill="#e0cbb2" d="M 121.5,73.5 C 121.389,74.1174 121.056,74.6174 120.5,75C 121.416,75.2784 122.082,75.7784 122.5,76.5C 122.649,77.552 122.483,78.552 122,79.5C 119.697,81.393 117.53,83.393 115.5,85.5C 115.709,86.086 116.043,86.586 116.5,87C 112.668,93.1262 114.001,97.2929 120.5,99.5C 118.434,101.199 116.1,102.532 113.5,103.5C 111.744,102.448 111.077,100.781 111.5,98.5C 108.813,98.6641 106.146,98.4974 103.5,98C 107.223,96.6349 107.223,94.9683 103.5,93C 100.883,92.1785 98.2165,91.6785 95.5,91.5C 95.5,91.1667 95.5,90.8333 95.5,90.5C 100.497,86.6661 105.83,83.3328 111.5,80.5C 114.301,79.2653 116.968,77.7653 119.5,76C 118.906,75.5357 118.239,75.369 117.5,75.5C 118.514,74.3263 119.847,73.6596 121.5,73.5 Z"/></g>
<g><path style="opacity:1" fill="#7f4c3c" d="M 93.5,93.5 C 91.7779,95.8888 89.7779,97.8888 87.5,99.5C 84.386,101.965 81.0527,103.965 77.5,105.5C 76.8333,105.167 76.1667,104.833 75.5,104.5C 75.2965,102.61 75.9632,101.11 77.5,100C 80.171,100.806 82.8377,100.639 85.5,99.5C 85.1667,96.5 86.5,95.1667 89.5,95.5C 89.2275,93.0418 90.2275,91.3751 92.5,90.5C 93.3857,91.325 93.719,92.325 93.5,93.5 Z"/></g>
<g><path style="opacity:1" fill="#ae4926" d="M 132.5,92.5 C 134.407,94.5972 136.241,96.9306 138,99.5C 139.42,101.422 141.253,102.755 143.5,103.5C 143.376,104.107 143.043,104.44 142.5,104.5C 141.292,105.234 139.959,105.567 138.5,105.5C 135.891,104.557 133.891,102.89 132.5,100.5C 132.223,98.2719 131.223,96.6053 129.5,95.5C 130.167,94.1667 131.167,93.1667 132.5,92.5 Z"/></g>
<g><path style="opacity:1" fill="#d2a797" d="M 90.5,79.5 C 90.6602,81.1992 90.4935,82.8659 90,84.5C 83.5324,89.1522 77.3658,94.1522 71.5,99.5C 69.9826,99.5106 68.8159,100.177 68,101.5C 67.6124,104.849 67.7791,108.183 68.5,111.5C 67.001,109.836 66.001,107.836 65.5,105.5C 66.3838,100.534 69.0505,97.034 73.5,95C 74.4533,93.0448 75.7866,91.3782 77.5,90C 82.5732,88.5944 86.0732,85.4277 88,80.5C 88.6708,79.7476 89.5041,79.4142 90.5,79.5 Z"/></g>
<g><path style="opacity:1" fill="#b46b4e" d="M 98.5,77.5 C 97.8166,79.1765 96.4832,79.8432 94.5,79.5C 94.5524,83.1981 94.8857,86.8648 95.5,90.5C 95.5,90.8333 95.5,91.1667 95.5,91.5C 94.8333,92.1667 94.1667,92.8333 93.5,93.5C 93.719,92.325 93.3857,91.325 92.5,90.5C 90.2275,91.3751 89.2275,93.0418 89.5,95.5C 86.5,95.1667 85.1667,96.5 85.5,99.5C 82.8377,100.639 80.171,100.806 77.5,100C 75.9632,101.11 75.2965,102.61 75.5,104.5C 74.1667,103.167 72.8333,101.833 71.5,100.5C 71.5,100.167 71.5,99.8333 71.5,99.5C 77.3658,94.1522 83.5324,89.1522 90,84.5C 90.4935,82.8659 90.6602,81.1992 90.5,79.5C 92.8825,77.9539 95.5491,77.2872 98.5,77.5 Z"/></g>
<g><path style="opacity:1" fill="#ee9c5c" d="M 143.5,94.5 C 143.5,94.8333 143.5,95.1667 143.5,95.5C 145.178,102.635 145.845,109.968 145.5,117.5C 144.272,116.694 143.272,115.694 142.5,114.5C 142.5,111.167 142.5,107.833 142.5,104.5C 143.043,104.44 143.376,104.107 143.5,103.5C 141.253,102.755 139.42,101.422 138,99.5C 136.241,96.9306 134.407,94.5972 132.5,92.5C 133.848,91.3994 135.348,90.3994 137,89.5C 139.352,91.0303 141.519,92.6969 143.5,94.5 Z"/></g>
<g><path style="opacity:1" fill="#f8f4f0" d="M 87.5,99.5 C 87.5,100.833 87.5,102.167 87.5,103.5C 93.4771,104.052 95.4771,106.719 93.5,111.5C 93.1417,114.689 92.475,117.689 91.5,120.5C 86.5596,121.365 82.893,119.699 80.5,115.5C 79.7104,112.075 78.7104,108.742 77.5,105.5C 81.0527,103.965 84.386,101.965 87.5,99.5 Z"/></g>
<g><path style="opacity:1" fill="#b8aca7" d="M 95.5,91.5 C 98.2165,91.6785 100.883,92.1785 103.5,93C 107.223,94.9683 107.223,96.6349 103.5,98C 106.146,98.4974 108.813,98.6641 111.5,98.5C 111.077,100.781 111.744,102.448 113.5,103.5C 112.833,104.167 112.167,104.833 111.5,105.5C 106.335,108.012 101.001,110.012 95.5,111.5C 94.8333,111.5 94.1667,111.5 93.5,111.5C 95.4771,106.719 93.4771,104.052 87.5,103.5C 87.5,102.167 87.5,100.833 87.5,99.5C 89.7779,97.8888 91.7779,95.8888 93.5,93.5C 94.1667,92.8333 94.8333,92.1667 95.5,91.5 Z"/></g>
<g><path style="opacity:1" fill="#eebb88" d="M 143.5,95.5 C 147.262,97.4516 149.262,100.618 149.5,105C 148.147,111.915 147.147,118.748 146.5,125.5C 146.599,122.763 146.265,120.096 145.5,117.5C 145.845,109.968 145.178,102.635 143.5,95.5 Z"/></g>
<g><path style="opacity:1" fill="#ca8256" d="M 71.5,100.5 C 72.8333,101.833 74.1667,103.167 75.5,104.5C 76.1667,104.833 76.8333,105.167 77.5,105.5C 78.7104,108.742 79.7104,112.075 80.5,115.5C 82.893,119.699 86.5596,121.365 91.5,120.5C 91.3284,121.492 91.6618,122.158 92.5,122.5C 94.5314,124.249 94.8647,126.249 93.5,128.5C 91.5284,130.319 89.1951,131.319 86.5,131.5C 84.8791,129.058 82.5458,127.725 79.5,127.5C 79.1667,127.5 78.8333,127.5 78.5,127.5C 78.7512,125.83 79.4178,124.33 80.5,123C 79.0721,121.11 77.0721,119.943 74.5,119.5C 75.34,115.089 74.1733,111.423 71,108.5C 70.3988,106.863 69.8988,105.197 69.5,103.5C 69.4534,101.962 70.1201,100.962 71.5,100.5 Z"/></g>
<g><path style="opacity:1" fill="#e55b32" d="M 129.5,95.5 C 131.223,96.6053 132.223,98.2719 132.5,100.5C 131.662,100.842 131.328,101.508 131.5,102.5C 130.585,108.866 130.918,115.199 132.5,121.5C 130.245,120.785 128.412,119.452 127,117.5C 126.329,118.252 125.496,118.586 124.5,118.5C 124.5,117.5 124.5,116.5 124.5,115.5C 120.153,115.058 119.82,114.225 123.5,113C 116.067,106.566 117.067,102.066 126.5,99.5C 127.386,98.675 127.719,97.675 127.5,96.5C 127.842,95.6618 128.508,95.3284 129.5,95.5 Z"/></g>
<g><path style="opacity:1" fill="#7e281b" d="M 111.5,105.5 C 111.079,107.91 109.746,109.743 107.5,111C 108.833,111.333 110.167,111.667 111.5,112C 106.81,113.063 102.144,114.23 97.5,115.5C 94.6524,115.139 93.9857,113.806 95.5,111.5C 101.001,110.012 106.335,108.012 111.5,105.5 Z"/></g>
<g><path style="opacity:1" fill="#ac7961" d="M 71.5,99.5 C 71.5,99.8333 71.5,100.167 71.5,100.5C 70.1201,100.962 69.4534,101.962 69.5,103.5C 69.8988,105.197 70.3988,106.863 71,108.5C 74.1733,111.423 75.34,115.089 74.5,119.5C 74.1667,120.5 73.5,121.167 72.5,121.5C 72.2688,117.707 70.9355,114.374 68.5,111.5C 67.7791,108.183 67.6124,104.849 68,101.5C 68.8159,100.177 69.9826,99.5106 71.5,99.5 Z"/></g>
<g><path style="opacity:1" fill="#f4e4d4" d="M 132.5,100.5 C 133.891,102.89 135.891,104.557 138.5,105.5C 138.5,108.5 138.5,111.5 138.5,114.5C 137.953,116.485 136.953,118.151 135.5,119.5C 134.351,119.209 133.684,118.376 133.5,117C 132.213,113.161 132.213,109.328 133.5,105.5C 133.547,103.962 132.88,102.962 131.5,102.5C 131.328,101.508 131.662,100.842 132.5,100.5 Z"/></g>
<g><path style="opacity:1" fill="#d97b51" d="M 142.5,104.5 C 142.5,107.833 142.5,111.167 142.5,114.5C 141.298,115.405 139.964,115.405 138.5,114.5C 138.5,111.5 138.5,108.5 138.5,105.5C 139.959,105.567 141.292,105.234 142.5,104.5 Z"/></g>
<g><path style="opacity:1" fill="#b43822" d="M 127.5,96.5 C 127.719,97.675 127.386,98.675 126.5,99.5C 117.067,102.066 116.067,106.566 123.5,113C 119.82,114.225 120.153,115.058 124.5,115.5C 124.5,116.5 124.5,117.5 124.5,118.5C 120.24,119.585 115.906,120.252 111.5,120.5C 111.5,121.5 111.5,122.5 111.5,123.5C 114.812,123.993 117.979,124.993 121,126.5C 125.178,125.206 129.345,125.206 133.5,126.5C 134.833,125.833 136.167,125.167 137.5,124.5C 139.197,126.553 140.531,128.887 141.5,131.5C 140.292,132.234 138.959,132.567 137.5,132.5C 137.5,130.833 137.5,129.167 137.5,127.5C 135.517,127.157 134.183,127.824 133.5,129.5C 131.833,129.5 130.167,129.5 128.5,129.5C 128.5,131.167 128.5,132.833 128.5,134.5C 128.167,134.5 127.833,134.5 127.5,134.5C 125.75,133.13 123.75,132.13 121.5,131.5C 114.46,129.751 108.126,126.584 102.5,122C 98.9733,121.192 95.6399,121.359 92.5,122.5C 91.6618,122.158 91.3284,121.492 91.5,120.5C 92.475,117.689 93.1417,114.689 93.5,111.5C 94.1667,111.5 94.8333,111.5 95.5,111.5C 93.9857,113.806 94.6524,115.139 97.5,115.5C 102.144,114.23 106.81,113.063 111.5,112C 110.167,111.667 108.833,111.333 107.5,111C 109.746,109.743 111.079,107.91 111.5,105.5C 112.167,104.833 112.833,104.167 113.5,103.5C 116.1,102.532 118.434,101.199 120.5,99.5C 122.687,98.242 125.02,97.242 127.5,96.5 Z"/></g>
<g><path style="opacity:1" fill="#e37559" d="M 131.5,102.5 C 132.88,102.962 133.547,103.962 133.5,105.5C 132.213,109.328 132.213,113.161 133.5,117C 133.684,118.376 134.351,119.209 135.5,119.5C 135.5,120.167 135.833,120.5 136.5,120.5C 136.433,121.959 136.766,123.292 137.5,124.5C 136.167,125.167 134.833,125.833 133.5,126.5C 133.784,124.585 133.451,122.919 132.5,121.5C 130.918,115.199 130.585,108.866 131.5,102.5 Z"/></g>
<g><path style="opacity:1" fill="#b06f2f" d="M 138.5,114.5 C 139.964,115.405 141.298,115.405 142.5,114.5C 143.272,115.694 144.272,116.694 145.5,117.5C 146.265,120.096 146.599,122.763 146.5,125.5C 144.739,122.586 142.072,120.586 138.5,119.5C 137.817,119.863 137.15,120.196 136.5,120.5C 135.833,120.5 135.5,120.167 135.5,119.5C 136.953,118.151 137.953,116.485 138.5,114.5 Z"/></g>
<g><path style="opacity:1" fill="#f6b377" d="M 146.5,125.5 C 145.828,126.267 144.995,126.934 144,127.5C 143.802,129.382 143.302,131.048 142.5,132.5C 142.5,131.833 142.167,131.5 141.5,131.5C 140.531,128.887 139.197,126.553 137.5,124.5C 136.766,123.292 136.433,121.959 136.5,120.5C 137.15,120.196 137.817,119.863 138.5,119.5C 142.072,120.586 144.739,122.586 146.5,125.5 Z"/></g>
<g><path style="opacity:1" fill="#d6441f" d="M 132.5,121.5 C 133.451,122.919 133.784,124.585 133.5,126.5C 129.345,125.206 125.178,125.206 121,126.5C 117.979,124.993 114.812,123.993 111.5,123.5C 111.5,122.5 111.5,121.5 111.5,120.5C 115.906,120.252 120.24,119.585 124.5,118.5C 125.496,118.586 126.329,118.252 127,117.5C 128.412,119.452 130.245,120.785 132.5,121.5 Z"/></g>
<g><path style="opacity:1" fill="#744624" d="M 74.5,119.5 C 77.0721,119.943 79.0721,121.11 80.5,123C 79.4178,124.33 78.7512,125.83 78.5,127.5C 74.8674,127.201 72.8674,125.201 72.5,121.5C 73.5,121.167 74.1667,120.5 74.5,119.5 Z"/></g>
<g><path style="opacity:1" fill="#70190b" d="M 121.5,131.5 C 120.07,132.537 118.403,133.204 116.5,133.5C 113.788,133.263 111.288,133.263 109,133.5C 107.708,131.751 106.542,129.918 105.5,128C 103.527,127.505 101.527,127.338 99.5,127.5C 99.8333,129.5 100.167,131.5 100.5,133.5C 100.5,134.167 100.167,134.5 99.5,134.5C 99.5674,133.041 99.2341,131.708 98.5,130.5C 97.7494,129.427 96.7494,129.26 95.5,130C 94.4766,132.897 92.6433,135.064 90,136.5C 91.1661,133.963 92.3328,131.297 93.5,128.5C 94.8647,126.249 94.5314,124.249 92.5,122.5C 95.6399,121.359 98.9733,121.192 102.5,122C 108.126,126.584 114.46,129.751 121.5,131.5 Z"/></g>
<g><path style="opacity:1" fill="#882a1b" d="M 141.5,131.5 C 142.167,131.5 142.5,131.833 142.5,132.5C 141.22,133.931 139.553,134.598 137.5,134.5C 135.469,133.461 134.136,131.795 133.5,129.5C 134.183,127.824 135.517,127.157 137.5,127.5C 137.5,129.167 137.5,130.833 137.5,132.5C 138.959,132.567 140.292,132.234 141.5,131.5 Z"/></g>
<g><path style="opacity:1" fill="#b23520" d="M 116.5,133.5 C 117.504,134.683 118.338,136.016 119,137.5C 120.084,146.558 122.251,155.225 125.5,163.5C 122.212,160.221 120.212,156.221 119.5,151.5C 119.44,147.713 118.106,144.546 115.5,142C 116.233,140.234 116.567,138.401 116.5,136.5C 105.377,136.002 103.544,140.335 111,149.5C 111.494,151.134 111.66,152.801 111.5,154.5C 110.182,153.243 108.849,151.909 107.5,150.5C 105.308,144.675 102.974,139.008 100.5,133.5C 100.167,131.5 99.8333,129.5 99.5,127.5C 101.527,127.338 103.527,127.505 105.5,128C 106.542,129.918 107.708,131.751 109,133.5C 111.288,133.263 113.788,133.263 116.5,133.5 Z"/></g>
<g><path style="opacity:1" fill="#f05f35" d="M 133.5,129.5 C 134.136,131.795 135.469,133.461 137.5,134.5C 137.963,137.482 138.296,140.482 138.5,143.5C 138.863,146.563 139.53,149.563 140.5,152.5C 140.48,153.726 140.147,154.726 139.5,155.5C 136.394,148.161 132.727,141.161 128.5,134.5C 128.5,132.833 128.5,131.167 128.5,129.5C 130.167,129.5 131.833,129.5 133.5,129.5 Z"/></g>
<g><path style="opacity:1" fill="#ae6c5d" d="M 79.5,127.5 C 82.5458,127.725 84.8791,129.058 86.5,131.5C 88.9811,136.366 89.1478,141.366 87,146.5C 86.6174,147.056 86.1174,147.389 85.5,147.5C 85.8457,144.115 86.5123,140.782 87.5,137.5C 86.4529,135.944 85.7863,134.277 85.5,132.5C 81.8079,132.676 79.8079,131.009 79.5,127.5 Z"/></g>
<g><path style="opacity:1" fill="#c2371b" d="M 119.5,151.5 C 118.163,150.685 117.163,149.518 116.5,148C 115.551,147.383 114.718,147.549 114,148.5C 114.337,152.079 114.504,155.746 114.5,159.5C 113.36,157.955 112.36,156.288 111.5,154.5C 111.66,152.801 111.494,151.134 111,149.5C 103.544,140.335 105.377,136.002 116.5,136.5C 116.567,138.401 116.233,140.234 115.5,142C 118.106,144.546 119.44,147.713 119.5,151.5 Z"/></g>
<g><path style="opacity:1" fill="#b13d31" d="M 98.5,130.5 C 99.2341,131.708 99.5674,133.041 99.5,134.5C 100.167,137.5 100.833,140.5 101.5,143.5C 100.5,143.5 99.5,143.5 98.5,143.5C 99.0841,140.017 98.2508,137.017 96,134.5C 95.3333,138.833 95.3333,143.167 96,147.5C 97.5588,149.217 98.3921,151.217 98.5,153.5C 96.9124,152.359 95.5791,150.859 94.5,149C 91.7202,148.731 89.5536,149.898 88,152.5C 86.0961,155.923 85.2628,159.59 85.5,163.5C 84.5,163.5 83.5,163.5 82.5,163.5C 83.156,155.856 86.656,149.856 93,145.5C 93.3333,142.167 93.6667,138.833 94,135.5C 94.6556,133.014 96.1556,131.347 98.5,130.5 Z"/></g>
<g><path style="opacity:1" fill="#8b2a1e" d="M 93.5,128.5 C 92.3328,131.297 91.1661,133.963 90,136.5C 92.6433,135.064 94.4766,132.897 95.5,130C 96.7494,129.26 97.7494,129.427 98.5,130.5C 96.1556,131.347 94.6556,133.014 94,135.5C 93.6667,138.833 93.3333,142.167 93,145.5C 86.656,149.856 83.156,155.856 82.5,163.5C 83.5,163.5 84.5,163.5 85.5,163.5C 85.2041,165.403 84.5375,167.07 83.5,168.5C 79.1441,161.015 79.8108,154.015 85.5,147.5C 86.1174,147.389 86.6174,147.056 87,146.5C 89.1478,141.366 88.9811,136.366 86.5,131.5C 89.1951,131.319 91.5284,130.319 93.5,128.5 Z"/></g>
<g><path style="opacity:1" fill="#711c13" d="M 98.5,153.5 C 98.5,154.167 98.5,154.833 98.5,155.5C 97.5041,155.586 96.6708,155.252 96,154.5C 94.8909,158.189 93.7243,161.855 92.5,165.5C 91.675,166.386 90.675,166.719 89.5,166.5C 89.5,165.833 89.1667,165.5 88.5,165.5C 86.5491,166.716 85.0491,168.382 84,170.5C 83.5357,169.906 83.369,169.239 83.5,168.5C 84.5375,167.07 85.2041,165.403 85.5,163.5C 85.2628,159.59 86.0961,155.923 88,152.5C 89.5536,149.898 91.7202,148.731 94.5,149C 95.5791,150.859 96.9124,152.359 98.5,153.5 Z"/></g>
<g><path style="opacity:1" fill="#c64028" d="M 101.5,143.5 C 105.617,154.69 110.784,165.357 117,175.5C 117.495,177.473 117.662,179.473 117.5,181.5C 117.5,181.833 117.5,182.167 117.5,182.5C 116.833,182.5 116.167,182.5 115.5,182.5C 114.397,178.657 112.73,174.991 110.5,171.5C 106.67,167.792 103.336,163.792 100.5,159.5C 99.8333,158.167 99.1667,156.833 98.5,155.5C 98.5,154.833 98.5,154.167 98.5,153.5C 98.3921,151.217 97.5588,149.217 96,147.5C 95.3333,143.167 95.3333,138.833 96,134.5C 98.2508,137.017 99.0841,140.017 98.5,143.5C 99.5,143.5 100.5,143.5 101.5,143.5 Z"/></g>
<g><path style="opacity:1" fill="#e77252" d="M 138.5,143.5 C 141.463,151.607 144.797,159.607 148.5,167.5C 147.504,167.586 146.671,167.252 146,166.5C 143.579,162.954 141.412,159.287 139.5,155.5C 140.147,154.726 140.48,153.726 140.5,152.5C 139.53,149.563 138.863,146.563 138.5,143.5 Z"/></g>
<g><path style="opacity:1" fill="#921c0b" d="M 127.5,134.5 C 127.833,134.5 128.167,134.5 128.5,134.5C 132.727,141.161 136.394,148.161 139.5,155.5C 141.412,159.287 143.579,162.954 146,166.5C 146.671,167.252 147.504,167.586 148.5,167.5C 150.748,171.254 153.581,174.588 157,177.5C 157.528,178.816 157.028,179.483 155.5,179.5C 152.351,179.585 149.684,178.585 147.5,176.5C 146.602,175.842 145.602,175.176 144.5,174.5C 138.045,161.458 132.378,148.125 127.5,134.5 Z"/></g>
<g><path style="opacity:1" fill="#80180c" d="M 100.5,133.5 C 102.974,139.008 105.308,144.675 107.5,150.5C 108.849,151.909 110.182,153.243 111.5,154.5C 112.36,156.288 113.36,157.955 114.5,159.5C 117.411,165.082 120.744,170.415 124.5,175.5C 124.167,175.5 123.833,175.5 123.5,175.5C 122.167,175.5 120.833,175.5 119.5,175.5C 119.405,177.786 118.738,179.786 117.5,181.5C 117.662,179.473 117.495,177.473 117,175.5C 110.784,165.357 105.617,154.69 101.5,143.5C 100.833,140.5 100.167,137.5 99.5,134.5C 100.167,134.5 100.5,134.167 100.5,133.5 Z"/></g>
<g><path style="opacity:1" fill="#8d1507" d="M 121.5,131.5 C 123.75,132.13 125.75,133.13 127.5,134.5C 124.756,133.795 122.089,133.795 119.5,134.5C 120.792,136.667 121.625,139 122,141.5C 125.978,150.126 129.978,158.793 134,167.5C 137.12,173.43 140.953,178.763 145.5,183.5C 147.129,185.196 146.796,186.196 144.5,186.5C 141.426,182.922 138.093,179.422 134.5,176C 133.552,175.517 132.552,175.351 131.5,175.5C 131.657,174.127 131.49,172.793 131,171.5C 128.946,168.953 127.113,166.286 125.5,163.5C 122.251,155.225 120.084,146.558 119,137.5C 118.338,136.016 117.504,134.683 116.5,133.5C 118.403,133.204 120.07,132.537 121.5,131.5 Z"/></g>
<g><path style="opacity:1" fill="#e2542e" d="M 127.5,134.5 C 132.378,148.125 138.045,161.458 144.5,174.5C 145.602,175.176 146.602,175.842 147.5,176.5C 147.167,176.5 146.833,176.5 146.5,176.5C 146.317,178.821 145.984,181.154 145.5,183.5C 140.953,178.763 137.12,173.43 134,167.5C 129.978,158.793 125.978,150.126 122,141.5C 121.625,139 120.792,136.667 119.5,134.5C 122.089,133.795 124.756,133.795 127.5,134.5 Z"/></g>
<g><path style="opacity:1" fill="#d94c28" d="M 119.5,151.5 C 120.212,156.221 122.212,160.221 125.5,163.5C 127.113,166.286 128.946,168.953 131,171.5C 131.49,172.793 131.657,174.127 131.5,175.5C 132.552,175.351 133.552,175.517 134.5,176C 138.093,179.422 141.426,182.922 144.5,186.5C 143.5,186.5 142.5,186.5 141.5,186.5C 138.673,185.892 136.007,184.892 133.5,183.5C 132.027,182.26 130.36,181.26 128.5,180.5C 127.548,178.955 127.215,177.288 127.5,175.5C 126.5,175.5 125.5,175.5 124.5,175.5C 120.744,170.415 117.411,165.082 114.5,159.5C 114.504,155.746 114.337,152.079 114,148.5C 114.718,147.549 115.551,147.383 116.5,148C 117.163,149.518 118.163,150.685 119.5,151.5 Z"/></g>
<g><path style="opacity:1" fill="#9c2b1a" d="M 100.5,159.5 C 103.336,163.792 106.67,167.792 110.5,171.5C 112.73,174.991 114.397,178.657 115.5,182.5C 112.448,179.785 109.115,177.451 105.5,175.5C 104.414,175.38 103.747,174.713 103.5,173.5C 102.867,168.719 101.867,164.052 100.5,159.5 Z"/></g>
<g><path style="opacity:1" fill="#897a75" d="M 94.5,180.5 C 93.5386,182.265 93.2053,184.265 93.5,186.5C 92.596,185.791 92.2627,184.791 92.5,183.5C 92.5708,180.861 93.5708,178.694 95.5,177C 94.6406,172.978 92.3072,170.478 88.5,169.5C 88.5,168.167 88.5,166.833 88.5,165.5C 89.1667,165.5 89.5,165.833 89.5,166.5C 89.4701,167.497 89.9701,168.164 91,168.5C 93.0989,167.713 95.2655,167.38 97.5,167.5C 97.1615,162.633 98.3282,162.299 101,166.5C 101.829,171.137 102.329,175.804 102.5,180.5C 99.8333,180.5 97.1667,180.5 94.5,180.5 Z"/></g>
<g><path style="opacity:1" fill="#9e9b99" d="M 88.5,169.5 C 92.3072,170.478 94.6406,172.978 95.5,177C 93.5708,178.694 92.5708,180.861 92.5,183.5C 91.5655,182.432 91.2322,181.099 91.5,179.5C 90.1779,179.67 89.0113,179.337 88,178.5C 87.1955,175.304 87.3622,172.304 88.5,169.5 Z"/></g>
<g><path style="opacity:1" fill="#7e5e56" d="M 98.5,155.5 C 99.1667,156.833 99.8333,158.167 100.5,159.5C 101.867,164.052 102.867,168.719 103.5,173.5C 103.747,174.713 104.414,175.38 105.5,175.5C 106.45,178.115 108.117,180.115 110.5,181.5C 108.05,181.298 105.717,181.631 103.5,182.5C 100.5,181.833 97.5,181.167 94.5,180.5C 97.1667,180.5 99.8333,180.5 102.5,180.5C 102.329,175.804 101.829,171.137 101,166.5C 98.3282,162.299 97.1615,162.633 97.5,167.5C 95.2655,167.38 93.0989,167.713 91,168.5C 89.9701,168.164 89.4701,167.497 89.5,166.5C 90.675,166.719 91.675,166.386 92.5,165.5C 93.7243,161.855 94.8909,158.189 96,154.5C 96.6708,155.252 97.5041,155.586 98.5,155.5 Z"/></g>
<g><path style="opacity:1" fill="#6d5647" d="M 123.5,175.5 C 123.79,178.785 123.123,181.785 121.5,184.5C 120.849,183.909 120.182,183.243 119.5,182.5C 118.828,183.949 118.161,185.282 117.5,186.5C 117.5,185.167 117.5,183.833 117.5,182.5C 117.5,182.167 117.5,181.833 117.5,181.5C 118.738,179.786 119.405,177.786 119.5,175.5C 120.833,175.5 122.167,175.5 123.5,175.5 Z"/></g>
<g><path style="opacity:1" fill="#7f3127" d="M 105.5,175.5 C 109.115,177.451 112.448,179.785 115.5,182.5C 116.167,182.5 116.833,182.5 117.5,182.5C 117.5,183.833 117.5,185.167 117.5,186.5C 117.565,186.938 117.399,187.272 117,187.5C 114.937,185.266 112.771,183.266 110.5,181.5C 108.117,180.115 106.45,178.115 105.5,175.5 Z"/></g>
<g><path style="opacity:1" fill="#c75f52" d="M 146.5,176.5 C 148.283,180.634 149.283,184.967 149.5,189.5C 146.458,189.267 143.792,188.267 141.5,186.5C 142.5,186.5 143.5,186.5 144.5,186.5C 146.796,186.196 147.129,185.196 145.5,183.5C 145.984,181.154 146.317,178.821 146.5,176.5 Z"/></g>
<g><path style="opacity:1" fill="#783e28" d="M 123.5,175.5 C 123.833,175.5 124.167,175.5 124.5,175.5C 125.5,175.5 126.5,175.5 127.5,175.5C 127.215,177.288 127.548,178.955 128.5,180.5C 130.36,181.26 132.027,182.26 133.5,183.5C 133.5,187.5 133.5,191.5 133.5,195.5C 132.167,197.833 132.167,200.167 133.5,202.5C 129.686,200.626 127.686,197.626 127.5,193.5C 128.978,193.762 130.311,193.429 131.5,192.5C 129.257,191.526 126.924,191.192 124.5,191.5C 124.167,191.5 123.833,191.5 123.5,191.5C 123.122,189.079 122.455,186.746 121.5,184.5C 123.123,181.785 123.79,178.785 123.5,175.5 Z"/></g>
<g><path style="opacity:1" fill="#733f2c" d="M 94.5,180.5 C 97.5,181.167 100.5,181.833 103.5,182.5C 102.833,185.5 102.167,188.5 101.5,191.5C 100.935,193.42 99.9348,195.087 98.5,196.5C 96.3826,193.385 94.7159,190.052 93.5,186.5C 93.2053,184.265 93.5386,182.265 94.5,180.5 Z"/></g>
<g><path style="opacity:1" fill="#f8f4f0" d="M 110.5,181.5 C 112.771,183.266 114.937,185.266 117,187.5C 117.399,187.272 117.565,186.938 117.5,186.5C 118.161,185.282 118.828,183.949 119.5,182.5C 120.182,183.243 120.849,183.909 121.5,184.5C 122.455,186.746 123.122,189.079 123.5,191.5C 123.5,195.167 123.5,198.833 123.5,202.5C 116.595,201.669 109.762,201.669 103,202.5C 102.768,201.263 102.268,200.263 101.5,199.5C 101.5,196.833 101.5,194.167 101.5,191.5C 102.167,188.5 102.833,185.5 103.5,182.5C 105.717,181.631 108.05,181.298 110.5,181.5 Z"/></g>
<g><path style="opacity:1" fill="#dcdadc" d="M 88.5,198.5 C 89.1667,198.5 89.8333,198.5 90.5,198.5C 89.5,199.833 88.5,201.167 87.5,202.5C 84.6787,202.316 83.0121,203.649 82.5,206.5C 81.675,207.386 80.675,207.719 79.5,207.5C 79.5,208.833 79.5,210.167 79.5,211.5C 87.2118,211.903 94.8785,212.236 102.5,212.5C 100.401,213.612 98.0673,214.279 95.5,214.5C 95.5299,213.503 95.0299,212.836 94,212.5C 87.4198,216.035 80.5865,215.535 73.5,211C 52.3648,208.892 31.3648,206.059 10.5,202.5C 12.5257,200.714 14.6923,200.381 17,201.5C 22.5798,200.075 22.0798,199.241 15.5,199C 38.3083,197.078 60.975,197.578 83.5,200.5C 85.3002,200.098 86.9668,199.431 88.5,198.5 Z"/></g>
<g><path style="opacity:1" fill="#eea160" d="M 143.5,200.5 C 144.79,203.124 146.79,205.124 149.5,206.5C 147.604,207.466 145.604,207.799 143.5,207.5C 141.389,205.783 139.722,203.616 138.5,201C 138.833,200.5 139.167,200 139.5,199.5C 140.736,200.246 142.07,200.579 143.5,200.5 Z"/></g>
<g><path style="opacity:1" fill="#d48563" d="M 93.5,186.5 C 94.7159,190.052 96.3826,193.385 98.5,196.5C 99.6371,200.382 99.6371,204.216 98.5,208C 96.5594,208.743 94.7261,208.576 93,207.5C 90.4625,209.836 87.6292,210.17 84.5,208.5C 84.0283,205.642 85.0283,203.642 87.5,202.5C 88.5,201.167 89.5,199.833 90.5,198.5C 91.172,197.733 92.0053,197.066 93,196.5C 93.4983,193.183 93.665,189.85 93.5,186.5 Z"/></g>
<g><path style="opacity:1" fill="#d4c6c0" d="M 123.5,191.5 C 123.833,191.5 124.167,191.5 124.5,191.5C 124.5,195.5 124.5,199.5 124.5,203.5C 117.018,204.492 109.352,204.825 101.5,204.5C 101.5,202.833 101.5,201.167 101.5,199.5C 102.268,200.263 102.768,201.263 103,202.5C 109.762,201.669 116.595,201.669 123.5,202.5C 123.5,198.833 123.5,195.167 123.5,191.5 Z"/></g>
<g><path style="opacity:1" fill="#865344" d="M 124.5,191.5 C 126.924,191.192 129.257,191.526 131.5,192.5C 130.311,193.429 128.978,193.762 127.5,193.5C 127.686,197.626 129.686,200.626 133.5,202.5C 135.619,203.738 137.619,205.238 139.5,207C 140.793,207.49 142.127,207.657 143.5,207.5C 145.167,208.167 146.833,208.833 148.5,209.5C 141.417,209.553 134.417,208.886 127.5,207.5C 126.341,206.26 125.341,204.926 124.5,203.5C 124.5,199.5 124.5,195.5 124.5,191.5 Z"/></g>
<g><path style="opacity:1" fill="#c88056" d="M 133.5,195.5 C 136.833,196.833 140.167,198.167 143.5,199.5C 143.5,199.833 143.5,200.167 143.5,200.5C 142.07,200.579 140.736,200.246 139.5,199.5C 139.167,200 138.833,200.5 138.5,201C 139.722,203.616 141.389,205.783 143.5,207.5C 142.127,207.657 140.793,207.49 139.5,207C 137.619,205.238 135.619,203.738 133.5,202.5C 132.167,200.167 132.167,197.833 133.5,195.5 Z"/></g>
<g><path style="opacity:1" fill="#f6f0ec" d="M 146.5,176.5 C 146.833,176.5 147.167,176.5 147.5,176.5C 149.684,178.585 152.351,179.585 155.5,179.5C 155.631,180.239 155.464,180.906 155,181.5C 153.301,180.594 151.467,180.261 149.5,180.5C 150.741,186.349 150.075,191.682 147.5,196.5C 150,198.5 152.834,199.833 156,200.5C 166.614,199.8 177.114,199.633 187.5,200C 188.833,201 190.167,202 191.5,203C 202.779,203.616 213.779,205.116 224.5,207.5C 224.5,213.167 224.5,218.833 224.5,224.5C 149.5,224.5 74.5,224.5 -0.5,224.5C -0.5,218.833 -0.5,213.167 -0.5,207.5C 10.2398,207.284 20.9065,207.951 31.5,209.5C 31.5,210.5 31.5,211.5 31.5,212.5C 34.7877,212.927 37.7877,212.26 40.5,210.5C 43.777,211.254 47.1103,211.754 50.5,212C 50.8333,212.333 51.1667,212.667 51.5,213C 49.6079,213.973 47.6079,214.64 45.5,215C 47.1066,216.049 47.7733,217.549 47.5,219.5C 60.922,220.121 74.2553,220.455 87.5,220.5C 89.7981,220.268 91.9647,219.601 94,218.5C 95.4651,219.33 96.9651,219.496 98.5,219C 98.1667,218.667 97.8333,218.333 97.5,218C 98.3081,217.692 98.9747,217.192 99.5,216.5C 98.0508,215.828 96.7175,215.161 95.5,214.5C 98.0673,214.279 100.401,213.612 102.5,212.5C 104.379,211.659 106.379,211.325 108.5,211.5C 108.5,212.5 108.5,213.5 108.5,214.5C 114.8,213.793 121.133,213.293 127.5,213C 129.909,212.252 132.075,211.085 134,209.5C 142.63,212.32 151.13,211.987 159.5,208.5C 156.084,207.25 153.417,205.083 151.5,202C 148.92,200.856 146.253,200.022 143.5,199.5C 140.167,198.167 136.833,196.833 133.5,195.5C 133.5,191.5 133.5,187.5 133.5,183.5C 136.007,184.892 138.673,185.892 141.5,186.5C 143.792,188.267 146.458,189.267 149.5,189.5C 149.283,184.967 148.283,180.634 146.5,176.5 Z"/></g>
<g><path style="opacity:1" fill="#deab86" d="M 143.5,200.5 C 146.849,201.259 149.682,202.926 152,205.5C 152.509,208.138 151.342,209.472 148.5,209.5C 146.833,208.833 145.167,208.167 143.5,207.5C 145.604,207.799 147.604,207.466 149.5,206.5C 146.79,205.124 144.79,203.124 143.5,200.5 Z"/></g>
<g><path style="opacity:1" fill="#ece8e9" d="M -0.5,191.5 C 26.9507,191.328 54.284,192.995 81.5,196.5C 83.7822,195.777 86.1155,195.443 88.5,195.5C 88.5,196.5 88.5,197.5 88.5,198.5C 86.9668,199.431 85.3002,200.098 83.5,200.5C 60.975,197.578 38.3083,197.078 15.5,199C 22.0798,199.241 22.5798,200.075 17,201.5C 14.6923,200.381 12.5257,200.714 10.5,202.5C 31.3648,206.059 52.3648,208.892 73.5,211C 80.5865,215.535 87.4198,216.035 94,212.5C 95.0299,212.836 95.5299,213.503 95.5,214.5C 96.7175,215.161 98.0508,215.828 99.5,216.5C 98.9747,217.192 98.3081,217.692 97.5,218C 97.8333,218.333 98.1667,218.667 98.5,219C 96.9651,219.496 95.4651,219.33 94,218.5C 91.9647,219.601 89.7981,220.268 87.5,220.5C 74.2553,220.455 60.922,220.121 47.5,219.5C 47.7733,217.549 47.1066,216.049 45.5,215C 47.6079,214.64 49.6079,213.973 51.5,213C 51.1667,212.667 50.8333,212.333 50.5,212C 47.1103,211.754 43.777,211.254 40.5,210.5C 37.7877,212.26 34.7877,212.927 31.5,212.5C 31.5,211.5 31.5,210.5 31.5,209.5C 20.9065,207.951 10.2398,207.284 -0.5,207.5C -0.5,202.167 -0.5,196.833 -0.5,191.5 Z"/></g>
<g><path style="opacity:1" fill="#ae7d66" d="M 101.5,191.5 C 101.5,194.167 101.5,196.833 101.5,199.5C 101.5,201.167 101.5,202.833 101.5,204.5C 102.826,206.195 102.493,207.528 100.5,208.5C 100.389,209.117 100.056,209.617 99.5,210C 93.3877,210.909 87.3877,210.576 81.5,209C 82.448,208.517 83.448,208.351 84.5,208.5C 87.6292,210.17 90.4625,209.836 93,207.5C 94.7261,208.576 96.5594,208.743 98.5,208C 99.6371,204.216 99.6371,200.382 98.5,196.5C 99.9348,195.087 100.935,193.42 101.5,191.5 Z"/></g>
<g><path style="opacity:1" fill="#e5d3c8" d="M 143.5,200.5 C 143.5,200.167 143.5,199.833 143.5,199.5C 146.253,200.022 148.92,200.856 151.5,202C 153.417,205.083 156.084,207.25 159.5,208.5C 151.13,211.987 142.63,212.32 134,209.5C 132.075,211.085 129.909,212.252 127.5,213C 121.133,213.293 114.8,213.793 108.5,214.5C 108.5,213.5 108.5,212.5 108.5,211.5C 106.379,211.325 104.379,211.659 102.5,212.5C 94.8785,212.236 87.2118,211.903 79.5,211.5C 79.5,210.167 79.5,208.833 79.5,207.5C 80.675,207.719 81.675,207.386 82.5,206.5C 83.0121,203.649 84.6787,202.316 87.5,202.5C 85.0283,203.642 84.0283,205.642 84.5,208.5C 83.448,208.351 82.448,208.517 81.5,209C 87.3877,210.576 93.3877,210.909 99.5,210C 100.056,209.617 100.389,209.117 100.5,208.5C 109.528,208.68 118.528,208.347 127.5,207.5C 134.417,208.886 141.417,209.553 148.5,209.5C 151.342,209.472 152.509,208.138 152,205.5C 149.682,202.926 146.849,201.259 143.5,200.5 Z"/></g>
<g><path style="opacity:1" fill="#9b8b86" d="M 124.5,203.5 C 125.341,204.926 126.341,206.26 127.5,207.5C 118.528,208.347 109.528,208.68 100.5,208.5C 102.493,207.528 102.826,206.195 101.5,204.5C 109.352,204.825 117.018,204.492 124.5,203.5 Z"/></g>
</svg>
