<?xml version="1.0" encoding="UTF-8"?>
<!DOCTYPE svg PUBLIC "-//W3C//DTD SVG 1.1//EN" "http://www.w3.org/Graphics/SVG/1.1/DTD/svg11.dtd">
<svg xmlns="http://www.w3.org/2000/svg" version="1.1" width="485px" height="501px" style="shape-rendering:geometricPrecision; text-rendering:geometricPrecision; image-rendering:optimizeQuality; fill-rule:evenodd; clip-rule:evenodd" xmlns:xlink="http://www.w3.org/1999/xlink">
<g><path style="opacity:1" fill="#2e7fd8" d="M -0.5,-0.5 C 26.8333,-0.5 54.1667,-0.5 81.5,-0.5C 82.2178,1.13676 82.3845,2.80343 82,4.5C 79.7202,5.08639 77.5535,5.91972 75.5,7C 81.7635,13.5651 88.0968,20.0651 94.5,26.5C 95.9406,29.7248 95.6073,32.7248 93.5,35.5C 95.1045,37.1789 95.7711,39.1789 95.5,41.5C 92.718,41.2273 90.5513,39.894 89,37.5C 85.7859,38.9897 82.7859,38.6563 80,36.5C 79.59,39.7136 78.09,40.3803 75.5,38.5C 73.5,39 71.5,39.5 69.5,40C 70,40.5 70.5,41 71,41.5C 73.7191,40.5562 76.5525,40.2229 79.5,40.5C 79.5,42.1667 79.5,43.8333 79.5,45.5C 74.4637,47.1616 74.4637,48.495 79.5,49.5C 78.5356,53.7935 79.8689,56.9601 83.5,59C 82.3147,60.353 80.9814,61.5197 79.5,62.5C 92.3234,61.338 97.6567,67.338 95.5,80.5C 99.1185,79.7564 102.785,79.423 106.5,79.5C 106.5,82.1667 106.5,84.8333 106.5,87.5C 109.532,87.1776 111.199,88.511 111.5,91.5C 111.291,92.9945 110.624,94.1612 109.5,95C 110.684,96.1803 111.351,97.6803 111.5,99.5C 110.983,103.357 110.983,107.357 111.5,111.5C 107.268,110.427 103.268,111.094 99.5,113.5C 98.4763,112.147 97.143,111.48 95.5,111.5C 95.5,116.833 95.5,122.167 95.5,127.5C 82.8289,127.667 70.1623,127.5 57.5,127C 56.6753,125.312 55.6753,125.145 54.5,126.5C 52.0213,124.523 49.688,122.356 47.5,120C 46.4092,117.182 46.4092,114.349 47.5,111.5C 46.5,111.5 45.5,111.5 44.5,111.5C 42.7379,117.963 41.4046,117.963 40.5,111.5C 38.857,111.48 37.5237,112.147 36.5,113.5C 31.5,112.167 26.5,110.833 21.5,109.5C 19.8273,111.086 17.8273,111.753 15.5,111.5C 15.2471,109.173 15.9137,107.173 17.5,105.5C 16.5091,103.677 15.1757,102.177 13.5,101C 16.1667,99.3333 16.1667,97.6667 13.5,96C 12.1667,95.3333 10.8333,95.3333 9.5,96C 10.8213,97.5445 10.4879,98.7112 8.5,99.5C 6.51442,96.1573 3.51442,94.824 -0.5,95.5C -0.5,74.1667 -0.5,52.8333 -0.5,31.5C 6.43459,32.2141 7.10126,34.7141 1.5,39C 3.36279,41.364 5.02946,43.864 6.5,46.5C 9.42814,47.4841 12.4281,47.8174 15.5,47.5C 15.3433,48.8734 15.51,50.2068 16,51.5C 18.1851,53.5402 20.6851,54.8736 23.5,55.5C 23.393,57.9032 24.393,59.7365 26.5,61C 29.2045,62.8459 32.2045,64.0126 35.5,64.5C 36.5,65.8333 37.5,67.1667 38.5,68.5C 50.9018,76.081 62.2351,84.9144 72.5,95C 73.9437,95.7805 75.277,95.6139 76.5,94.5C 65.6074,83.1057 53.9407,72.6057 41.5,63C 39.8541,58.8251 36.8541,55.9918 32.5,54.5C 30.9638,50.4612 28.4638,47.1278 25,44.5C 24.5779,42.6447 24.0779,40.8114 23.5,39C 24.7827,36.9951 25.7827,34.8284 26.5,32.5C 25.3112,31.5713 23.9778,31.238 22.5,31.5C 22.5198,29.857 21.8532,28.5237 20.5,27.5C 21.4279,26.2322 21.5946,24.8989 21,23.5C 13.2206,21.3878 8.55391,16.3878 7,8.5C 4.40664,7.25395 1.90664,5.92061 -0.5,4.5C -0.5,2.83333 -0.5,1.16667 -0.5,-0.5 Z"/></g>
<g><path style="opacity:1" fill="#3081db" d="M 81.5,-0.5 C 103.167,-0.5 124.833,-0.5 146.5,-0.5C 148.661,4.69015 151.328,9.69015 154.5,14.5C 156.045,15.4519 157.712,15.7852 159.5,15.5C 159.336,18.1873 159.503,20.854 160,23.5C 162,26.8333 164,30.1667 166,33.5C 168.065,38.0688 169.899,42.7354 171.5,47.5C 169.143,47.3367 166.81,47.5034 164.5,48C 168.877,54.5829 172.877,61.4162 176.5,68.5C 179.757,70.3852 182.59,72.7185 185,75.5C 185.49,76.7932 185.657,78.1266 185.5,79.5C 181.229,81.9731 176.896,84.4731 172.5,87C 169.577,89.4162 167.243,92.2496 165.5,95.5C 161.422,101.365 158.089,107.698 155.5,114.5C 154.5,114.5 153.5,114.5 152.5,114.5C 152.445,118.846 150.612,122.179 147,124.5C 146.761,130.312 144.428,134.979 140,138.5C 137.466,146.007 135.632,153.674 134.5,161.5C 134.5,161.833 134.5,162.167 134.5,162.5C 133.279,163.028 132.113,163.695 131,164.5C 130.87,173.736 129.703,182.736 127.5,191.5C 127.6,194.108 126.933,196.442 125.5,198.5C 122.25,201.474 119.583,204.974 117.5,209C 114.621,213.472 112.621,218.305 111.5,223.5C 107.251,233.553 105.585,244.22 106.5,255.5C 107.007,262.528 107.84,269.528 109,276.5C 110.566,279.752 112.399,282.752 114.5,285.5C 116.501,287.863 118.501,290.196 120.5,292.5C 121.615,296.947 123.948,300.613 127.5,303.5C 127.557,304.609 127.89,305.609 128.5,306.5C 129.63,308.315 130.296,310.315 130.5,312.5C 132.942,322.292 134.775,332.292 136,342.5C 138.125,345.874 139.458,349.54 140,353.5C 141.996,355.905 143.83,358.405 145.5,361C 146.448,361.483 147.448,361.649 148.5,361.5C 150.164,363.679 149.83,365.512 147.5,367C 149.904,367.196 151.571,368.362 152.5,370.5C 151.753,370.736 150.92,371.07 150,371.5C 148.815,369.441 147.648,369.274 146.5,371C 147.723,372.72 148.723,374.553 149.5,376.5C 149.272,378.397 148.272,379.73 146.5,380.5C 145.729,378.138 144.895,375.804 144,373.5C 141.867,375.091 140.201,377.091 139,379.5C 137.883,378.051 137.216,376.384 137,374.5C 135.989,373.663 134.822,373.33 133.5,373.5C 133.297,375.39 133.963,376.89 135.5,378C 134.167,378.667 132.833,378.667 131.5,378C 130.692,376.294 129.359,375.461 127.5,375.5C 124.212,372.517 120.546,370.017 116.5,368C 117.772,365.956 117.439,364.122 115.5,362.5C 113.958,361.253 112.458,361.253 111,362.5C 110.88,355.827 110.88,349.161 111,342.5C 110.808,344.577 110.308,346.577 109.5,348.5C 108.494,348.062 108.494,347.396 109.5,346.5C 108.452,345.452 107.452,344.452 106.5,343.5C 105.778,343.082 105.278,342.416 105,341.5C 104.829,332.99 104.329,324.657 103.5,316.5C 102.413,312.427 99.7464,310.761 95.5,311.5C 89.5095,312.824 85.8428,316.491 84.5,322.5C 83.8354,324.369 83.1687,326.369 82.5,328.5C 80.9309,327.286 80.0976,325.619 80,323.5C 77.5974,324.497 75.2641,324.164 73,322.5C 70.8247,323.625 68.4914,324.292 66,324.5C 62.6606,324.227 59.3273,323.893 56,323.5C 52.7032,323.234 49.8699,324.234 47.5,326.5C 51.5,327.833 51.5,329.167 47.5,330.5C 47.2285,336.438 47.5619,342.438 48.5,348.5C 47.596,349.209 47.2627,350.209 47.5,351.5C 46.3509,351.791 45.6842,352.624 45.5,354C 46.4089,357.466 47.0756,360.966 47.5,364.5C 47.5,365.5 47.5,366.5 47.5,367.5C 46.2749,368.152 45.6083,369.319 45.5,371C 45.3068,373.008 45.9735,374.508 47.5,375.5C 47.5,376.167 47.5,376.833 47.5,377.5C 47.0011,383.069 47.6678,388.403 49.5,393.5C 48.8333,394.833 48.1667,396.167 47.5,397.5C 47.8333,398.167 48.1667,398.833 48.5,399.5C 49.3857,398.675 49.719,397.675 49.5,396.5C 50.8333,396.5 52.1667,396.5 53.5,396.5C 53.281,397.675 53.6143,398.675 54.5,399.5C 58.1078,398.407 61.7745,398.24 65.5,399C 64.8333,399.333 64.1667,399.667 63.5,400C 65.5152,401.555 65.8485,403.389 64.5,405.5C 61.8395,406.892 59.5062,408.726 57.5,411C 56.552,411.483 55.552,411.649 54.5,411.5C 54.67,412.822 54.3366,413.989 53.5,415C 50.3331,416.969 46.9998,418.802 43.5,420.5C 42.9598,421.748 42.2931,422.915 41.5,424C 37.3851,426.448 33.5518,429.281 30,432.5C 29.6667,432.167 29.3333,431.833 29,431.5C 26.8161,433.522 24.9827,435.855 23.5,438.5C 21.0383,439.794 18.7049,441.294 16.5,443C 15.6198,444.356 15.2865,445.856 15.5,447.5C 12.7531,447.187 10.0865,447.52 7.5,448.5C 5.78547,450.874 3.78547,453.04 1.5,455C 3.41332,456.791 5.07999,458.791 6.5,461C 4.55878,463.454 2.22545,465.287 -0.5,466.5C -0.5,342.833 -0.5,219.167 -0.5,95.5C 3.51442,94.824 6.51442,96.1573 8.5,99.5C 10.4879,98.7112 10.8213,97.5445 9.5,96C 10.8333,95.3333 12.1667,95.3333 13.5,96C 16.1667,97.6667 16.1667,99.3333 13.5,101C 15.1757,102.177 16.5091,103.677 17.5,105.5C 15.9137,107.173 15.2471,109.173 15.5,111.5C 17.8273,111.753 19.8273,111.086 21.5,109.5C 26.5,110.833 31.5,112.167 36.5,113.5C 37.5237,112.147 38.857,111.48 40.5,111.5C 41.4046,117.963 42.7379,117.963 44.5,111.5C 45.5,111.5 46.5,111.5 47.5,111.5C 46.4092,114.349 46.4092,117.182 47.5,120C 49.688,122.356 52.0213,124.523 54.5,126.5C 55.6753,125.145 56.6753,125.312 57.5,127C 70.1623,127.5 82.8289,127.667 95.5,127.5C 95.5,122.167 95.5,116.833 95.5,111.5C 97.143,111.48 98.4763,112.147 99.5,113.5C 103.268,111.094 107.268,110.427 111.5,111.5C 110.983,107.357 110.983,103.357 111.5,99.5C 111.351,97.6803 110.684,96.1803 109.5,95C 110.624,94.1612 111.291,92.9945 111.5,91.5C 111.199,88.511 109.532,87.1776 106.5,87.5C 106.5,84.8333 106.5,82.1667 106.5,79.5C 102.785,79.423 99.1185,79.7564 95.5,80.5C 97.6567,67.338 92.3234,61.338 79.5,62.5C 80.9814,61.5197 82.3147,60.353 83.5,59C 79.8689,56.9601 78.5356,53.7935 79.5,49.5C 74.4637,48.495 74.4637,47.1616 79.5,45.5C 79.5,43.8333 79.5,42.1667 79.5,40.5C 76.5525,40.2229 73.7191,40.5562 71,41.5C 70.5,41 70,40.5 69.5,40C 71.5,39.5 73.5,39 75.5,38.5C 78.09,40.3803 79.59,39.7136 80,36.5C 82.7859,38.6563 85.7859,38.9897 89,37.5C 90.5513,39.894 92.718,41.2273 95.5,41.5C 95.7711,39.1789 95.1045,37.1789 93.5,35.5C 95.6073,32.7248 95.9406,29.7248 94.5,26.5C 88.0968,20.0651 81.7635,13.5651 75.5,7C 77.5535,5.91972 79.7202,5.08639 82,4.5C 82.3845,2.80343 82.2178,1.13676 81.5,-0.5 Z"/></g>
<g><path style="opacity:1" fill="#2d77cc" d="M 146.5,-0.5 C 154.5,-0.5 162.5,-0.5 170.5,-0.5C 171.391,2.78863 172.724,5.78863 174.5,8.5C 175.474,10.7427 175.808,13.076 175.5,15.5C 176.552,15.3505 177.552,15.5172 178.5,16C 178.218,18.9107 178.218,21.744 178.5,24.5C 182.052,33.9519 184.719,43.6185 186.5,53.5C 184.194,53.9926 181.861,54.3259 179.5,54.5C 180.281,59.3103 182.115,63.6436 185,67.5C 185.495,69.4727 185.662,71.4727 185.5,73.5C 190.392,73.7741 195.059,73.1074 199.5,71.5C 199.167,72.1667 198.833,72.8333 198.5,73.5C 194.167,75.5 189.833,77.5 185.5,79.5C 185.657,78.1266 185.49,76.7932 185,75.5C 182.59,72.7185 179.757,70.3852 176.5,68.5C 172.877,61.4162 168.877,54.5829 164.5,48C 166.81,47.5034 169.143,47.3367 171.5,47.5C 169.899,42.7354 168.065,38.0688 166,33.5C 164,30.1667 162,26.8333 160,23.5C 159.503,20.854 159.336,18.1873 159.5,15.5C 157.712,15.7852 156.045,15.4519 154.5,14.5C 151.328,9.69015 148.661,4.69015 146.5,-0.5 Z"/></g>
<g><path style="opacity:1" fill="#3080d9" d="M 170.5,-0.5 C 188.167,-0.5 205.833,-0.5 223.5,-0.5C 224.713,5.13685 225.713,10.8035 226.5,16.5C 223.859,15.7369 221.192,15.5702 218.5,16C 223.164,28.1627 227.164,40.6627 230.5,53.5C 227.836,54.3966 225.502,55.73 223.5,57.5C 223.5,57.8333 223.5,58.1667 223.5,58.5C 219.203,59.146 215.203,60.646 211.5,63C 207.898,66.4413 203.898,69.2747 199.5,71.5C 195.059,73.1074 190.392,73.7741 185.5,73.5C 185.662,71.4727 185.495,69.4727 185,67.5C 182.115,63.6436 180.281,59.3103 179.5,54.5C 181.861,54.3259 184.194,53.9926 186.5,53.5C 184.719,43.6185 182.052,33.9519 178.5,24.5C 178.218,21.744 178.218,18.9107 178.5,16C 177.552,15.5172 176.552,15.3505 175.5,15.5C 175.808,13.076 175.474,10.7427 174.5,8.5C 172.724,5.78863 171.391,2.78863 170.5,-0.5 Z"/></g>
<g><path style="opacity:1" fill="#2f80d9" d="M 238.5,-0.5 C 298.833,-0.5 359.167,-0.5 419.5,-0.5C 419.414,0.495904 419.748,1.32924 420.5,2C 419.12,5.98 417.453,9.81334 415.5,13.5C 417.973,15.425 417.973,17.2583 415.5,19C 413.527,19.4955 411.527,19.6621 409.5,19.5C 409.5,20.8333 409.5,22.1667 409.5,23.5C 411.262,23.6427 412.929,23.3094 414.5,22.5C 415.429,23.6888 415.762,25.0222 415.5,26.5C 411.904,26.1664 408.571,24.9998 405.5,23C 404.448,21.2835 405.114,20.2835 407.5,20C 406.128,19.5983 404.795,19.0983 403.5,18.5C 398.155,20.0449 393.155,19.2116 388.5,16C 376.838,15.5001 365.171,15.3335 353.5,15.5C 352.833,15.5 352.167,15.5 351.5,15.5C 348.26,14.1529 344.76,13.4863 341,13.5C 338.134,13.2999 335.634,13.9666 333.5,15.5C 325.833,17.1667 321.167,21.8333 319.5,29.5C 318.662,29.8417 318.328,30.5084 318.5,31.5C 315.967,36.2975 314.633,41.6308 314.5,47.5C 314.167,48.1667 313.833,48.8333 313.5,49.5C 311.674,50.4383 309.841,51.4383 308,52.5C 304.884,51.1534 301.718,49.9867 298.5,49C 280.495,47.0949 262.495,47.0949 244.5,49C 241.124,50.8987 237.457,51.732 233.5,51.5C 233.611,50.8826 233.944,50.3826 234.5,50C 233.342,48.9914 232.675,47.6581 232.5,46C 231.861,39.2335 230.861,32.5668 229.5,26C 232.475,25.9565 235.475,26.1231 238.5,26.5C 238.5,17.5 238.5,8.5 238.5,-0.5 Z"/></g>
<g><path style="opacity:1" fill="#2d7ed7" d="M 431.5,-0.5 C 440.833,-0.5 450.167,-0.5 459.5,-0.5C 454.657,7.19676 449.157,14.5301 443,21.5C 441.711,24.1683 440.544,26.8349 439.5,29.5C 432.561,32.6503 432.895,34.9836 440.5,36.5C 440.579,37.9305 440.246,39.2638 439.5,40.5C 436.452,42.8815 433.785,45.5482 431.5,48.5C 430.194,47.5326 429.527,46.1993 429.5,44.5C 428.5,44.5 427.5,44.5 426.5,44.5C 426.5,44.1667 426.5,43.8333 426.5,43.5C 426.291,42.0783 425.791,40.745 425,39.5C 422.471,36.6412 419.971,33.8079 417.5,31C 420.503,26.3605 423.836,22.6939 427.5,20C 427.849,16.9689 427.849,13.8022 427.5,10.5C 428.174,8.48346 429.341,6.81679 431,5.5C 431.495,3.5273 431.662,1.5273 431.5,-0.5 Z"/></g>
<g><path style="opacity:1" fill="#3188e2" d="M 459.5,-0.5 C 467.833,-0.5 476.167,-0.5 484.5,-0.5C 484.5,0.833333 484.5,2.16667 484.5,3.5C 481.884,4.47978 479.551,5.97978 477.5,8C 468.878,16.634 459.878,24.8006 450.5,32.5C 452.833,33.8333 455.167,35.1667 457.5,36.5C 452.146,41.5217 446.813,46.5217 441.5,51.5C 439.386,52.3602 438.22,54.0268 438,56.5C 437.676,54.4311 436.842,54.0977 435.5,55.5C 434.412,52.9855 433.078,50.6522 431.5,48.5C 433.785,45.5482 436.452,42.8815 439.5,40.5C 440.246,39.2638 440.579,37.9305 440.5,36.5C 432.895,34.9836 432.561,32.6503 439.5,29.5C 440.544,26.8349 441.711,24.1683 443,21.5C 449.157,14.5301 454.657,7.19676 459.5,-0.5 Z"/></g>
<g><path style="opacity:1" fill="#3577c7" d="M 419.5,-0.5 C 423.5,-0.5 427.5,-0.5 431.5,-0.5C 431.662,1.5273 431.495,3.5273 431,5.5C 429.341,6.81679 428.174,8.48346 427.5,10.5C 427.849,13.8022 427.849,16.9689 427.5,20C 423.836,22.6939 420.503,26.3605 417.5,31C 419.971,33.8079 422.471,36.6412 425,39.5C 425.791,40.745 426.291,42.0783 426.5,43.5C 416.738,31.4456 404.404,23.1123 389.5,18.5C 388.391,17.71 387.058,17.21 385.5,17C 374.659,16.8304 363.992,16.3304 353.5,15.5C 365.171,15.3335 376.838,15.5001 388.5,16C 393.155,19.2116 398.155,20.0449 403.5,18.5C 404.795,19.0983 406.128,19.5983 407.5,20C 405.114,20.2835 404.448,21.2835 405.5,23C 408.571,24.9998 411.904,26.1664 415.5,26.5C 415.762,25.0222 415.429,23.6888 414.5,22.5C 412.929,23.3094 411.262,23.6427 409.5,23.5C 409.5,22.1667 409.5,20.8333 409.5,19.5C 411.527,19.6621 413.527,19.4955 415.5,19C 417.973,17.2583 417.973,15.425 415.5,13.5C 417.453,9.81334 419.12,5.98 420.5,2C 419.748,1.32924 419.414,0.495904 419.5,-0.5 Z"/></g>
<g><path style="opacity:1" fill="#252646" d="M 351.5,15.5 C 345.5,15.5 339.5,15.5 333.5,15.5C 335.634,13.9666 338.134,13.2999 341,13.5C 344.76,13.4863 348.26,14.1529 351.5,15.5 Z"/></g>
<g><path style="opacity:1" fill="#2d76c9" d="M 223.5,-0.5 C 228.5,-0.5 233.5,-0.5 238.5,-0.5C 238.5,8.5 238.5,17.5 238.5,26.5C 235.475,26.1231 232.475,25.9565 229.5,26C 230.861,32.5668 231.861,39.2335 232.5,46C 232.675,47.6581 233.342,48.9914 234.5,50C 233.944,50.3826 233.611,50.8826 233.5,51.5C 233.179,53.0481 232.179,53.7148 230.5,53.5C 227.164,40.6627 223.164,28.1627 218.5,16C 221.192,15.5702 223.859,15.7369 226.5,16.5C 225.713,10.8035 224.713,5.13685 223.5,-0.5 Z"/></g>
<g><path style="opacity:1" fill="#251530" d="M 351.5,15.5 C 352.167,15.5 352.833,15.5 353.5,15.5C 363.992,16.3304 374.659,16.8304 385.5,17C 387.058,17.21 388.391,17.71 389.5,18.5C 378.495,18.6665 367.495,18.4998 356.5,18C 354.256,17.9504 352.589,17.1171 351.5,15.5 Z"/></g>
<g><path style="opacity:1" fill="#351016" d="M 333.5,15.5 C 339.5,15.5 345.5,15.5 351.5,15.5C 352.589,17.1171 354.256,17.9504 356.5,18C 367.495,18.4998 378.495,18.6665 389.5,18.5C 396.188,21.8712 402.855,25.5378 409.5,29.5C 410.221,31.686 410.887,33.8526 411.5,36C 414.044,37.092 416.711,37.7586 419.5,38C 423.321,41.4446 424.488,45.6113 423,50.5C 423.908,48.5614 425.408,47.5614 427.5,47.5C 427.684,50.3373 429.018,52.3373 431.5,53.5C 433.391,56.6142 434.724,59.9475 435.5,63.5C 435.022,75.121 435.689,86.621 437.5,98C 438.039,101.833 436.872,105 434,107.5C 433.51,108.793 433.343,110.127 433.5,111.5C 432.833,111.5 432.167,111.5 431.5,111.5C 428.844,113.15 426.178,114.816 423.5,116.5C 421.944,115.453 420.277,114.786 418.5,114.5C 418.449,116.57 419.115,118.403 420.5,120C 419.968,122.02 418.635,122.853 416.5,122.5C 416.649,121.448 416.483,120.448 416,119.5C 416.069,124.079 414.569,125.079 411.5,122.5C 409.931,123.714 409.098,125.381 409,127.5C 407.378,128.099 405.878,128.766 404.5,129.5C 403.833,129.5 403.167,129.5 402.5,129.5C 405.355,126.408 406.188,122.741 405,118.5C 402.628,115.4 399.462,114.067 395.5,114.5C 395.708,112.08 395.374,109.747 394.5,107.5C 391.06,105.777 387.394,105.11 383.5,105.5C 383.5,103.833 383.5,102.167 383.5,100.5C 381.279,96.7228 377.946,95.0561 373.5,95.5C 373.062,88.0653 369.228,85.3986 362,87.5C 361.085,79.5436 356.752,76.5436 349,78.5C 348.55,71.0363 344.716,68.0363 337.5,69.5C 337.391,61.386 333.391,58.0526 325.5,59.5C 326.363,52.4676 323.363,48.4676 316.5,47.5C 319.05,41.9088 320.05,35.9088 319.5,29.5C 321.167,21.8333 325.833,17.1667 333.5,15.5 Z"/></g>
<g><path style="opacity:1" fill="#4473af" d="M 318.5,31.5 C 317.929,36.9245 316.929,42.2579 315.5,47.5C 315.167,47.5 314.833,47.5 314.5,47.5C 314.633,41.6308 315.967,36.2975 318.5,31.5 Z"/></g>
<g><path style="opacity:1" fill="#1d1c3a" d="M 319.5,29.5 C 320.05,35.9088 319.05,41.9088 316.5,47.5C 316.167,47.5 315.833,47.5 315.5,47.5C 316.929,42.2579 317.929,36.9245 318.5,31.5C 318.328,30.5084 318.662,29.8417 319.5,29.5 Z"/></g>
<g><path style="opacity:1" fill="#2d77ca" d="M -0.5,4.5 C 1.90664,5.92061 4.40664,7.25395 7,8.5C 8.55391,16.3878 13.2206,21.3878 21,23.5C 21.5946,24.8989 21.4279,26.2322 20.5,27.5C 21.8532,28.5237 22.5198,29.857 22.5,31.5C 23.9778,31.238 25.3112,31.5713 26.5,32.5C 25.7827,34.8284 24.7827,36.9951 23.5,39C 24.0779,40.8114 24.5779,42.6447 25,44.5C 28.4638,47.1278 30.9638,50.4612 32.5,54.5C 36.8541,55.9918 39.8541,58.8251 41.5,63C 53.9407,72.6057 65.6074,83.1057 76.5,94.5C 75.277,95.6139 73.9437,95.7805 72.5,95C 62.2351,84.9144 50.9018,76.081 38.5,68.5C 37.5,67.1667 36.5,65.8333 35.5,64.5C 32.2045,64.0126 29.2045,62.8459 26.5,61C 24.393,59.7365 23.393,57.9032 23.5,55.5C 20.6851,54.8736 18.1851,53.5402 16,51.5C 15.51,50.2068 15.3433,48.8734 15.5,47.5C 12.4281,47.8174 9.42814,47.4841 6.5,46.5C 5.02946,43.864 3.36279,41.364 1.5,39C 7.10126,34.7141 6.43459,32.2141 -0.5,31.5C -0.5,22.5 -0.5,13.5 -0.5,4.5 Z"/></g>
<g><path style="opacity:1" fill="#29182d" d="M 389.5,18.5 C 404.404,23.1123 416.738,31.4456 426.5,43.5C 426.5,43.8333 426.5,44.1667 426.5,44.5C 428.432,47.3661 430.099,50.3661 431.5,53.5C 429.018,52.3373 427.684,50.3373 427.5,47.5C 425.408,47.5614 423.908,48.5614 423,50.5C 424.488,45.6113 423.321,41.4446 419.5,38C 416.711,37.7586 414.044,37.092 411.5,36C 410.887,33.8526 410.221,31.686 409.5,29.5C 402.855,25.5378 396.188,21.8712 389.5,18.5 Z"/></g>
<g><path style="opacity:1" fill="#4477ba" d="M 313.5,49.5 C 312.058,50.8195 311.392,52.4862 311.5,54.5C 308.794,54.4249 306.127,54.0916 303.5,53.5C 298.518,51.2612 293.184,50.2612 287.5,50.5C 265.678,47.1096 244.344,49.4429 223.5,57.5C 225.502,55.73 227.836,54.3966 230.5,53.5C 232.179,53.7148 233.179,53.0481 233.5,51.5C 237.457,51.732 241.124,50.8987 244.5,49C 262.495,47.0949 280.495,47.0949 298.5,49C 301.718,49.9867 304.884,51.1534 308,52.5C 309.841,51.4383 311.674,50.4383 313.5,49.5 Z"/></g>
<g><path style="opacity:1" fill="#1e1d3a" d="M 287.5,50.5 C 293.184,50.2612 298.518,51.2612 303.5,53.5C 300.482,53.6646 297.482,53.498 294.5,53C 292.167,51.957 289.834,51.1237 287.5,50.5 Z"/></g>
<g><path style="opacity:1" fill="#222041" d="M 287.5,50.5 C 276.828,50.3335 266.161,50.5002 255.5,51C 244.533,52.6768 233.867,55.1768 223.5,58.5C 223.5,58.1667 223.5,57.8333 223.5,57.5C 244.344,49.4429 265.678,47.1096 287.5,50.5 Z"/></g>
<g><path style="opacity:1" fill="#351016" d="M 287.5,50.5 C 289.834,51.1237 292.167,51.957 294.5,53C 297.482,53.498 300.482,53.6646 303.5,53.5C 306.127,54.0916 308.794,54.4249 311.5,54.5C 310.677,60.6749 313.344,63.6749 319.5,63.5C 319.34,65.1992 319.506,66.8659 320,68.5C 321.887,70.0261 322.887,72.0261 323,74.5C 324.019,75.6872 325.186,76.6872 326.5,77.5C 328.042,76.2532 329.542,76.2532 331,77.5C 331.311,78.7425 330.811,79.7425 329.5,80.5C 330.246,81.7362 330.579,83.0695 330.5,84.5C 335.544,84.7307 340.378,85.7307 345,87.5C 345.49,88.7932 345.657,90.1266 345.5,91.5C 346.5,91.5 347.5,91.5 348.5,91.5C 350.476,93.0109 352.809,93.8442 355.5,94C 356.577,100.914 360.577,104.414 367.5,104.5C 368.014,110.665 371.347,112.998 377.5,111.5C 377.682,117.443 380.682,120.943 386.5,122C 388.416,124.09 390.416,125.923 392.5,127.5C 395.264,130.689 398.598,131.355 402.5,129.5C 402.196,130.15 401.863,130.817 401.5,131.5C 405.5,135.167 405.5,138.833 401.5,142.5C 403.714,143.041 405.88,143.374 408,143.5C 408.249,146.177 409.249,148.51 411,150.5C 411.333,155.167 411.667,159.833 412,164.5C 414.387,168.074 416.221,171.74 417.5,175.5C 417.833,196.833 418.167,218.167 418.5,239.5C 417.336,243.011 416.336,246.677 415.5,250.5C 413.61,250.297 412.11,250.963 411,252.5C 412.493,257.731 411.493,262.397 408,266.5C 407.506,268.134 407.34,269.801 407.5,271.5C 407.567,272.959 407.234,274.292 406.5,275.5C 405.833,276.167 405.167,276.833 404.5,277.5C 398.811,278.149 396.478,281.483 397.5,287.5C 396.5,287.5 395.5,287.5 394.5,287.5C 395.084,281.662 395.75,275.829 396.5,270C 396.333,267.833 396.167,265.667 396,263.5C 395.362,260.399 394.195,257.732 392.5,255.5C 391.313,253.928 390.313,252.261 389.5,250.5C 387.024,240.93 385.024,231.264 383.5,221.5C 383.412,211.795 382.745,202.129 381.5,192.5C 382.703,184.716 383.203,177.05 383,169.5C 381.5,167.667 380,165.833 378.5,164C 375.623,163.044 372.956,161.711 370.5,160C 363.174,159.5 355.841,159.334 348.5,159.5C 346.167,159.5 343.833,159.5 341.5,159.5C 332.6,156.118 323.267,154.118 313.5,153.5C 303.122,150.327 292.788,146.827 282.5,143C 281.5,142 280.5,141 279.5,140C 272.388,137.528 266.055,133.861 260.5,129C 259.167,128.667 257.833,128.333 256.5,128C 255.042,125.943 254.208,123.777 254,121.5C 252.612,122.554 251.112,122.72 249.5,122C 247.937,120.053 245.937,118.886 243.5,118.5C 237.315,112.815 231.315,106.981 225.5,101C 216.848,97.7158 208.181,97.7158 199.5,101C 179.1,110.401 161.934,123.901 148,141.5C 144.377,146.412 141.544,151.745 139.5,157.5C 138.833,158.167 138.167,158.833 137.5,159.5C 139.365,153.903 141.032,148.237 142.5,142.5C 145.752,132.662 150.086,123.329 155.5,114.5C 158.089,107.698 161.422,101.365 165.5,95.5C 168.622,92.5542 171.956,89.7209 175.5,87C 178.126,86.7849 180.459,86.9516 182.5,87.5C 182.723,86.0333 183.056,84.5333 183.5,83C 187.128,80.7165 191.128,79.0498 195.5,78C 196.386,76.3853 197.386,74.8853 198.5,73.5C 204.544,71.7997 209.544,68.4663 213.5,63.5C 217.173,62.33 220.507,60.6634 223.5,58.5C 233.867,55.1768 244.533,52.6768 255.5,51C 266.161,50.5002 276.828,50.3335 287.5,50.5 Z"/></g>
<g><path style="opacity:1" fill="#3c7bc8" d="M 426.5,44.5 C 427.5,44.5 428.5,44.5 429.5,44.5C 429.527,46.1993 430.194,47.5326 431.5,48.5C 433.078,50.6522 434.412,52.9855 435.5,55.5C 436.842,54.0977 437.676,54.4311 438,56.5C 438.22,54.0268 439.386,52.3602 441.5,51.5C 441.5,54.1667 441.5,56.8333 441.5,59.5C 442.5,59.5 443.5,59.5 444.5,59.5C 444.77,56.298 445.604,53.298 447,50.5C 447.667,54.1667 447.667,57.8333 447,61.5C 445.594,62.6682 444.428,62.3348 443.5,60.5C 442.305,62.297 440.638,63.297 438.5,63.5C 438.376,77.6608 438.876,91.6608 440,105.5C 438.236,108.396 436.402,111.229 434.5,114C 431.609,115.727 428.609,117.227 425.5,118.5C 428.213,116.786 430.213,114.453 431.5,111.5C 432.167,111.5 432.833,111.5 433.5,111.5C 437.07,108.359 439.07,104.359 439.5,99.5C 437.874,88.2453 437.041,76.912 437,65.5C 436.722,64.5842 436.222,63.9175 435.5,63.5C 434.724,59.9475 433.391,56.6142 431.5,53.5C 430.099,50.3661 428.432,47.3661 426.5,44.5 Z"/></g>
<g><path style="opacity:1" fill="#211a35" d="M 223.5,58.5 C 220.507,60.6634 217.173,62.33 213.5,63.5C 209.544,68.4663 204.544,71.7997 198.5,73.5C 198.833,72.8333 199.167,72.1667 199.5,71.5C 203.898,69.2747 207.898,66.4413 211.5,63C 215.203,60.646 219.203,59.146 223.5,58.5 Z"/></g>
<g><path style="opacity:1" fill="#5e420d" d="M 314.5,47.5 C 314.833,47.5 315.167,47.5 315.5,47.5C 315.833,47.5 316.167,47.5 316.5,47.5C 323.363,48.4676 326.363,52.4676 325.5,59.5C 333.391,58.0526 337.391,61.386 337.5,69.5C 344.716,68.0363 348.55,71.0363 349,78.5C 356.752,76.5436 361.085,79.5436 362,87.5C 369.228,85.3986 373.062,88.0653 373.5,95.5C 377.946,95.0561 381.279,96.7228 383.5,100.5C 380.134,98.3093 376.467,96.8093 372.5,96C 371.802,93.5463 370.802,91.2129 369.5,89C 361.912,86.425 359.079,88.925 361,96.5C 364.577,98.2661 368.244,99.9328 372,101.5C 372.497,103.81 372.663,106.143 372.5,108.5C 375.549,107.643 378.549,107.643 381.5,108.5C 382.287,109.242 382.953,110.075 383.5,111C 383.216,112.956 383.216,115.123 383.5,117.5C 386.085,117.432 388.418,116.932 390.5,116C 392.445,119.757 394.112,123.591 395.5,127.5C 400.39,129.631 403.057,127.964 403.5,122.5C 403.333,121.167 403.167,119.833 403,118.5C 400.49,116.998 397.99,115.664 395.5,114.5C 399.462,114.067 402.628,115.4 405,118.5C 406.188,122.741 405.355,126.408 402.5,129.5C 398.598,131.355 395.264,130.689 392.5,127.5C 391.067,125.442 390.4,123.108 390.5,120.5C 383.518,120.851 380.185,117.518 380.5,110.5C 372.644,112.422 368.977,109.422 369.5,101.5C 361.386,103.052 357.719,99.7189 358.5,91.5C 355.167,92.8333 351.833,92.8333 348.5,91.5C 346.979,88.3909 346.146,85.0575 346,81.5C 337.351,86.0312 333.185,83.3645 333.5,73.5C 330.421,73.7399 327.421,73.4066 324.5,72.5C 322.726,69.3687 321.059,66.3687 319.5,63.5C 313.344,63.6749 310.677,60.6749 311.5,54.5C 311.392,52.4862 312.058,50.8195 313.5,49.5C 313.833,48.8333 314.167,48.1667 314.5,47.5 Z"/></g>
<g><path style="opacity:1" fill="#37140c" d="M 319.5,63.5 C 321.059,66.3687 322.726,69.3687 324.5,72.5C 327.421,73.4066 330.421,73.7399 333.5,73.5C 333.185,83.3645 337.351,86.0312 346,81.5C 346.146,85.0575 346.979,88.3909 348.5,91.5C 347.5,91.5 346.5,91.5 345.5,91.5C 345.657,90.1266 345.49,88.7932 345,87.5C 340.378,85.7307 335.544,84.7307 330.5,84.5C 330.579,83.0695 330.246,81.7362 329.5,80.5C 330.811,79.7425 331.311,78.7425 331,77.5C 329.542,76.2532 328.042,76.2532 326.5,77.5C 325.186,76.6872 324.019,75.6872 323,74.5C 322.887,72.0261 321.887,70.0261 320,68.5C 319.506,66.8659 319.34,65.1992 319.5,63.5 Z"/></g>
<g><path style="opacity:1" fill="#2a182e" d="M 198.5,73.5 C 197.386,74.8853 196.386,76.3853 195.5,78C 191.128,79.0498 187.128,80.7165 183.5,83C 183.056,84.5333 182.723,86.0333 182.5,87.5C 180.459,86.9516 178.126,86.7849 175.5,87C 171.956,89.7209 168.622,92.5542 165.5,95.5C 167.243,92.2496 169.577,89.4162 172.5,87C 176.896,84.4731 181.229,81.9731 185.5,79.5C 189.833,77.5 194.167,75.5 198.5,73.5 Z"/></g>
<g><path style="opacity:1" fill="#242549" d="M 435.5,63.5 C 436.222,63.9175 436.722,64.5842 437,65.5C 437.041,76.912 437.874,88.2453 439.5,99.5C 439.07,104.359 437.07,108.359 433.5,111.5C 433.343,110.127 433.51,108.793 434,107.5C 436.872,105 438.039,101.833 437.5,98C 435.689,86.621 435.022,75.121 435.5,63.5 Z"/></g>
<g><path style="opacity:1" fill="#381506" d="M 348.5,91.5 C 351.833,92.8333 355.167,92.8333 358.5,91.5C 357.719,99.7189 361.386,103.052 369.5,101.5C 368.977,109.422 372.644,112.422 380.5,110.5C 380.185,117.518 383.518,120.851 390.5,120.5C 390.4,123.108 391.067,125.442 392.5,127.5C 390.416,125.923 388.416,124.09 386.5,122C 380.682,120.943 377.682,117.443 377.5,111.5C 371.347,112.998 368.014,110.665 367.5,104.5C 360.577,104.414 356.577,100.914 355.5,94C 352.809,93.8442 350.476,93.0109 348.5,91.5 Z"/></g>
<g><path style="opacity:1" fill="#e7ad80" d="M 243.5,118.5 C 271.213,143.421 303.879,157.088 341.5,159.5C 343.833,159.5 346.167,159.5 348.5,159.5C 356.897,159.876 365.23,161.376 373.5,164C 377.819,165.979 380.152,169.313 380.5,174C 378.635,190.151 379.635,205.984 383.5,221.5C 385.024,231.264 387.024,240.93 389.5,250.5C 389.286,252.144 389.62,253.644 390.5,255C 389.552,255.483 388.552,255.649 387.5,255.5C 385.528,261.612 384.028,267.946 383,274.5C 379.205,279.188 376.538,284.521 375,290.5C 372.474,294.243 369.974,297.91 367.5,301.5C 367.818,302.647 368.484,303.481 369.5,304C 372.192,304.43 374.859,304.263 377.5,303.5C 378.01,298.886 380.677,296.553 385.5,296.5C 386.409,294.625 387.743,293.292 389.5,292.5C 387.073,298.095 383.073,302.262 377.5,305C 368.964,308.106 361.464,306.606 355,300.5C 358.208,309.529 364.708,313.029 374.5,311C 378.472,309.681 382.139,307.847 385.5,305.5C 385.152,308.019 383.819,309.853 381.5,311C 382.056,311.383 382.389,311.883 382.5,312.5C 377.386,316.783 372.719,321.616 368.5,327C 364.957,330.049 361.291,332.882 357.5,335.5C 357.369,334.761 357.536,334.094 358,333.5C 365.065,328.032 371.232,321.699 376.5,314.5C 373.361,313.397 370.194,313.397 367,314.5C 364.458,313.317 361.791,312.317 359,311.5C 357.056,312.688 355.556,314.354 354.5,316.5C 353.675,317.386 352.675,317.719 351.5,317.5C 351.714,319.144 351.38,320.644 350.5,322C 347.167,324.667 343.833,327.333 340.5,330C 338.975,331.009 337.308,331.509 335.5,331.5C 335.5,332.833 335.5,334.167 335.5,335.5C 332.115,335.025 329.782,336.358 328.5,339.5C 323.995,341.249 319.995,343.749 316.5,347C 311.835,348.067 307.501,349.567 303.5,351.5C 303.67,352.822 303.337,353.989 302.5,355C 298.137,355.894 293.804,356.894 289.5,358C 288.027,358.71 287.36,359.876 287.5,361.5C 281.776,362.035 276.442,363.702 271.5,366.5C 263.5,367.5 255.5,368.5 247.5,369.5C 237.542,368.155 227.542,367.322 217.5,367C 211.199,364.975 204.866,363.142 198.5,361.5C 191.121,359.309 184.121,356.309 177.5,352.5C 161.576,339.912 146.576,326.246 132.5,311.5C 131.92,309.251 130.587,307.585 128.5,306.5C 127.89,305.609 127.557,304.609 127.5,303.5C 127.762,302.022 127.429,300.689 126.5,299.5C 124.255,297.322 122.255,294.988 120.5,292.5C 120.045,290.633 119.378,288.8 118.5,287C 120.227,282.274 121.06,277.441 121,272.5C 119.241,275.964 118.074,279.63 117.5,283.5C 115.3,281.747 114.133,279.414 114,276.5C 113.329,275.748 112.496,275.414 111.5,275.5C 111.5,274.167 111.5,272.833 111.5,271.5C 108.826,259.06 107.993,246.394 109,233.5C 111.003,230.5 111.836,227.167 111.5,223.5C 112.376,223.631 113.043,223.298 113.5,222.5C 114.748,219.93 115.748,217.263 116.5,214.5C 117.5,213.833 118.5,213.167 119.5,212.5C 120.546,207.341 122.546,202.675 125.5,198.5C 130.092,197.334 132.259,194.334 132,189.5C 133.067,188.809 134.234,188.309 135.5,188C 134.643,184.126 134.476,179.959 135,175.5C 136,171.167 137,166.833 138,162.5C 138.333,162.833 138.667,163.167 139,163.5C 139.956,162.421 140.789,161.255 141.5,160C 140.244,159.583 139.577,158.75 139.5,157.5C 141.544,151.745 144.377,146.412 148,141.5C 161.934,123.901 179.1,110.401 199.5,101C 208.181,97.7158 216.848,97.7158 225.5,101C 231.315,106.981 237.315,112.815 243.5,118.5 Z"/></g>
<g><path style="opacity:1" fill="#604504" d="M 383.5,100.5 C 383.5,102.167 383.5,103.833 383.5,105.5C 387.394,105.11 391.06,105.777 394.5,107.5C 395.374,109.747 395.708,112.08 395.5,114.5C 397.99,115.664 400.49,116.998 403,118.5C 403.167,119.833 403.333,121.167 403.5,122.5C 403.057,127.964 400.39,129.631 395.5,127.5C 394.112,123.591 392.445,119.757 390.5,116C 388.418,116.932 386.085,117.432 383.5,117.5C 383.216,115.123 383.216,112.956 383.5,111C 382.953,110.075 382.287,109.242 381.5,108.5C 378.549,107.643 375.549,107.643 372.5,108.5C 372.663,106.143 372.497,103.81 372,101.5C 368.244,99.9328 364.577,98.2661 361,96.5C 359.079,88.925 361.912,86.425 369.5,89C 370.802,91.2129 371.802,93.5463 372.5,96C 376.467,96.8093 380.134,98.3093 383.5,100.5 Z"/></g>
<g><path style="opacity:1" fill="#2b1628" d="M 431.5,111.5 C 430.213,114.453 428.213,116.786 425.5,118.5C 422.28,120.74 419.613,123.573 417.5,127C 413.379,128.899 409.046,129.732 404.5,129.5C 405.878,128.766 407.378,128.099 409,127.5C 409.098,125.381 409.931,123.714 411.5,122.5C 414.569,125.079 416.069,124.079 416,119.5C 416.483,120.448 416.649,121.448 416.5,122.5C 418.635,122.853 419.968,122.02 420.5,120C 419.115,118.403 418.449,116.57 418.5,114.5C 420.277,114.786 421.944,115.453 423.5,116.5C 426.178,114.816 428.844,113.15 431.5,111.5 Z"/></g>
<g><path style="opacity:1" fill="#401511" d="M 243.5,118.5 C 245.937,118.886 247.937,120.053 249.5,122C 251.112,122.72 252.612,122.554 254,121.5C 254.208,123.777 255.042,125.943 256.5,128C 257.833,128.333 259.167,128.667 260.5,129C 266.055,133.861 272.388,137.528 279.5,140C 280.5,141 281.5,142 282.5,143C 292.788,146.827 303.122,150.327 313.5,153.5C 323.267,154.118 332.6,156.118 341.5,159.5C 303.879,157.088 271.213,143.421 243.5,118.5 Z"/></g>
<g><path style="opacity:1" fill="#2c1626" d="M 402.5,129.5 C 403.167,129.5 403.833,129.5 404.5,129.5C 410.994,144.133 415.328,159.466 417.5,175.5C 416.221,171.74 414.387,168.074 412,164.5C 411.667,159.833 411.333,155.167 411,150.5C 409.249,148.51 408.249,146.177 408,143.5C 405.88,143.374 403.714,143.041 401.5,142.5C 405.5,138.833 405.5,135.167 401.5,131.5C 401.863,130.817 402.196,130.15 402.5,129.5 Z"/></g>
<g><path style="opacity:1" fill="#5d7eb3" d="M 155.5,114.5 C 150.086,123.329 145.752,132.662 142.5,142.5C 139.44,148.682 136.774,155.015 134.5,161.5C 135.632,153.674 137.466,146.007 140,138.5C 144.428,134.979 146.761,130.312 147,124.5C 150.612,122.179 152.445,118.846 152.5,114.5C 153.5,114.5 154.5,114.5 155.5,114.5 Z"/></g>
<g><path style="opacity:1" fill="#070202" d="M 207.5,159.5 C 208.925,160.922 209.925,162.589 210.5,164.5C 211.129,169.423 209.129,172.589 204.5,174C 195.425,174.544 186.425,173.878 177.5,172C 171.891,168.723 170.058,163.89 172,157.5C 172.833,156 174,154.833 175.5,154C 186.892,151.511 197.559,153.345 207.5,159.5 Z"/></g>
<g><path style="opacity:1" fill="#d8a98d" d="M 139.5,157.5 C 139.577,158.75 140.244,159.583 141.5,160C 140.789,161.255 139.956,162.421 139,163.5C 138.667,163.167 138.333,162.833 138,162.5C 137,166.833 136,171.167 135,175.5C 134.476,179.959 134.643,184.126 135.5,188C 134.234,188.309 133.067,188.809 132,189.5C 132.259,194.334 130.092,197.334 125.5,198.5C 126.933,196.442 127.6,194.108 127.5,191.5C 129.418,189.299 130.751,186.632 131.5,183.5C 132.843,175.46 134.843,167.46 137.5,159.5C 138.167,158.833 138.833,158.167 139.5,157.5 Z"/></g>
<g><path style="opacity:1" fill="#497bbc" d="M 134.5,162.5 C 132.018,169.263 131.018,176.263 131.5,183.5C 130.751,186.632 129.418,189.299 127.5,191.5C 129.703,182.736 130.87,173.736 131,164.5C 132.113,163.695 133.279,163.028 134.5,162.5 Z"/></g>
<g><path style="opacity:1" fill="#2e1e2f" d="M 142.5,142.5 C 141.032,148.237 139.365,153.903 137.5,159.5C 134.843,167.46 132.843,175.46 131.5,183.5C 131.018,176.263 132.018,169.263 134.5,162.5C 134.5,162.167 134.5,161.833 134.5,161.5C 136.774,155.015 139.44,148.682 142.5,142.5 Z"/></g>
<g><path style="opacity:1" fill="#d1a684" d="M 207.5,159.5 C 197.559,153.345 186.892,151.511 175.5,154C 174,154.833 172.833,156 172,157.5C 170.058,163.89 171.891,168.723 177.5,172C 186.425,173.878 195.425,174.544 204.5,174C 209.129,172.589 211.129,169.423 210.5,164.5C 212.22,168.596 211.22,172.096 207.5,175C 201.782,175.211 196.115,175.711 190.5,176.5C 184.137,174.62 177.804,172.953 171.5,171.5C 170.211,165.857 170.211,160.19 171.5,154.5C 172.216,153.689 173.05,153.022 174,152.5C 183.151,151.872 192.318,151.205 201.5,150.5C 202.348,148.717 203.681,148.217 205.5,149C 204.328,149.419 203.328,150.085 202.5,151C 203.756,154.22 205.423,157.053 207.5,159.5 Z"/></g>
<g><path style="opacity:1" fill="#401610" d="M 348.5,159.5 C 355.841,159.334 363.174,159.5 370.5,160C 372.956,161.711 375.623,163.044 378.5,164C 380,165.833 381.5,167.667 383,169.5C 383.203,177.05 382.703,184.716 381.5,192.5C 382.745,202.129 383.412,211.795 383.5,221.5C 379.635,205.984 378.635,190.151 380.5,174C 380.152,169.313 377.819,165.979 373.5,164C 365.23,161.376 356.897,159.876 348.5,159.5 Z"/></g>
<g><path style="opacity:1" fill="#050304" d="M 204.5,201.5 C 207.309,203.763 209.142,206.763 210,210.5C 211.363,225.046 208.03,238.38 200,250.5C 188.703,252.886 178.203,250.886 168.5,244.5C 167.449,231.038 170.615,218.704 178,207.5C 180.383,204.727 183.217,202.561 186.5,201C 192.528,200.359 198.528,200.526 204.5,201.5 Z"/></g>
<g><path style="opacity:1" fill="#e6e5e5" d="M 204.5,201.5 C 198.528,200.526 192.528,200.359 186.5,201C 183.217,202.561 180.383,204.727 178,207.5C 170.615,218.704 167.449,231.038 168.5,244.5C 166.095,243.602 164.095,242.102 162.5,240C 161.552,239.517 160.552,239.351 159.5,239.5C 157.703,235.229 155.87,230.896 154,226.5C 152.927,218.983 153.594,211.65 156,204.5C 158.32,200.12 160.487,195.787 162.5,191.5C 166.021,191.17 169.021,189.67 171.5,187C 175.428,185.675 179.428,185.342 183.5,186C 187.724,188.279 192.057,190.279 196.5,192C 199.5,195 202.5,198 205.5,201C 205.272,201.399 204.938,201.565 204.5,201.5 Z"/></g>
<g><path style="opacity:1" fill="#2f81da" d="M 484.5,3.5 C 484.5,158.167 484.5,312.833 484.5,467.5C 482.833,467.5 481.167,467.5 479.5,467.5C 479.577,464.491 478.244,462.324 475.5,461C 478.813,459.064 479.979,456.23 479,452.5C 476.833,451.667 475.333,450.167 474.5,448C 473.167,447.667 471.833,447.333 470.5,447C 471.833,445.16 471.666,444.66 470,445.5C 468.176,444.251 468.343,443.085 470.5,442C 467.58,442.763 465.247,442.097 463.5,440C 464.167,439.667 464.833,439.333 465.5,439C 459.492,436.174 453.492,433.674 447.5,431.5C 447.762,430.022 447.429,428.689 446.5,427.5C 431.594,416.77 417.094,405.437 403,393.5C 402.952,389.26 401.119,387.594 397.5,388.5C 397.617,386.516 396.95,384.85 395.5,383.5C 395.855,372.264 393.689,361.597 389,351.5C 387.519,345.581 386.686,339.581 386.5,333.5C 388.288,333.785 389.955,333.452 391.5,332.5C 392.167,329.5 392.833,326.5 393.5,323.5C 396.5,322.833 399.5,322.167 402.5,321.5C 404.22,318.798 405.887,316.132 407.5,313.5C 407.328,312.508 407.662,311.842 408.5,311.5C 410.043,310.264 411.043,308.598 411.5,306.5C 412.833,305.833 414.167,305.167 415.5,304.5C 414.891,300.068 414.891,295.568 415.5,291C 415.475,288.071 414.809,285.571 413.5,283.5C 412.569,279.571 410.236,276.905 406.5,275.5C 407.234,274.292 407.567,272.959 407.5,271.5C 410.71,266.414 413.376,261.081 415.5,255.5C 417.437,252.882 418.937,249.882 420,246.5C 420.873,241.538 421.373,236.538 421.5,231.5C 420.957,215.843 420.791,200.176 421,184.5C 420.027,181.421 419.194,178.421 418.5,175.5C 418.167,175.5 417.833,175.5 417.5,175.5C 415.328,159.466 410.994,144.133 404.5,129.5C 409.046,129.732 413.379,128.899 417.5,127C 419.613,123.573 422.28,120.74 425.5,118.5C 428.609,117.227 431.609,115.727 434.5,114C 436.402,111.229 438.236,108.396 440,105.5C 438.876,91.6608 438.376,77.6608 438.5,63.5C 440.638,63.297 442.305,62.297 443.5,60.5C 444.428,62.3348 445.594,62.6682 447,61.5C 447.667,57.8333 447.667,54.1667 447,50.5C 445.604,53.298 444.77,56.298 444.5,59.5C 443.5,59.5 442.5,59.5 441.5,59.5C 441.5,56.8333 441.5,54.1667 441.5,51.5C 446.813,46.5217 452.146,41.5217 457.5,36.5C 455.167,35.1667 452.833,33.8333 450.5,32.5C 459.878,24.8006 468.878,16.634 477.5,8C 479.551,5.97978 481.884,4.47978 484.5,3.5 Z"/></g>
<g><path style="opacity:1" fill="#eeeeee" d="M 182.5,206.5 C 189.57,207.407 191.237,210.907 187.5,217C 181,218.5 178.5,216 180,209.5C 181.045,208.627 181.878,207.627 182.5,206.5 Z"/></g>
<g><path style="opacity:1" fill="#932f22" d="M 248.5,190.5 C 249.043,190.56 249.376,190.893 249.5,191.5C 244.465,198.43 242.632,206.097 244,214.5C 248.153,217.108 252.32,216.941 256.5,214C 261.417,209.986 265.25,205.152 268,199.5C 268.654,198.304 269.154,198.304 269.5,199.5C 266.308,207.741 261.308,214.575 254.5,220C 245.814,223.33 240.814,220.496 239.5,211.5C 240.588,203.659 243.588,196.659 248.5,190.5 Z"/></g>
<g><path style="opacity:1" fill="#cfaf9c" d="M 125.5,198.5 C 122.546,202.675 120.546,207.341 119.5,212.5C 118.5,213.167 117.5,213.833 116.5,214.5C 115.748,217.263 114.748,219.93 113.5,222.5C 113.043,223.298 112.376,223.631 111.5,223.5C 112.621,218.305 114.621,213.472 117.5,209C 119.583,204.974 122.25,201.474 125.5,198.5 Z"/></g>
<g><path style="opacity:1" fill="#4873b1" d="M 418.5,175.5 C 419.194,178.421 420.027,181.421 421,184.5C 420.791,200.176 420.957,215.843 421.5,231.5C 421.373,236.538 420.873,241.538 420,246.5C 418.937,249.882 417.437,252.882 415.5,255.5C 417.135,250.292 418.135,244.958 418.5,239.5C 419.719,236.579 420.386,233.412 420.5,230C 419.778,211.834 419.111,193.667 418.5,175.5 Z"/></g>
<g><path style="opacity:1" fill="#231f3d" d="M 417.5,175.5 C 417.833,175.5 418.167,175.5 418.5,175.5C 419.111,193.667 419.778,211.834 420.5,230C 420.386,233.412 419.719,236.579 418.5,239.5C 418.167,218.167 417.833,196.833 417.5,175.5 Z"/></g>
<g><path style="opacity:1" fill="#c0afa3" d="M 111.5,223.5 C 111.836,227.167 111.003,230.5 109,233.5C 107.993,246.394 108.826,259.06 111.5,271.5C 110.351,271.209 109.684,270.376 109.5,269C 108.293,264.41 107.293,259.91 106.5,255.5C 105.585,244.22 107.251,233.553 111.5,223.5 Z"/></g>
<g><path style="opacity:1" fill="#29152b" d="M 418.5,239.5 C 418.135,244.958 417.135,250.292 415.5,255.5C 413.376,261.081 410.71,266.414 407.5,271.5C 407.34,269.801 407.506,268.134 408,266.5C 411.493,262.397 412.493,257.731 411,252.5C 412.11,250.963 413.61,250.297 415.5,250.5C 416.336,246.677 417.336,243.011 418.5,239.5 Z"/></g>
<g><path style="opacity:1" fill="#dcab84" d="M 275.5,266.5 C 271.458,264.638 267.792,262.138 264.5,259C 256.667,256.167 254.167,258.667 257,266.5C 269.532,282.342 285.698,288.509 305.5,285C 307.036,283.401 307.536,281.567 307,279.5C 305.208,277.372 303.042,276.039 300.5,275.5C 305.658,274.331 308.658,276.331 309.5,281.5C 308.935,283.405 307.935,285.071 306.5,286.5C 299.497,287.237 292.497,287.903 285.5,288.5C 280.757,286.128 275.423,283.462 269.5,280.5C 267.215,281.728 267.382,283.061 270,284.5C 273.663,286.222 277.496,287.222 281.5,287.5C 281.433,288.959 281.766,290.292 282.5,291.5C 268.886,287.623 258.053,279.956 250,268.5C 251.013,275.86 254.18,282.193 259.5,287.5C 257.418,287.376 255.918,286.376 255,284.5C 253.742,287.055 251.909,287.722 249.5,286.5C 250.751,285.369 251.751,284.036 252.5,282.5C 250.084,279.284 248.417,275.617 247.5,271.5C 246.516,268.572 246.183,265.572 246.5,262.5C 248.5,262.5 250.5,262.5 252.5,262.5C 252.39,259.941 253.056,257.608 254.5,255.5C 255.192,256.025 255.692,256.692 256,257.5C 256.804,256.196 257.971,255.529 259.5,255.5C 264.862,257.695 269.862,260.528 274.5,264C 275.252,264.671 275.586,265.504 275.5,266.5 Z"/></g>
<g><path style="opacity:1" fill="#0b0504" d="M 275.5,266.5 C 282.828,271.984 291.161,274.984 300.5,275.5C 303.042,276.039 305.208,277.372 307,279.5C 307.536,281.567 307.036,283.401 305.5,285C 285.698,288.509 269.532,282.342 257,266.5C 254.167,258.667 256.667,256.167 264.5,259C 267.792,262.138 271.458,264.638 275.5,266.5 Z"/></g>
<g><path style="opacity:1" fill="#e59e6a" d="M 389.5,250.5 C 390.313,252.261 391.313,253.928 392.5,255.5C 395.85,268.302 394.85,280.636 389.5,292.5C 387.743,293.292 386.409,294.625 385.5,296.5C 380.677,296.553 378.01,298.886 377.5,303.5C 374.859,304.263 372.192,304.43 369.5,304C 368.484,303.481 367.818,302.647 367.5,301.5C 369.974,297.91 372.474,294.243 375,290.5C 376.538,284.521 379.205,279.188 383,274.5C 384.028,267.946 385.528,261.612 387.5,255.5C 388.552,255.649 389.552,255.483 390.5,255C 389.62,253.644 389.286,252.144 389.5,250.5 Z"/></g>
<g><path style="opacity:1" fill="#d4af96" d="M 120.5,292.5 C 118.501,290.196 116.501,287.863 114.5,285.5C 114.051,281.952 113.051,278.619 111.5,275.5C 112.496,275.414 113.329,275.748 114,276.5C 114.133,279.414 115.3,281.747 117.5,283.5C 118.074,279.63 119.241,275.964 121,272.5C 121.06,277.441 120.227,282.274 118.5,287C 119.378,288.8 120.045,290.633 120.5,292.5 Z"/></g>
<g><path style="opacity:1" fill="#5a84b8" d="M 106.5,255.5 C 107.293,259.91 108.293,264.41 109.5,269C 109.684,270.376 110.351,271.209 111.5,271.5C 111.5,272.833 111.5,274.167 111.5,275.5C 113.051,278.619 114.051,281.952 114.5,285.5C 112.399,282.752 110.566,279.752 109,276.5C 107.84,269.528 107.007,262.528 106.5,255.5 Z"/></g>
<g><path style="opacity:1" fill="#110605" d="M 282.5,291.5 C 286.045,292.877 289.712,293.877 293.5,294.5C 289.702,295.483 285.702,295.817 281.5,295.5C 273.356,295.008 266.023,292.341 259.5,287.5C 254.18,282.193 251.013,275.86 250,268.5C 258.053,279.956 268.886,287.623 282.5,291.5 Z"/></g>
<g><path style="opacity:1" fill="#3e1210" d="M 392.5,255.5 C 394.195,257.732 395.362,260.399 396,263.5C 396.167,265.667 396.333,267.833 396.5,270C 395.75,275.829 395.084,281.662 394.5,287.5C 395.5,287.5 396.5,287.5 397.5,287.5C 396.478,281.483 398.811,278.149 404.5,277.5C 404.5,277.833 404.5,278.167 404.5,278.5C 403.167,280.833 401.833,283.167 400.5,285.5C 399.512,286.795 398.512,288.128 397.5,289.5C 393.853,295.14 389.853,300.473 385.5,305.5C 382.139,307.847 378.472,309.681 374.5,311C 364.708,313.029 358.208,309.529 355,300.5C 361.464,306.606 368.964,308.106 377.5,305C 383.073,302.262 387.073,298.095 389.5,292.5C 394.85,280.636 395.85,268.302 392.5,255.5 Z"/></g>
<g><path style="opacity:1" fill="#e5b99e" d="M 406.5,275.5 C 410.236,276.905 412.569,279.571 413.5,283.5C 414.492,286.779 414.659,290.112 414,293.5C 412.446,299.602 410.613,305.602 408.5,311.5C 407.662,311.842 407.328,312.508 407.5,313.5C 404.997,315.833 402.331,317.999 399.5,320C 394.481,320.498 389.481,320.332 384.5,319.5C 384.567,318.041 384.234,316.708 383.5,315.5C 386.821,315.464 389.988,316.131 393,317.5C 394.855,316.756 396.521,315.756 398,314.5C 399.766,315.233 401.599,315.567 403.5,315.5C 403.285,313.226 402.618,311.059 401.5,309C 401.6,306.63 402.6,304.797 404.5,303.5C 405.529,298.132 406.529,292.799 407.5,287.5C 408.5,287.5 409.5,287.5 410.5,287.5C 410.336,290.187 410.503,292.854 411,295.5C 412.879,292.134 412.879,288.8 411,285.5C 409.374,285.146 407.541,285.146 405.5,285.5C 405.884,283.071 406.551,280.737 407.5,278.5C 406.5,278.5 405.5,278.5 404.5,278.5C 404.5,278.167 404.5,277.833 404.5,277.5C 405.167,276.833 405.833,276.167 406.5,275.5 Z"/></g>
<g><path style="opacity:1" fill="#c7b3a6" d="M 120.5,292.5 C 122.255,294.988 124.255,297.322 126.5,299.5C 127.429,300.689 127.762,302.022 127.5,303.5C 123.948,300.613 121.615,296.947 120.5,292.5 Z"/></g>
<g><path style="opacity:1" fill="#7f614b" d="M 293.5,294.5 C 295.379,294.393 295.712,294.893 294.5,296C 289.98,296.814 285.646,296.647 281.5,295.5C 285.702,295.817 289.702,295.483 293.5,294.5 Z"/></g>
<g><path style="opacity:1" fill="#e49f70" d="M 400.5,285.5 C 403.256,292.296 402.756,298.963 399,305.5C 396.347,307.564 393.514,308.231 390.5,307.5C 392.856,304.978 395.023,302.312 397,299.5C 398.429,296.05 398.595,292.717 397.5,289.5C 398.512,288.128 399.512,286.795 400.5,285.5 Z"/></g>
<g><path style="opacity:1" fill="#547fbd" d="M 413.5,283.5 C 414.809,285.571 415.475,288.071 415.5,291C 414.891,295.568 414.891,300.068 415.5,304.5C 414.167,305.167 412.833,305.833 411.5,306.5C 411.043,308.598 410.043,310.264 408.5,311.5C 410.613,305.602 412.446,299.602 414,293.5C 414.659,290.112 414.492,286.779 413.5,283.5 Z"/></g>
<g><path style="opacity:1" fill="#edb791" d="M 404.5,278.5 C 405.5,278.5 406.5,278.5 407.5,278.5C 406.551,280.737 405.884,283.071 405.5,285.5C 407.541,285.146 409.374,285.146 411,285.5C 412.879,288.8 412.879,292.134 411,295.5C 410.503,292.854 410.336,290.187 410.5,287.5C 409.5,287.5 408.5,287.5 407.5,287.5C 406.529,292.799 405.529,298.132 404.5,303.5C 402.6,304.797 401.6,306.63 401.5,309C 402.618,311.059 403.285,313.226 403.5,315.5C 401.599,315.567 399.766,315.233 398,314.5C 396.521,315.756 394.855,316.756 393,317.5C 389.988,316.131 386.821,315.464 383.5,315.5C 382.596,314.791 382.263,313.791 382.5,312.5C 382.389,311.883 382.056,311.383 381.5,311C 383.819,309.853 385.152,308.019 385.5,305.5C 389.853,300.473 393.853,295.14 397.5,289.5C 398.595,292.717 398.429,296.05 397,299.5C 395.023,302.312 392.856,304.978 390.5,307.5C 393.514,308.231 396.347,307.564 399,305.5C 402.756,298.963 403.256,292.296 400.5,285.5C 401.833,283.167 403.167,280.833 404.5,278.5 Z"/></g>
<g><path style="opacity:1" fill="#1b1934" d="M 128.5,306.5 C 130.587,307.585 131.92,309.251 132.5,311.5C 133.219,313.764 133.552,316.097 133.5,318.5C 132.797,316.371 131.797,314.371 130.5,312.5C 130.296,310.315 129.63,308.315 128.5,306.5 Z"/></g>
<g><path style="opacity:1" fill="#517eb1" d="M 95.5,311.5 C 92.5271,313.806 89.8605,316.473 87.5,319.5C 86.2719,320.306 85.2719,321.306 84.5,322.5C 85.8428,316.491 89.5095,312.824 95.5,311.5 Z"/></g>
<g><path style="opacity:1" fill="#bab1b0" d="M 95.5,311.5 C 99.7464,310.761 102.413,312.427 103.5,316.5C 102.026,314.863 100.192,313.863 98,313.5C 94.1176,314.894 90.6176,316.894 87.5,319.5C 89.8605,316.473 92.5271,313.806 95.5,311.5 Z"/></g>
<g><path style="opacity:1" fill="#14142d" d="M 133.5,319.5 C 134.586,319.62 135.253,320.287 135.5,321.5C 137.158,331.78 139.824,341.78 143.5,351.5C 142.503,351.53 141.836,351.03 141.5,350C 137.346,340.217 134.679,330.05 133.5,319.5 Z"/></g>
<g><path style="opacity:1" fill="#902e1c" d="M 197.5,308.5 C 197.897,307.475 198.563,307.308 199.5,308C 210.359,319.51 223.692,324.51 239.5,323C 246.791,321.564 253.791,319.564 260.5,317C 245.351,329.816 229.351,330.816 212.5,320C 207.339,316.334 202.339,312.501 197.5,308.5 Z"/></g>
<g><path style="opacity:1" fill="#4a7fc2" d="M 84.5,322.5 C 84.8204,325.898 84.487,329.232 83.5,332.5C 78.5142,329.586 73.1809,327.586 67.5,326.5C 67.1667,326.5 66.8333,326.5 66.5,326.5C 56.0293,323.835 50.3626,328.002 49.5,339C 49.6239,341.532 49.9573,344.032 50.5,346.5C 50.2528,347.713 49.5862,348.38 48.5,348.5C 47.5619,342.438 47.2285,336.438 47.5,330.5C 51.5,329.167 51.5,327.833 47.5,326.5C 49.8699,324.234 52.7032,323.234 56,323.5C 59.3273,323.893 62.6606,324.227 66,324.5C 68.4914,324.292 70.8247,323.625 73,322.5C 75.2641,324.164 77.5974,324.497 80,323.5C 80.0976,325.619 80.9309,327.286 82.5,328.5C 83.1687,326.369 83.8354,324.369 84.5,322.5 Z"/></g>
<g><path style="opacity:1" fill="#d6ae95" d="M 87.5,319.5 C 86.6864,324.119 86.3531,328.786 86.5,333.5C 83.6029,333.319 80.7695,333.652 78,334.5C 76.1739,333.99 76.0072,333.156 77.5,332C 75.5273,331.505 73.5273,331.338 71.5,331.5C 71.5,330.5 71.5,329.5 71.5,328.5C 69.6203,328.771 68.287,328.104 67.5,326.5C 73.1809,327.586 78.5142,329.586 83.5,332.5C 84.487,329.232 84.8204,325.898 84.5,322.5C 85.2719,321.306 86.2719,320.306 87.5,319.5 Z"/></g>
<g><path style="opacity:1" fill="#4278bc" d="M 407.5,313.5 C 405.887,316.132 404.22,318.798 402.5,321.5C 399.5,322.167 396.5,322.833 393.5,323.5C 392.833,326.5 392.167,329.5 391.5,332.5C 389.955,333.452 388.288,333.785 386.5,333.5C 386.686,339.581 387.519,345.581 389,351.5C 393.689,361.597 395.855,372.264 395.5,383.5C 396.95,384.85 397.617,386.516 397.5,388.5C 395.016,386.88 393.516,384.547 393,381.5C 393.963,370.676 391.796,360.676 386.5,351.5C 385.987,347.121 385.153,342.787 384,338.5C 383.18,331.986 383.347,325.653 384.5,319.5C 389.481,320.332 394.481,320.498 399.5,320C 402.331,317.999 404.997,315.833 407.5,313.5 Z"/></g>
<g><path style="opacity:1" fill="#14193b" d="M 385.5,330.5 C 383.843,326.644 385.176,324.811 389.5,325C 392.411,328.187 391.911,330.687 388,332.5C 386.699,332.361 385.866,331.695 385.5,330.5 Z"/></g>
<g><path style="opacity:1" fill="#260d11" d="M 385.5,330.5 C 385.167,327.5 386.5,326.167 389.5,326.5C 389.5,327.833 389.5,329.167 389.5,330.5C 388.167,330.5 386.833,330.5 385.5,330.5 Z"/></g>
<g><path style="opacity:1" fill="#e7ad7f" d="M 103.5,316.5 C 102.667,324.488 102.501,332.488 103,340.5C 103.862,342.087 104.529,343.754 105,345.5C 105.333,351.833 105.667,358.167 106,364.5C 106.232,365.737 106.732,366.737 107.5,367.5C 108.167,367.5 108.833,367.5 109.5,367.5C 110.167,367.5 110.833,367.5 111.5,367.5C 111.5,368.5 111.5,369.5 111.5,370.5C 113.565,370.517 115.565,370.85 117.5,371.5C 120.588,373.375 123.922,374.708 127.5,375.5C 130.516,378.52 133.183,381.854 135.5,385.5C 133.988,383.683 131.988,382.683 129.5,382.5C 130.252,386.433 132.419,389.433 136,391.5C 136.49,392.793 136.657,394.127 136.5,395.5C 137.822,395.33 138.989,395.663 140,396.5C 140.151,399.119 140.985,401.453 142.5,403.5C 143.324,406.785 143.824,410.118 144,413.5C 145.688,414.325 145.855,415.325 144.5,416.5C 146.622,421.327 148.288,426.327 149.5,431.5C 150.833,438.5 150.833,445.5 149.5,452.5C 147.384,457.768 144.051,461.934 139.5,465C 140.833,465.667 140.833,466.333 139.5,467C 142.365,467.183 145.031,467.683 147.5,468.5C 140.82,468.388 134.153,468.054 127.5,467.5C 124.11,466.977 120.777,466.143 117.5,465C 116.944,464.617 116.611,464.117 116.5,463.5C 116.489,461.983 115.823,460.816 114.5,460C 110.681,457.674 107.015,455.174 103.5,452.5C 100.833,449.833 98.1667,447.167 95.5,444.5C 94.2154,441.526 92.8821,438.526 91.5,435.5C 90.2282,432.652 89.3949,429.652 89,426.5C 84.8821,421.668 82.5488,416.001 82,409.5C 80.4756,407.729 78.9756,406.062 77.5,404.5C 74.69,401.061 71.0233,398.727 66.5,397.5C 62.9855,396.014 59.3189,394.681 55.5,393.5C 61.0661,393.579 66.5661,394.246 72,395.5C 73.1667,395.167 74.3333,394.833 75.5,394.5C 74.5,391.833 73.5,389.167 72.5,386.5C 74.2199,385.066 76.2199,384.233 78.5,384C 79.5591,380.627 79.5591,376.96 78.5,373C 79.9663,372.365 81.2997,371.531 82.5,370.5C 83.1667,367.833 83.8333,365.167 84.5,362.5C 88.0519,359.727 89.7186,356.06 89.5,351.5C 88.1667,351.5 86.8333,351.5 85.5,351.5C 85.7035,349.61 85.0368,348.11 83.5,347C 79.7187,344.363 75.8854,341.863 72,339.5C 71.51,338.207 71.3433,336.873 71.5,335.5C 69.0582,335.881 68.3915,335.214 69.5,333.5C 68.2776,331.022 66.2776,330.022 63.5,330.5C 63.5,329.5 63.5,328.5 63.5,327.5C 61.1944,327.993 58.861,328.326 56.5,328.5C 56.9175,327.778 57.5842,327.278 58.5,327C 61.146,326.503 63.8127,326.336 66.5,326.5C 66.8333,326.5 67.1667,326.5 67.5,326.5C 68.287,328.104 69.6203,328.771 71.5,328.5C 71.5,329.5 71.5,330.5 71.5,331.5C 73.5273,331.338 75.5273,331.505 77.5,332C 76.0072,333.156 76.1739,333.99 78,334.5C 80.7695,333.652 83.6029,333.319 86.5,333.5C 86.3531,328.786 86.6864,324.119 87.5,319.5C 90.6176,316.894 94.1176,314.894 98,313.5C 100.192,313.863 102.026,314.863 103.5,316.5 Z"/></g>
<g><path style="opacity:1" fill="#240e12" d="M 132.5,311.5 C 146.576,326.246 161.576,339.912 177.5,352.5C 171.679,354.979 166.679,358.645 162.5,363.5C 161.167,364.167 160.167,365.167 159.5,366.5C 155.182,366.173 151.515,364.506 148.5,361.5C 145.752,358.67 144.085,355.337 143.5,351.5C 139.824,341.78 137.158,331.78 135.5,321.5C 135.253,320.287 134.586,319.62 133.5,319.5C 133.5,319.167 133.5,318.833 133.5,318.5C 133.552,316.097 133.219,313.764 132.5,311.5 Z"/></g>
<g><path style="opacity:1" fill="#e8a06b" d="M 55.5,393.5 C 54.1667,393.5 52.8333,393.5 51.5,393.5C 51.4431,392.391 51.1098,391.391 50.5,390.5C 50.6658,385.821 50.4992,381.155 50,376.5C 49.3292,375.748 48.4959,375.414 47.5,375.5C 47.5,372.833 47.5,370.167 47.5,367.5C 47.5,366.5 47.5,365.5 47.5,364.5C 48.8799,364.038 49.5466,363.038 49.5,361.5C 48.0083,359.028 47.3416,356.361 47.5,353.5C 48.3636,352.312 49.3636,351.145 50.5,350C 52.1346,349.46 53.4679,349.96 54.5,351.5C 54.8333,351 55.1667,350.5 55.5,350C 54.7437,347.909 53.577,346.076 52,344.5C 51.3333,340.5 51.3333,336.5 52,332.5C 53.3712,330.959 54.8712,329.625 56.5,328.5C 58.861,328.326 61.1944,327.993 63.5,327.5C 63.5,328.5 63.5,329.5 63.5,330.5C 66.2776,330.022 68.2776,331.022 69.5,333.5C 68.3915,335.214 69.0582,335.881 71.5,335.5C 71.3433,336.873 71.51,338.207 72,339.5C 75.8854,341.863 79.7187,344.363 83.5,347C 85.0368,348.11 85.7035,349.61 85.5,351.5C 86.8333,351.5 88.1667,351.5 89.5,351.5C 89.7186,356.06 88.0519,359.727 84.5,362.5C 83.8333,365.167 83.1667,367.833 82.5,370.5C 81.2997,371.531 79.9663,372.365 78.5,373C 79.5591,376.96 79.5591,380.627 78.5,384C 76.2199,384.233 74.2199,385.066 72.5,386.5C 73.5,389.167 74.5,391.833 75.5,394.5C 74.3333,394.833 73.1667,395.167 72,395.5C 66.5661,394.246 61.0661,393.579 55.5,393.5 Z"/></g>
<g><path style="opacity:1" fill="#230d10" d="M 382.5,312.5 C 382.263,313.791 382.596,314.791 383.5,315.5C 384.234,316.708 384.567,318.041 384.5,319.5C 383.347,325.653 383.18,331.986 384,338.5C 385.153,342.787 385.987,347.121 386.5,351.5C 386.758,355.44 387.924,359.107 390,362.5C 390.5,370.827 390.666,379.16 390.5,387.5C 393.505,387.25 395.338,388.583 396,391.5C 397.202,395.88 396.036,399.38 392.5,402C 387.414,403.901 382.08,404.735 376.5,404.5C 368.196,403.178 359.863,402.178 351.5,401.5C 340.576,387.24 328.576,373.907 315.5,361.5C 320.443,359.202 325.11,356.535 329.5,353.5C 339.644,348.675 348.978,342.675 357.5,335.5C 361.291,332.882 364.957,330.049 368.5,327C 372.719,321.616 377.386,316.783 382.5,312.5 Z"/></g>
<g><path style="opacity:1" fill="#d2a489" d="M 66.5,326.5 C 63.8127,326.336 61.146,326.503 58.5,327C 57.5842,327.278 56.9175,327.778 56.5,328.5C 54.8712,329.625 53.3712,330.959 52,332.5C 51.3333,336.5 51.3333,340.5 52,344.5C 53.577,346.076 54.7437,347.909 55.5,350C 55.1667,350.5 54.8333,351 54.5,351.5C 53.4679,349.96 52.1346,349.46 50.5,350C 49.3636,351.145 48.3636,352.312 47.5,353.5C 47.5,352.833 47.5,352.167 47.5,351.5C 47.2627,350.209 47.596,349.209 48.5,348.5C 49.5862,348.38 50.2528,347.713 50.5,346.5C 49.9573,344.032 49.6239,341.532 49.5,339C 50.3626,328.002 56.0293,323.835 66.5,326.5 Z"/></g>
<g><path style="opacity:1" fill="#4076ba" d="M 130.5,312.5 C 131.797,314.371 132.797,316.371 133.5,318.5C 133.5,318.833 133.5,319.167 133.5,319.5C 134.679,330.05 137.346,340.217 141.5,350C 141.836,351.03 142.503,351.53 143.5,351.5C 144.085,355.337 145.752,358.67 148.5,361.5C 147.448,361.649 146.448,361.483 145.5,361C 143.83,358.405 141.996,355.905 140,353.5C 139.458,349.54 138.125,345.874 136,342.5C 134.775,332.292 132.942,322.292 130.5,312.5 Z"/></g>
<g><path style="opacity:1" fill="#828ca6" d="M 47.5,351.5 C 47.5,352.167 47.5,352.833 47.5,353.5C 47.3416,356.361 48.0083,359.028 49.5,361.5C 49.5466,363.038 48.8799,364.038 47.5,364.5C 47.0756,360.966 46.4089,357.466 45.5,354C 45.6842,352.624 46.3509,351.791 47.5,351.5 Z"/></g>
<g><path style="opacity:1" fill="#c1aca2" d="M 103.5,316.5 C 104.329,324.657 104.829,332.99 105,341.5C 105.278,342.416 105.778,343.082 106.5,343.5C 106.833,346.167 107.167,348.833 107.5,351.5C 107.5,356.833 107.5,362.167 107.5,367.5C 106.732,366.737 106.232,365.737 106,364.5C 105.667,358.167 105.333,351.833 105,345.5C 104.529,343.754 103.862,342.087 103,340.5C 102.501,332.488 102.667,324.488 103.5,316.5 Z"/></g>
<g><path style="opacity:1" fill="#8b91a3" d="M 107.5,351.5 C 108.21,356.732 108.877,362.065 109.5,367.5C 108.833,367.5 108.167,367.5 107.5,367.5C 107.5,362.167 107.5,356.833 107.5,351.5 Z"/></g>
<g><path style="opacity:1" fill="#4180cb" d="M 127.5,375.5 C 123.922,374.708 120.588,373.375 117.5,371.5C 116.292,368.956 114.292,367.622 111.5,367.5C 110.833,367.5 110.167,367.5 109.5,367.5C 108.877,362.065 108.21,356.732 107.5,351.5C 107.167,348.833 106.833,346.167 106.5,343.5C 107.452,344.452 108.452,345.452 109.5,346.5C 108.494,347.396 108.494,348.062 109.5,348.5C 110.308,346.577 110.808,344.577 111,342.5C 110.88,349.161 110.88,355.827 111,362.5C 112.458,361.253 113.958,361.253 115.5,362.5C 117.439,364.122 117.772,365.956 116.5,368C 120.546,370.017 124.212,372.517 127.5,375.5 Z"/></g>
<g><path style="opacity:1" fill="#e89e6a" d="M 357.5,335.5 C 348.978,342.675 339.644,348.675 329.5,353.5C 326.729,353.421 324.063,353.921 321.5,355C 320.027,355.71 319.36,356.876 319.5,358.5C 317.833,358.5 316.167,358.5 314.5,358.5C 314.657,359.873 314.49,361.207 314,362.5C 311.304,363.19 309.137,364.69 307.5,367C 308.081,367.893 308.415,368.893 308.5,370C 307.678,372.472 307.011,374.972 306.5,377.5C 305.5,377.5 304.5,377.5 303.5,377.5C 303.5,388.5 303.5,399.5 303.5,410.5C 302.686,408.369 302.186,406.036 302,403.5C 301.333,395.833 301.333,388.167 302,380.5C 303.172,375.339 304.505,370.339 306,365.5C 299.391,371.252 295.391,378.585 294,387.5C 293.667,394.833 293.333,402.167 293,409.5C 284.71,406.125 276.21,403.459 267.5,401.5C 263.555,400.509 259.555,400.176 255.5,400.5C 238.42,397.043 223.253,389.71 210,378.5C 205.648,373.113 201.815,367.447 198.5,361.5C 204.866,363.142 211.199,364.975 217.5,367C 227.542,367.322 237.542,368.155 247.5,369.5C 255.5,368.5 263.5,367.5 271.5,366.5C 276.442,363.702 281.776,362.035 287.5,361.5C 287.36,359.876 288.027,358.71 289.5,358C 293.804,356.894 298.137,355.894 302.5,355C 303.337,353.989 303.67,352.822 303.5,351.5C 307.501,349.567 311.835,348.067 316.5,347C 319.995,343.749 323.995,341.249 328.5,339.5C 329.782,336.358 332.115,335.025 335.5,335.5C 335.5,334.167 335.5,332.833 335.5,331.5C 337.308,331.509 338.975,331.009 340.5,330C 343.833,327.333 347.167,324.667 350.5,322C 351.38,320.644 351.714,319.144 351.5,317.5C 352.675,317.719 353.675,317.386 354.5,316.5C 355.556,314.354 357.056,312.688 359,311.5C 361.791,312.317 364.458,313.317 367,314.5C 370.194,313.397 373.361,313.397 376.5,314.5C 371.232,321.699 365.065,328.032 358,333.5C 357.536,334.094 357.369,334.761 357.5,335.5 Z"/></g>
<g><path style="opacity:1" fill="#e7ac7e" d="M 329.5,353.5 C 325.11,356.535 320.443,359.202 315.5,361.5C 328.576,373.907 340.576,387.24 351.5,401.5C 351.5,401.833 351.5,402.167 351.5,402.5C 351.5,403.167 351.5,403.833 351.5,404.5C 351.995,406.482 352.495,408.482 353,410.5C 355.772,413.439 357.938,416.772 359.5,420.5C 357.483,422.217 357.15,424.217 358.5,426.5C 354.862,427.466 353.195,429.799 353.5,433.5C 349.808,433.695 347.974,435.695 348,439.5C 344.549,437.83 342.049,438.83 340.5,442.5C 337.755,441.025 335.588,441.691 334,444.5C 333.196,443.196 332.029,442.529 330.5,442.5C 326.696,442.225 322.863,442.225 319,442.5C 317.152,439.959 314.652,438.959 311.5,439.5C 308.261,432.455 305.594,425.122 303.5,417.5C 303.5,415.167 303.5,412.833 303.5,410.5C 303.5,399.5 303.5,388.5 303.5,377.5C 304.5,377.5 305.5,377.5 306.5,377.5C 307.011,374.972 307.678,372.472 308.5,370C 308.415,368.893 308.081,367.893 307.5,367C 309.137,364.69 311.304,363.19 314,362.5C 314.49,361.207 314.657,359.873 314.5,358.5C 316.167,358.5 317.833,358.5 319.5,358.5C 319.36,356.876 320.027,355.71 321.5,355C 324.063,353.921 326.729,353.421 329.5,353.5 Z"/></g>
<g><path style="opacity:1" fill="#7e8aab" d="M 47.5,367.5 C 47.5,370.167 47.5,372.833 47.5,375.5C 45.9735,374.508 45.3068,373.008 45.5,371C 45.6083,369.319 46.2749,368.152 47.5,367.5 Z"/></g>
<g><path style="opacity:1" fill="#a49ba1" d="M 111.5,367.5 C 114.292,367.622 116.292,368.956 117.5,371.5C 115.565,370.85 113.565,370.517 111.5,370.5C 111.5,369.5 111.5,368.5 111.5,367.5 Z"/></g>
<g><path style="opacity:1" fill="#c9a497" d="M 158.5,367.5 C 156.411,373.594 153.078,378.927 148.5,383.5C 148.351,382.448 148.517,381.448 149,380.5C 152.188,376.099 155.355,371.766 158.5,367.5 Z"/></g>
<g><path style="opacity:1" fill="#e89e6a" d="M 162.5,363.5 C 167.985,374.772 170.985,386.772 171.5,399.5C 172.955,417.211 172.622,434.878 170.5,452.5C 165.693,461.243 158.359,466.576 148.5,468.5C 148.167,468.5 147.833,468.5 147.5,468.5C 145.031,467.683 142.365,467.183 139.5,467C 140.833,466.333 140.833,465.667 139.5,465C 144.051,461.934 147.384,457.768 149.5,452.5C 150.833,445.5 150.833,438.5 149.5,431.5C 148.288,426.327 146.622,421.327 144.5,416.5C 145.855,415.325 145.688,414.325 144,413.5C 143.824,410.118 143.324,406.785 142.5,403.5C 140.985,401.453 140.151,399.119 140,396.5C 138.989,395.663 137.822,395.33 136.5,395.5C 136.657,394.127 136.49,392.793 136,391.5C 132.419,389.433 130.252,386.433 129.5,382.5C 131.988,382.683 133.988,383.683 135.5,385.5C 135.833,385.5 136.167,385.5 136.5,385.5C 142.606,396.638 146.606,395.971 148.5,383.5C 153.078,378.927 156.411,373.594 158.5,367.5C 159.167,367.5 159.5,367.167 159.5,366.5C 160.167,365.167 161.167,364.167 162.5,363.5 Z"/></g>
<g><path style="opacity:1" fill="#4080ce" d="M 148.5,361.5 C 151.515,364.506 155.182,366.173 159.5,366.5C 159.5,367.167 159.167,367.5 158.5,367.5C 155.355,371.766 152.188,376.099 149,380.5C 148.517,381.448 148.351,382.448 148.5,383.5C 147.503,383.47 146.836,383.97 146.5,385C 145.896,387.584 145.063,390.084 144,392.5C 141.63,389.961 139.13,387.628 136.5,385.5C 136.167,385.5 135.833,385.5 135.5,385.5C 133.183,381.854 130.516,378.52 127.5,375.5C 129.359,375.461 130.692,376.294 131.5,378C 132.833,378.667 134.167,378.667 135.5,378C 133.963,376.89 133.297,375.39 133.5,373.5C 134.822,373.33 135.989,373.663 137,374.5C 137.216,376.384 137.883,378.051 139,379.5C 140.201,377.091 141.867,375.091 144,373.5C 144.895,375.804 145.729,378.138 146.5,380.5C 148.272,379.73 149.272,378.397 149.5,376.5C 148.723,374.553 147.723,372.72 146.5,371C 147.648,369.274 148.815,369.441 150,371.5C 150.92,371.07 151.753,370.736 152.5,370.5C 151.571,368.362 149.904,367.196 147.5,367C 149.83,365.512 150.164,363.679 148.5,361.5 Z"/></g>
<g><path style="opacity:1" fill="#b2a0a0" d="M 47.5,375.5 C 48.4959,375.414 49.3292,375.748 50,376.5C 50.4992,381.155 50.6658,385.821 50.5,390.5C 49.8826,390.389 49.3826,390.056 49,389.5C 48.447,386.641 48.6137,383.808 49.5,381C 49.6134,379.301 48.9468,378.134 47.5,377.5C 47.5,376.833 47.5,376.167 47.5,375.5 Z"/></g>
<g><path style="opacity:1" fill="#c41409" d="M 177.5,352.5 C 184.121,356.309 191.121,359.309 198.5,361.5C 201.815,367.447 205.648,373.113 210,378.5C 223.253,389.71 238.42,397.043 255.5,400.5C 267.682,404.055 280.016,407.555 292.5,411C 296.524,412.674 300.191,414.841 303.5,417.5C 305.594,425.122 308.261,432.455 311.5,439.5C 311.733,442.542 312.733,445.208 314.5,447.5C 320.597,463.026 327.763,478.026 336,492.5C 337.136,495.096 337.969,497.763 338.5,500.5C 317.5,500.5 296.5,500.5 275.5,500.5C 257.21,490.401 241.043,477.401 227,461.5C 218.54,450.059 210.54,438.392 203,426.5C 212.612,451.163 227.779,471.997 248.5,489C 254.428,493.12 260.428,496.953 266.5,500.5C 229.5,500.5 192.5,500.5 155.5,500.5C 155.81,497.287 155.477,494.287 154.5,491.5C 154.59,488.848 153.924,486.515 152.5,484.5C 152.5,482.833 152.5,481.167 152.5,479.5C 152.5,478.167 152.5,476.833 152.5,475.5C 153.5,475.5 154.5,475.5 155.5,475.5C 155.5,476.833 155.5,478.167 155.5,479.5C 156.833,479.5 158.167,479.5 159.5,479.5C 159.5,480.833 159.5,482.167 159.5,483.5C 164.718,484.645 167.885,482.645 169,477.5C 171.247,467.635 172.747,457.635 173.5,447.5C 173.667,434.163 173.5,420.829 173,407.5C 172.817,404.635 172.317,401.969 171.5,399.5C 170.985,386.772 167.985,374.772 162.5,363.5C 166.679,358.645 171.679,354.979 177.5,352.5 Z"/></g>
<g><path style="opacity:1" fill="#161529" d="M 386.5,351.5 C 391.796,360.676 393.963,370.676 393,381.5C 393.516,384.547 395.016,386.88 397.5,388.5C 400.482,393.624 399.816,398.291 395.5,402.5C 388.705,404.949 381.705,406.615 374.5,407.5C 369.584,406.746 364.918,405.246 360.5,403C 357.518,402.502 354.518,402.335 351.5,402.5C 351.5,402.167 351.5,401.833 351.5,401.5C 359.863,402.178 368.196,403.178 376.5,404.5C 382.08,404.735 387.414,403.901 392.5,402C 396.036,399.38 397.202,395.88 396,391.5C 395.338,388.583 393.505,387.25 390.5,387.5C 390.666,379.16 390.5,370.827 390,362.5C 387.924,359.107 386.758,355.44 386.5,351.5 Z"/></g>
<g><path style="opacity:1" fill="#c0a395" d="M 148.5,383.5 C 146.606,395.971 142.606,396.638 136.5,385.5C 139.13,387.628 141.63,389.961 144,392.5C 145.063,390.084 145.896,387.584 146.5,385C 146.836,383.97 147.503,383.47 148.5,383.5 Z"/></g>
<g><path style="opacity:1" fill="#878a9d" d="M 51.5,393.5 C 52.8333,393.5 54.1667,393.5 55.5,393.5C 59.3189,394.681 62.9855,396.014 66.5,397.5C 60.7228,398.447 55.7228,397.113 51.5,393.5 Z"/></g>
<g><path style="opacity:1" fill="#d73727" d="M 171.5,361.5 C 181.441,387.93 188.274,415.263 192,443.5C 193.06,452.974 192.393,462.307 190,471.5C 188.71,473.792 187.043,475.792 185,477.5C 186.983,461.236 186.983,444.902 185,428.5C 181.604,405.919 177.104,383.586 171.5,361.5 Z"/></g>
<g><path style="opacity:1" fill="#2f80d9" d="M 484.5,489.5 C 484.5,493.167 484.5,496.833 484.5,500.5C 443.5,500.5 402.5,500.5 361.5,500.5C 364.294,497.243 366.294,493.577 367.5,489.5C 370.25,486.667 371.916,483.334 372.5,479.5C 373.434,478.432 373.768,477.099 373.5,475.5C 374.222,475.082 374.722,474.416 375,473.5C 375.745,463.415 375.078,453.415 373,443.5C 372.329,442.748 371.496,442.414 370.5,442.5C 370.25,440.326 369.25,438.659 367.5,437.5C 367.5,435.5 367.5,433.5 367.5,431.5C 367.673,425.967 367.34,420.801 366.5,416C 367.328,415.085 368.328,414.419 369.5,414C 374.202,413.828 378.868,413.328 383.5,412.5C 376.492,409.498 369.825,410.164 363.5,414.5C 366.196,418.784 365.363,419.451 361,416.5C 360.506,414.866 360.34,413.199 360.5,411.5C 362.901,410.951 365.235,410.118 367.5,409C 374.551,408.789 381.551,408.122 388.5,407C 391.107,405.648 393.44,404.148 395.5,402.5C 398.496,400.834 401.663,399.501 405,398.5C 415.167,406.667 424.333,415.833 432.5,426C 436.414,429.522 440.58,432.689 445,435.5C 446.419,437.336 447.586,439.336 448.5,441.5C 451.683,441.777 453.683,443.444 454.5,446.5C 457.861,449.86 461.528,452.86 465.5,455.5C 462.169,455.86 459.503,457.36 457.5,460C 458.916,462.265 460.916,463.431 463.5,463.5C 463.446,466.967 464.946,469.634 468,471.5C 469.608,476.126 472.441,479.959 476.5,483C 477.448,483.483 478.448,483.649 479.5,483.5C 479.5,485.5 479.5,487.5 479.5,489.5C 481.167,489.5 482.833,489.5 484.5,489.5 Z"/></g>
<g><path style="opacity:1" fill="#e28a52" d="M 303.5,410.5 C 303.5,412.833 303.5,415.167 303.5,417.5C 300.191,414.841 296.524,412.674 292.5,411C 280.016,407.555 267.682,404.055 255.5,400.5C 259.555,400.176 263.555,400.509 267.5,401.5C 276.21,403.459 284.71,406.125 293,409.5C 293.333,402.167 293.667,394.833 294,387.5C 295.391,378.585 299.391,371.252 306,365.5C 304.505,370.339 303.172,375.339 302,380.5C 301.333,388.167 301.333,395.833 302,403.5C 302.186,406.036 302.686,408.369 303.5,410.5 Z"/></g>
<g><path style="opacity:1" fill="#407fca" d="M 351.5,402.5 C 354.518,402.335 357.518,402.502 360.5,403C 364.918,405.246 369.584,406.746 374.5,407.5C 381.705,406.615 388.705,404.949 395.5,402.5C 393.44,404.148 391.107,405.648 388.5,407C 381.551,408.122 374.551,408.789 367.5,409C 365.235,410.118 362.901,410.951 360.5,411.5C 360.34,413.199 360.506,414.866 361,416.5C 365.363,419.451 366.196,418.784 363.5,414.5C 369.825,410.164 376.492,409.498 383.5,412.5C 378.868,413.328 374.202,413.828 369.5,414C 368.328,414.419 367.328,415.085 366.5,416C 367.34,420.801 367.673,425.967 367.5,431.5C 365.824,430.817 365.157,429.483 365.5,427.5C 365.662,425.473 365.495,423.473 365,421.5C 363.989,420.663 362.822,420.33 361.5,420.5C 359.081,414.546 355.748,409.212 351.5,404.5C 351.5,403.833 351.5,403.167 351.5,402.5 Z"/></g>
<g><path style="opacity:1" fill="#2f7fd8" d="M 79.5,412.5 C 79.2627,413.791 79.596,414.791 80.5,415.5C 81.1056,421.716 83.4389,427.049 87.5,431.5C 88.3382,431.842 88.6716,432.508 88.5,433.5C 88.3433,434.873 88.51,436.207 89,437.5C 90.8294,439.156 92.1628,441.156 93,443.5C 93.6708,444.252 94.5041,444.586 95.5,444.5C 98.1667,447.167 100.833,449.833 103.5,452.5C 106.948,457.287 111.281,460.954 116.5,463.5C 116.611,464.117 116.944,464.617 117.5,465C 120.777,466.143 124.11,466.977 127.5,467.5C 134.127,468.804 140.794,469.804 147.5,470.5C 148.039,476.883 149.706,482.883 152.5,488.5C 152.646,492.519 152.979,496.519 153.5,500.5C 102.167,500.5 50.8333,500.5 -0.5,500.5C -0.5,496.5 -0.5,492.5 -0.5,488.5C 6.44917,480.214 13.7825,472.214 21.5,464.5C 27.2458,463.969 28.0792,461.636 24,457.5C 23.3333,456.167 23.3333,454.833 24,453.5C 26.642,449.359 29.4753,445.359 32.5,441.5C 34.2913,440.076 36.1246,438.742 38,437.5C 38.9786,433.518 41.4786,431.352 45.5,431C 49.721,425.536 54.3877,420.536 59.5,416C 60.7932,415.51 62.1266,415.343 63.5,415.5C 64.1667,411.5 64.8333,411.5 65.5,415.5C 68.5719,415.817 71.5719,415.484 74.5,414.5C 69.6048,414.446 67.4382,412.112 68,407.5C 70.4815,409.314 73.3148,409.98 76.5,409.5C 76.5,410.5 76.5,411.5 76.5,412.5C 77.5,412.5 78.5,412.5 79.5,412.5 Z"/></g>
<g><path style="opacity:1" fill="#caa38f" d="M 351.5,404.5 C 355.748,409.212 359.081,414.546 361.5,420.5C 360.833,420.5 360.167,420.5 359.5,420.5C 357.938,416.772 355.772,413.439 353,410.5C 352.495,408.482 351.995,406.482 351.5,404.5 Z"/></g>
<g><path style="opacity:1" fill="#f88864" d="M 171.5,399.5 C 172.317,401.969 172.817,404.635 173,407.5C 173.5,420.829 173.667,434.163 173.5,447.5C 172.687,449.261 171.687,450.928 170.5,452.5C 172.622,434.878 172.955,417.211 171.5,399.5 Z"/></g>
<g><path style="opacity:1" fill="#4f7db6" d="M 80.5,415.5 C 83.3507,420.541 85.684,425.875 87.5,431.5C 83.4389,427.049 81.1056,421.716 80.5,415.5 Z"/></g>
<g><path style="opacity:1" fill="#db3524" d="M 191.5,367.5 C 199.166,386.018 210.166,402.184 224.5,416C 238.851,428.516 254.851,438.516 272.5,446C 240.822,438.907 216.655,421.407 200,393.5C 195.704,385.258 192.871,376.591 191.5,367.5 Z"/></g>
<g><path style="opacity:1" fill="#c9afa1" d="M 77.5,404.5 C 78.9756,406.062 80.4756,407.729 82,409.5C 82.5488,416.001 84.8821,421.668 89,426.5C 89.3949,429.652 90.2282,432.652 91.5,435.5C 90.5,434.833 89.5,434.167 88.5,433.5C 88.6716,432.508 88.3382,431.842 87.5,431.5C 85.684,425.875 83.3507,420.541 80.5,415.5C 79.596,414.791 79.2627,413.791 79.5,412.5C 78.8333,409.833 78.1667,407.167 77.5,404.5 Z"/></g>
<g><path style="opacity:1" fill="#2d78cd" d="M 484.5,467.5 C 484.5,474.833 484.5,482.167 484.5,489.5C 482.833,489.5 481.167,489.5 479.5,489.5C 479.5,487.5 479.5,485.5 479.5,483.5C 478.448,483.649 477.448,483.483 476.5,483C 472.441,479.959 469.608,476.126 468,471.5C 464.946,469.634 463.446,466.967 463.5,463.5C 460.916,463.431 458.916,462.265 457.5,460C 459.503,457.36 462.169,455.86 465.5,455.5C 461.528,452.86 457.861,449.86 454.5,446.5C 453.683,443.444 451.683,441.777 448.5,441.5C 447.586,439.336 446.419,437.336 445,435.5C 440.58,432.689 436.414,429.522 432.5,426C 424.333,415.833 415.167,406.667 405,398.5C 401.663,399.501 398.496,400.834 395.5,402.5C 399.816,398.291 400.482,393.624 397.5,388.5C 401.119,387.594 402.952,389.26 403,393.5C 417.094,405.437 431.594,416.77 446.5,427.5C 447.429,428.689 447.762,430.022 447.5,431.5C 453.492,433.674 459.492,436.174 465.5,439C 464.833,439.333 464.167,439.667 463.5,440C 465.247,442.097 467.58,442.763 470.5,442C 468.343,443.085 468.176,444.251 470,445.5C 471.666,444.66 471.833,445.16 470.5,447C 471.833,447.333 473.167,447.667 474.5,448C 475.333,450.167 476.833,451.667 479,452.5C 479.979,456.23 478.813,459.064 475.5,461C 478.244,462.324 479.577,464.491 479.5,467.5C 481.167,467.5 482.833,467.5 484.5,467.5 Z"/></g>
<g><path style="opacity:1" fill="#5480b7" d="M 88.5,433.5 C 89.5,434.167 90.5,434.833 91.5,435.5C 92.8821,438.526 94.2154,441.526 95.5,444.5C 94.5041,444.586 93.6708,444.252 93,443.5C 92.1628,441.156 90.8294,439.156 89,437.5C 88.51,436.207 88.3433,434.873 88.5,433.5 Z"/></g>
<g><path style="opacity:1" fill="#e79f6b" d="M 365.5,427.5 C 365.157,429.483 365.824,430.817 367.5,431.5C 367.5,433.5 367.5,435.5 367.5,437.5C 368.1,440.332 368.767,443.165 369.5,446C 369.836,447.03 370.503,447.53 371.5,447.5C 371.586,451.857 371.92,456.19 372.5,460.5C 371.783,467.83 370.949,475.163 370,482.5C 368.589,484.65 367.755,486.984 367.5,489.5C 365.983,489.511 364.816,490.177 364,491.5C 362.729,494.482 361.562,497.482 360.5,500.5C 353.833,500.5 347.167,500.5 340.5,500.5C 343.163,497.086 346.163,493.92 349.5,491C 349.833,490.833 350.167,490.667 350.5,490.5C 351.281,491.729 351.781,493.062 352,494.5C 352.158,488.763 353.991,483.763 357.5,479.5C 358.287,476.152 359.121,472.818 360,469.5C 360.469,458.159 360.303,446.826 359.5,435.5C 361.522,433.581 361.856,431.414 360.5,429C 362.154,428.392 363.821,427.892 365.5,427.5 Z"/></g>
<g><path style="opacity:1" fill="#bca39d" d="M 367.5,437.5 C 369.25,438.659 370.25,440.326 370.5,442.5C 371.038,444.117 371.371,445.784 371.5,447.5C 370.503,447.53 369.836,447.03 369.5,446C 368.767,443.165 368.1,440.332 367.5,437.5 Z"/></g>
<g><path style="opacity:1" fill="#571e0c" d="M 359.5,420.5 C 360.167,420.5 360.833,420.5 361.5,420.5C 362.822,420.33 363.989,420.663 365,421.5C 365.495,423.473 365.662,425.473 365.5,427.5C 363.821,427.892 362.154,428.392 360.5,429C 361.856,431.414 361.522,433.581 359.5,435.5C 358.127,435.343 356.793,435.51 355.5,436C 356.479,440.517 354.479,442.35 349.5,441.5C 349.2,445.976 347.033,447.31 343,445.5C 341.253,449.421 338.419,450.421 334.5,448.5C 331.144,451.456 328.311,451.123 326,447.5C 322.778,450.355 319.944,450.021 317.5,446.5C 316.583,447.127 315.583,447.461 314.5,447.5C 312.733,445.208 311.733,442.542 311.5,439.5C 314.652,438.959 317.152,439.959 319,442.5C 322.863,442.225 326.696,442.225 330.5,442.5C 332.029,442.529 333.196,443.196 334,444.5C 335.588,441.691 337.755,441.025 340.5,442.5C 342.049,438.83 344.549,437.83 348,439.5C 347.974,435.695 349.808,433.695 353.5,433.5C 353.195,429.799 354.862,427.466 358.5,426.5C 357.15,424.217 357.483,422.217 359.5,420.5 Z"/></g>
<g><path style="opacity:1" fill="#e8ac7f" d="M 359.5,435.5 C 360.303,446.826 360.469,458.159 360,469.5C 359.121,472.818 358.287,476.152 357.5,479.5C 353.991,483.763 352.158,488.763 352,494.5C 351.781,493.062 351.281,491.729 350.5,490.5C 350.167,490.667 349.833,490.833 349.5,491C 346.163,493.92 343.163,497.086 340.5,500.5C 339.833,500.5 339.167,500.5 338.5,500.5C 337.969,497.763 337.136,495.096 336,492.5C 327.763,478.026 320.597,463.026 314.5,447.5C 315.583,447.461 316.583,447.127 317.5,446.5C 319.944,450.021 322.778,450.355 326,447.5C 328.311,451.123 331.144,451.456 334.5,448.5C 338.419,450.421 341.253,449.421 343,445.5C 347.033,447.31 349.2,445.976 349.5,441.5C 354.479,442.35 356.479,440.517 355.5,436C 356.793,435.51 358.127,435.343 359.5,435.5 Z"/></g>
<g><path style="opacity:1" fill="#c5b0aa" d="M 103.5,452.5 C 107.015,455.174 110.681,457.674 114.5,460C 115.823,460.816 116.489,461.983 116.5,463.5C 111.281,460.954 106.948,457.287 103.5,452.5 Z"/></g>
<g><path style="opacity:1" fill="#2e77c9" d="M 47.5,377.5 C 48.9468,378.134 49.6134,379.301 49.5,381C 48.6137,383.808 48.447,386.641 49,389.5C 49.3826,390.056 49.8826,390.389 50.5,390.5C 51.1098,391.391 51.4431,392.391 51.5,393.5C 55.7228,397.113 60.7228,398.447 66.5,397.5C 71.0233,398.727 74.69,401.061 77.5,404.5C 78.1667,407.167 78.8333,409.833 79.5,412.5C 78.5,412.5 77.5,412.5 76.5,412.5C 76.5,411.5 76.5,410.5 76.5,409.5C 73.3148,409.98 70.4815,409.314 68,407.5C 67.4382,412.112 69.6048,414.446 74.5,414.5C 71.5719,415.484 68.5719,415.817 65.5,415.5C 64.8333,411.5 64.1667,411.5 63.5,415.5C 62.1266,415.343 60.7932,415.51 59.5,416C 54.3877,420.536 49.721,425.536 45.5,431C 41.4786,431.352 38.9786,433.518 38,437.5C 36.1246,438.742 34.2913,440.076 32.5,441.5C 29.4753,445.359 26.642,449.359 24,453.5C 23.3333,454.833 23.3333,456.167 24,457.5C 28.0792,461.636 27.2458,463.969 21.5,464.5C 13.7825,472.214 6.44917,480.214 -0.5,488.5C -0.5,481.167 -0.5,473.833 -0.5,466.5C 2.22545,465.287 4.55878,463.454 6.5,461C 5.07999,458.791 3.41332,456.791 1.5,455C 3.78547,453.04 5.78547,450.874 7.5,448.5C 10.0865,447.52 12.7531,447.187 15.5,447.5C 15.2865,445.856 15.6198,444.356 16.5,443C 18.7049,441.294 21.0383,439.794 23.5,438.5C 24.9827,435.855 26.8161,433.522 29,431.5C 29.3333,431.833 29.6667,432.167 30,432.5C 33.5518,429.281 37.3851,426.448 41.5,424C 42.2931,422.915 42.9598,421.748 43.5,420.5C 46.9998,418.802 50.3331,416.969 53.5,415C 54.3366,413.989 54.67,412.822 54.5,411.5C 55.552,411.649 56.552,411.483 57.5,411C 59.5062,408.726 61.8395,406.892 64.5,405.5C 65.8485,403.389 65.5152,401.555 63.5,400C 64.1667,399.667 64.8333,399.333 65.5,399C 61.7745,398.24 58.1078,398.407 54.5,399.5C 53.6143,398.675 53.281,397.675 53.5,396.5C 52.1667,396.5 50.8333,396.5 49.5,396.5C 49.719,397.675 49.3857,398.675 48.5,399.5C 48.1667,398.833 47.8333,398.167 47.5,397.5C 48.1667,396.167 48.8333,394.833 49.5,393.5C 47.6678,388.403 47.0011,383.069 47.5,377.5 Z"/></g>
<g><path style="opacity:1" fill="#d33324" d="M 275.5,500.5 C 272.5,500.5 269.5,500.5 266.5,500.5C 260.428,496.953 254.428,493.12 248.5,489C 227.779,471.997 212.612,451.163 203,426.5C 210.54,438.392 218.54,450.059 227,461.5C 241.043,477.401 257.21,490.401 275.5,500.5 Z"/></g>
<g><path style="opacity:1" fill="#547aaa" d="M 370.5,442.5 C 371.496,442.414 372.329,442.748 373,443.5C 375.078,453.415 375.745,463.415 375,473.5C 374.722,474.416 374.222,475.082 373.5,475.5C 375.119,465.884 374.452,456.55 371.5,447.5C 371.371,445.784 371.038,444.117 370.5,442.5 Z"/></g>
<g><path style="opacity:1" fill="#9795a9" d="M 127.5,467.5 C 134.153,468.054 140.82,468.388 147.5,468.5C 147.833,468.5 148.167,468.5 148.5,468.5C 148.5,469.167 148.5,469.833 148.5,470.5C 148.167,470.5 147.833,470.5 147.5,470.5C 140.794,469.804 134.127,468.804 127.5,467.5 Z"/></g>
<g><path style="opacity:1" fill="#a49ba4" d="M 371.5,447.5 C 374.452,456.55 375.119,465.884 373.5,475.5C 373.768,477.099 373.434,478.432 372.5,479.5C 373.268,472.994 373.268,466.661 372.5,460.5C 371.92,456.19 371.586,451.857 371.5,447.5 Z"/></g>
<g><path style="opacity:1" fill="#c02824" d="M 173.5,447.5 C 172.747,457.635 171.247,467.635 169,477.5C 167.885,482.645 164.718,484.645 159.5,483.5C 159.5,482.167 159.5,480.833 159.5,479.5C 158.167,479.5 156.833,479.5 155.5,479.5C 155.5,478.167 155.5,476.833 155.5,475.5C 154.5,475.5 153.5,475.5 152.5,475.5C 152.5,476.833 152.5,478.167 152.5,479.5C 150.952,479.179 150.285,478.179 150.5,476.5C 150.741,474.102 150.074,472.102 148.5,470.5C 148.5,469.833 148.5,469.167 148.5,468.5C 158.359,466.576 165.693,461.243 170.5,452.5C 171.687,450.928 172.687,449.261 173.5,447.5 Z"/></g>
<g><path style="opacity:1" fill="#794562" d="M 148.5,470.5 C 150.074,472.102 150.741,474.102 150.5,476.5C 148.926,474.898 148.259,472.898 148.5,470.5 Z"/></g>
<g><path style="opacity:1" fill="#cea48d" d="M 372.5,460.5 C 373.268,466.661 373.268,472.994 372.5,479.5C 371.916,483.334 370.25,486.667 367.5,489.5C 367.755,486.984 368.589,484.65 370,482.5C 370.949,475.163 371.783,467.83 372.5,460.5 Z"/></g>
<g><path style="opacity:1" fill="#696aa4" d="M 147.5,470.5 C 147.833,470.5 148.167,470.5 148.5,470.5C 148.259,472.898 148.926,474.898 150.5,476.5C 150.285,478.179 150.952,479.179 152.5,479.5C 152.5,481.167 152.5,482.833 152.5,484.5C 152.5,485.833 152.5,487.167 152.5,488.5C 149.706,482.883 148.039,476.883 147.5,470.5 Z"/></g>
<g><path style="opacity:1" fill="#971f3b" d="M 152.5,484.5 C 153.924,486.515 154.59,488.848 154.5,491.5C 153.833,490.5 153.167,489.5 152.5,488.5C 152.5,487.167 152.5,485.833 152.5,484.5 Z"/></g>
<g><path style="opacity:1" fill="#83415e" d="M 152.5,488.5 C 153.167,489.5 153.833,490.5 154.5,491.5C 155.477,494.287 155.81,497.287 155.5,500.5C 154.833,500.5 154.167,500.5 153.5,500.5C 152.979,496.519 152.646,492.519 152.5,488.5 Z"/></g>
<g><path style="opacity:1" fill="#c1a295" d="M 367.5,489.5 C 366.294,493.577 364.294,497.243 361.5,500.5C 361.167,500.5 360.833,500.5 360.5,500.5C 361.562,497.482 362.729,494.482 364,491.5C 364.816,490.177 365.983,489.511 367.5,489.5 Z"/></g>
</svg>
