<?xml version="1.0" encoding="UTF-8"?>
<!DOCTYPE svg PUBLIC "-//W3C//DTD SVG 1.1//EN" "http://www.w3.org/Graphics/SVG/1.1/DTD/svg11.dtd">
<svg xmlns="http://www.w3.org/2000/svg" version="1.1" width="275px" height="183px" style="shape-rendering:geometricPrecision; text-rendering:geometricPrecision; image-rendering:optimizeQuality; fill-rule:evenodd; clip-rule:evenodd" xmlns:xlink="http://www.w3.org/1999/xlink">
<g><path style="opacity:1" fill="#febda0" d="M -0.5,-0.5 C 91.1667,-0.5 182.833,-0.5 274.5,-0.5C 274.5,4.83333 274.5,10.1667 274.5,15.5C 265.475,15.8315 256.475,15.4982 247.5,14.5C 239.663,12.1871 231.663,11.1871 223.5,11.5C 223.5,10.1667 223.5,8.83333 223.5,7.5C 212.833,7.5 202.167,7.5 191.5,7.5C 191.5,6.16667 191.5,4.83333 191.5,3.5C 164.825,3.16687 138.158,3.50021 111.5,4.5C 108.833,5.16667 106.167,5.83333 103.5,6.5C 84.8287,7.72203 66.1621,7.72203 47.5,6.5C 47.5,7.83333 47.5,9.16667 47.5,10.5C 31.5087,11.1664 15.5087,11.4997 -0.5,11.5C -0.5,7.5 -0.5,3.5 -0.5,-0.5 Z"/></g>
<g><path style="opacity:1" fill="#feb79a" d="M 274.5,15.5 C 274.5,17.1667 274.5,18.8333 274.5,20.5C 265.482,20.5516 256.482,20.2183 247.5,19.5C 247.5,18.5 247.5,17.5 247.5,16.5C 237.997,16.9898 228.664,15.9898 219.5,13.5C 215.593,14.8112 211.593,15.4778 207.5,15.5C 207.5,14.5 207.5,13.5 207.5,12.5C 190.172,11.3326 172.839,11.3326 155.5,12.5C 143.455,12.5657 131.455,11.899 119.5,10.5C 103.526,11.8317 87.526,12.4984 71.5,12.5C 71.5,13.5 71.5,14.5 71.5,15.5C 60.8333,15.8333 50.1667,16.1667 39.5,16.5C 39.5,17.5 39.5,18.5 39.5,19.5C 26.1846,20.3327 12.8513,20.6661 -0.5,20.5C -0.5,17.5 -0.5,14.5 -0.5,11.5C 15.5087,11.4997 31.5087,11.1664 47.5,10.5C 47.5,9.16667 47.5,7.83333 47.5,6.5C 66.1621,7.72203 84.8287,7.72203 103.5,6.5C 106.167,5.83333 108.833,5.16667 111.5,4.5C 138.158,3.50021 164.825,3.16687 191.5,3.5C 191.5,4.83333 191.5,6.16667 191.5,7.5C 202.167,7.5 212.833,7.5 223.5,7.5C 223.5,8.83333 223.5,10.1667 223.5,11.5C 231.663,11.1871 239.663,12.1871 247.5,14.5C 256.475,15.4982 265.475,15.8315 274.5,15.5 Z"/></g>
<g><path style="opacity:1" fill="#feb295" d="M 274.5,20.5 C 274.5,24.1667 274.5,27.8333 274.5,31.5C 258.871,29.0875 243.205,26.7541 227.5,24.5C 223.524,25.1638 219.524,25.4971 215.5,25.5C 215.5,24.5 215.5,23.5 215.5,22.5C 207.5,22.5 199.5,22.5 191.5,22.5C 191.5,21.5 191.5,20.5 191.5,19.5C 170.167,19.5 148.833,19.5 127.5,19.5C 127.5,20.5 127.5,21.5 127.5,22.5C 110.147,22.9179 92.8132,22.9179 75.5,22.5C 56.5151,23.5804 37.8485,26.5804 19.5,31.5C 12.8587,32.3317 6.19208,32.6651 -0.5,32.5C -0.5,28.5 -0.5,24.5 -0.5,20.5C 12.8513,20.6661 26.1846,20.3327 39.5,19.5C 39.5,18.5 39.5,17.5 39.5,16.5C 50.1667,16.1667 60.8333,15.8333 71.5,15.5C 71.5,14.5 71.5,13.5 71.5,12.5C 87.526,12.4984 103.526,11.8317 119.5,10.5C 131.455,11.899 143.455,12.5657 155.5,12.5C 172.839,11.3326 190.172,11.3326 207.5,12.5C 207.5,13.5 207.5,14.5 207.5,15.5C 211.593,15.4778 215.593,14.8112 219.5,13.5C 228.664,15.9898 237.997,16.9898 247.5,16.5C 247.5,17.5 247.5,18.5 247.5,19.5C 256.482,20.2183 265.482,20.5516 274.5,20.5 Z"/></g>
<g><path style="opacity:1" fill="#feab8f" d="M 274.5,31.5 C 274.5,33.5 274.5,35.5 274.5,37.5C 268.336,39.2277 262.003,39.8944 255.5,39.5C 255.5,38.5 255.5,37.5 255.5,36.5C 247.6,34.8607 239.6,33.8607 231.5,33.5C 231.5,32.1667 231.5,30.8333 231.5,29.5C 226.186,30.1593 220.853,30.826 215.5,31.5C 200.902,29.337 186.235,27.6703 171.5,26.5C 135.525,28.1662 99.5252,28.9995 63.5,29C 55.4473,29.507 47.4473,30.3403 39.5,31.5C 39.5,32.5 39.5,33.5 39.5,34.5C 36.6592,34.5597 33.9925,35.2264 31.5,36.5C 28.8333,36.5 26.1667,36.5 23.5,36.5C 23.5,37.5 23.5,38.5 23.5,39.5C 15.5,39.5 7.5,39.5 -0.5,39.5C -0.5,37.1667 -0.5,34.8333 -0.5,32.5C 6.19208,32.6651 12.8587,32.3317 19.5,31.5C 37.8485,26.5804 56.5151,23.5804 75.5,22.5C 92.8132,22.9179 110.147,22.9179 127.5,22.5C 127.5,21.5 127.5,20.5 127.5,19.5C 148.833,19.5 170.167,19.5 191.5,19.5C 191.5,20.5 191.5,21.5 191.5,22.5C 199.5,22.5 207.5,22.5 215.5,22.5C 215.5,23.5 215.5,24.5 215.5,25.5C 219.524,25.4971 223.524,25.1638 227.5,24.5C 243.205,26.7541 258.871,29.0875 274.5,31.5 Z"/></g>
<g><path style="opacity:1" fill="#fea589" d="M 274.5,37.5 C 274.5,40.1667 274.5,42.8333 274.5,45.5C 262.164,43.4965 249.83,41.6632 237.5,40C 238.167,39.6667 238.833,39.3333 239.5,39C 220.458,36.2732 201.458,34.7732 182.5,34.5C 178.509,32.3904 174.176,31.3904 169.5,31.5C 162.006,31.3534 154.673,32.3534 147.5,34.5C 144.833,33.8333 142.167,33.1667 139.5,32.5C 135.075,34.4046 130.575,34.738 126,33.5C 119.954,35.1225 113.787,36.1225 107.5,36.5C 87.5168,35.5479 67.5168,35.2146 47.5,35.5C 44.994,36.7496 42.3274,37.4162 39.5,37.5C 39.67,38.8221 39.3366,39.9887 38.5,41C 36.444,41.3108 34.444,41.8108 32.5,42.5C 31.8333,42.1667 31.1667,41.8333 30.5,41.5C 26.4782,45.5146 21.6448,47.8479 16,48.5C 15.51,47.2068 15.3433,45.8734 15.5,44.5C 18.1667,44.5 20.8333,44.5 23.5,44.5C 24.5063,40.47 27.173,38.8033 31.5,39.5C 31.5,38.5 31.5,37.5 31.5,36.5C 33.9925,35.2264 36.6592,34.5597 39.5,34.5C 39.5,33.5 39.5,32.5 39.5,31.5C 47.4473,30.3403 55.4473,29.507 63.5,29C 99.5252,28.9995 135.525,28.1662 171.5,26.5C 186.235,27.6703 200.902,29.337 215.5,31.5C 220.853,30.826 226.186,30.1593 231.5,29.5C 231.5,30.8333 231.5,32.1667 231.5,33.5C 239.6,33.8607 247.6,34.8607 255.5,36.5C 255.5,37.5 255.5,38.5 255.5,39.5C 262.003,39.8944 268.336,39.2277 274.5,37.5 Z"/></g>
<g><path style="opacity:1" fill="#fe9f84" d="M 274.5,45.5 C 274.5,48.1667 274.5,50.8333 274.5,53.5C 265.552,52.09 256.552,51.09 247.5,50.5C 247.5,49.5 247.5,48.5 247.5,47.5C 241.633,46.008 235.633,45.008 229.5,44.5C 213.499,39.4786 197.165,38.3119 180.5,41C 181.791,38.9098 181.124,37.5764 178.5,37C 168.003,35.9294 157.67,36.7627 147.5,39.5C 143.524,38.8362 139.524,38.5029 135.5,38.5C 135.719,39.675 135.386,40.675 134.5,41.5C 131.7,40.2681 128.7,39.6015 125.5,39.5C 120.149,39.4844 114.982,40.1511 110,41.5C 105.184,40.7105 100.35,40.0438 95.5,39.5C 84.8863,41.0512 74.2196,41.7179 63.5,41.5C 63.5,42.5 63.5,43.5 63.5,44.5C 62.1147,43.3862 60.6147,42.3862 59,41.5C 57.7308,42.9047 57.2308,44.5714 57.5,46.5C 57.6716,47.4916 57.3382,48.1583 56.5,48.5C 55.8386,47.2825 55.1719,45.9492 54.5,44.5C 51.2451,45.7808 48.0784,46.4474 45,46.5C 44.7297,45.0677 45.3964,44.0677 47,43.5C 47.6667,42.1667 47.6667,40.8333 47,39.5C 41.7253,42.7721 36.7253,46.4388 32,50.5C 31.5172,49.552 31.3505,48.552 31.5,47.5C 31.281,46.325 31.6143,45.325 32.5,44.5C 37.4292,43.0334 42.0959,41.0334 46.5,38.5C 47.3857,37.675 47.719,36.675 47.5,35.5C 67.5168,35.2146 87.5168,35.5479 107.5,36.5C 113.787,36.1225 119.954,35.1225 126,33.5C 130.575,34.738 135.075,34.4046 139.5,32.5C 142.167,33.1667 144.833,33.8333 147.5,34.5C 154.673,32.3534 162.006,31.3534 169.5,31.5C 174.176,31.3904 178.509,32.3904 182.5,34.5C 201.458,34.7732 220.458,36.2732 239.5,39C 238.833,39.3333 238.167,39.6667 237.5,40C 249.83,41.6632 262.164,43.4965 274.5,45.5 Z"/></g>
<g><path style="opacity:1" fill="#fea38f" d="M 47.5,35.5 C 47.719,36.675 47.3857,37.675 46.5,38.5C 42.0959,41.0334 37.4292,43.0334 32.5,44.5C 31.6143,45.325 31.281,46.325 31.5,47.5C 29.8656,48.2066 28.5323,49.3732 27.5,51C 24.5032,52.3274 21.5032,53.6607 18.5,55C 12.1754,55.4995 5.84209,55.6662 -0.5,55.5C -0.5,50.1667 -0.5,44.8333 -0.5,39.5C 7.5,39.5 15.5,39.5 23.5,39.5C 23.5,38.5 23.5,37.5 23.5,36.5C 26.1667,36.5 28.8333,36.5 31.5,36.5C 31.5,37.5 31.5,38.5 31.5,39.5C 27.173,38.8033 24.5063,40.47 23.5,44.5C 20.8333,44.5 18.1667,44.5 15.5,44.5C 15.3433,45.8734 15.51,47.2068 16,48.5C 21.6448,47.8479 26.4782,45.5146 30.5,41.5C 31.1667,41.8333 31.8333,42.1667 32.5,42.5C 34.444,41.8108 36.444,41.3108 38.5,41C 39.3366,39.9887 39.67,38.8221 39.5,37.5C 42.3274,37.4162 44.994,36.7496 47.5,35.5 Z"/></g>
<g><path style="opacity:1" fill="#fc9785" d="M 56.5,48.5 C 52.9631,52.3852 49.4631,52.0519 46,47.5C 45.3333,48.5 45.3333,49.5 46,50.5C 47.586,51.376 49.086,52.376 50.5,53.5C 50.3764,54.1067 50.0431,54.44 49.5,54.5C 47.283,55.3686 44.9496,55.702 42.5,55.5C 47.0536,54.9813 47.387,53.648 43.5,51.5C 42.1861,52.3128 41.0195,53.3128 40,54.5C 39.6924,53.6919 39.1924,53.0253 38.5,52.5C 35.0349,54.4033 31.7016,56.57 28.5,59C 24.23,60.0754 19.8967,60.5754 15.5,60.5C 15.5,61.5 15.5,62.5 15.5,63.5C 10.1667,63.5 4.83333,63.5 -0.5,63.5C -0.5,60.8333 -0.5,58.1667 -0.5,55.5C 5.84209,55.6662 12.1754,55.4995 18.5,55C 21.5032,53.6607 24.5032,52.3274 27.5,51C 28.5323,49.3732 29.8656,48.2066 31.5,47.5C 31.3505,48.552 31.5172,49.552 32,50.5C 36.7253,46.4388 41.7253,42.7721 47,39.5C 47.6667,40.8333 47.6667,42.1667 47,43.5C 45.3964,44.0677 44.7297,45.0677 45,46.5C 48.0784,46.4474 51.2451,45.7808 54.5,44.5C 55.1719,45.9492 55.8386,47.2825 56.5,48.5 Z"/></g>
<g><path style="opacity:1" fill="#fa937b" d="M 229.5,44.5 C 231.351,45.8664 231.684,47.533 230.5,49.5C 228.477,47.8267 226.144,47.1601 223.5,47.5C 223.5,48.5 223.5,49.5 223.5,50.5C 224.791,50.2627 225.791,50.596 226.5,51.5C 225.448,51.3505 224.448,51.5172 223.5,52C 223.943,53.5185 223.276,54.6852 221.5,55.5C 220.476,54.1468 219.143,53.4802 217.5,53.5C 217.03,52.3065 216.03,51.6399 214.5,51.5C 211.707,51.9457 209.373,53.279 207.5,55.5C 204.805,53.8224 202.139,52.1558 199.5,50.5C 199.44,49.9569 199.107,49.6236 198.5,49.5C 196.764,51.6369 194.764,52.3036 192.5,51.5C 186.802,53.1095 180.969,54.1095 175,54.5C 173.062,53.1398 171.396,53.4732 170,55.5C 167.929,54.8971 166.762,53.5638 166.5,51.5C 168.176,50.8166 168.843,49.4832 168.5,47.5C 168.975,45.2779 169.975,44.6112 171.5,45.5C 172.234,46.7079 172.567,48.0413 172.5,49.5C 173.5,49.5 174.5,49.5 175.5,49.5C 175.5,48.5 175.5,47.5 175.5,46.5C 175.5,45.1667 175.5,43.8333 175.5,42.5C 179.449,42.3068 179.449,41.8068 175.5,41C 172.167,40.3333 168.833,40.3333 165.5,41C 164.62,42.3561 164.286,43.8561 164.5,45.5C 163.539,47.2646 163.205,49.2646 163.5,51.5C 163.428,53.3109 162.595,54.6443 161,55.5C 157.196,52.9034 153.363,52.9034 149.5,55.5C 146.937,55.263 146.937,54.763 149.5,54C 148.643,53.3109 147.977,52.4776 147.5,51.5C 144.809,51.1845 142.143,50.8511 139.5,50.5C 134.024,46.171 129.024,46.5043 124.5,51.5C 121.074,51.272 118.407,52.6053 116.5,55.5C 114.172,54.7827 112.005,53.7827 110,52.5C 108.092,53.4543 106.092,54.121 104,54.5C 100.474,53.2139 96.9744,53.2139 93.5,54.5C 93.6107,53.8826 93.944,53.3826 94.5,53C 96.5,52.6667 98.5,52.3333 100.5,52C 95.2643,48.8364 89.931,48.3364 84.5,50.5C 82.5853,50.2155 80.9187,50.5489 79.5,51.5C 77.0069,51.0238 75.0069,49.6904 73.5,47.5C 72.6919,47.8076 72.0253,48.3076 71.5,49C 75.5249,50.5719 75.3583,51.7386 71,52.5C 69.2215,48.3834 66.7215,47.3834 63.5,49.5C 63.5,47.8333 63.5,46.1667 63.5,44.5C 63.5,43.5 63.5,42.5 63.5,41.5C 74.2196,41.7179 84.8863,41.0512 95.5,39.5C 100.35,40.0438 105.184,40.7105 110,41.5C 114.982,40.1511 120.149,39.4844 125.5,39.5C 128.7,39.6015 131.7,40.2681 134.5,41.5C 135.386,40.675 135.719,39.675 135.5,38.5C 139.524,38.5029 143.524,38.8362 147.5,39.5C 157.67,36.7627 168.003,35.9294 178.5,37C 181.124,37.5764 181.791,38.9098 180.5,41C 197.165,38.3119 213.499,39.4786 229.5,44.5 Z"/></g>
<g><path style="opacity:1" fill="#95524a" d="M 63.5,44.5 C 63.5,46.1667 63.5,47.8333 63.5,49.5C 63.1667,49.5 62.8333,49.5 62.5,49.5C 62.5,48.1667 62.5,46.8333 62.5,45.5C 60.7085,45.366 59.0418,45.6993 57.5,46.5C 57.2308,44.5714 57.7308,42.9047 59,41.5C 60.6147,42.3862 62.1147,43.3862 63.5,44.5 Z"/></g>
<g><path style="opacity:1" fill="#1b0a17" d="M 175.5,46.5 C 174.883,46.6107 174.383,46.944 174,47.5C 173.583,46.244 172.75,45.5774 171.5,45.5C 169.975,44.6112 168.975,45.2779 168.5,47.5C 166.171,49.0024 164.837,48.3357 164.5,45.5C 164.286,43.8561 164.62,42.3561 165.5,41C 168.833,40.3333 172.167,40.3333 175.5,41C 179.449,41.8068 179.449,42.3068 175.5,42.5C 175.5,43.8333 175.5,45.1667 175.5,46.5 Z"/></g>
<g><path style="opacity:1" fill="#fe9483" d="M 229.5,44.5 C 235.633,45.008 241.633,46.008 247.5,47.5C 247.5,48.5 247.5,49.5 247.5,50.5C 256.552,51.09 265.552,52.09 274.5,53.5C 274.5,58.5 274.5,63.5 274.5,68.5C 268.384,66.4423 262.051,65.4423 255.5,65.5C 255.5,64.5 255.5,63.5 255.5,62.5C 246.928,61.6995 238.761,59.3662 231,55.5C 229.624,53.953 228.124,52.6197 226.5,51.5C 225.791,50.596 224.791,50.2627 223.5,50.5C 223.5,49.5 223.5,48.5 223.5,47.5C 226.144,47.1601 228.477,47.8267 230.5,49.5C 231.684,47.533 231.351,45.8664 229.5,44.5 Z"/></g>
<g><path style="opacity:1" fill="#804039" d="M 171.5,45.5 C 172.75,45.5774 173.583,46.244 174,47.5C 174.383,46.944 174.883,46.6107 175.5,46.5C 175.5,47.5 175.5,48.5 175.5,49.5C 174.5,49.5 173.5,49.5 172.5,49.5C 172.567,48.0413 172.234,46.7079 171.5,45.5 Z"/></g>
<g><path style="opacity:1" fill="#9b4e41" d="M 164.5,45.5 C 164.837,48.3357 166.171,49.0024 168.5,47.5C 168.843,49.4832 168.176,50.8166 166.5,51.5C 165.5,51.5 164.5,51.5 163.5,51.5C 163.205,49.2646 163.539,47.2646 164.5,45.5 Z"/></g>
<g><path style="opacity:1" fill="#200f18" d="M 139.5,50.5 C 139.5,53.1667 139.5,55.8333 139.5,58.5C 138.448,58.6495 137.448,58.4828 136.5,58C 134.957,56.2863 133.29,54.7863 131.5,53.5C 129.792,53.7028 128.459,54.5362 127.5,56C 125.866,56.4935 124.199,56.6602 122.5,56.5C 122.392,54.4862 123.058,52.8195 124.5,51.5C 129.024,46.5043 134.024,46.171 139.5,50.5 Z"/></g>
<g><path style="opacity:1" fill="#180914" d="M 62.5,49.5 C 61.8825,51.2292 60.8825,52.7292 59.5,54C 59.8333,54.3333 60.1667,54.6667 60.5,55C 58.3225,56.2022 55.9892,56.7022 53.5,56.5C 53.1667,56.5 52.8333,56.5 52.5,56.5C 51.5,55.8333 50.5,55.1667 49.5,54.5C 50.0431,54.44 50.3764,54.1067 50.5,53.5C 49.086,52.376 47.586,51.376 46,50.5C 45.3333,49.5 45.3333,48.5 46,47.5C 49.4631,52.0519 52.9631,52.3852 56.5,48.5C 57.3382,48.1583 57.6716,47.4916 57.5,46.5C 59.0418,45.6993 60.7085,45.366 62.5,45.5C 62.5,46.8333 62.5,48.1667 62.5,49.5 Z"/></g>
<g><path style="opacity:1" fill="#210f18" d="M 93.5,54.5 C 91.2625,55.5366 88.9291,55.7033 86.5,55C 89.5429,52.0543 88.8762,50.8876 84.5,51.5C 84.5,51.1667 84.5,50.8333 84.5,50.5C 89.931,48.3364 95.2643,48.8364 100.5,52C 98.5,52.3333 96.5,52.6667 94.5,53C 93.944,53.3826 93.6107,53.8826 93.5,54.5 Z"/></g>
<g><path style="opacity:1" fill="#fa8875" d="M 79.5,51.5 C 81.0496,52.7199 82.7163,52.7199 84.5,51.5C 88.8762,50.8876 89.5429,52.0543 86.5,55C 88.9291,55.7033 91.2625,55.5366 93.5,54.5C 96.9744,53.2139 100.474,53.2139 104,54.5C 106.092,54.121 108.092,53.4543 110,52.5C 112.005,53.7827 114.172,54.7827 116.5,55.5C 118.407,52.6053 121.074,51.272 124.5,51.5C 123.058,52.8195 122.392,54.4862 122.5,56.5C 124.199,56.6602 125.866,56.4935 127.5,56C 128.459,54.5362 129.792,53.7028 131.5,53.5C 133.29,54.7863 134.957,56.2863 136.5,58C 137.448,58.4828 138.448,58.6495 139.5,58.5C 139.5,55.8333 139.5,53.1667 139.5,50.5C 142.143,50.8511 144.809,51.1845 147.5,51.5C 147.977,52.4776 148.643,53.3109 149.5,54C 146.937,54.763 146.937,55.263 149.5,55.5C 153.363,52.9034 157.196,52.9034 161,55.5C 162.595,54.6443 163.428,53.3109 163.5,51.5C 164.5,51.5 165.5,51.5 166.5,51.5C 166.762,53.5638 167.929,54.8971 170,55.5C 171.396,53.4732 173.062,53.1398 175,54.5C 180.969,54.1095 186.802,53.1095 192.5,51.5C 194.764,52.3036 196.764,51.6369 198.5,49.5C 199.107,49.6236 199.44,49.9569 199.5,50.5C 199.762,53.691 201.095,56.3577 203.5,58.5C 203.043,59.2975 202.376,59.6309 201.5,59.5C 198.391,59.6553 195.391,60.3219 192.5,61.5C 191.754,62.7362 191.421,64.0695 191.5,65.5C 192.675,65.281 193.675,65.6143 194.5,66.5C 191.252,66.6445 187.919,67.4778 184.5,69C 175.645,69.581 166.811,70.4143 158,71.5C 154.833,71.3333 151.667,71.1667 148.5,71C 147.636,69.3035 146.303,68.1368 144.5,67.5C 143.571,66.3112 143.238,64.9778 143.5,63.5C 141.669,62.9478 140.003,62.9478 138.5,63.5C 137.522,63.0233 136.689,62.3567 136,61.5C 135.692,62.3081 135.192,62.9747 134.5,63.5C 133.3,62.4688 131.966,61.6355 130.5,61C 131.459,58.3095 130.792,57.9762 128.5,60C 129.337,61.0113 129.67,62.1779 129.5,63.5C 126.626,62.6365 123.959,61.3032 121.5,59.5C 119.181,60.0639 116.847,60.5639 114.5,61C 112.561,61.9078 111.561,63.4078 111.5,65.5C 105.427,65.1899 99.5934,63.8566 94,61.5C 90.8936,63.1652 88.0602,62.8319 85.5,60.5C 81.3403,63.449 76.6736,64.2823 71.5,63C 66.6291,60.7448 66.6291,59.5782 71.5,59.5C 71.719,58.325 71.3857,57.325 70.5,56.5C 67.7226,58.435 64.7226,58.935 61.5,58C 62.3081,58.3076 62.9747,58.8076 63.5,59.5C 62.1667,59.8333 60.8333,60.1667 59.5,60.5C 56.7524,59.7537 54.0857,59.7537 51.5,60.5C 50.263,60.4435 49.263,59.9435 48.5,59C 51.8333,58.6667 55.1667,58.3333 58.5,58C 56.6183,57.8019 54.9516,57.3019 53.5,56.5C 55.9892,56.7022 58.3225,56.2022 60.5,55C 60.1667,54.6667 59.8333,54.3333 59.5,54C 60.8825,52.7292 61.8825,51.2292 62.5,49.5C 62.8333,49.5 63.1667,49.5 63.5,49.5C 66.7215,47.3834 69.2215,48.3834 71,52.5C 75.3583,51.7386 75.5249,50.5719 71.5,49C 72.0253,48.3076 72.6919,47.8076 73.5,47.5C 75.0069,49.6904 77.0069,51.0238 79.5,51.5 Z"/></g>
<g><path style="opacity:1" fill="#975753" d="M 84.5,50.5 C 84.5,50.8333 84.5,51.1667 84.5,51.5C 82.7163,52.7199 81.0496,52.7199 79.5,51.5C 80.9187,50.5489 82.5853,50.2155 84.5,50.5 Z"/></g>
<g><path style="opacity:1" fill="#643229" d="M 49.5,54.5 C 50.5,55.1667 51.5,55.8333 52.5,56.5C 50.8333,56.5 49.1667,56.5 47.5,56.5C 45.5853,56.7845 43.9187,56.4511 42.5,55.5C 44.9496,55.702 47.283,55.3686 49.5,54.5 Z"/></g>
<g><path style="opacity:1" fill="#1e0e17" d="M 199.5,50.5 C 202.139,52.1558 204.805,53.8224 207.5,55.5C 209.373,53.279 211.707,51.9457 214.5,51.5C 216.03,51.6399 217.03,52.3065 217.5,53.5C 215.926,55.643 214.592,57.9763 213.5,60.5C 214.167,61.1667 214.833,61.8333 215.5,62.5C 212.914,63.48 210.247,63.8134 207.5,63.5C 207.167,63.5 206.833,63.5 206.5,63.5C 202.301,62.506 197.967,62.3393 193.5,63C 196.409,62.1498 199.076,60.9831 201.5,59.5C 202.376,59.6309 203.043,59.2975 203.5,58.5C 201.095,56.3577 199.762,53.691 199.5,50.5 Z"/></g>
<g><path style="opacity:1" fill="#fd8e82" d="M 42.5,55.5 C 43.9187,56.4511 45.5853,56.7845 47.5,56.5C 45.8888,58.0946 43.8888,59.2612 41.5,60C 43.4432,59.6948 45.4432,59.6948 47.5,60C 44.8333,60.6667 44.8333,61.3333 47.5,62C 44.9068,61.5725 42.4068,61.4058 40,61.5C 39.6886,62.7425 40.1886,63.7425 41.5,64.5C 40.1468,65.5237 39.4802,66.857 39.5,68.5C 36.4041,67.9066 34.0708,68.9066 32.5,71.5C 31.7836,70.689 30.9503,70.0223 30,69.5C 23.2612,73.9929 15.7612,75.9929 7.5,75.5C 7.5,74.1667 7.5,72.8333 7.5,71.5C 4.83333,71.5 2.16667,71.5 -0.5,71.5C -0.5,68.8333 -0.5,66.1667 -0.5,63.5C 4.83333,63.5 10.1667,63.5 15.5,63.5C 15.5,62.5 15.5,61.5 15.5,60.5C 19.8967,60.5754 24.23,60.0754 28.5,59C 31.7016,56.57 35.0349,54.4033 38.5,52.5C 39.1924,53.0253 39.6924,53.6919 40,54.5C 41.0195,53.3128 42.1861,52.3128 43.5,51.5C 47.387,53.648 47.0536,54.9813 42.5,55.5 Z"/></g>
<g><path style="opacity:1" fill="#fd8175" d="M 47.5,56.5 C 49.1667,56.5 50.8333,56.5 52.5,56.5C 52.8333,56.5 53.1667,56.5 53.5,56.5C 54.9516,57.3019 56.6183,57.8019 58.5,58C 55.1667,58.3333 51.8333,58.6667 48.5,59C 49.263,59.9435 50.263,60.4435 51.5,60.5C 54.0857,59.7537 56.7524,59.7537 59.5,60.5C 60.8333,60.1667 62.1667,59.8333 63.5,59.5C 62.9747,58.8076 62.3081,58.3076 61.5,58C 64.7226,58.935 67.7226,58.435 70.5,56.5C 71.3857,57.325 71.719,58.325 71.5,59.5C 66.6291,59.5782 66.6291,60.7448 71.5,63C 76.6736,64.2823 81.3403,63.449 85.5,60.5C 88.0602,62.8319 90.8936,63.1652 94,61.5C 99.5934,63.8566 105.427,65.1899 111.5,65.5C 111.561,63.4078 112.561,61.9078 114.5,61C 116.847,60.5639 119.181,60.0639 121.5,59.5C 123.959,61.3032 126.626,62.6365 129.5,63.5C 129.67,62.1779 129.337,61.0113 128.5,60C 130.792,57.9762 131.459,58.3095 130.5,61C 131.966,61.6355 133.3,62.4688 134.5,63.5C 135.192,62.9747 135.692,62.3081 136,61.5C 136.689,62.3567 137.522,63.0233 138.5,63.5C 140.003,62.9478 141.669,62.9478 143.5,63.5C 143.238,64.9778 143.571,66.3112 144.5,67.5C 146.303,68.1368 147.636,69.3035 148.5,71C 151.667,71.1667 154.833,71.3333 158,71.5C 166.811,70.4143 175.645,69.581 184.5,69C 187.919,67.4778 191.252,66.6445 194.5,66.5C 193.675,65.6143 192.675,65.281 191.5,65.5C 191.421,64.0695 191.754,62.7362 192.5,61.5C 195.391,60.3219 198.391,59.6553 201.5,59.5C 199.076,60.9831 196.409,62.1498 193.5,63C 197.967,62.3393 202.301,62.506 206.5,63.5C 203.865,65.3392 202.532,68.0058 202.5,71.5C 199.014,72.9525 195.347,73.6192 191.5,73.5C 191.5,75.5 191.5,77.5 191.5,79.5C 188.833,79.5 186.167,79.5 183.5,79.5C 183.5,78.5 183.5,77.5 183.5,76.5C 175.5,76.5 167.5,76.5 159.5,76.5C 159.5,77.5 159.5,78.5 159.5,79.5C 146.167,79.5 132.833,79.5 119.5,79.5C 119.5,78.5 119.5,77.5 119.5,76.5C 106.154,76.3337 92.8206,76.6671 79.5,77.5C 71.1124,78.2035 63.1124,79.5368 55.5,81.5C 44.8436,80.8353 34.1769,80.1686 23.5,79.5C 15.4504,79.836 7.45037,80.5026 -0.5,81.5C -0.5,78.1667 -0.5,74.8333 -0.5,71.5C 2.16667,71.5 4.83333,71.5 7.5,71.5C 7.5,72.8333 7.5,74.1667 7.5,75.5C 15.7612,75.9929 23.2612,73.9929 30,69.5C 30.9503,70.0223 31.7836,70.689 32.5,71.5C 34.0708,68.9066 36.4041,67.9066 39.5,68.5C 39.4802,66.857 40.1468,65.5237 41.5,64.5C 40.1886,63.7425 39.6886,62.7425 40,61.5C 42.4068,61.4058 44.9068,61.5725 47.5,62C 44.8333,61.3333 44.8333,60.6667 47.5,60C 45.4432,59.6948 43.4432,59.6948 41.5,60C 43.8888,59.2612 45.8888,58.0946 47.5,56.5 Z"/></g>
<g><path style="opacity:1" fill="#844233" d="M 218.5,65.5 C 218.737,66.791 218.404,67.791 217.5,68.5C 217.631,67.6236 217.298,66.9569 216.5,66.5C 214.929,67.3094 213.262,67.6427 211.5,67.5C 213.438,65.8372 215.772,65.1706 218.5,65.5 Z"/></g>
<g><path style="opacity:1" fill="#1f0f18" d="M 231.5,69.5 C 227.651,68.122 223.818,68.4553 220,70.5C 219.005,69.9341 218.172,69.2674 217.5,68.5C 218.404,67.791 218.737,66.791 218.5,65.5C 220.307,64.3852 222.307,63.7186 224.5,63.5C 227.21,64.3839 229.876,65.3839 232.5,66.5C 234.092,68.2249 233.758,69.2249 231.5,69.5 Z"/></g>
<g><path style="opacity:1" fill="#fc867b" d="M 226.5,51.5 C 228.124,52.6197 229.624,53.953 231,55.5C 238.761,59.3662 246.928,61.6995 255.5,62.5C 255.5,63.5 255.5,64.5 255.5,65.5C 262.051,65.4423 268.384,66.4423 274.5,68.5C 274.5,72.1667 274.5,75.8333 274.5,79.5C 265.625,77.3653 256.625,76.032 247.5,75.5C 247.5,74.1667 247.5,72.8333 247.5,71.5C 243.832,71.2496 240.332,71.2496 237,71.5C 234.97,71.0463 233.137,70.3796 231.5,69.5C 233.758,69.2249 234.092,68.2249 232.5,66.5C 229.876,65.3839 227.21,64.3839 224.5,63.5C 222.307,63.7186 220.307,64.3852 218.5,65.5C 215.772,65.1706 213.438,65.8372 211.5,67.5C 209.866,66.4188 208.533,65.0855 207.5,63.5C 210.247,63.8134 212.914,63.48 215.5,62.5C 214.833,61.8333 214.167,61.1667 213.5,60.5C 214.592,57.9763 215.926,55.643 217.5,53.5C 219.143,53.4802 220.476,54.1468 221.5,55.5C 223.276,54.6852 223.943,53.5185 223.5,52C 224.448,51.5172 225.448,51.3505 226.5,51.5 Z"/></g>
<g><path style="opacity:1" fill="#fe7971" d="M 206.5,63.5 C 206.833,63.5 207.167,63.5 207.5,63.5C 208.533,65.0855 209.866,66.4188 211.5,67.5C 212.452,68.452 213.452,69.452 214.5,70.5C 215.489,74.1073 215.823,77.774 215.5,81.5C 167.531,83.1427 119.531,83.9761 71.5,84C 63.4473,84.507 55.4473,85.3403 47.5,86.5C 47.5,85.1667 47.5,83.8333 47.5,82.5C 50.3854,82.8064 53.0521,82.4731 55.5,81.5C 63.1124,79.5368 71.1124,78.2035 79.5,77.5C 92.8206,76.6671 106.154,76.3337 119.5,76.5C 119.5,77.5 119.5,78.5 119.5,79.5C 132.833,79.5 146.167,79.5 159.5,79.5C 159.5,78.5 159.5,77.5 159.5,76.5C 167.5,76.5 175.5,76.5 183.5,76.5C 183.5,77.5 183.5,78.5 183.5,79.5C 186.167,79.5 188.833,79.5 191.5,79.5C 191.5,77.5 191.5,75.5 191.5,73.5C 195.347,73.6192 199.014,72.9525 202.5,71.5C 202.532,68.0058 203.865,65.3392 206.5,63.5 Z"/></g>
<g><path style="opacity:1" fill="#fc7a76" d="M 217.5,68.5 C 218.172,69.2674 219.005,69.9341 220,70.5C 223.818,68.4553 227.651,68.122 231.5,69.5C 233.137,70.3796 234.97,71.0463 237,71.5C 240.332,71.2496 243.832,71.2496 247.5,71.5C 247.5,72.8333 247.5,74.1667 247.5,75.5C 256.625,76.032 265.625,77.3653 274.5,79.5C 274.5,82.1667 274.5,84.8333 274.5,87.5C 270.833,87.5 267.167,87.5 263.5,87.5C 263.5,88.5 263.5,89.5 263.5,90.5C 260.833,90.5 258.167,90.5 255.5,90.5C 249.968,87.9443 243.968,86.2776 237.5,85.5C 237.389,84.8826 237.056,84.3826 236.5,84C 234.167,83.6667 231.833,83.3333 229.5,83C 228.195,80.8524 226.362,79.3524 224,78.5C 223.517,79.448 223.351,80.448 223.5,81.5C 220.833,81.5 218.167,81.5 215.5,81.5C 215.823,77.774 215.489,74.1073 214.5,70.5C 213.452,69.452 212.452,68.452 211.5,67.5C 213.262,67.6427 214.929,67.3094 216.5,66.5C 217.298,66.9569 217.631,67.6236 217.5,68.5 Z"/></g>
<g><path style="opacity:1" fill="#fe7e7e" d="M 55.5,81.5 C 53.0521,82.4731 50.3854,82.8064 47.5,82.5C 47.5,83.8333 47.5,85.1667 47.5,86.5C 44.8333,86.5 42.1667,86.5 39.5,86.5C 39.5,87.5 39.5,88.5 39.5,89.5C 35.3904,89.1094 31.7237,90.1094 28.5,92.5C 25.9028,92.2792 25.9028,91.7792 28.5,91C 26.8333,90.6667 25.1667,90.3333 23.5,90C 24.8333,89.3333 24.8333,88.6667 23.5,88C 15.4334,87.5086 7.43344,88.0086 -0.5,89.5C -0.5,86.8333 -0.5,84.1667 -0.5,81.5C 7.45037,80.5026 15.4504,79.836 23.5,79.5C 34.1769,80.1686 44.8436,80.8353 55.5,81.5 Z"/></g>
<g><path style="opacity:1" fill="#fe736f" d="M 237.5,85.5 C 228.292,87.0587 218.292,88.3921 207.5,89.5C 190.118,86.6692 172.785,87.0025 155.5,90.5C 138.162,89.6664 120.829,88.6664 103.5,87.5C 92.7532,87.8564 82.0865,88.8564 71.5,90.5C 63.4318,90.5091 55.4318,91.1757 47.5,92.5C 47.5,90.5 47.5,88.5 47.5,86.5C 55.4473,85.3403 63.4473,84.507 71.5,84C 119.531,83.9761 167.531,83.1427 215.5,81.5C 218.167,81.5 220.833,81.5 223.5,81.5C 223.351,80.448 223.517,79.448 224,78.5C 226.362,79.3524 228.195,80.8524 229.5,83C 231.833,83.3333 234.167,83.6667 236.5,84C 237.056,84.3826 237.389,84.8826 237.5,85.5 Z"/></g>
<g><path style="opacity:1" fill="#fe6d6c" d="M 207.5,89.5 C 207.5,91.5 207.5,93.5 207.5,95.5C 195.487,96.335 183.487,96.335 171.5,95.5C 164.814,96.5068 158.147,97.5068 151.5,98.5C 151.5,97.1667 151.5,95.8333 151.5,94.5C 130.167,94.8333 108.833,95.1667 87.5,95.5C 86.6661,94.2521 85.3328,93.5854 83.5,93.5C 81.6672,93.5854 80.3339,94.2521 79.5,95.5C 76.8333,95.5 74.1667,95.5 71.5,95.5C 71.5,93.8333 71.5,92.1667 71.5,90.5C 82.0865,88.8564 92.7532,87.8564 103.5,87.5C 120.829,88.6664 138.162,89.6664 155.5,90.5C 172.785,87.0025 190.118,86.6692 207.5,89.5 Z"/></g>
<g><path style="opacity:1" fill="#fd6e75" d="M 237.5,85.5 C 243.968,86.2776 249.968,87.9443 255.5,90.5C 255.5,91.5 255.5,92.5 255.5,93.5C 258.187,93.3359 260.854,93.5026 263.5,94C 258.177,94.4994 252.844,94.666 247.5,94.5C 247.5,96.1667 247.5,97.8333 247.5,99.5C 242.167,99.8333 236.833,100.167 231.5,100.5C 231.5,101.5 231.5,102.5 231.5,103.5C 227.151,103.864 223.151,105.198 219.5,107.5C 215.524,106.836 211.524,106.503 207.5,106.5C 207.5,105.5 207.5,104.5 207.5,103.5C 218.167,102.833 218.167,102.167 207.5,101.5C 207.5,99.5 207.5,97.5 207.5,95.5C 207.5,93.5 207.5,91.5 207.5,89.5C 218.292,88.3921 228.292,87.0587 237.5,85.5 Z"/></g>
<g><path style="opacity:1" fill="#fe6568" d="M 207.5,95.5 C 207.5,97.5 207.5,99.5 207.5,101.5C 218.167,102.167 218.167,102.833 207.5,103.5C 207.5,104.5 207.5,105.5 207.5,106.5C 207.5,107.167 207.5,107.833 207.5,108.5C 202.167,108.5 196.833,108.5 191.5,108.5C 191.5,106.833 191.5,105.167 191.5,103.5C 186.167,103.5 180.833,103.5 175.5,103.5C 175.5,105.167 175.5,106.833 175.5,108.5C 178.167,108.5 180.833,108.5 183.5,108.5C 183.5,109.5 183.5,110.5 183.5,111.5C 179.407,111.478 175.407,110.811 171.5,109.5C 146.228,111.424 120.895,112.091 95.5,111.5C 95.5,108.833 95.5,106.167 95.5,103.5C 92.8333,103.5 90.1667,103.5 87.5,103.5C 87.5,100.833 87.5,98.1667 87.5,95.5C 108.833,95.1667 130.167,94.8333 151.5,94.5C 151.5,95.8333 151.5,97.1667 151.5,98.5C 158.147,97.5068 164.814,96.5068 171.5,95.5C 183.487,96.335 195.487,96.335 207.5,95.5 Z"/></g>
<g><path style="opacity:1" fill="#f7737e" d="M 28.5,92.5 C 28.3893,93.1174 28.056,93.6174 27.5,94C 28.8333,94.3333 30.1667,94.6667 31.5,95C 28.854,95.4974 26.1873,95.6641 23.5,95.5C 23.5,96.8333 23.5,98.1667 23.5,99.5C 29.1547,99.6676 34.488,101.001 39.5,103.5C 39.8333,96.8333 40.1667,96.8333 40.5,103.5C 42.8333,103.5 45.1667,103.5 47.5,103.5C 47.5,104.833 47.5,106.167 47.5,107.5C 50.1667,107.5 52.8333,107.5 55.5,107.5C 55.5,108.833 55.5,110.167 55.5,111.5C 56.3816,113.384 57.8816,114.717 60,115.5C 60.5791,116.928 60.4124,118.262 59.5,119.5C 58.1667,119.5 56.8333,119.5 55.5,119.5C 55.5,118.5 55.5,117.5 55.5,116.5C 52.8127,116.664 50.146,116.497 47.5,116C 45.1391,115.803 43.4724,114.636 42.5,112.5C 40.2338,111.686 37.9005,111.186 35.5,111C 34.6243,109.415 33.2909,108.415 31.5,108C 32.5,107.667 33.5,107.333 34.5,107C 30.8484,106.501 27.1817,106.335 23.5,106.5C 23.5,105.5 23.5,104.5 23.5,103.5C 15.5,103.5 7.5,103.5 -0.5,103.5C -0.5,98.8333 -0.5,94.1667 -0.5,89.5C 7.43344,88.0086 15.4334,87.5086 23.5,88C 24.8333,88.6667 24.8333,89.3333 23.5,90C 25.1667,90.3333 26.8333,90.6667 28.5,91C 25.9028,91.7792 25.9028,92.2792 28.5,92.5 Z"/></g>
<g><path style="opacity:1" fill="#fd6b74" d="M 47.5,86.5 C 47.5,88.5 47.5,90.5 47.5,92.5C 55.4318,91.1757 63.4318,90.5091 71.5,90.5C 71.5,92.1667 71.5,93.8333 71.5,95.5C 74.1667,95.5 76.8333,95.5 79.5,95.5C 77.3647,97.369 74.6981,98.0356 71.5,97.5C 71.5,98.8333 71.5,100.167 71.5,101.5C 60.8333,102.167 60.8333,102.833 71.5,103.5C 71.5,106.167 71.5,108.833 71.5,111.5C 66.1667,111.5 60.8333,111.5 55.5,111.5C 55.5,110.167 55.5,108.833 55.5,107.5C 52.8333,107.5 50.1667,107.5 47.5,107.5C 47.5,106.167 47.5,104.833 47.5,103.5C 45.1667,103.5 42.8333,103.5 40.5,103.5C 40.1667,96.8333 39.8333,96.8333 39.5,103.5C 34.488,101.001 29.1547,99.6676 23.5,99.5C 23.5,98.1667 23.5,96.8333 23.5,95.5C 26.1873,95.6641 28.854,95.4974 31.5,95C 30.1667,94.6667 28.8333,94.3333 27.5,94C 28.056,93.6174 28.3893,93.1174 28.5,92.5C 31.7237,90.1094 35.3904,89.1094 39.5,89.5C 39.5,88.5 39.5,87.5 39.5,86.5C 42.1667,86.5 44.8333,86.5 47.5,86.5 Z"/></g>
<g><path style="opacity:1" fill="#ea6d80" d="M -0.5,103.5 C 7.5,103.5 15.5,103.5 23.5,103.5C 23.5,104.5 23.5,105.5 23.5,106.5C 27.1817,106.335 30.8484,106.501 34.5,107C 33.5,107.333 32.5,107.667 31.5,108C 33.2909,108.415 34.6243,109.415 35.5,111C 37.9005,111.186 40.2338,111.686 42.5,112.5C 43.4724,114.636 45.1391,115.803 47.5,116C 50.146,116.497 52.8127,116.664 55.5,116.5C 55.5,117.5 55.5,118.5 55.5,119.5C 56.8333,119.5 58.1667,119.5 59.5,119.5C 63.0429,120.807 66.7095,121.974 70.5,123C 73.8394,125.342 77.1727,127.675 80.5,130C 80.1667,130.333 79.8333,130.667 79.5,131C 83.1406,132.619 86.8073,134.286 90.5,136C 92.8077,138.128 94.4744,140.628 95.5,143.5C 92.2224,140.365 88.2224,138.532 83.5,138C 83.9574,137.586 84.2907,137.086 84.5,136.5C 78.765,134.465 73.4317,131.632 68.5,128C 64.1523,127.427 59.819,126.76 55.5,126C 56.1667,125.667 56.8333,125.333 57.5,125C 54.7658,124.79 52.2658,123.956 50,122.5C 48.3005,123.406 46.4672,123.739 44.5,123.5C 41.9604,122.253 39.2938,121.253 36.5,120.5C 26.7798,118.985 17.1131,117.318 7.5,115.5C 7.5,114.167 7.5,112.833 7.5,111.5C 4.83333,111.5 2.16667,111.5 -0.5,111.5C -0.5,108.833 -0.5,106.167 -0.5,103.5 Z"/></g>
<g><path style="opacity:1" fill="#f36d7c" d="M 274.5,87.5 C 274.5,93.5 274.5,99.5 274.5,105.5C 265.48,105.919 256.48,106.586 247.5,107.5C 247.5,108.5 247.5,109.5 247.5,110.5C 239.291,110.791 231.291,111.958 223.5,114C 224.167,114.333 224.833,114.667 225.5,115C 223.893,116.049 223.227,117.549 223.5,119.5C 220.098,119.342 216.764,119.676 213.5,120.5C 211.631,119.835 209.631,119.169 207.5,118.5C 207.863,117.817 208.196,117.15 208.5,116.5C 213.008,117 216.675,115.5 219.5,112C 221.577,111.808 223.577,111.308 225.5,110.5C 226.738,108.363 228.571,107.029 231,106.5C 231.483,105.552 231.649,104.552 231.5,103.5C 231.5,102.5 231.5,101.5 231.5,100.5C 236.833,100.167 242.167,99.8333 247.5,99.5C 247.5,97.8333 247.5,96.1667 247.5,94.5C 252.844,94.666 258.177,94.4994 263.5,94C 260.854,93.5026 258.187,93.3359 255.5,93.5C 255.5,92.5 255.5,91.5 255.5,90.5C 258.167,90.5 260.833,90.5 263.5,90.5C 263.5,89.5 263.5,88.5 263.5,87.5C 267.167,87.5 270.833,87.5 274.5,87.5 Z"/></g>
<g><path style="opacity:1" fill="#fc5b68" d="M 87.5,95.5 C 87.5,98.1667 87.5,100.833 87.5,103.5C 90.1667,103.5 92.8333,103.5 95.5,103.5C 95.5,106.167 95.5,108.833 95.5,111.5C 120.895,112.091 146.228,111.424 171.5,109.5C 175.407,110.811 179.407,111.478 183.5,111.5C 183.5,110.5 183.5,109.5 183.5,108.5C 180.833,108.5 178.167,108.5 175.5,108.5C 175.5,106.833 175.5,105.167 175.5,103.5C 180.833,103.5 186.167,103.5 191.5,103.5C 191.5,105.167 191.5,106.833 191.5,108.5C 196.833,108.5 202.167,108.5 207.5,108.5C 205.365,110.369 202.698,111.036 199.5,110.5C 199.5,111.5 199.5,112.5 199.5,113.5C 196.366,114.279 193.699,115.945 191.5,118.5C 185.897,119.143 180.897,121.143 176.5,124.5C 175.614,125.325 175.281,126.325 175.5,127.5C 172.833,128.167 170.167,128.833 167.5,129.5C 167.5,131.5 167.5,133.5 167.5,135.5C 165.095,136.687 162.761,138.187 160.5,140C 159.663,141.011 159.33,142.178 159.5,143.5C 159.5,146.167 159.5,148.833 159.5,151.5C 157.5,151.5 155.5,151.5 153.5,151.5C 154.511,149.494 155.511,147.494 156.5,145.5C 154.498,143.531 154.164,141.364 155.5,139C 152.257,135.874 150.923,132.041 151.5,127.5C 162.167,126.833 162.167,126.167 151.5,125.5C 151.5,123.5 151.5,121.5 151.5,119.5C 154.167,119.5 156.833,119.5 159.5,119.5C 159.5,117.5 159.5,115.5 159.5,113.5C 143.5,113.5 127.5,113.5 111.5,113.5C 111.5,115.5 111.5,117.5 111.5,119.5C 114.167,119.5 116.833,119.5 119.5,119.5C 119.5,121.5 119.5,123.5 119.5,125.5C 108.833,126.167 108.833,126.833 119.5,127.5C 119.5,130.167 119.5,132.833 119.5,135.5C 120.978,135.238 122.311,135.571 123.5,136.5C 121.604,137.466 119.604,137.799 117.5,137.5C 117.831,139.322 118.498,140.989 119.5,142.5C 119.5,144.167 119.5,145.833 119.5,147.5C 115.435,146.268 112.435,143.768 110.5,140C 106.078,138.756 103.744,135.923 103.5,131.5C 100.45,132.077 98.4503,130.91 97.5,128C 94.11,127.256 90.7767,126.423 87.5,125.5C 87.5,123.833 87.5,122.167 87.5,120.5C 83.3604,121.285 80.027,120.119 77.5,117C 78.1667,116.667 78.8333,116.333 79.5,116C 75.6964,116.242 73.0298,114.742 71.5,111.5C 71.5,108.833 71.5,106.167 71.5,103.5C 60.8333,102.833 60.8333,102.167 71.5,101.5C 71.5,100.167 71.5,98.8333 71.5,97.5C 74.6981,98.0356 77.3647,97.369 79.5,95.5C 80.3339,94.2521 81.6672,93.5854 83.5,93.5C 85.3328,93.5854 86.6661,94.2521 87.5,95.5 Z"/></g>
<g><path style="opacity:1" fill="#f55f70" d="M 231.5,103.5 C 231.649,104.552 231.483,105.552 231,106.5C 228.571,107.029 226.738,108.363 225.5,110.5C 223.577,111.308 221.577,111.808 219.5,112C 216.675,115.5 213.008,117 208.5,116.5C 202.863,118.7 196.863,120.2 190.5,121C 184.486,127.064 177.819,132.231 170.5,136.5C 171.641,137.425 171.641,138.259 170.5,139C 167.71,139.561 165.377,140.894 163.5,143C 162.207,143.49 160.873,143.657 159.5,143.5C 159.33,142.178 159.663,141.011 160.5,140C 162.761,138.187 165.095,136.687 167.5,135.5C 167.5,133.5 167.5,131.5 167.5,129.5C 170.167,128.833 172.833,128.167 175.5,127.5C 175.281,126.325 175.614,125.325 176.5,124.5C 180.897,121.143 185.897,119.143 191.5,118.5C 193.699,115.945 196.366,114.279 199.5,113.5C 199.5,112.5 199.5,111.5 199.5,110.5C 202.698,111.036 205.365,110.369 207.5,108.5C 207.5,107.833 207.5,107.167 207.5,106.5C 211.524,106.503 215.524,106.836 219.5,107.5C 223.151,105.198 227.151,103.864 231.5,103.5 Z"/></g>
<g><path style="opacity:1" fill="#e5677d" d="M 274.5,105.5 C 274.5,107.5 274.5,109.5 274.5,111.5C 269.86,110.736 265.86,111.903 262.5,115C 261.333,115.167 260.167,115.333 259,115.5C 255.845,114.722 252.678,114.555 249.5,115C 242.857,118.485 236.024,120.319 229,120.5C 225.121,122.08 221.121,123.414 217,124.5C 214.467,123.01 212.633,123.677 211.5,126.5C 208.553,127.321 205.553,127.821 202.5,128C 201.167,129 201.167,130 202.5,131C 199.412,131.579 196.745,132.913 194.5,135C 191.044,134.907 188.044,135.907 185.5,138C 185.833,138.333 186.167,138.667 186.5,139C 181.919,139.535 178.419,141.701 176,145.5C 173.295,146.939 170.462,147.939 167.5,148.5C 168.23,146.955 169.563,146.122 171.5,146C 172.227,144.601 172.727,143.101 173,141.5C 174,140.167 175,140.167 176,141.5C 177.167,139.833 178.333,138.167 179.5,136.5C 185.882,136.429 189.882,133.429 191.5,127.5C 194.247,127.813 196.914,127.48 199.5,126.5C 204.199,124.502 208.865,122.502 213.5,120.5C 216.764,119.676 220.098,119.342 223.5,119.5C 223.227,117.549 223.893,116.049 225.5,115C 224.833,114.667 224.167,114.333 223.5,114C 231.291,111.958 239.291,110.791 247.5,110.5C 247.5,109.5 247.5,108.5 247.5,107.5C 256.48,106.586 265.48,105.919 274.5,105.5 Z"/></g>
<g><path style="opacity:1" fill="#d86782" d="M 274.5,111.5 C 274.5,114.167 274.5,116.833 274.5,119.5C 266.493,119.334 258.493,119.5 250.5,120C 244.951,121.914 239.284,123.58 233.5,125C 232.026,126.316 230.359,127.316 228.5,128C 228.833,128.333 229.167,128.667 229.5,129C 227.17,130.523 224.836,131.023 222.5,130.5C 218.341,131.686 214.341,133.186 210.5,135C 206.848,135.499 203.182,135.665 199.5,135.5C 199.5,137.167 199.5,138.833 199.5,140.5C 197.473,140.338 195.473,140.505 193.5,141C 188.039,144.704 182.039,147.204 175.5,148.5C 175.5,149.5 175.5,150.5 175.5,151.5C 172.833,151.5 170.167,151.5 167.5,151.5C 167.5,150.5 167.5,149.5 167.5,148.5C 170.462,147.939 173.295,146.939 176,145.5C 178.419,141.701 181.919,139.535 186.5,139C 186.167,138.667 185.833,138.333 185.5,138C 188.044,135.907 191.044,134.907 194.5,135C 196.745,132.913 199.412,131.579 202.5,131C 201.167,130 201.167,129 202.5,128C 205.553,127.821 208.553,127.321 211.5,126.5C 212.633,123.677 214.467,123.01 217,124.5C 221.121,123.414 225.121,122.08 229,120.5C 236.024,120.319 242.857,118.485 249.5,115C 252.678,114.555 255.845,114.722 259,115.5C 260.167,115.333 261.333,115.167 262.5,115C 265.86,111.903 269.86,110.736 274.5,111.5 Z"/></g>
<g><path style="opacity:1" fill="#dc728a" d="M -0.5,111.5 C 2.16667,111.5 4.83333,111.5 7.5,111.5C 7.5,112.833 7.5,114.167 7.5,115.5C 17.1131,117.318 26.7798,118.985 36.5,120.5C 39.2938,121.253 41.9604,122.253 44.5,123.5C 46.5681,124.375 48.5681,125.541 50.5,127C 47.1832,127.498 43.8499,127.665 40.5,127.5C 37.3979,127.846 34.5645,127.179 32,125.5C 31.4806,126.516 30.6473,127.182 29.5,127.5C 23.8084,124.38 17.8084,122.047 11.5,120.5C 7.55461,119.509 3.55461,119.176 -0.5,119.5C -0.5,116.833 -0.5,114.167 -0.5,111.5 Z"/></g>
<g><path style="opacity:1" fill="#eb596d" d="M 55.5,111.5 C 60.8333,111.5 66.1667,111.5 71.5,111.5C 73.0298,114.742 75.6964,116.242 79.5,116C 78.8333,116.333 78.1667,116.667 77.5,117C 80.027,120.119 83.3604,121.285 87.5,120.5C 87.5,122.167 87.5,123.833 87.5,125.5C 90.7767,126.423 94.11,127.256 97.5,128C 98.4503,130.91 100.45,132.077 103.5,131.5C 103.744,135.923 106.078,138.756 110.5,140C 112.435,143.768 115.435,146.268 119.5,147.5C 119.5,148.833 119.5,150.167 119.5,151.5C 116.813,151.664 114.146,151.497 111.5,151C 106.03,148.577 100.697,146.077 95.5,143.5C 94.4744,140.628 92.8077,138.128 90.5,136C 86.8073,134.286 83.1406,132.619 79.5,131C 79.8333,130.667 80.1667,130.333 80.5,130C 77.1727,127.675 73.8394,125.342 70.5,123C 66.7095,121.974 63.0429,120.807 59.5,119.5C 60.4124,118.262 60.5791,116.928 60,115.5C 57.8816,114.717 56.3816,113.384 55.5,111.5 Z"/></g>
<g><path style="opacity:1" fill="#fd565e" d="M 153.5,151.5 C 152.5,151.5 151.5,151.5 150.5,151.5C 151.154,147.161 150.154,143.327 147.5,140C 145.5,139.667 143.5,139.333 141.5,139C 142.308,138.692 142.975,138.192 143.5,137.5C 140.836,136.091 138.169,135.757 135.5,136.5C 136.376,137.251 137.376,137.751 138.5,138C 137.185,139.395 137.519,140.395 139.5,141C 138.207,141.49 136.873,141.657 135.5,141.5C 135.719,140.325 135.386,139.325 134.5,138.5C 132.705,139.265 130.872,139.932 129,140.5C 127.211,139.591 125.377,139.424 123.5,140C 122.692,141.706 121.359,142.539 119.5,142.5C 118.498,140.989 117.831,139.322 117.5,137.5C 119.604,137.799 121.604,137.466 123.5,136.5C 122.311,135.571 120.978,135.238 119.5,135.5C 119.5,132.833 119.5,130.167 119.5,127.5C 108.833,126.833 108.833,126.167 119.5,125.5C 119.5,123.5 119.5,121.5 119.5,119.5C 116.833,119.5 114.167,119.5 111.5,119.5C 111.5,117.5 111.5,115.5 111.5,113.5C 127.5,113.5 143.5,113.5 159.5,113.5C 159.5,115.5 159.5,117.5 159.5,119.5C 156.833,119.5 154.167,119.5 151.5,119.5C 151.5,121.5 151.5,123.5 151.5,125.5C 162.167,126.167 162.167,126.833 151.5,127.5C 150.923,132.041 152.257,135.874 155.5,139C 154.164,141.364 154.498,143.531 156.5,145.5C 155.511,147.494 154.511,149.494 153.5,151.5 Z"/></g>
<g><path style="opacity:1" fill="#e7596f" d="M 208.5,116.5 C 208.196,117.15 207.863,117.817 207.5,118.5C 209.631,119.169 211.631,119.835 213.5,120.5C 208.865,122.502 204.199,124.502 199.5,126.5C 196.914,127.48 194.247,127.813 191.5,127.5C 189.882,133.429 185.882,136.429 179.5,136.5C 178.333,138.167 177.167,139.833 176,141.5C 175,140.167 174,140.167 173,141.5C 172.727,143.101 172.227,144.601 171.5,146C 169.563,146.122 168.23,146.955 167.5,148.5C 167.5,149.5 167.5,150.5 167.5,151.5C 164.833,151.5 162.167,151.5 159.5,151.5C 159.5,148.833 159.5,146.167 159.5,143.5C 160.873,143.657 162.207,143.49 163.5,143C 165.377,140.894 167.71,139.561 170.5,139C 171.641,138.259 171.641,137.425 170.5,136.5C 177.819,132.231 184.486,127.064 190.5,121C 196.863,120.2 202.863,118.7 208.5,116.5 Z"/></g>
<g><path style="opacity:1" fill="#ce7490" d="M -0.5,119.5 C 3.55461,119.176 7.55461,119.509 11.5,120.5C 17.8084,122.047 23.8084,124.38 29.5,127.5C 30.6473,127.182 31.4806,126.516 32,125.5C 34.5645,127.179 37.3979,127.846 40.5,127.5C 48.9448,130.859 57.6114,133.692 66.5,136C 67.8333,136.667 67.8333,137.333 66.5,138C 69.2956,139.288 72.129,139.788 75,139.5C 76.9755,140.465 78.4755,141.799 79.5,143.5C 76.8333,143.5 74.1667,143.5 71.5,143.5C 71.1667,143.5 70.8333,143.5 70.5,143.5C 68.2441,142.517 66.5775,140.85 65.5,138.5C 63.5,137.667 61.5,136.833 59.5,136C 50.9962,135.721 42.6628,134.387 34.5,132C 25.5031,131.375 16.5031,130.875 7.5,130.5C 7.5,129.5 7.5,128.5 7.5,127.5C 4.83333,127.5 2.16667,127.5 -0.5,127.5C -0.5,124.833 -0.5,122.167 -0.5,119.5 Z"/></g>
<g><path style="opacity:1" fill="#cc6f8c" d="M 274.5,119.5 C 274.5,122.167 274.5,124.833 274.5,127.5C 264.428,127.446 254.428,128.279 244.5,130C 240.981,130.852 237.647,132.019 234.5,133.5C 228.532,134.771 222.199,135.771 215.5,136.5C 213.272,138.401 210.605,139.401 207.5,139.5C 204.873,140.092 202.206,140.425 199.5,140.5C 199.5,138.833 199.5,137.167 199.5,135.5C 203.182,135.665 206.848,135.499 210.5,135C 214.341,133.186 218.341,131.686 222.5,130.5C 224.836,131.023 227.17,130.523 229.5,129C 229.167,128.667 228.833,128.333 228.5,128C 230.359,127.316 232.026,126.316 233.5,125C 239.284,123.58 244.951,121.914 250.5,120C 258.493,119.5 266.493,119.334 274.5,119.5 Z"/></g>
<g><path style="opacity:1" fill="#d0627c" d="M 95.5,143.5 C 100.697,146.077 106.03,148.577 111.5,151C 114.146,151.497 116.813,151.664 119.5,151.5C 121.167,151.5 122.833,151.5 124.5,151.5C 124.158,152.338 123.492,152.672 122.5,152.5C 119.833,152.5 117.167,152.5 114.5,152.5C 110.833,152.5 107.167,152.5 103.5,152.5C 102.791,151.596 101.791,151.263 100.5,151.5C 100.047,150.542 99.3805,149.708 98.5,149C 94.8878,147.861 91.5544,146.194 88.5,144C 85.5184,143.502 82.5184,143.335 79.5,143.5C 78.4755,141.799 76.9755,140.465 75,139.5C 72.129,139.788 69.2956,139.288 66.5,138C 67.8333,137.333 67.8333,136.667 66.5,136C 57.6114,133.692 48.9448,130.859 40.5,127.5C 43.8499,127.665 47.1832,127.498 50.5,127C 48.5681,125.541 46.5681,124.375 44.5,123.5C 46.4672,123.739 48.3005,123.406 50,122.5C 52.2658,123.956 54.7658,124.79 57.5,125C 56.8333,125.333 56.1667,125.667 55.5,126C 59.819,126.76 64.1523,127.427 68.5,128C 73.4317,131.632 78.765,134.465 84.5,136.5C 84.2907,137.086 83.9574,137.586 83.5,138C 88.2224,138.532 92.2224,140.365 95.5,143.5 Z"/></g>
<g><path style="opacity:1" fill="#bc7290" d="M -0.5,127.5 C 2.16667,127.5 4.83333,127.5 7.5,127.5C 7.5,128.5 7.5,129.5 7.5,130.5C 16.5031,130.875 25.5031,131.375 34.5,132C 42.6628,134.387 50.9962,135.721 59.5,136C 61.5,136.833 63.5,137.667 65.5,138.5C 66.5775,140.85 68.2441,142.517 70.5,143.5C 65.5,143.5 60.5,143.5 55.5,143.5C 51.1667,143.5 46.8333,143.5 42.5,143.5C 41.3192,141.933 39.6526,141.099 37.5,141C 32.816,140.565 28.1493,140.065 23.5,139.5C 23.5,138.167 23.5,136.833 23.5,135.5C 20.8431,135.838 18.5098,135.171 16.5,133.5C 11.0617,135.388 5.39505,136.054 -0.5,135.5C -0.5,132.833 -0.5,130.167 -0.5,127.5 Z"/></g>
<g><path style="opacity:1" fill="#b57696" d="M 274.5,127.5 C 274.5,130.167 274.5,132.833 274.5,135.5C 269.562,136.855 264.562,138.022 259.5,139C 259.833,139.333 260.167,139.667 260.5,140C 257.912,141.132 255.412,141.299 253,140.5C 250.968,140.858 249.134,141.692 247.5,143C 239.216,143.578 231.216,145.078 223.5,147.5C 223.241,144.52 224.574,142.687 227.5,142C 233.895,139.234 240.562,137.401 247.5,136.5C 242.868,135.672 238.202,135.172 233.5,135C 234.056,134.617 234.389,134.117 234.5,133.5C 237.647,132.019 240.981,130.852 244.5,130C 254.428,128.279 264.428,127.446 274.5,127.5 Z"/></g>
<g><path style="opacity:1" fill="#fa4c4f" d="M 150.5,151.5 C 149.5,151.5 148.5,151.5 147.5,151.5C 146.833,151.5 146.167,151.5 145.5,151.5C 145.316,148.663 143.982,146.663 141.5,145.5C 138.201,142.954 134.868,142.954 131.5,145.5C 130.167,146.167 129.167,147.167 128.5,148.5C 127.596,149.209 127.263,150.209 127.5,151.5C 126.5,151.5 125.5,151.5 124.5,151.5C 122.833,151.5 121.167,151.5 119.5,151.5C 119.5,150.167 119.5,148.833 119.5,147.5C 119.5,145.833 119.5,144.167 119.5,142.5C 121.359,142.539 122.692,141.706 123.5,140C 125.377,139.424 127.211,139.591 129,140.5C 130.872,139.932 132.705,139.265 134.5,138.5C 135.386,139.325 135.719,140.325 135.5,141.5C 136.873,141.657 138.207,141.49 139.5,141C 137.519,140.395 137.185,139.395 138.5,138C 137.376,137.751 136.376,137.251 135.5,136.5C 138.169,135.757 140.836,136.091 143.5,137.5C 142.975,138.192 142.308,138.692 141.5,139C 143.5,139.333 145.5,139.667 147.5,140C 150.154,143.327 151.154,147.161 150.5,151.5 Z"/></g>
<g><path style="opacity:1" fill="#b16989" d="M 234.5,133.5 C 234.389,134.117 234.056,134.617 233.5,135C 238.202,135.172 242.868,135.672 247.5,136.5C 240.562,137.401 233.895,139.234 227.5,142C 224.574,142.687 223.241,144.52 223.5,147.5C 220.833,147.5 218.167,147.5 215.5,147.5C 215.5,148.833 215.5,150.167 215.5,151.5C 206.833,151.5 198.167,151.5 189.5,151.5C 190.968,150.221 191.635,148.554 191.5,146.5C 194.167,146.5 196.833,146.5 199.5,146.5C 199.5,145.5 199.5,144.5 199.5,143.5C 202.167,143.5 204.833,143.5 207.5,143.5C 207.5,142.167 207.5,140.833 207.5,139.5C 210.605,139.401 213.272,138.401 215.5,136.5C 222.199,135.771 228.532,134.771 234.5,133.5 Z"/></g>
<g><path style="opacity:1" fill="#ab7796" d="M 42.5,143.5 C 28.1667,143.5 13.8333,143.5 -0.5,143.5C -0.5,140.833 -0.5,138.167 -0.5,135.5C 5.39505,136.054 11.0617,135.388 16.5,133.5C 18.5098,135.171 20.8431,135.838 23.5,135.5C 23.5,136.833 23.5,138.167 23.5,139.5C 28.1493,140.065 32.816,140.565 37.5,141C 39.6526,141.099 41.3192,141.933 42.5,143.5 Z"/></g>
<g><path style="opacity:1" fill="#9b6f93" d="M 274.5,135.5 C 274.5,139.5 274.5,143.5 274.5,147.5C 254.798,148.589 235.131,149.922 215.5,151.5C 215.5,150.167 215.5,148.833 215.5,147.5C 218.167,147.5 220.833,147.5 223.5,147.5C 231.216,145.078 239.216,143.578 247.5,143C 249.134,141.692 250.968,140.858 253,140.5C 255.412,141.299 257.912,141.132 260.5,140C 260.167,139.667 259.833,139.333 259.5,139C 264.562,138.022 269.562,136.855 274.5,135.5 Z"/></g>
<g><path style="opacity:1" fill="#fbecaa" d="M 141.5,145.5 C 141.389,146.117 141.056,146.617 140.5,147C 137.156,147.906 134.156,147.406 131.5,145.5C 134.868,142.954 138.201,142.954 141.5,145.5 Z"/></g>
<g><path style="opacity:1" fill="#b85a78" d="M 207.5,139.5 C 207.5,140.833 207.5,142.167 207.5,143.5C 204.833,143.5 202.167,143.5 199.5,143.5C 199.5,144.5 199.5,145.5 199.5,146.5C 196.833,146.5 194.167,146.5 191.5,146.5C 191.635,148.554 190.968,150.221 189.5,151.5C 187.265,151.205 185.265,151.539 183.5,152.5C 178.167,152.5 172.833,152.5 167.5,152.5C 164.833,152.5 162.167,152.5 159.5,152.5C 159.5,152.167 159.5,151.833 159.5,151.5C 162.167,151.5 164.833,151.5 167.5,151.5C 170.167,151.5 172.833,151.5 175.5,151.5C 175.5,150.5 175.5,149.5 175.5,148.5C 182.039,147.204 188.039,144.704 193.5,141C 195.473,140.505 197.473,140.338 199.5,140.5C 202.206,140.425 204.873,140.092 207.5,139.5 Z"/></g>
<g><path style="opacity:1" fill="#9a6c8c" d="M -0.5,143.5 C 13.8333,143.5 28.1667,143.5 42.5,143.5C 46.8333,143.5 51.1667,143.5 55.5,143.5C 55.5,144.5 55.5,145.5 55.5,146.5C 60.9127,147.346 66.2461,148.513 71.5,150C 70.944,150.383 70.6107,150.883 70.5,151.5C 54.8922,152.437 39.5588,151.104 24.5,147.5C 22.8944,148.077 21.2278,148.41 19.5,148.5C 12.9337,146.846 6.26707,146.179 -0.5,146.5C -0.5,145.5 -0.5,144.5 -0.5,143.5 Z"/></g>
<g><path style="opacity:1" fill="#a4607f" d="M 55.5,143.5 C 60.5,143.5 65.5,143.5 70.5,143.5C 70.8333,143.5 71.1667,143.5 71.5,143.5C 71.5774,144.75 72.244,145.583 73.5,146C 79.1506,146.824 84.4839,148.49 89.5,151C 93.1516,151.499 96.8183,151.665 100.5,151.5C 101.791,151.263 102.791,151.596 103.5,152.5C 95.5,152.5 87.5,152.5 79.5,152.5C 76.7131,151.523 73.7131,151.19 70.5,151.5C 70.6107,150.883 70.944,150.383 71.5,150C 66.2461,148.513 60.9127,147.346 55.5,146.5C 55.5,145.5 55.5,144.5 55.5,143.5 Z"/></g>
<g><path style="opacity:1" fill="#866d8d" d="M 274.5,147.5 C 274.5,149.167 274.5,150.833 274.5,152.5C 254.833,152.5 235.167,152.5 215.5,152.5C 204.833,152.5 194.167,152.5 183.5,152.5C 185.265,151.539 187.265,151.205 189.5,151.5C 198.167,151.5 206.833,151.5 215.5,151.5C 235.131,149.922 254.798,148.589 274.5,147.5 Z"/></g>
<g><path style="opacity:1" fill="#b85976" d="M 71.5,143.5 C 74.1667,143.5 76.8333,143.5 79.5,143.5C 82.5184,143.335 85.5184,143.502 88.5,144C 91.5544,146.194 94.8878,147.861 98.5,149C 99.3805,149.708 100.047,150.542 100.5,151.5C 96.8183,151.665 93.1516,151.499 89.5,151C 84.4839,148.49 79.1506,146.824 73.5,146C 72.244,145.583 71.5774,144.75 71.5,143.5 Z"/></g>
<g><path style="opacity:1" fill="#86708d" d="M -0.5,146.5 C 6.26707,146.179 12.9337,146.846 19.5,148.5C 21.2278,148.41 22.8944,148.077 24.5,147.5C 39.5588,151.104 54.8922,152.437 70.5,151.5C 73.7131,151.19 76.7131,151.523 79.5,152.5C 52.8333,152.5 26.1667,152.5 -0.5,152.5C -0.5,150.5 -0.5,148.5 -0.5,146.5 Z"/></g>
<g><path style="opacity:1" fill="#f9c31e" d="M 131.5,145.5 C 134.156,147.406 137.156,147.906 140.5,147C 141.056,146.617 141.389,146.117 141.5,145.5C 143.982,146.663 145.316,148.663 145.5,151.5C 139.833,151.5 134.167,151.5 128.5,151.5C 128.5,150.5 128.5,149.5 128.5,148.5C 129.167,147.167 130.167,146.167 131.5,145.5 Z"/></g>
<g><path style="opacity:1" fill="#39313b" d="M -0.5,152.5 C 26.1667,152.5 52.8333,152.5 79.5,152.5C 87.5,152.5 95.5,152.5 103.5,152.5C 105.969,153.317 108.635,153.817 111.5,154C 100.839,154.5 90.1719,154.667 79.5,154.5C 52.837,156.168 26.1704,156.501 -0.5,155.5C -0.5,154.5 -0.5,153.5 -0.5,152.5 Z"/></g>
<g><path style="opacity:1" fill="#d52e23" d="M 128.5,148.5 C 128.5,149.5 128.5,150.5 128.5,151.5C 134.167,151.5 139.833,151.5 145.5,151.5C 146.167,151.5 146.833,151.5 147.5,151.5C 144.753,154.944 141.086,156.278 136.5,155.5C 134.167,155.333 131.833,155.167 129.5,155C 128.027,154.29 127.36,153.124 127.5,151.5C 127.263,150.209 127.596,149.209 128.5,148.5 Z"/></g>
<g><path style="opacity:1" fill="#972831" d="M 124.5,151.5 C 125.5,151.5 126.5,151.5 127.5,151.5C 127.36,153.124 128.027,154.29 129.5,155C 131.833,155.167 134.167,155.333 136.5,155.5C 141.086,156.278 144.753,154.944 147.5,151.5C 148.5,151.5 149.5,151.5 150.5,151.5C 151.5,151.5 152.5,151.5 153.5,151.5C 155.5,151.5 157.5,151.5 159.5,151.5C 159.5,151.833 159.5,152.167 159.5,152.5C 156.615,152.194 153.948,152.527 151.5,153.5C 148.978,153.128 146.978,153.961 145.5,156C 139.167,156.667 132.833,156.667 126.5,156C 124.907,155.051 123.574,153.885 122.5,152.5C 123.492,152.672 124.158,152.338 124.5,151.5 Z"/></g>
<g><path style="opacity:1" fill="#342932" d="M 167.5,152.5 C 172.833,152.5 178.167,152.5 183.5,152.5C 194.167,152.5 204.833,152.5 215.5,152.5C 207.677,153.329 199.677,153.829 191.5,154C 197.53,154.252 203.53,154.752 209.5,155.5C 212.891,155.276 216.225,154.942 219.5,154.5C 237.827,156.459 256.161,157.126 274.5,156.5C 274.5,157.167 274.5,157.833 274.5,158.5C 254.01,157.839 233.51,157.173 213,156.5C 200.526,158.304 188.026,158.637 175.5,157.5C 164.853,156.991 164.853,156.158 175.5,155C 172.325,155.053 169.658,154.22 167.5,152.5 Z"/></g>
<g><path style="opacity:1" fill="#373240" d="M 215.5,152.5 C 235.167,152.5 254.833,152.5 274.5,152.5C 274.5,153.833 274.5,155.167 274.5,156.5C 256.161,157.126 237.827,156.459 219.5,154.5C 216.225,154.942 212.891,155.276 209.5,155.5C 203.53,154.752 197.53,154.252 191.5,154C 199.677,153.829 207.677,153.329 215.5,152.5 Z"/></g>
<g><path style="opacity:1" fill="#43262f" d="M 103.5,152.5 C 107.167,152.5 110.833,152.5 114.5,152.5C 114.918,153.222 115.584,153.722 116.5,154C 115.402,154.77 115.402,155.603 116.5,156.5C 112.167,156.5 107.833,156.5 103.5,156.5C 95.0968,157.134 87.0968,156.467 79.5,154.5C 90.1719,154.667 100.839,154.5 111.5,154C 108.635,153.817 105.969,153.317 103.5,152.5 Z"/></g>
<g><path style="opacity:1" fill="#591f1f" d="M 114.5,152.5 C 117.167,152.5 119.833,152.5 122.5,152.5C 123.574,153.885 124.907,155.051 126.5,156C 132.833,156.667 139.167,156.667 145.5,156C 146.978,153.961 148.978,153.128 151.5,153.5C 153.969,154.317 156.635,154.817 159.5,155C 156.774,155.182 154.107,155.682 151.5,156.5C 147.78,158.768 143.78,160.434 139.5,161.5C 132.971,159.282 126.304,157.615 119.5,156.5C 118.5,156.5 117.5,156.5 116.5,156.5C 115.402,155.603 115.402,154.77 116.5,154C 115.584,153.722 114.918,153.222 114.5,152.5 Z"/></g>
<g><path style="opacity:1" fill="#1c2022" d="M 274.5,158.5 C 274.5,161.167 274.5,163.833 274.5,166.5C 265.54,167.415 256.54,167.748 247.5,167.5C 247.5,165.833 247.5,164.167 247.5,162.5C 223.569,160.57 199.569,159.57 175.5,159.5C 173.585,159.784 171.919,159.451 170.5,158.5C 172.415,158.784 174.081,158.451 175.5,157.5C 188.026,158.637 200.526,158.304 213,156.5C 233.51,157.173 254.01,157.839 274.5,158.5 Z"/></g>
<g><path style="opacity:1" fill="#1f2323" d="M 79.5,154.5 C 87.0968,156.467 95.0968,157.134 103.5,156.5C 104.263,157.268 105.263,157.768 106.5,158C 102.848,158.499 99.1817,158.665 95.5,158.5C 82.1735,159.055 68.8402,159.389 55.5,159.5C 55.5,160.5 55.5,161.5 55.5,162.5C 52.1501,162.665 48.8168,162.498 45.5,162C 46.3081,161.692 46.9747,161.192 47.5,160.5C 44.9205,159.451 42.2538,158.784 39.5,158.5C 39.5,160.5 39.5,162.5 39.5,164.5C 37.4534,164.511 35.4534,164.844 33.5,165.5C 30.4388,163.568 27.1054,162.568 23.5,162.5C 23.5,163.5 23.5,164.5 23.5,165.5C 16.6836,165.936 10.017,165.269 3.5,163.5C 2.07546,163.623 0.74213,163.957 -0.5,164.5C -0.5,161.5 -0.5,158.5 -0.5,155.5C 26.1704,156.501 52.837,156.168 79.5,154.5 Z"/></g>
<g><path style="opacity:1" fill="#3a1d1b" d="M 159.5,152.5 C 162.167,152.5 164.833,152.5 167.5,152.5C 169.658,154.22 172.325,155.053 175.5,155C 164.853,156.158 164.853,156.991 175.5,157.5C 174.081,158.451 172.415,158.784 170.5,158.5C 165.156,158.334 159.823,158.501 154.5,159C 150.07,163.079 144.903,165.912 139,167.5C 133.496,166.416 127.996,165.25 122.5,164C 122.554,162.649 122.054,161.482 121,160.5C 117.872,159.796 114.706,159.296 111.5,159C 114.675,159.053 117.342,158.22 119.5,156.5C 126.304,157.615 132.971,159.282 139.5,161.5C 143.78,160.434 147.78,158.768 151.5,156.5C 154.107,155.682 156.774,155.182 159.5,155C 156.635,154.817 153.969,154.317 151.5,153.5C 153.948,152.527 156.615,152.194 159.5,152.5 Z"/></g>
<g><path style="opacity:1" fill="#1f201a" d="M 95.5,158.5 C 97.9479,159.473 100.615,159.806 103.5,159.5C 103.5,161.167 103.5,162.833 103.5,164.5C 103.5,165.5 103.5,166.5 103.5,167.5C 100.833,167.5 98.1667,167.5 95.5,167.5C 95.5,170.167 95.5,172.833 95.5,175.5C 98.1667,175.5 100.833,175.5 103.5,175.5C 103.5,177.833 103.5,180.167 103.5,182.5C 68.8333,182.5 34.1667,182.5 -0.5,182.5C -0.5,176.5 -0.5,170.5 -0.5,164.5C 0.74213,163.957 2.07546,163.623 3.5,163.5C 10.017,165.269 16.6836,165.936 23.5,165.5C 23.5,164.5 23.5,163.5 23.5,162.5C 27.1054,162.568 30.4388,163.568 33.5,165.5C 35.4534,164.844 37.4534,164.511 39.5,164.5C 39.5,162.5 39.5,160.5 39.5,158.5C 42.2538,158.784 44.9205,159.451 47.5,160.5C 46.9747,161.192 46.3081,161.692 45.5,162C 48.8168,162.498 52.1501,162.665 55.5,162.5C 55.5,161.5 55.5,160.5 55.5,159.5C 68.8402,159.389 82.1735,159.055 95.5,158.5 Z"/></g>
<g><path style="opacity:1" fill="#221c15" d="M 175.5,163.5 C 175.5,166.833 175.5,170.167 175.5,173.5C 172.753,173.187 170.086,173.52 167.5,174.5C 175.472,175.498 183.472,175.831 191.5,175.5C 191.5,177.833 191.5,180.167 191.5,182.5C 162.167,182.5 132.833,182.5 103.5,182.5C 103.5,180.167 103.5,177.833 103.5,175.5C 100.833,175.5 98.1667,175.5 95.5,175.5C 95.5,172.833 95.5,170.167 95.5,167.5C 98.1667,167.5 100.833,167.5 103.5,167.5C 103.5,166.5 103.5,165.5 103.5,164.5C 108.179,164.334 112.845,164.501 117.5,165C 117.833,165.333 118.167,165.667 118.5,166C 117.167,166.333 115.833,166.667 114.5,167C 115.893,168.171 116.727,169.671 117,171.5C 118.722,171.962 120.555,172.128 122.5,172C 123.5,173 124.5,174 125.5,175C 131.518,175.1 137.518,174.6 143.5,173.5C 147.903,173.924 152.237,174.591 156.5,175.5C 156.777,172.552 156.444,169.719 155.5,167C 159.459,167.158 163.459,167.325 167.5,167.5C 167.5,166.167 167.5,164.833 167.5,163.5C 170.167,163.5 172.833,163.5 175.5,163.5 Z"/></g>
<g><path style="opacity:1" fill="#291c17" d="M 103.5,156.5 C 107.833,156.5 112.167,156.5 116.5,156.5C 117.5,156.5 118.5,156.5 119.5,156.5C 117.342,158.22 114.675,159.053 111.5,159C 114.706,159.296 117.872,159.796 121,160.5C 122.054,161.482 122.554,162.649 122.5,164C 127.996,165.25 133.496,166.416 139,167.5C 144.903,165.912 150.07,163.079 154.5,159C 159.823,158.501 165.156,158.334 170.5,158.5C 171.919,159.451 173.585,159.784 175.5,159.5C 175.5,160.833 175.5,162.167 175.5,163.5C 172.833,163.5 170.167,163.5 167.5,163.5C 167.5,164.833 167.5,166.167 167.5,167.5C 163.459,167.325 159.459,167.158 155.5,167C 156.444,169.719 156.777,172.552 156.5,175.5C 152.237,174.591 147.903,173.924 143.5,173.5C 137.518,174.6 131.518,175.1 125.5,175C 124.5,174 123.5,173 122.5,172C 120.555,172.128 118.722,171.962 117,171.5C 116.727,169.671 115.893,168.171 114.5,167C 115.833,166.667 117.167,166.333 118.5,166C 118.167,165.667 117.833,165.333 117.5,165C 112.845,164.501 108.179,164.334 103.5,164.5C 103.5,162.833 103.5,161.167 103.5,159.5C 100.615,159.806 97.9479,159.473 95.5,158.5C 99.1817,158.665 102.848,158.499 106.5,158C 105.263,157.768 104.263,157.268 103.5,156.5 Z"/></g>
<g><path style="opacity:1" fill="#1f201a" d="M 175.5,159.5 C 199.569,159.57 223.569,160.57 247.5,162.5C 247.5,164.167 247.5,165.833 247.5,167.5C 256.54,167.748 265.54,167.415 274.5,166.5C 274.5,171.833 274.5,177.167 274.5,182.5C 246.833,182.5 219.167,182.5 191.5,182.5C 191.5,180.167 191.5,177.833 191.5,175.5C 183.472,175.831 175.472,175.498 167.5,174.5C 170.086,173.52 172.753,173.187 175.5,173.5C 175.5,170.167 175.5,166.833 175.5,163.5C 175.5,162.167 175.5,160.833 175.5,159.5 Z"/></g>
</svg>
