<?xml version="1.0" encoding="UTF-8"?>
<!DOCTYPE svg PUBLIC "-//W3C//DTD SVG 1.1//EN" "http://www.w3.org/Graphics/SVG/1.1/DTD/svg11.dtd">
<svg xmlns="http://www.w3.org/2000/svg" version="1.1" width="225px" height="225px" style="shape-rendering:geometricPrecision; text-rendering:geometricPrecision; image-rendering:optimizeQuality; fill-rule:evenodd; clip-rule:evenodd" xmlns:xlink="http://www.w3.org/1999/xlink">
<g><path style="opacity:1" fill="#fdfcfc" d="M -0.5,-0.5 C 74.5,-0.5 149.5,-0.5 224.5,-0.5C 224.5,74.5 224.5,149.5 224.5,224.5C 210.167,224.5 195.833,224.5 181.5,224.5C 180.566,220.627 179.066,216.961 177,213.5C 173.639,207.422 169.805,201.755 165.5,196.5C 165.672,195.508 165.338,194.842 164.5,194.5C 163.583,191.583 162.916,188.583 162.5,185.5C 166.971,183.831 171.138,181.498 175,178.5C 175.499,174.514 175.666,170.514 175.5,166.5C 174.245,161.224 173.245,155.891 172.5,150.5C 176.494,150.565 178.827,148.565 179.5,144.5C 178.76,142.106 177.093,140.606 174.5,140C 176.229,138.211 176.896,136.044 176.5,133.5C 181.176,133.987 183.343,131.987 183,127.5C 182.184,126.177 181.017,125.511 179.5,125.5C 177.863,124.026 176.863,122.192 176.5,120C 176.856,116.031 178.19,112.531 180.5,109.5C 181.097,109.265 181.43,108.765 181.5,108C 180.244,106.155 179.244,104.155 178.5,102C 180.147,97.79 178.814,95.29 174.5,94.5C 174.179,92.9519 173.179,92.2852 171.5,92.5C 171.802,89.9407 171.468,87.6074 170.5,85.5C 170.5,85.1667 170.5,84.8333 170.5,84.5C 171.492,84.3284 172.158,84.6618 172.5,85.5C 174.68,87.7441 176.846,87.4108 179,84.5C 179.667,79.1667 179.667,73.8333 179,68.5C 175.6,67.4604 172.1,66.7938 168.5,66.5C 168.66,64.8008 168.494,63.1341 168,61.5C 166.198,60.2107 165.031,58.5441 164.5,56.5C 168.393,53.0855 168.393,49.7522 164.5,46.5C 163.027,44.6053 161.36,42.9387 159.5,41.5C 158.244,39.059 158.244,36.7257 159.5,34.5C 161.377,35.6246 163.21,35.2912 165,33.5C 165.09,22.5932 159.59,17.4265 148.5,18C 147.663,19.0113 147.33,20.1779 147.5,21.5C 147.557,22.609 147.89,23.609 148.5,24.5C 147.504,24.5858 146.671,24.2524 146,23.5C 145.194,19.3604 142.694,16.8604 138.5,16C 136.5,15.6667 134.5,15.3333 132.5,15C 129.556,10.8133 125.723,9.64667 121,11.5C 119.399,9.69948 117.399,8.69948 115,8.5C 109.714,10.144 104.214,10.9773 98.5,11C 93.1844,13.1465 89.851,16.9799 88.5,22.5C 84.3764,24.1391 80.3764,25.9724 76.5,28C 77.7932,28.49 79.1266,28.6567 80.5,28.5C 80.6107,29.1174 80.944,29.6174 81.5,30C 79.7905,31.9157 78.4572,34.0824 77.5,36.5C 75.604,37.4656 73.604,37.7989 71.5,37.5C 69.2921,38.023 67.7921,39.3563 67,41.5C 66.6667,44.1667 66.3333,46.8333 66,49.5C 59.9707,52.3761 60.1373,52.8761 66.5,51C 67.8633,49.0551 68.6966,46.8884 69,44.5C 70.1178,46.7654 70.9512,49.0987 71.5,51.5C 71.1667,52.5 70.5,53.1667 69.5,53.5C 64.8106,56.988 63.3106,61.6547 65,67.5C 65.8333,68.3333 66.6667,69.1667 67.5,70C 62.0597,72.7077 60.393,76.8744 62.5,82.5C 58.8546,82.7262 56.188,84.3929 54.5,87.5C 53.346,93.987 53.1794,100.654 54,107.5C 56.0811,108.333 58.2478,108.333 60.5,107.5C 61.7734,110.271 60.7734,111.938 57.5,112.5C 56.0069,113.312 55.3402,114.645 55.5,116.5C 55.5195,117.726 55.8529,118.726 56.5,119.5C 57.2763,121.974 58.7763,122.641 61,121.5C 61.1667,122 61.3333,122.5 61.5,123C 60.281,126.692 58.281,130.359 55.5,134C 57.3553,137.228 59.0219,140.561 60.5,144C 57.7713,144.566 55.7713,146.066 54.5,148.5C 53.174,151.079 53.5073,153.579 55.5,156C 54.8993,157.605 53.8993,158.938 52.5,160C 53.9961,160.507 55.1627,160.007 56,158.5C 56.3013,155.493 56.1346,152.493 55.5,149.5C 57.5834,148.971 59.4167,147.971 61,146.5C 62.445,142.427 62.2784,138.593 60.5,135C 60.6387,133.699 61.3054,132.866 62.5,132.5C 64.3792,131.659 66.3792,131.325 68.5,131.5C 66.9767,134.635 66.31,137.968 66.5,141.5C 65.3926,145.635 64.0593,149.802 62.5,154C 63.2727,160.129 63.7727,166.296 64,172.5C 65.1667,174.333 66.6667,175.833 68.5,177C 72.307,178.428 75.9736,179.928 79.5,181.5C 76.4838,184.52 73.8171,187.854 71.5,191.5C 63.0781,201.327 56.4114,212.327 51.5,224.5C 34.1667,224.5 16.8333,224.5 -0.5,224.5C -0.5,149.5 -0.5,74.5 -0.5,-0.5 Z"/></g>
<g><path style="opacity:1" fill="#e2b758" d="M 159.5,34.5 C 159.5,33.5 159.5,32.5 159.5,31.5C 160.5,31.5 161.5,31.5 162.5,31.5C 163.383,27.0464 162.05,23.5464 158.5,21C 155.833,20.3333 153.167,20.3333 150.5,21C 149.944,21.3826 149.611,21.8826 149.5,22.5C 148.833,22.1667 148.167,21.8333 147.5,21.5C 147.33,20.1779 147.663,19.0113 148.5,18C 159.59,17.4265 165.09,22.5932 165,33.5C 163.21,35.2912 161.377,35.6246 159.5,34.5 Z"/></g>
<g><path style="opacity:1" fill="#f2ac24" d="M 159.5,31.5 C 158.5,31.5 157.5,31.5 156.5,31.5C 155.5,31.5 154.5,31.5 153.5,31.5C 152.964,28.0988 151.631,25.0988 149.5,22.5C 149.611,21.8826 149.944,21.3826 150.5,21C 153.167,20.3333 155.833,20.3333 158.5,21C 162.05,23.5464 163.383,27.0464 162.5,31.5C 161.5,31.5 160.5,31.5 159.5,31.5 Z"/></g>
<g><path style="opacity:1" fill="#a49795" d="M 88.5,22.5 C 88.8541,25.4206 87.8541,27.7539 85.5,29.5C 84.5224,29.0233 83.6891,28.3567 83,27.5C 82.3292,28.2524 81.4959,28.5858 80.5,28.5C 79.1266,28.6567 77.7932,28.49 76.5,28C 80.3764,25.9724 84.3764,24.1391 88.5,22.5 Z"/></g>
<g><path style="opacity:1" fill="#6f5f22" d="M 147.5,21.5 C 148.167,21.8333 148.833,22.1667 149.5,22.5C 151.631,25.0988 152.964,28.0988 153.5,31.5C 152.5,31.5 151.5,31.5 150.5,31.5C 150.662,29.4727 150.495,27.4727 150,25.5C 149.617,24.944 149.117,24.6107 148.5,24.5C 147.89,23.609 147.557,22.609 147.5,21.5 Z"/></g>
<g><path style="opacity:1" fill="#7e7860" d="M 156.5,31.5 C 157.5,31.5 158.5,31.5 159.5,31.5C 159.5,32.5 159.5,33.5 159.5,34.5C 158.244,36.7257 158.244,39.059 159.5,41.5C 157.772,38.5782 156.772,35.2449 156.5,31.5 Z"/></g>
<g><path style="opacity:1" fill="#6a615e" d="M 71.5,37.5 C 71.5858,38.4959 71.2524,39.3292 70.5,40C 71.0944,40.4643 71.7611,40.631 72.5,40.5C 71.2665,43.4648 71.2665,46.4648 72.5,49.5C 72.6716,50.4916 72.3382,51.1583 71.5,51.5C 70.9512,49.0987 70.1178,46.7654 69,44.5C 68.6966,46.8884 67.8633,49.0551 66.5,51C 60.1373,52.8761 59.9707,52.3761 66,49.5C 66.3333,46.8333 66.6667,44.1667 67,41.5C 67.7921,39.3563 69.2921,38.023 71.5,37.5 Z"/></g>
<g><path style="opacity:1" fill="#f1e6e4" d="M 72.5,40.5 C 75.5506,42.3809 76.2173,45.0476 74.5,48.5C 74.0431,49.2975 73.3764,49.6309 72.5,49.5C 71.2665,46.4648 71.2665,43.4648 72.5,40.5 Z"/></g>
<g><path style="opacity:1" fill="#baafb0" d="M 164.5,46.5 C 168.393,49.7522 168.393,53.0855 164.5,56.5C 164.082,55.7784 163.416,55.2784 162.5,55C 164.179,52.4355 164.846,49.6021 164.5,46.5 Z"/></g>
<g><path style="opacity:1" fill="#2e1a1c" d="M 148.5,24.5 C 149.117,24.6107 149.617,24.944 150,25.5C 150.495,27.4727 150.662,29.4727 150.5,31.5C 151.5,31.5 152.5,31.5 153.5,31.5C 154.5,31.5 155.5,31.5 156.5,31.5C 156.772,35.2449 157.772,38.5782 159.5,41.5C 161.36,42.9387 163.027,44.6053 164.5,46.5C 164.846,49.6021 164.179,52.4355 162.5,55C 163.416,55.2784 164.082,55.7784 164.5,56.5C 165.031,58.5441 166.198,60.2107 168,61.5C 168.494,63.1341 168.66,64.8008 168.5,66.5C 168.5,66.8333 168.5,67.1667 168.5,67.5C 167.272,68.3065 166.272,69.3065 165.5,70.5C 164.305,70.8656 163.639,71.699 163.5,73C 165.215,76.3091 166.215,79.8091 166.5,83.5C 167.959,83.4326 169.292,83.7659 170.5,84.5C 170.5,84.8333 170.5,85.1667 170.5,85.5C 170.5,87.8333 170.5,90.1667 170.5,92.5C 167.942,89.9936 165.276,89.9936 162.5,92.5C 164.261,94.3678 166.261,95.7011 168.5,96.5C 168.631,97.2389 168.464,97.9056 168,98.5C 167,97.1667 166,97.1667 165,98.5C 160.744,96.4782 156.244,95.4782 151.5,95.5C 150.633,92.1067 150.466,88.7734 151,85.5C 150.333,86.1667 149.667,86.8333 149,87.5C 148.827,91.5408 148.327,95.5408 147.5,99.5C 145.209,98.1043 144.875,96.271 146.5,94C 146.094,90.2343 145.094,86.7343 143.5,83.5C 143.894,82.0328 144.227,80.5328 144.5,79C 144.613,77.3009 143.947,76.1342 142.5,75.5C 143.43,71.6002 143.763,67.6002 143.5,63.5C 142.167,63.5 140.833,63.5 139.5,63.5C 139.045,60.7965 138.378,58.1298 137.5,55.5C 138.331,53.5269 138.498,51.5269 138,49.5C 137.29,48.0267 136.124,47.3601 134.5,47.5C 133.531,46.6906 132.698,45.6906 132,44.5C 131.817,41.6353 131.317,38.9686 130.5,36.5C 130.5,35.1667 130.5,33.8333 130.5,32.5C 128.436,32.313 126.436,31.813 124.5,31C 125.727,29.4126 125.394,28.0793 123.5,27C 124.563,25.8118 125.897,25.3118 127.5,25.5C 127.5,22.1667 127.5,18.8333 127.5,15.5C 126.448,15.6495 125.448,15.4828 124.5,15C 125.016,12.9672 124.35,12.9672 122.5,15C 118.848,15.4986 115.182,15.6653 111.5,15.5C 111.725,19.0562 110.892,19.3895 109,16.5C 107.71,18.354 106.21,18.6873 104.5,17.5C 103.213,20.7087 103.213,23.8753 104.5,27C 106.847,27.3336 109.181,27.167 111.5,26.5C 111.5,28.1667 111.5,29.8333 111.5,31.5C 106.489,31.3341 101.489,31.5007 96.5,32C 98.7671,33.0812 98.9338,34.5812 97,36.5C 94.8524,37.8049 93.3524,39.6383 92.5,42C 89.6178,43.3667 86.9511,45.0334 84.5,47C 85.938,47.2189 87.2713,47.7189 88.5,48.5C 88.2907,49.086 87.9574,49.586 87.5,50C 88.4158,50.2784 89.0825,50.7784 89.5,51.5C 87.5605,54.0658 86.0605,57.0658 85,60.5C 84.3486,62.235 84.5153,63.9017 85.5,65.5C 85.1667,65.8333 84.8333,66.1667 84.5,66.5C 83.6143,65.675 83.281,64.675 83.5,63.5C 82.1667,63.5 80.8333,63.5 79.5,63.5C 79.5,66.1667 79.5,68.8333 79.5,71.5C 78.5,71.5 77.5,71.5 76.5,71.5C 76.4404,75.9878 77.7737,79.9878 80.5,83.5C 79.9399,85.8537 79.2733,88.187 78.5,90.5C 75.0831,92.9255 73.7498,96.2589 74.5,100.5C 76.1667,100.5 77.8333,100.5 79.5,100.5C 79.5,102.833 79.5,105.167 79.5,107.5C 79.5,108.833 79.5,110.167 79.5,111.5C 78.1667,111.5 76.8333,111.5 75.5,111.5C 76.0001,115.164 74.8334,118.164 72,120.5C 71.5034,122.81 71.3367,125.143 71.5,127.5C 70.5,127.5 69.5,127.5 68.5,127.5C 68.5,128.833 68.5,130.167 68.5,131.5C 66.3792,131.325 64.3792,131.659 62.5,132.5C 62.6309,131.624 62.2975,130.957 61.5,130.5C 60.6043,131.506 59.9377,131.506 59.5,130.5C 62.6849,128.317 64.0182,125.317 63.5,121.5C 65.1667,121.5 66.8333,121.5 68.5,121.5C 65.7269,115.95 63.8936,109.95 63,103.5C 61.8687,104.604 61.0354,104.271 60.5,102.5C 61.7914,101.473 61.7914,100.473 60.5,99.5C 61.259,97.5642 62.259,95.7309 63.5,94C 61.1186,92.0774 59.6186,89.5774 59,86.5C 55.8563,89.6919 55.6896,93.0252 58.5,96.5C 57.1529,97.1712 55.9862,97.1712 55,96.5C 54.502,93.5184 54.3354,90.5184 54.5,87.5C 56.188,84.3929 58.8546,82.7262 62.5,82.5C 63.3138,80.369 63.8138,78.0356 64,75.5C 66.3802,73.9552 68.2135,71.9552 69.5,69.5C 70.1239,69.0831 70.4573,68.4164 70.5,67.5C 69.8131,65.8228 69.1465,64.1561 68.5,62.5C 68.0548,59.6354 68.7215,57.1354 70.5,55C 69.944,54.6174 69.6107,54.1174 69.5,53.5C 70.5,53.1667 71.1667,52.5 71.5,51.5C 72.3382,51.1583 72.6716,50.4916 72.5,49.5C 73.3764,49.6309 74.0431,49.2975 74.5,48.5C 76.2173,45.0476 75.5506,42.3809 72.5,40.5C 71.7611,40.631 71.0944,40.4643 70.5,40C 71.2524,39.3292 71.5858,38.4959 71.5,37.5C 73.604,37.7989 75.604,37.4656 77.5,36.5C 78.4572,34.0824 79.7905,31.9157 81.5,30C 80.944,29.6174 80.6107,29.1174 80.5,28.5C 81.4959,28.5858 82.3292,28.2524 83,27.5C 83.6891,28.3567 84.5224,29.0233 85.5,29.5C 87.8541,27.7539 88.8541,25.4206 88.5,22.5C 89.851,16.9799 93.1844,13.1465 98.5,11C 104.214,10.9773 109.714,10.144 115,8.5C 117.399,8.69948 119.399,9.69948 121,11.5C 125.723,9.64667 129.556,10.8133 132.5,15C 134.5,15.3333 136.5,15.6667 138.5,16C 142.694,16.8604 145.194,19.3604 146,23.5C 146.671,24.2524 147.504,24.5858 148.5,24.5 Z"/></g>
<g><path style="opacity:1" fill="#c06348" d="M 115.5,44.5 C 115.794,47.1479 116.128,49.8146 116.5,52.5C 114.955,53.4519 113.288,53.7852 111.5,53.5C 111.34,51.8008 111.506,50.1341 112,48.5C 112.667,49.8333 113.333,49.8333 114,48.5C 112.992,46.634 113.492,45.3007 115.5,44.5 Z"/></g>
<g><path style="opacity:1" fill="#954f3c" d="M 111.5,32.5 C 111.5,34.5 111.5,36.5 111.5,38.5C 110.883,38.6107 110.383,38.944 110,39.5C 109.026,43.1731 108.193,46.8398 107.5,50.5C 106.833,50.5 106.167,50.5 105.5,50.5C 102.311,49.8339 98.9773,49.1672 95.5,48.5C 101.233,45.1087 103.9,40.1087 103.5,33.5C 105.948,32.5269 108.615,32.1936 111.5,32.5 Z"/></g>
<g><path style="opacity:1" fill="#79443a" d="M 103.5,33.5 C 103.9,40.1087 101.233,45.1087 95.5,48.5C 98.9773,49.1672 102.311,49.8339 105.5,50.5C 101.673,50.3871 98.1732,51.3871 95,53.5C 94.654,51.7818 94.154,50.1151 93.5,48.5C 95.3248,44.7044 97.1581,41.0378 99,37.5C 99.8763,35.3645 101.376,34.0312 103.5,33.5 Z"/></g>
<g><path style="opacity:1" fill="#3f1d18" d="M 111.5,31.5 C 111.5,31.8333 111.5,32.1667 111.5,32.5C 108.615,32.1936 105.948,32.5269 103.5,33.5C 101.376,34.0312 99.8763,35.3645 99,37.5C 97.1581,41.0378 95.3248,44.7044 93.5,48.5C 94.154,50.1151 94.654,51.7818 95,53.5C 98.1732,51.3871 101.673,50.3871 105.5,50.5C 106.167,50.5 106.833,50.5 107.5,50.5C 107.804,51.1499 108.137,51.8165 108.5,52.5C 103.69,53.0233 99.0236,54.0233 94.5,55.5C 93.6667,56.5 92.8333,57.5 92,58.5C 91.6667,61.5 91.3333,64.5 91,67.5C 89.8932,66.2881 89.3932,66.6214 89.5,68.5C 85.1907,63.0059 85.8574,58.0059 91.5,53.5C 90.7573,52.8182 90.0906,52.1515 89.5,51.5C 89.0825,50.7784 88.4158,50.2784 87.5,50C 87.9574,49.586 88.2907,49.086 88.5,48.5C 87.2713,47.7189 85.938,47.2189 84.5,47C 86.9511,45.0334 89.6178,43.3667 92.5,42C 93.3524,39.6383 94.8524,37.8049 97,36.5C 98.9338,34.5812 98.7671,33.0812 96.5,32C 101.489,31.5007 106.489,31.3341 111.5,31.5 Z"/></g>
<g><path style="opacity:1" fill="#ce8558" d="M 111.5,31.5 C 113.833,31.5 116.167,31.5 118.5,31.5C 118.804,32.1499 119.137,32.8165 119.5,33.5C 123.599,34.8711 126.933,37.2044 129.5,40.5C 130.452,42.0453 130.785,43.712 130.5,45.5C 128.188,43.8545 126.188,41.8545 124.5,39.5C 121.866,40.516 119.2,40.516 116.5,39.5C 114.585,39.7845 112.919,39.4511 111.5,38.5C 111.5,36.5 111.5,34.5 111.5,32.5C 111.5,32.1667 111.5,31.8333 111.5,31.5 Z"/></g>
<g><path style="opacity:1" fill="#8c5a46" d="M 118.5,31.5 C 122.925,32.2871 126.925,33.9538 130.5,36.5C 131.317,38.9686 131.817,41.6353 132,44.5C 132.698,45.6906 133.531,46.6906 134.5,47.5C 132.801,47.4729 131.467,46.8062 130.5,45.5C 130.785,43.712 130.452,42.0453 129.5,40.5C 126.933,37.2044 123.599,34.8711 119.5,33.5C 119.137,32.8165 118.804,32.1499 118.5,31.5 Z"/></g>
<g><path style="opacity:1" fill="#392121" d="M 130.5,36.5 C 126.925,33.9538 122.925,32.2871 118.5,31.5C 116.167,31.5 113.833,31.5 111.5,31.5C 111.5,29.8333 111.5,28.1667 111.5,26.5C 109.181,27.167 106.847,27.3336 104.5,27C 103.213,23.8753 103.213,20.7087 104.5,17.5C 106.21,18.6873 107.71,18.354 109,16.5C 110.892,19.3895 111.725,19.0562 111.5,15.5C 115.182,15.6653 118.848,15.4986 122.5,15C 124.35,12.9672 125.016,12.9672 124.5,15C 125.448,15.4828 126.448,15.6495 127.5,15.5C 127.5,18.8333 127.5,22.1667 127.5,25.5C 125.897,25.3118 124.563,25.8118 123.5,27C 125.394,28.0793 125.727,29.4126 124.5,31C 126.436,31.813 128.436,32.313 130.5,32.5C 130.5,33.8333 130.5,35.1667 130.5,36.5 Z"/></g>
<g><path style="opacity:1" fill="#4c1a0c" d="M 135.5,53.5 C 135.265,54.0967 134.765,54.4301 134,54.5C 129.081,54.2485 124.581,53.2485 120.5,51.5C 125.765,49.95 130.765,50.6167 135.5,53.5 Z"/></g>
<g><path style="opacity:1" fill="#f1ebea" d="M 68.5,62.5 C 69.1465,64.1561 69.8131,65.8228 70.5,67.5C 70.4573,68.4164 70.1239,69.0831 69.5,69.5C 65.4549,66.5628 64.6216,62.8962 67,58.5C 67.21,60.0581 67.71,61.3915 68.5,62.5 Z"/></g>
<g><path style="opacity:1" fill="#8d503d" d="M 107.5,50.5 C 108.725,51.1522 109.392,52.3189 109.5,54C 110.172,56.6811 110.505,59.1811 110.5,61.5C 109.332,63.2174 107.665,63.8841 105.5,63.5C 108.699,59.1706 107.533,56.8373 102,56.5C 100.319,56.6083 99.1522,57.2749 98.5,58.5C 97.9162,61.285 98.9162,62.9517 101.5,63.5C 102.5,63.5 103.5,63.5 104.5,63.5C 104.144,64.8699 103.31,65.8699 102,66.5C 100.467,65.3047 98.9675,65.3047 97.5,66.5C 95.9309,65.286 95.0976,63.6193 95,61.5C 94.6667,61.8333 94.3333,62.1667 94,62.5C 93.8435,64.8954 94.3435,67.2288 95.5,69.5C 95.3038,71.2861 94.4705,72.6195 93,73.5C 92.5045,75.4727 92.3379,77.4727 92.5,79.5C 94.8333,79.5 97.1667,79.5 99.5,79.5C 99.2852,81.1788 99.9519,82.1788 101.5,82.5C 101.918,83.2216 102.584,83.7216 103.5,84C 102.944,84.3826 102.611,84.8826 102.5,85.5C 100.122,84.3076 98.1217,82.641 96.5,80.5C 95.6143,81.325 95.281,82.325 95.5,83.5C 89.9334,84.2468 88.1,81.9134 90,76.5C 91.02,75.1095 91.8534,73.6095 92.5,72C 91.2899,70.9609 90.2899,69.7942 89.5,68.5C 89.3932,66.6214 89.8932,66.2881 91,67.5C 91.3333,64.5 91.6667,61.5 92,58.5C 92.8333,57.5 93.6667,56.5 94.5,55.5C 99.0236,54.0233 103.69,53.0233 108.5,52.5C 108.137,51.8165 107.804,51.1499 107.5,50.5 Z"/></g>
<g><path style="opacity:1" fill="#b79d98" d="M 98.5,58.5 C 100.223,59.6053 101.223,61.2719 101.5,63.5C 101.223,61.2719 100.223,59.6053 98.5,58.5 Z"/></g>
<g><path style="opacity:1" fill="#231717" d="M 105.5,63.5 C 105.167,63.5 104.833,63.5 104.5,63.5C 103.5,63.5 102.5,63.5 101.5,63.5C 101.223,61.2719 100.223,59.6053 98.5,58.5C 99.1522,57.2749 100.319,56.6083 102,56.5C 107.533,56.8373 108.699,59.1706 105.5,63.5 Z"/></g>
<g><path style="opacity:1" fill="#a86b51" d="M 134.5,47.5 C 136.124,47.3601 137.29,48.0267 138,49.5C 138.498,51.5269 138.331,53.5269 137.5,55.5C 138.378,58.1298 139.045,60.7965 139.5,63.5C 138.815,68.2387 137.815,72.9054 136.5,77.5C 135.833,78.1667 135.167,78.8333 134.5,79.5C 135.377,74.1988 136.044,68.8655 136.5,63.5C 135.167,63.5 133.833,63.5 132.5,63.5C 133.666,61.834 133.666,60.1673 132.5,58.5C 128.881,55.8952 125.548,56.0619 122.5,59C 124.107,60.049 124.773,61.549 124.5,63.5C 126.167,63.5 127.833,63.5 129.5,63.5C 130.167,63.5 130.833,63.5 131.5,63.5C 127.983,64.6203 124.316,64.6203 120.5,63.5C 120.115,59.2934 120.115,55.2934 120.5,51.5C 124.581,53.2485 129.081,54.2485 134,54.5C 134.765,54.4301 135.265,54.0967 135.5,53.5C 134.85,51.5648 134.517,49.5648 134.5,47.5 Z"/></g>
<g><path style="opacity:1" fill="#2a1614" d="M 132.5,63.5 C 132.167,63.5 131.833,63.5 131.5,63.5C 132.677,61.8974 132.511,60.564 131,59.5C 130.59,60.9007 130.09,62.234 129.5,63.5C 127.833,63.5 126.167,63.5 124.5,63.5C 124.773,61.549 124.107,60.049 122.5,59C 125.548,56.0619 128.881,55.8952 132.5,58.5C 133.666,60.1673 133.666,61.834 132.5,63.5 Z"/></g>
<g><path style="opacity:1" fill="#ccb3a6" d="M 131.5,63.5 C 130.833,63.5 130.167,63.5 129.5,63.5C 130.09,62.234 130.59,60.9007 131,59.5C 132.511,60.564 132.677,61.8974 131.5,63.5 Z"/></g>
<g><path style="opacity:1" fill="#776f6d" d="M 69.5,53.5 C 69.6107,54.1174 69.944,54.6174 70.5,55C 68.7215,57.1354 68.0548,59.6354 68.5,62.5C 67.71,61.3915 67.21,60.0581 67,58.5C 64.6216,62.8962 65.4549,66.5628 69.5,69.5C 68.2135,71.9552 66.3802,73.9552 64,75.5C 63.8138,78.0356 63.3138,80.369 62.5,82.5C 60.393,76.8744 62.0597,72.7077 67.5,70C 66.6667,69.1667 65.8333,68.3333 65,67.5C 63.3106,61.6547 64.8106,56.988 69.5,53.5 Z"/></g>
<g><path style="opacity:1" fill="#f6edcb" d="M 168.5,67.5 C 168.5,67.1667 168.5,66.8333 168.5,66.5C 172.1,66.7938 175.6,67.4604 179,68.5C 179.667,73.8333 179.667,79.1667 179,84.5C 176.846,87.4108 174.68,87.7441 172.5,85.5C 173.338,85.1583 173.672,84.4916 173.5,83.5C 175.311,83.428 176.644,82.5947 177.5,81C 175.933,77.7016 175.1,74.2016 175,70.5C 173.266,68.5494 171.099,67.5494 168.5,67.5 Z"/></g>
<g><path style="opacity:1" fill="#64281c" d="M 139.5,63.5 C 140.833,63.5 142.167,63.5 143.5,63.5C 143.763,67.6002 143.43,71.6002 142.5,75.5C 141.442,74.3998 140.608,73.0664 140,71.5C 139.058,74.3738 137.891,77.0404 136.5,79.5C 136.5,78.8333 136.5,78.1667 136.5,77.5C 137.815,72.9054 138.815,68.2387 139.5,63.5 Z"/></g>
<g><path style="opacity:1" fill="#655718" d="M 165.5,70.5 C 165.528,73.2514 166.528,75.5847 168.5,77.5C 167.674,78.451 167.508,79.451 168,80.5C 170.209,80.9892 172.042,81.9892 173.5,83.5C 173.672,84.4916 173.338,85.1583 172.5,85.5C 172.158,84.6618 171.492,84.3284 170.5,84.5C 169.292,83.7659 167.959,83.4326 166.5,83.5C 166.215,79.8091 165.215,76.3091 163.5,73C 163.639,71.699 164.305,70.8656 165.5,70.5 Z"/></g>
<g><path style="opacity:1" fill="#8f5c39" d="M 142.5,75.5 C 143.947,76.1342 144.613,77.3009 144.5,79C 144.227,80.5328 143.894,82.0328 143.5,83.5C 139.622,85.1439 137.289,83.8106 136.5,79.5C 137.891,77.0404 139.058,74.3738 140,71.5C 140.608,73.0664 141.442,74.3998 142.5,75.5 Z"/></g>
<g><path style="opacity:1" fill="#c87f59" d="M 111.5,38.5 C 112.919,39.4511 114.585,39.7845 116.5,39.5C 116.784,41.4147 116.451,43.0813 115.5,44.5C 113.492,45.3007 112.992,46.634 114,48.5C 113.333,49.8333 112.667,49.8333 112,48.5C 111.506,50.1341 111.34,51.8008 111.5,53.5C 111.665,56.8499 111.498,60.1832 111,63.5C 107.456,65.0394 105.456,67.7061 105,71.5C 104.333,72.8333 103.667,72.8333 103,71.5C 102.506,73.1341 102.34,74.8008 102.5,76.5C 105.245,76.627 107.245,75.4603 108.5,73C 107.594,71.3005 107.261,69.4672 107.5,67.5C 109.288,67.2148 110.955,67.5481 112.5,68.5C 113.671,71.8552 115.338,72.1885 117.5,69.5C 118.452,71.0453 118.785,72.712 118.5,74.5C 114.358,74.611 110.692,75.611 107.5,77.5C 106.167,77.5 105.5,78.1667 105.5,79.5C 105.5,80.5 105.5,81.5 105.5,82.5C 104.167,82.5 102.833,82.5 101.5,82.5C 99.9519,82.1788 99.2852,81.1788 99.5,79.5C 97.1667,79.5 94.8333,79.5 92.5,79.5C 92.3379,77.4727 92.5045,75.4727 93,73.5C 94.4705,72.6195 95.3038,71.2861 95.5,69.5C 94.3435,67.2288 93.8435,64.8954 94,62.5C 94.3333,62.1667 94.6667,61.8333 95,61.5C 95.0976,63.6193 95.9309,65.286 97.5,66.5C 98.9675,65.3047 100.467,65.3047 102,66.5C 103.31,65.8699 104.144,64.8699 104.5,63.5C 104.833,63.5 105.167,63.5 105.5,63.5C 107.665,63.8841 109.332,63.2174 110.5,61.5C 110.505,59.1811 110.172,56.6811 109.5,54C 109.392,52.3189 108.725,51.1522 107.5,50.5C 108.193,46.8398 109.026,43.1731 110,39.5C 110.383,38.944 110.883,38.6107 111.5,38.5 Z"/></g>
<g><path style="opacity:1" fill="#e8ad35" d="M 168.5,67.5 C 171.099,67.5494 173.266,68.5494 175,70.5C 175.1,74.2016 175.933,77.7016 177.5,81C 176.644,82.5947 175.311,83.428 173.5,83.5C 172.042,81.9892 170.209,80.9892 168,80.5C 167.508,79.451 167.674,78.451 168.5,77.5C 166.528,75.5847 165.528,73.2514 165.5,70.5C 166.272,69.3065 167.272,68.3065 168.5,67.5 Z"/></g>
<g><path style="opacity:1" fill="#bf5d45" d="M 107.5,77.5 C 112.688,80.0368 118.021,80.0368 123.5,77.5C 123.833,77.8333 124.167,78.1667 124.5,78.5C 121.533,79.4153 119.7,81.4153 119,84.5C 116.985,85.8423 114.818,86.3423 112.5,86C 110.696,83.1842 108.363,81.0175 105.5,79.5C 105.5,78.1667 106.167,77.5 107.5,77.5 Z"/></g>
<g><path style="opacity:1" fill="#dd9873" d="M 116.5,39.5 C 119.2,40.516 121.866,40.516 124.5,39.5C 126.188,41.8545 128.188,43.8545 130.5,45.5C 131.467,46.8062 132.801,47.4729 134.5,47.5C 134.517,49.5648 134.85,51.5648 135.5,53.5C 130.765,50.6167 125.765,49.95 120.5,51.5C 120.115,55.2934 120.115,59.2934 120.5,63.5C 124.316,64.6203 127.983,64.6203 131.5,63.5C 131.833,63.5 132.167,63.5 132.5,63.5C 133.833,63.5 135.167,63.5 136.5,63.5C 136.044,68.8655 135.377,74.1988 134.5,79.5C 132.806,81.8606 130.806,83.8606 128.5,85.5C 124.41,88.3656 119.91,90.3656 115,91.5C 113.5,91.3333 112,91.1667 110.5,91C 108.478,88.9906 106.145,87.4906 103.5,86.5C 102.833,86.5 102.5,86.1667 102.5,85.5C 102.611,84.8826 102.944,84.3826 103.5,84C 102.584,83.7216 101.918,83.2216 101.5,82.5C 102.833,82.5 104.167,82.5 105.5,82.5C 105.5,81.5 105.5,80.5 105.5,79.5C 108.363,81.0175 110.696,83.1842 112.5,86C 114.818,86.3423 116.985,85.8423 119,84.5C 119.7,81.4153 121.533,79.4153 124.5,78.5C 124.167,78.1667 123.833,77.8333 123.5,77.5C 118.021,80.0368 112.688,80.0368 107.5,77.5C 110.692,75.611 114.358,74.611 118.5,74.5C 118.785,72.712 118.452,71.0453 117.5,69.5C 115.338,72.1885 113.671,71.8552 112.5,68.5C 110.955,67.5481 109.288,67.2148 107.5,67.5C 107.261,69.4672 107.594,71.3005 108.5,73C 107.245,75.4603 105.245,76.627 102.5,76.5C 102.34,74.8008 102.506,73.1341 103,71.5C 103.667,72.8333 104.333,72.8333 105,71.5C 105.456,67.7061 107.456,65.0394 111,63.5C 111.498,60.1832 111.665,56.8499 111.5,53.5C 113.288,53.7852 114.955,53.4519 116.5,52.5C 116.128,49.8146 115.794,47.1479 115.5,44.5C 116.451,43.0813 116.784,41.4147 116.5,39.5 Z"/></g>
<g><path style="opacity:1" fill="#ece4e2" d="M 60.5,99.5 C 59.8333,98.5 59.1667,97.5 58.5,96.5C 55.6896,93.0252 55.8563,89.6919 59,86.5C 59.6186,89.5774 61.1186,92.0774 63.5,94C 62.259,95.7309 61.259,97.5642 60.5,99.5 Z"/></g>
<g><path style="opacity:1" fill="#241011" d="M 89.5,51.5 C 90.0906,52.1515 90.7573,52.8182 91.5,53.5C 85.8574,58.0059 85.1907,63.0059 89.5,68.5C 90.2899,69.7942 91.2899,70.9609 92.5,72C 91.8534,73.6095 91.02,75.1095 90,76.5C 88.1,81.9134 89.9334,84.2468 95.5,83.5C 95.281,82.325 95.6143,81.325 96.5,80.5C 98.1217,82.641 100.122,84.3076 102.5,85.5C 102.5,86.1667 102.833,86.5 103.5,86.5C 104.468,89.4453 104.634,92.4453 104,95.5C 103.015,96.8141 101.848,97.8141 100.5,98.5C 99.5987,99.2905 98.9321,100.29 98.5,101.5C 95.7594,101.707 93.4261,102.707 91.5,104.5C 87.5654,105.754 83.5654,106.754 79.5,107.5C 79.5,105.167 79.5,102.833 79.5,100.5C 77.8333,100.5 76.1667,100.5 74.5,100.5C 73.7498,96.2589 75.0831,92.9255 78.5,90.5C 79.2733,88.187 79.9399,85.8537 80.5,83.5C 77.7737,79.9878 76.4404,75.9878 76.5,71.5C 77.5,71.5 78.5,71.5 79.5,71.5C 79.5,68.8333 79.5,66.1667 79.5,63.5C 80.8333,63.5 82.1667,63.5 83.5,63.5C 83.281,64.675 83.6143,65.675 84.5,66.5C 84.8333,66.1667 85.1667,65.8333 85.5,65.5C 84.5153,63.9017 84.3486,62.235 85,60.5C 86.0605,57.0658 87.5605,54.0658 89.5,51.5 Z"/></g>
<g><path style="opacity:1" fill="#7a3e31" d="M 128.5,85.5 C 128.46,88.8806 128.793,92.2139 129.5,95.5C 128.442,94.3998 127.608,93.0664 127,91.5C 124.815,93.5402 122.315,94.8736 119.5,95.5C 117.307,96.6805 114.974,97.6805 112.5,98.5C 111.614,99.325 111.281,100.325 111.5,101.5C 110.5,101.5 109.5,101.5 108.5,101.5C 108.728,103.355 108.061,104.188 106.5,104C 105.139,102.416 104.472,100.582 104.5,98.5C 103.167,98.5 101.833,98.5 100.5,98.5C 101.848,97.8141 103.015,96.8141 104,95.5C 104.634,92.4453 104.468,89.4453 103.5,86.5C 106.145,87.4906 108.478,88.9906 110.5,91C 112,91.1667 113.5,91.3333 115,91.5C 119.91,90.3656 124.41,88.3656 128.5,85.5 Z"/></g>
<g><path style="opacity:1" fill="#614c4a" d="M 170.5,85.5 C 171.468,87.6074 171.802,89.9407 171.5,92.5C 173.179,92.2852 174.179,92.9519 174.5,94.5C 175.585,98.2665 176.919,101.933 178.5,105.5C 176.692,106.918 176.025,108.918 176.5,111.5C 174.369,109.151 174.035,106.484 175.5,103.5C 174.703,101.868 173.703,100.368 172.5,99C 174.124,96.0403 173.457,93.8736 170.5,92.5C 170.5,90.1667 170.5,87.8333 170.5,85.5 Z"/></g>
<g><path style="opacity:1" fill="#251113" d="M 136.5,77.5 C 136.5,78.1667 136.5,78.8333 136.5,79.5C 137.289,83.8106 139.622,85.1439 143.5,83.5C 145.094,86.7343 146.094,90.2343 146.5,94C 144.875,96.271 145.209,98.1043 147.5,99.5C 148.327,95.5408 148.827,91.5408 149,87.5C 149.667,86.8333 150.333,86.1667 151,85.5C 150.466,88.7734 150.633,92.1067 151.5,95.5C 156.244,95.4782 160.744,96.4782 165,98.5C 166,97.1667 167,97.1667 168,98.5C 168.464,97.9056 168.631,97.2389 168.5,96.5C 169.306,97.8675 170.306,99.2008 171.5,100.5C 171.167,100.833 170.833,101.167 170.5,101.5C 168.632,101.054 166.799,100.721 165,100.5C 160.329,102.075 155.496,102.742 150.5,102.5C 150.433,103.959 150.766,105.292 151.5,106.5C 149.419,105.01 147.086,104.01 144.5,103.5C 144.167,103.5 143.833,103.5 143.5,103.5C 141.351,102.264 139.018,101.264 136.5,100.5C 135.52,97.1587 133.187,95.492 129.5,95.5C 128.793,92.2139 128.46,88.8806 128.5,85.5C 130.806,83.8606 132.806,81.8606 134.5,79.5C 135.167,78.8333 135.833,78.1667 136.5,77.5 Z"/></g>
<g><path style="opacity:1" fill="#b0a3a1" d="M 174.5,94.5 C 178.814,95.29 180.147,97.79 178.5,102C 179.244,104.155 180.244,106.155 181.5,108C 181.43,108.765 181.097,109.265 180.5,109.5C 180.167,109.5 179.833,109.5 179.5,109.5C 179.567,108.041 179.234,106.708 178.5,105.5C 176.919,101.933 175.585,98.2665 174.5,94.5 Z"/></g>
<g><path style="opacity:1" fill="#cac6c2" d="M 54.5,87.5 C 54.3354,90.5184 54.502,93.5184 55,96.5C 55.9862,97.1712 57.1529,97.1712 58.5,96.5C 58.7076,98.9201 58.3742,101.253 57.5,103.5C 57.8457,104.696 58.3457,104.696 59,103.5C 59.4101,104.901 59.9101,106.234 60.5,107.5C 58.2478,108.333 56.0811,108.333 54,107.5C 53.1794,100.654 53.346,93.987 54.5,87.5 Z"/></g>
<g><path style="opacity:1" fill="#cf8668" d="M 136.5,100.5 C 139.018,101.264 141.351,102.264 143.5,103.5C 143.649,106.607 143.149,109.607 142,112.5C 139.429,114.976 137.929,117.976 137.5,121.5C 136.5,122.167 135.5,122.833 134.5,123.5C 136.746,118.209 138.079,112.542 138.5,106.5C 138.281,104.307 137.615,102.307 136.5,100.5 Z"/></g>
<g><path style="opacity:1" fill="#b06940" d="M 119.5,95.5 C 117.523,98.6184 115.189,101.452 112.5,104C 113.624,104.249 114.624,104.749 115.5,105.5C 114.461,107.531 112.795,108.864 110.5,109.5C 110.863,110.183 111.196,110.85 111.5,111.5C 110.448,111.351 109.448,111.517 108.5,112C 109.252,112.671 109.586,113.504 109.5,114.5C 107.672,113.206 105.672,112.206 103.5,111.5C 103.5,116.833 103.5,122.167 103.5,127.5C 102.167,126.5 100.833,125.5 99.5,124.5C 99.6107,123.883 99.944,123.383 100.5,123C 97.0889,121.336 95.4222,118.502 95.5,114.5C 95.6858,112.42 96.6858,110.92 98.5,110C 97.477,107.226 97.477,104.393 98.5,101.5C 98.9321,100.29 99.5987,99.2905 100.5,98.5C 101.833,98.5 103.167,98.5 104.5,98.5C 104.472,100.582 105.139,102.416 106.5,104C 108.061,104.188 108.728,103.355 108.5,101.5C 109.5,101.5 110.5,101.5 111.5,101.5C 111.281,100.325 111.614,99.325 112.5,98.5C 114.974,97.6805 117.307,96.6805 119.5,95.5 Z"/></g>
<g><path style="opacity:1" fill="#f1e8e7" d="M 178.5,105.5 C 179.234,106.708 179.567,108.041 179.5,109.5C 178.758,111.35 177.758,112.016 176.5,111.5C 176.025,108.918 176.692,106.918 178.5,105.5 Z"/></g>
<g><path style="opacity:1" fill="#cf845c" d="M 129.5,95.5 C 128.724,101.877 125.724,107.043 120.5,111C 117.518,111.498 114.518,111.665 111.5,111.5C 111.196,110.85 110.863,110.183 110.5,109.5C 112.795,108.864 114.461,107.531 115.5,105.5C 114.624,104.749 113.624,104.249 112.5,104C 115.189,101.452 117.523,98.6184 119.5,95.5C 122.315,94.8736 124.815,93.5402 127,91.5C 127.608,93.0664 128.442,94.3998 129.5,95.5 Z"/></g>
<g><path style="opacity:1" fill="#392222" d="M 170.5,92.5 C 173.457,93.8736 174.124,96.0403 172.5,99C 173.703,100.368 174.703,101.868 175.5,103.5C 174.035,106.484 174.369,109.151 176.5,111.5C 177.758,112.016 178.758,111.35 179.5,109.5C 179.833,109.5 180.167,109.5 180.5,109.5C 178.19,112.531 176.856,116.031 176.5,120C 176.863,122.192 177.863,124.026 179.5,125.5C 177.956,125.297 176.622,124.63 175.5,123.5C 173.515,125.379 172.848,127.379 173.5,129.5C 174.623,131.979 174.623,134.312 173.5,136.5C 173.204,134.597 172.537,132.93 171.5,131.5C 169.331,130.918 166.998,130.918 164.5,131.5C 164.5,130.167 164.5,128.833 164.5,127.5C 164.66,125.801 164.494,124.134 164,122.5C 162.235,119.968 160.735,117.301 159.5,114.5C 159.719,113.325 159.386,112.325 158.5,111.5C 155.846,110.164 153.513,108.497 151.5,106.5C 150.766,105.292 150.433,103.959 150.5,102.5C 155.496,102.742 160.329,102.075 165,100.5C 166.799,100.721 168.632,101.054 170.5,101.5C 170.833,101.167 171.167,100.833 171.5,100.5C 170.306,99.2008 169.306,97.8675 168.5,96.5C 166.261,95.7011 164.261,94.3678 162.5,92.5C 165.276,89.9936 167.942,89.9936 170.5,92.5 Z"/></g>
<g><path style="opacity:1" fill="#65312f" d="M 144.5,103.5 C 147.086,104.01 149.419,105.01 151.5,106.5C 153.513,108.497 155.846,110.164 158.5,111.5C 159.386,112.325 159.719,113.325 159.5,114.5C 158.503,114.47 157.836,114.97 157.5,116C 156.106,119.745 155.106,123.578 154.5,127.5C 153.167,127.5 151.833,127.5 150.5,127.5C 150.329,133.162 149.329,138.662 147.5,144C 147.655,147.292 148.322,150.459 149.5,153.5C 146.908,151.964 145.908,149.631 146.5,146.5C 146.334,142.486 146.501,138.486 147,134.5C 149.137,132.679 149.97,130.346 149.5,127.5C 148.167,127.5 146.833,127.5 145.5,127.5C 145.5,129.167 145.5,130.833 145.5,132.5C 143.876,132.36 142.71,133.027 142,134.5C 141.502,137.482 141.335,140.482 141.5,143.5C 140.167,143.5 138.833,143.5 137.5,143.5C 137.98,138.178 138.313,132.845 138.5,127.5C 137.5,127.5 136.5,127.5 135.5,127.5C 135.927,133.114 135.26,138.447 133.5,143.5C 133.998,138.848 134.331,134.181 134.5,129.5C 134.5,128.833 134.5,128.167 134.5,127.5C 134.5,126.167 134.5,124.833 134.5,123.5C 135.5,122.833 136.5,122.167 137.5,121.5C 142.995,116.675 145.328,110.675 144.5,103.5 Z"/></g>
<g><path style="opacity:1" fill="#9b5542" d="M 143.5,103.5 C 143.833,103.5 144.167,103.5 144.5,103.5C 145.328,110.675 142.995,116.675 137.5,121.5C 137.929,117.976 139.429,114.976 142,112.5C 143.149,109.607 143.649,106.607 143.5,103.5 Z"/></g>
<g><path style="opacity:1" fill="#c67c44" d="M 129.5,95.5 C 133.187,95.492 135.52,97.1587 136.5,100.5C 137.615,102.307 138.281,104.307 138.5,106.5C 138.079,112.542 136.746,118.209 134.5,123.5C 134.5,124.833 134.5,126.167 134.5,127.5C 132.833,127.5 131.167,127.5 129.5,127.5C 128.833,127.5 128.167,127.5 127.5,127.5C 127.137,125.089 128.137,123.589 130.5,123C 130.005,118.925 130.005,114.758 130.5,110.5C 127.784,110.268 125.451,111.435 123.5,114C 118.842,117.017 114.175,117.183 109.5,114.5C 109.586,113.504 109.252,112.671 108.5,112C 109.448,111.517 110.448,111.351 111.5,111.5C 114.518,111.665 117.518,111.498 120.5,111C 125.724,107.043 128.724,101.877 129.5,95.5 Z"/></g>
<g><path style="opacity:1" fill="#7e7777" d="M 57.5,112.5 C 56.7814,114.764 56.448,117.097 56.5,119.5C 55.8529,118.726 55.5195,117.726 55.5,116.5C 55.3402,114.645 56.0069,113.312 57.5,112.5 Z"/></g>
<g><path style="opacity:1" fill="#3a2526" d="M 58.5,96.5 C 59.1667,97.5 59.8333,98.5 60.5,99.5C 61.7914,100.473 61.7914,101.473 60.5,102.5C 61.0354,104.271 61.8687,104.604 63,103.5C 63.8936,109.95 65.7269,115.95 68.5,121.5C 66.8333,121.5 65.1667,121.5 63.5,121.5C 64.0182,125.317 62.6849,128.317 59.5,130.5C 59.9377,131.506 60.6043,131.506 61.5,130.5C 62.2975,130.957 62.6309,131.624 62.5,132.5C 61.3054,132.866 60.6387,133.699 60.5,135C 62.2784,138.593 62.445,142.427 61,146.5C 59.4167,147.971 57.5834,148.971 55.5,149.5C 54.8333,149.5 54.5,149.167 54.5,148.5C 55.7713,146.066 57.7713,144.566 60.5,144C 59.0219,140.561 57.3553,137.228 55.5,134C 58.281,130.359 60.281,126.692 61.5,123C 61.3333,122.5 61.1667,122 61,121.5C 58.7763,122.641 57.2763,121.974 56.5,119.5C 56.448,117.097 56.7814,114.764 57.5,112.5C 60.7734,111.938 61.7734,110.271 60.5,107.5C 59.9101,106.234 59.4101,104.901 59,103.5C 58.3457,104.696 57.8457,104.696 57.5,103.5C 58.3742,101.253 58.7076,98.9201 58.5,96.5 Z"/></g>
<g><path style="opacity:1" fill="#dfccce" d="M 59.5,114.5 C 60.7928,116.364 60.7928,118.364 59.5,120.5C 58.3058,118.484 58.3058,116.484 59.5,114.5 Z"/></g>
<g><path style="opacity:1" fill="#65322b" d="M 98.5,101.5 C 97.477,104.393 97.477,107.226 98.5,110C 96.6858,110.92 95.6858,112.42 95.5,114.5C 95.4222,118.502 97.0889,121.336 100.5,123C 99.944,123.383 99.6107,123.883 99.5,124.5C 98.9033,124.735 98.5699,125.235 98.5,126C 99.8975,130.664 101.231,134.997 102.5,139C 101.852,140.44 101.519,141.94 101.5,143.5C 100.549,142.081 100.216,140.415 100.5,138.5C 99.5,138.5 98.5,138.5 97.5,138.5C 97.6621,136.473 97.4955,134.473 97,132.5C 96.586,132.957 96.086,133.291 95.5,133.5C 93.0411,131.016 90.3745,129.016 87.5,127.5C 87.3367,125.143 87.5034,122.81 88,120.5C 89.2051,119.929 90.3717,119.262 91.5,118.5C 91.2834,113.85 91.2834,109.184 91.5,104.5C 93.4261,102.707 95.7594,101.707 98.5,101.5 Z"/></g>
<g><path style="opacity:1" fill="#d88a63" d="M 127.5,127.5 C 126.167,127.5 124.833,127.5 123.5,127.5C 117.232,128.482 110.899,128.482 104.5,127.5C 104.167,127.5 103.833,127.5 103.5,127.5C 103.5,122.167 103.5,116.833 103.5,111.5C 105.672,112.206 107.672,113.206 109.5,114.5C 114.175,117.183 118.842,117.017 123.5,114C 125.451,111.435 127.784,110.268 130.5,110.5C 130.005,114.758 130.005,118.925 130.5,123C 128.137,123.589 127.137,125.089 127.5,127.5 Z"/></g>
<g><path style="opacity:1" fill="#f3efeb" d="M 179.5,125.5 C 180.29,126.794 181.29,127.961 182.5,129C 179.698,132.094 176.698,132.261 173.5,129.5C 172.848,127.379 173.515,125.379 175.5,123.5C 176.622,124.63 177.956,125.297 179.5,125.5 Z"/></g>
<g><path style="opacity:1" fill="#8e1d2d" d="M 159.5,114.5 C 160.735,117.301 162.235,119.968 164,122.5C 164.494,124.134 164.66,125.801 164.5,127.5C 163.359,130.64 163.192,133.973 164,137.5C 165.667,138.733 167.167,140.067 168.5,141.5C 165.63,142.634 162.63,143.3 159.5,143.5C 157.168,144.162 156.501,145.495 157.5,147.5C 155.314,148.221 153.147,148.887 151,149.5C 150.51,150.793 150.343,152.127 150.5,153.5C 150.167,153.5 149.833,153.5 149.5,153.5C 148.322,150.459 147.655,147.292 147.5,144C 149.329,138.662 150.329,133.162 150.5,127.5C 151.833,127.5 153.167,127.5 154.5,127.5C 155.106,123.578 156.106,119.745 157.5,116C 157.836,114.97 158.503,114.47 159.5,114.5 Z"/></g>
<g><path style="opacity:1" fill="#741323" d="M 79.5,111.5 C 79.5,116.833 79.5,122.167 79.5,127.5C 80.5,127.5 81.5,127.5 82.5,127.5C 83.0843,135.174 83.751,142.841 84.5,150.5C 84.5,151.167 84.5,151.833 84.5,152.5C 83.609,153.11 82.609,153.443 81.5,153.5C 81.5,153.167 81.5,152.833 81.5,152.5C 81.5,151.5 81.5,150.5 81.5,149.5C 82.4614,147.735 82.7947,145.735 82.5,143.5C 81.5,143.5 80.5,143.5 79.5,143.5C 79.6653,139.818 79.4986,136.152 79,132.5C 77.6667,135.167 76.3333,135.167 75,132.5C 74.5065,130.866 74.3398,129.199 74.5,127.5C 73.5,127.5 72.5,127.5 71.5,127.5C 71.3367,125.143 71.5034,122.81 72,120.5C 74.8334,118.164 76.0001,115.164 75.5,111.5C 76.8333,111.5 78.1667,111.5 79.5,111.5 Z"/></g>
<g><path style="opacity:1" fill="#8b162e" d="M 71.5,127.5 C 72.5,127.5 73.5,127.5 74.5,127.5C 74.3398,129.199 74.5065,130.866 75,132.5C 76.3333,135.167 77.6667,135.167 79,132.5C 79.4986,136.152 79.6653,139.818 79.5,143.5C 80.5,143.5 81.5,143.5 82.5,143.5C 82.7947,145.735 82.4614,147.735 81.5,149.5C 79.7274,148.108 77.7274,146.941 75.5,146C 75.9574,145.586 76.2907,145.086 76.5,144.5C 74.604,143.534 72.604,143.201 70.5,143.5C 68.5168,143.843 67.1834,143.176 66.5,141.5C 66.31,137.968 66.9767,134.635 68.5,131.5C 68.5,130.167 68.5,128.833 68.5,127.5C 69.5,127.5 70.5,127.5 71.5,127.5 Z"/></g>
<g><path style="opacity:1" fill="#a0663c" d="M 129.5,127.5 C 131.167,127.5 132.833,127.5 134.5,127.5C 134.5,128.167 134.5,128.833 134.5,129.5C 132.881,136.732 131.048,144.066 129,151.5C 127.551,155.301 125.717,155.467 123.5,152C 124.714,149.326 126.047,146.826 127.5,144.5C 127.5,142.833 127.5,141.167 127.5,139.5C 128.497,139.53 129.164,139.03 129.5,138C 128.727,134.546 128.727,131.046 129.5,127.5 Z"/></g>
<g><path style="opacity:1" fill="#cdabad" d="M 171.5,131.5 C 172.537,132.93 173.204,134.597 173.5,136.5C 172.833,137.5 172.167,138.5 171.5,139.5C 171.195,137.081 171.195,134.414 171.5,131.5 Z"/></g>
<g><path style="opacity:1" fill="#581c1b" d="M 164.5,127.5 C 164.5,128.833 164.5,130.167 164.5,131.5C 166.998,130.918 169.331,130.918 171.5,131.5C 171.195,134.414 171.195,137.081 171.5,139.5C 171.5,140.167 171.5,140.833 171.5,141.5C 170.5,141.5 169.5,141.5 168.5,141.5C 167.167,140.067 165.667,138.733 164,137.5C 163.192,133.973 163.359,130.64 164.5,127.5 Z"/></g>
<g><path style="opacity:1" fill="#574d4b" d="M 179.5,125.5 C 181.017,125.511 182.184,126.177 183,127.5C 183.343,131.987 181.176,133.987 176.5,133.5C 176.896,136.044 176.229,138.211 174.5,140C 177.093,140.606 178.76,142.106 179.5,144.5C 178.827,148.565 176.494,150.565 172.5,150.5C 172.5,150.167 172.5,149.833 172.5,149.5C 176.919,148.677 177.586,146.51 174.5,143C 173.552,142.517 172.552,142.351 171.5,142.5C 171.5,142.167 171.5,141.833 171.5,141.5C 171.5,140.833 171.5,140.167 171.5,139.5C 172.167,138.5 172.833,137.5 173.5,136.5C 174.623,134.312 174.623,131.979 173.5,129.5C 176.698,132.261 179.698,132.094 182.5,129C 181.29,127.961 180.29,126.794 179.5,125.5 Z"/></g>
<g><path style="opacity:1" fill="#511f25" d="M 91.5,104.5 C 91.2834,109.184 91.2834,113.85 91.5,118.5C 90.3717,119.262 89.2051,119.929 88,120.5C 87.5034,122.81 87.3367,125.143 87.5,127.5C 90.3745,129.016 93.0411,131.016 95.5,133.5C 96.086,133.291 96.586,132.957 97,132.5C 97.4955,134.473 97.6621,136.473 97.5,138.5C 98.5,138.5 99.5,138.5 100.5,138.5C 100.216,140.415 100.549,142.081 101.5,143.5C 102.338,143.842 102.672,144.508 102.5,145.5C 102.353,150.214 102.686,154.881 103.5,159.5C 100.833,159.5 98.1667,159.5 95.5,159.5C 92.3088,162.025 89.3088,162.025 86.5,159.5C 87.5039,156.168 86.8373,153.168 84.5,150.5C 83.751,142.841 83.0843,135.174 82.5,127.5C 81.5,127.5 80.5,127.5 79.5,127.5C 79.5,122.167 79.5,116.833 79.5,111.5C 79.5,110.167 79.5,108.833 79.5,107.5C 83.5654,106.754 87.5654,105.754 91.5,104.5 Z"/></g>
<g><path style="opacity:1" fill="#f9f2eb" d="M 171.5,142.5 C 172.552,142.351 173.552,142.517 174.5,143C 177.586,146.51 176.919,148.677 172.5,149.5C 172.672,147.331 172.338,144.997 171.5,142.5 Z"/></g>
<g><path style="opacity:1" fill="#93251f" d="M 70.5,143.5 C 72.604,143.201 74.604,143.534 76.5,144.5C 76.2907,145.086 75.9574,145.586 75.5,146C 77.7274,146.941 79.7274,148.108 81.5,149.5C 81.5,150.5 81.5,151.5 81.5,152.5C 77.0405,151.634 72.7072,150.301 68.5,148.5C 69.1455,146.568 70.4788,145.401 72.5,145C 71.5842,144.722 70.9175,144.222 70.5,143.5 Z"/></g>
<g><path style="opacity:1" fill="#995e3a" d="M 99.5,124.5 C 100.833,125.5 102.167,126.5 103.5,127.5C 103.586,128.496 103.252,129.329 102.5,130C 104.491,133.297 105.991,136.797 107,140.5C 107.333,142.833 107.667,145.167 108,147.5C 109.717,148.988 110.884,150.821 111.5,153C 113.443,152.695 115.443,152.695 117.5,153C 118.337,154.011 118.67,155.178 118.5,156.5C 118.5,156.833 118.5,157.167 118.5,157.5C 115.511,159.169 113.178,158.503 111.5,155.5C 109.885,154.846 108.218,154.346 106.5,154C 105.225,151.046 103.892,148.212 102.5,145.5C 102.672,144.508 102.338,143.842 101.5,143.5C 101.519,141.94 101.852,140.44 102.5,139C 101.231,134.997 99.8975,130.664 98.5,126C 98.5699,125.235 98.9033,124.735 99.5,124.5 Z"/></g>
<g><path style="opacity:1" fill="#673122" d="M 103.5,127.5 C 103.833,127.5 104.167,127.5 104.5,127.5C 104.539,128.583 104.873,129.583 105.5,130.5C 111.223,131.853 116.89,131.686 122.5,130C 123.252,129.329 123.586,128.496 123.5,127.5C 124.833,127.5 126.167,127.5 127.5,127.5C 128.167,127.5 128.833,127.5 129.5,127.5C 128.727,131.046 128.727,134.546 129.5,138C 129.164,139.03 128.497,139.53 127.5,139.5C 127.5,136.167 127.5,132.833 127.5,129.5C 125.319,129.284 123.653,130.117 122.5,132C 118.833,132.333 115.167,132.667 111.5,133C 111,133.5 110.5,134 110,134.5C 109.663,137.861 109.163,141.194 108.5,144.5C 109.821,146.332 110.821,148.332 111.5,150.5C 115.226,150.823 118.893,150.489 122.5,149.5C 123.085,146.497 123.752,143.497 124.5,140.5C 125.086,140.291 125.586,139.957 126,139.5C 126.198,141.382 126.698,143.048 127.5,144.5C 126.047,146.826 124.714,149.326 123.5,152C 125.717,155.467 127.551,155.301 129,151.5C 131.048,144.066 132.881,136.732 134.5,129.5C 134.331,134.181 133.998,138.848 133.5,143.5C 132.752,148.23 130.752,152.397 127.5,156C 124.518,156.498 121.518,156.665 118.5,156.5C 118.67,155.178 118.337,154.011 117.5,153C 115.443,152.695 113.443,152.695 111.5,153C 110.884,150.821 109.717,148.988 108,147.5C 107.667,145.167 107.333,142.833 107,140.5C 105.991,136.797 104.491,133.297 102.5,130C 103.252,129.329 103.586,128.496 103.5,127.5 Z"/></g>
<g><path style="opacity:1" fill="#5c3131" d="M 127.5,139.5 C 127.5,141.167 127.5,142.833 127.5,144.5C 126.698,143.048 126.198,141.382 126,139.5C 125.586,139.957 125.086,140.291 124.5,140.5C 123.752,143.497 123.085,146.497 122.5,149.5C 118.893,150.489 115.226,150.823 111.5,150.5C 110.821,148.332 109.821,146.332 108.5,144.5C 109.163,141.194 109.663,137.861 110,134.5C 110.5,134 111,133.5 111.5,133C 115.167,132.667 118.833,132.333 122.5,132C 123.653,130.117 125.319,129.284 127.5,129.5C 127.5,132.833 127.5,136.167 127.5,139.5 Z"/></g>
<g><path style="opacity:1" fill="#852f37" d="M 104.5,127.5 C 110.899,128.482 117.232,128.482 123.5,127.5C 123.586,128.496 123.252,129.329 122.5,130C 116.89,131.686 111.223,131.853 105.5,130.5C 104.873,129.583 104.539,128.583 104.5,127.5 Z"/></g>
<g><path style="opacity:1" fill="#9f3129" d="M 159.5,143.5 C 159.5,145.167 159.5,146.833 159.5,148.5C 160.873,148.343 162.207,148.51 163.5,149C 160.671,150.247 158.005,151.747 155.5,153.5C 153.701,154.788 152.035,154.788 150.5,153.5C 150.343,152.127 150.51,150.793 151,149.5C 153.147,148.887 155.314,148.221 157.5,147.5C 156.501,145.495 157.168,144.162 159.5,143.5 Z"/></g>
<g><path style="opacity:1" fill="#9b9794" d="M 54.5,148.5 C 54.5,149.167 54.8333,149.5 55.5,149.5C 56.1346,152.493 56.3013,155.493 56,158.5C 55.1627,160.007 53.9961,160.507 52.5,160C 53.8993,158.938 54.8993,157.605 55.5,156C 53.5073,153.579 53.174,151.079 54.5,148.5 Z"/></g>
<g><path style="opacity:1" fill="#f8e3da" d="M 84.5,150.5 C 86.8373,153.168 87.5039,156.168 86.5,159.5C 84.8942,160.78 83.8942,160.28 83.5,158C 84.2335,156.234 84.5668,154.401 84.5,152.5C 84.5,151.833 84.5,151.167 84.5,150.5 Z"/></g>
<g><path style="opacity:1" fill="#5a201a" d="M 102.5,145.5 C 103.892,148.212 105.225,151.046 106.5,154C 108.218,154.346 109.885,154.846 111.5,155.5C 113.178,158.503 115.511,159.169 118.5,157.5C 118.5,158.167 118.5,158.833 118.5,159.5C 119.625,160.652 119.625,161.652 118.5,162.5C 112.793,161.573 107.126,161.573 101.5,162.5C 100.395,161.4 99.0618,160.733 97.5,160.5C 96.5084,160.672 95.8417,160.338 95.5,159.5C 98.1667,159.5 100.833,159.5 103.5,159.5C 102.686,154.881 102.353,150.214 102.5,145.5 Z"/></g>
<g><path style="opacity:1" fill="#3c191f" d="M 146.5,146.5 C 145.908,149.631 146.908,151.964 149.5,153.5C 151.104,155.906 152.771,158.406 154.5,161C 155.233,162.766 155.567,164.599 155.5,166.5C 153.5,166.833 151.5,167.167 149.5,167.5C 146.09,167.543 142.757,167.043 139.5,166C 141.86,160.398 143.527,154.565 144.5,148.5C 145.182,147.757 145.849,147.091 146.5,146.5 Z"/></g>
<g><path style="opacity:1" fill="#9a4d38" d="M 66.5,141.5 C 67.1834,143.176 68.5168,143.843 70.5,143.5C 70.9175,144.222 71.5842,144.722 72.5,145C 70.4788,145.401 69.1455,146.568 68.5,148.5C 72.7072,150.301 77.0405,151.634 81.5,152.5C 81.5,152.833 81.5,153.167 81.5,153.5C 80.8617,155.46 80.8617,157.293 81.5,159C 79.5273,159.495 77.5273,159.662 75.5,159.5C 75.2865,161.144 75.6198,162.644 76.5,164C 79.8598,166.064 83.5265,167.231 87.5,167.5C 87.627,171.262 88.2937,174.928 89.5,178.5C 91.4086,179.348 93.4086,179.682 95.5,179.5C 95.5,180.5 95.5,181.5 95.5,182.5C 93.2574,181.688 90.9241,181.021 88.5,180.5C 86.9549,180.511 85.6216,180.844 84.5,181.5C 82.8333,181.5 81.1667,181.5 79.5,181.5C 75.9736,179.928 72.307,178.428 68.5,177C 66.6667,175.833 65.1667,174.333 64,172.5C 63.7727,166.296 63.2727,160.129 62.5,154C 64.0593,149.802 65.3926,145.635 66.5,141.5 Z"/></g>
<g><path style="opacity:1" fill="#a0543e" d="M 168.5,141.5 C 169.5,141.5 170.5,141.5 171.5,141.5C 171.5,141.833 171.5,142.167 171.5,142.5C 172.338,144.997 172.672,147.331 172.5,149.5C 172.5,149.833 172.5,150.167 172.5,150.5C 171.292,151.234 169.959,151.567 168.5,151.5C 168.889,154.3 169.389,156.967 170,159.5C 168.556,157.845 166.722,157.178 164.5,157.5C 164.799,159.604 164.466,161.604 163.5,163.5C 160.805,164.508 158.138,165.508 155.5,166.5C 155.567,164.599 155.233,162.766 154.5,161C 152.771,158.406 151.104,155.906 149.5,153.5C 149.833,153.5 150.167,153.5 150.5,153.5C 152.035,154.788 153.701,154.788 155.5,153.5C 158.005,151.747 160.671,150.247 163.5,149C 162.207,148.51 160.873,148.343 159.5,148.5C 159.5,146.833 159.5,145.167 159.5,143.5C 162.63,143.3 165.63,142.634 168.5,141.5 Z"/></g>
<g><path style="opacity:1" fill="#572a2d" d="M 146.5,146.5 C 145.849,147.091 145.182,147.757 144.5,148.5C 143.527,154.565 141.86,160.398 139.5,166C 142.757,167.043 146.09,167.543 149.5,167.5C 148.626,168.525 147.459,169.192 146,169.5C 143.67,167.957 141.17,167.457 138.5,168C 139.381,168.708 140.047,169.542 140.5,170.5C 138.61,170.703 137.11,170.037 136,168.5C 135,169.167 134,169.833 133,170.5C 131.22,169.361 129.386,168.361 127.5,167.5C 127.762,166.022 127.429,164.689 126.5,163.5C 123.54,162.487 120.873,161.154 118.5,159.5C 118.5,158.833 118.5,158.167 118.5,157.5C 118.5,157.167 118.5,156.833 118.5,156.5C 121.518,156.665 124.518,156.498 127.5,156C 130.752,152.397 132.752,148.23 133.5,143.5C 135.26,138.447 135.927,133.114 135.5,127.5C 136.5,127.5 137.5,127.5 138.5,127.5C 138.313,132.845 137.98,138.178 137.5,143.5C 138.833,143.5 140.167,143.5 141.5,143.5C 141.335,140.482 141.502,137.482 142,134.5C 142.71,133.027 143.876,132.36 145.5,132.5C 145.5,130.833 145.5,129.167 145.5,127.5C 146.833,127.5 148.167,127.5 149.5,127.5C 149.97,130.346 149.137,132.679 147,134.5C 146.501,138.486 146.334,142.486 146.5,146.5 Z"/></g>
<g><path style="opacity:1" fill="#a5634c" d="M 84.5,152.5 C 84.5668,154.401 84.2335,156.234 83.5,158C 83.8942,160.28 84.8942,160.78 86.5,159.5C 89.3088,162.025 92.3088,162.025 95.5,159.5C 95.8417,160.338 96.5084,160.672 97.5,160.5C 97.6107,161.117 97.944,161.617 98.5,162C 95.8475,162.353 93.8475,163.52 92.5,165.5C 90.7162,165.893 89.0495,166.559 87.5,167.5C 83.5265,167.231 79.8598,166.064 76.5,164C 75.6198,162.644 75.2865,161.144 75.5,159.5C 77.5273,159.662 79.5273,159.495 81.5,159C 80.8617,157.293 80.8617,155.46 81.5,153.5C 82.609,153.443 83.609,153.11 84.5,152.5 Z"/></g>
<g><path style="opacity:1" fill="#bd6d3f" d="M 97.5,160.5 C 99.0618,160.733 100.395,161.4 101.5,162.5C 101.107,164.284 100.441,165.95 99.5,167.5C 99.5,169.167 99.5,170.833 99.5,172.5C 97.7708,171.883 96.2708,170.883 95,169.5C 94.6667,170.167 94.3333,170.833 94,171.5C 93.1307,166.492 92.4641,166.825 92,172.5C 91.5045,170.527 91.3379,168.527 91.5,166.5C 92.675,166.719 93.675,166.386 94.5,165.5C 94.0302,164.537 93.3635,164.537 92.5,165.5C 93.8475,163.52 95.8475,162.353 98.5,162C 97.944,161.617 97.6107,161.117 97.5,160.5 Z"/></g>
<g><path style="opacity:1" fill="#b3715c" d="M 172.5,150.5 C 173.245,155.891 174.245,161.224 175.5,166.5C 169.275,171.02 162.275,173.353 154.5,173.5C 155.552,171.744 157.219,171.077 159.5,171.5C 159.798,168.664 159.131,168.164 157.5,170C 151.843,170.499 146.176,170.666 140.5,170.5C 140.047,169.542 139.381,168.708 138.5,168C 141.17,167.457 143.67,167.957 146,169.5C 147.459,169.192 148.626,168.525 149.5,167.5C 151.5,167.167 153.5,166.833 155.5,166.5C 158.138,165.508 160.805,164.508 163.5,163.5C 164.466,161.604 164.799,159.604 164.5,157.5C 166.722,157.178 168.556,157.845 170,159.5C 169.389,156.967 168.889,154.3 168.5,151.5C 169.959,151.567 171.292,151.234 172.5,150.5 Z"/></g>
<g><path style="opacity:1" fill="#a35940" d="M 118.5,162.5 C 118.523,165.121 117.189,166.455 114.5,166.5C 113.353,166.182 112.519,165.516 112,164.5C 111.505,166.473 111.338,168.473 111.5,170.5C 109.897,170.312 108.563,170.812 107.5,172C 118.642,172.03 119.142,173.863 109,177.5C 106.551,177.139 104.218,176.472 102,175.5C 101.057,172.749 100.224,170.083 99.5,167.5C 100.441,165.95 101.107,164.284 101.5,162.5C 107.126,161.573 112.793,161.573 118.5,162.5 Z"/></g>
<g><path style="opacity:1" fill="#b06c47" d="M 127.5,167.5 C 129.386,168.361 131.22,169.361 133,170.5C 134,169.833 135,169.167 136,168.5C 137.11,170.037 138.61,170.703 140.5,170.5C 146.176,170.666 151.843,170.499 157.5,170C 159.131,168.164 159.798,168.664 159.5,171.5C 157.219,171.077 155.552,171.744 154.5,173.5C 153.448,173.351 152.448,173.517 151.5,174C 149.681,174.74 148.348,175.907 147.5,177.5C 146.71,176.391 146.21,175.058 146,173.5C 145,176.167 144,178.833 143,181.5C 142.667,179.167 142.333,176.833 142,174.5C 141.667,175.833 141.333,177.167 141,178.5C 140.71,176.048 140.044,173.715 139,171.5C 139.412,173.995 139.245,176.329 138.5,178.5C 138.64,176.876 137.973,175.71 136.5,175C 137.654,174.086 137.487,173.253 136,172.5C 135.517,173.448 135.351,174.448 135.5,175.5C 131.5,175.5 127.5,175.5 123.5,175.5C 124.568,173.26 126.234,171.426 128.5,170C 127.748,169.329 127.414,168.496 127.5,167.5 Z"/></g>
<g><path style="opacity:1" fill="#a74e2e" d="M 99.5,172.5 C 98.4927,174.57 98.826,176.57 100.5,178.5C 99.9346,180.509 98.9346,182.176 97.5,183.5C 96.5084,183.672 95.8417,183.338 95.5,182.5C 95.5,181.5 95.5,180.5 95.5,179.5C 93.4086,179.682 91.4086,179.348 89.5,178.5C 88.2937,174.928 87.627,171.262 87.5,167.5C 89.0495,166.559 90.7162,165.893 92.5,165.5C 93.3635,164.537 94.0302,164.537 94.5,165.5C 93.675,166.386 92.675,166.719 91.5,166.5C 91.3379,168.527 91.5045,170.527 92,172.5C 92.4641,166.825 93.1307,166.492 94,171.5C 94.3333,170.833 94.6667,170.167 95,169.5C 96.2708,170.883 97.7708,171.883 99.5,172.5 Z"/></g>
<g><path style="opacity:1" fill="#8f432d" d="M 118.5,159.5 C 120.873,161.154 123.54,162.487 126.5,163.5C 127.429,164.689 127.762,166.022 127.5,167.5C 127.414,168.496 127.748,169.329 128.5,170C 126.234,171.426 124.568,173.26 123.5,175.5C 123.389,176.117 123.056,176.617 122.5,177C 124.221,177.739 125.887,178.573 127.5,179.5C 123.233,181.469 118.899,183.302 114.5,185C 117.724,187.477 121.39,188.143 125.5,187C 129.497,183.767 131.497,184.934 131.5,190.5C 129.844,189.854 128.177,189.187 126.5,188.5C 117.386,192.026 110.219,190.36 105,183.5C 102.299,183.1 99.7986,183.1 97.5,183.5C 98.9346,182.176 99.9346,180.509 100.5,178.5C 98.826,176.57 98.4927,174.57 99.5,172.5C 99.5,170.833 99.5,169.167 99.5,167.5C 100.224,170.083 101.057,172.749 102,175.5C 104.218,176.472 106.551,177.139 109,177.5C 119.142,173.863 118.642,172.03 107.5,172C 108.563,170.812 109.897,170.312 111.5,170.5C 111.338,168.473 111.505,166.473 112,164.5C 112.519,165.516 113.353,166.182 114.5,166.5C 117.189,166.455 118.523,165.121 118.5,162.5C 119.625,161.652 119.625,160.652 118.5,159.5 Z"/></g>
<g><path style="opacity:1" fill="#9f543f" d="M 175.5,166.5 C 175.666,170.514 175.499,174.514 175,178.5C 171.138,181.498 166.971,183.831 162.5,185.5C 161.348,184.375 160.348,184.375 159.5,185.5C 153.851,185.218 148.518,186.218 143.5,188.5C 143.662,186.176 144.828,184.509 147,183.5C 147.495,181.527 147.662,179.527 147.5,177.5C 148.348,175.907 149.681,174.74 151.5,174C 152.448,173.517 153.448,173.351 154.5,173.5C 162.275,173.353 169.275,171.02 175.5,166.5 Z"/></g>
<g><path style="opacity:1" fill="#9c4f23" d="M 147.5,177.5 C 147.662,179.527 147.495,181.527 147,183.5C 144.828,184.509 143.662,186.176 143.5,188.5C 144.64,191.025 145.307,193.692 145.5,196.5C 143.971,195.653 142.304,194.986 140.5,194.5C 136.007,195.665 131.673,195.665 127.5,194.5C 130.247,194.813 132.914,194.48 135.5,193.5C 134.757,192.818 134.091,192.151 133.5,191.5C 134.833,191.5 136.167,191.5 137.5,191.5C 137.924,188.646 138.924,185.979 140.5,183.5C 139.544,181.925 138.877,180.258 138.5,178.5C 139.245,176.329 139.412,173.995 139,171.5C 140.044,173.715 140.71,176.048 141,178.5C 141.333,177.167 141.667,175.833 142,174.5C 142.333,176.833 142.667,179.167 143,181.5C 144,178.833 145,176.167 146,173.5C 146.21,175.058 146.71,176.391 147.5,177.5 Z"/></g>
<g><path style="opacity:1" fill="#9f452a" d="M 138.5,178.5 C 138.877,180.258 139.544,181.925 140.5,183.5C 138.924,185.979 137.924,188.646 137.5,191.5C 136.167,191.5 134.833,191.5 133.5,191.5C 132.833,191.167 132.167,190.833 131.5,190.5C 131.497,184.934 129.497,183.767 125.5,187C 121.39,188.143 117.724,187.477 114.5,185C 118.899,183.302 123.233,181.469 127.5,179.5C 125.887,178.573 124.221,177.739 122.5,177C 123.056,176.617 123.389,176.117 123.5,175.5C 127.5,175.5 131.5,175.5 135.5,175.5C 135.351,174.448 135.517,173.448 136,172.5C 137.487,173.253 137.654,174.086 136.5,175C 137.973,175.71 138.64,176.876 138.5,178.5 Z"/></g>
<g><path style="opacity:1" fill="#531d13" d="M 84.5,181.5 C 85.6216,180.844 86.9549,180.511 88.5,180.5C 90.9241,181.021 93.2574,181.688 95.5,182.5C 95.8417,183.338 96.5084,183.672 97.5,183.5C 99.7986,183.1 102.299,183.1 105,183.5C 110.219,190.36 117.386,192.026 126.5,188.5C 128.177,189.187 129.844,189.854 131.5,190.5C 132.167,190.833 132.833,191.167 133.5,191.5C 134.091,192.151 134.757,192.818 135.5,193.5C 132.914,194.48 130.247,194.813 127.5,194.5C 122.37,193.087 117.037,192.087 111.5,191.5C 110.833,191.5 110.167,191.5 109.5,191.5C 109.389,190.883 109.056,190.383 108.5,190C 100.374,187.458 92.374,184.625 84.5,181.5 Z"/></g>
<g><path style="opacity:1" fill="#422029" d="M 162.5,185.5 C 162.916,188.583 163.583,191.583 164.5,194.5C 162.635,199.017 163.302,203.017 166.5,206.5C 165.756,209.443 165.256,212.443 165,215.5C 163.758,216.872 162.258,217.872 160.5,218.5C 159.833,220.167 159.167,221.833 158.5,223.5C 157.34,219.541 157.173,215.541 158,211.5C 160.408,211.09 161.908,209.256 162.5,206C 160.234,204.477 159.067,202.311 159,199.5C 158.178,202.117 157.678,204.784 157.5,207.5C 156.5,207.5 155.5,207.5 154.5,207.5C 154.167,202.167 153.833,202.167 153.5,207.5C 152.167,207.5 150.833,207.5 149.5,207.5C 148.184,204.913 147.517,201.913 147.5,198.5C 147.667,195.5 147.833,192.5 148,189.5C 151.28,188.754 154.614,188.087 158,187.5C 159.03,187.164 159.53,186.497 159.5,185.5C 160.348,184.375 161.348,184.375 162.5,185.5 Z"/></g>
<g><path style="opacity:1" fill="#9e621a" d="M 79.5,181.5 C 81.1667,181.5 82.8333,181.5 84.5,181.5C 92.374,184.625 100.374,187.458 108.5,190C 109.056,190.383 109.389,190.883 109.5,191.5C 106.763,191.599 104.096,191.265 101.5,190.5C 99.302,189.157 96.9687,187.824 94.5,186.5C 92.1498,187.577 90.4831,189.244 89.5,191.5C 87.396,191.201 85.396,191.534 83.5,192.5C 80.5227,197.486 77.5227,202.486 74.5,207.5C 74.1667,207.167 73.8333,206.833 73.5,206.5C 74.4106,202.844 75.7439,199.344 77.5,196C 77.1667,195.5 76.8333,195 76.5,194.5C 74.1394,196.194 72.1394,198.194 70.5,200.5C 70.1667,199.833 69.8333,199.167 69.5,198.5C 70.9371,196.423 71.6038,194.09 71.5,191.5C 73.8171,187.854 76.4838,184.52 79.5,181.5 Z"/></g>
<g><path style="opacity:1" fill="#461c14" d="M 159.5,185.5 C 159.53,186.497 159.03,187.164 158,187.5C 154.614,188.087 151.28,188.754 148,189.5C 147.833,192.5 147.667,195.5 147.5,198.5C 147.517,201.913 148.184,204.913 149.5,207.5C 149.214,213.259 149.548,218.925 150.5,224.5C 149.833,224.5 149.167,224.5 148.5,224.5C 147.58,216.017 146.58,207.684 145.5,199.5C 145.5,198.5 145.5,197.5 145.5,196.5C 145.307,193.692 144.64,191.025 143.5,188.5C 148.518,186.218 153.851,185.218 159.5,185.5 Z"/></g>
<g><path style="opacity:1" fill="#ca9830" d="M 101.5,190.5 C 104.096,191.265 106.763,191.599 109.5,191.5C 110.167,191.5 110.833,191.5 111.5,191.5C 111.75,192.922 112.583,193.922 114,194.5C 114.5,204.494 114.666,214.494 114.5,224.5C 110.167,224.5 105.833,224.5 101.5,224.5C 103.698,223.835 106.031,223.168 108.5,222.5C 107.975,221.808 107.308,221.308 106.5,221C 108.019,219.649 109.352,218.149 110.5,216.5C 108.898,213.763 108.064,210.763 108,207.5C 107.51,208.793 107.343,210.127 107.5,211.5C 104.833,211.5 102.167,211.5 99.5,211.5C 98.3264,215.819 98.3264,220.153 99.5,224.5C 98.1667,224.5 96.8333,224.5 95.5,224.5C 95.5313,221.041 96.198,217.708 97.5,214.5C 96.8333,213.833 96.1667,213.167 95.5,212.5C 96.4147,211.672 97.0814,210.672 97.5,209.5C 98.1051,202.953 99.4385,196.62 101.5,190.5 Z"/></g>
<g><path style="opacity:1" fill="#ad7d37" d="M 165.5,196.5 C 169.805,201.755 173.639,207.422 177,213.5C 179.066,216.961 180.566,220.627 181.5,224.5C 178.167,224.5 174.833,224.5 171.5,224.5C 169.191,215.26 167.191,205.926 165.5,196.5 Z"/></g>
<g><path style="opacity:1" fill="#b4822c" d="M 101.5,224.5 C 100.833,224.5 100.167,224.5 99.5,224.5C 98.3264,220.153 98.3264,215.819 99.5,211.5C 102.167,211.5 104.833,211.5 107.5,211.5C 107.343,210.127 107.51,208.793 108,207.5C 108.064,210.763 108.898,213.763 110.5,216.5C 109.352,218.149 108.019,219.649 106.5,221C 107.308,221.308 107.975,221.808 108.5,222.5C 106.031,223.168 103.698,223.835 101.5,224.5 Z"/></g>
<g><path style="opacity:1" fill="#cc9c31" d="M 87.5,224.5 C 84.8333,224.5 82.1667,224.5 79.5,224.5C 79.5,223.167 79.5,221.833 79.5,220.5C 88.3752,218.069 89.7085,213.403 83.5,206.5C 84.3481,203.112 86.3481,200.779 89.5,199.5C 90.7914,203.045 90.7914,206.545 89.5,210C 91.9853,211.223 92.152,212.723 90,214.5C 89.6667,213.5 89.3333,212.5 89,211.5C 90.133,216.007 89.633,220.341 87.5,224.5 Z"/></g>
<g><path style="opacity:1" fill="#bd8625" d="M 101.5,190.5 C 99.4385,196.62 98.1051,202.953 97.5,209.5C 97.0814,210.672 96.4147,211.672 95.5,212.5C 96.1667,213.167 96.8333,213.833 97.5,214.5C 96.198,217.708 95.5313,221.041 95.5,224.5C 92.8333,224.5 90.1667,224.5 87.5,224.5C 89.633,220.341 90.133,216.007 89,211.5C 89.3333,212.5 89.6667,213.5 90,214.5C 92.152,212.723 91.9853,211.223 89.5,210C 90.7914,206.545 90.7914,203.045 89.5,199.5C 86.3481,200.779 84.3481,203.112 83.5,206.5C 89.7085,213.403 88.3752,218.069 79.5,220.5C 81.4848,217.879 82.4848,214.879 82.5,211.5C 81.5,211.5 80.5,211.5 79.5,211.5C 79.5,210.167 79.5,208.833 79.5,207.5C 80.5,207.5 81.5,207.5 82.5,207.5C 83.6934,201.558 86.0267,196.225 89.5,191.5C 90.4831,189.244 92.1498,187.577 94.5,186.5C 96.9687,187.824 99.302,189.157 101.5,190.5 Z"/></g>
<g><path style="opacity:1" fill="#af7626" d="M 71.5,191.5 C 71.6038,194.09 70.9371,196.423 69.5,198.5C 69.8333,199.167 70.1667,199.833 70.5,200.5C 72.1394,198.194 74.1394,196.194 76.5,194.5C 76.8333,195 77.1667,195.5 77.5,196C 75.7439,199.344 74.4106,202.844 73.5,206.5C 73.8333,206.833 74.1667,207.167 74.5,207.5C 77.5227,202.486 80.5227,197.486 83.5,192.5C 85.396,191.534 87.396,191.201 89.5,191.5C 86.0267,196.225 83.6934,201.558 82.5,207.5C 81.5,207.5 80.5,207.5 79.5,207.5C 79.5,208.833 79.5,210.167 79.5,211.5C 80.5,211.5 81.5,211.5 82.5,211.5C 82.4848,214.879 81.4848,217.879 79.5,220.5C 79.5,221.833 79.5,223.167 79.5,224.5C 70.1667,224.5 60.8333,224.5 51.5,224.5C 56.4114,212.327 63.0781,201.327 71.5,191.5 Z"/></g>
<g><path style="opacity:1" fill="#91612f" d="M 145.5,199.5 C 146.58,207.684 147.58,216.017 148.5,224.5C 147.833,224.5 147.167,224.5 146.5,224.5C 145.531,216.252 145.198,207.918 145.5,199.5 Z"/></g>
<g><path style="opacity:1" fill="#bb8729" d="M 111.5,191.5 C 117.037,192.087 122.37,193.087 127.5,194.5C 131.673,195.665 136.007,195.665 140.5,194.5C 142.304,194.986 143.971,195.653 145.5,196.5C 145.5,197.5 145.5,198.5 145.5,199.5C 145.198,207.918 145.531,216.252 146.5,224.5C 145.167,224.5 143.833,224.5 142.5,224.5C 140.159,217.292 138.659,209.958 138,202.5C 139.865,208.431 141.532,214.431 143,220.5C 143.667,212.833 143.667,205.167 143,197.5C 141.301,196.594 139.467,196.261 137.5,196.5C 137.336,202.167 137.003,202.5 136.5,197.5C 129.664,197.583 122.997,196.583 116.5,194.5C 115.167,201.5 115.167,208.5 116.5,215.5C 118.322,216.429 119.655,215.762 120.5,213.5C 121.257,210.868 121.59,208.368 121.5,206C 123.579,205.192 125.579,205.359 127.5,206.5C 126.5,208.5 125.5,210.5 124.5,212.5C 125.325,213.386 126.325,213.719 127.5,213.5C 127.5,217.167 127.5,220.833 127.5,224.5C 123.167,224.5 118.833,224.5 114.5,224.5C 114.666,214.494 114.5,204.494 114,194.5C 112.583,193.922 111.75,192.922 111.5,191.5 Z"/></g>
<g><path style="opacity:1" fill="#c99b2f" d="M 142.5,224.5 C 137.5,224.5 132.5,224.5 127.5,224.5C 127.5,220.833 127.5,217.167 127.5,213.5C 126.325,213.719 125.325,213.386 124.5,212.5C 125.5,210.5 126.5,208.5 127.5,206.5C 125.579,205.359 123.579,205.192 121.5,206C 121.59,208.368 121.257,210.868 120.5,213.5C 119.655,215.762 118.322,216.429 116.5,215.5C 115.167,208.5 115.167,201.5 116.5,194.5C 122.997,196.583 129.664,197.583 136.5,197.5C 137.003,202.5 137.336,202.167 137.5,196.5C 139.467,196.261 141.301,196.594 143,197.5C 143.667,205.167 143.667,212.833 143,220.5C 141.532,214.431 139.865,208.431 138,202.5C 138.659,209.958 140.159,217.292 142.5,224.5 Z"/></g>
<g><path style="opacity:1" fill="#4f292c" d="M 164.5,194.5 C 165.338,194.842 165.672,195.508 165.5,196.5C 167.191,205.926 169.191,215.26 171.5,224.5C 164.5,224.5 157.5,224.5 150.5,224.5C 149.548,218.925 149.214,213.259 149.5,207.5C 150.833,207.5 152.167,207.5 153.5,207.5C 153.833,202.167 154.167,202.167 154.5,207.5C 155.5,207.5 156.5,207.5 157.5,207.5C 157.678,204.784 158.178,202.117 159,199.5C 159.067,202.311 160.234,204.477 162.5,206C 161.908,209.256 160.408,211.09 158,211.5C 157.173,215.541 157.34,219.541 158.5,223.5C 159.167,221.833 159.833,220.167 160.5,218.5C 162.258,217.872 163.758,216.872 165,215.5C 165.256,212.443 165.756,209.443 166.5,206.5C 163.302,203.017 162.635,199.017 164.5,194.5 Z"/></g>
</svg>
