<?xml version="1.0" encoding="UTF-8"?>
<!DOCTYPE svg PUBLIC "-//W3C//DTD SVG 1.1//EN" "http://www.w3.org/Graphics/SVG/1.1/DTD/svg11.dtd">
<svg xmlns="http://www.w3.org/2000/svg" version="1.1" width="900px" height="900px" style="shape-rendering:geometricPrecision; text-rendering:geometricPrecision; image-rendering:optimizeQuality; fill-rule:evenodd; clip-rule:evenodd" xmlns:xlink="http://www.w3.org/1999/xlink">
<g><path style="opacity:1" fill="#fdfdfd" d="M -0.5,-0.5 C 299.5,-0.5 599.5,-0.5 899.5,-0.5C 899.5,299.5 899.5,599.5 899.5,899.5C 599.5,899.5 299.5,899.5 -0.5,899.5C -0.5,599.5 -0.5,299.5 -0.5,-0.5 Z"/></g>
<g><path style="opacity:1" fill="#1b1b1e" d="M 657.5,71.5 C 671.615,86.2831 680.115,103.95 683,124.5C 683.5,135.495 683.667,146.495 683.5,157.5C 682.566,158.568 682.232,159.901 682.5,161.5C 677.89,161.971 673.89,163.804 670.5,167C 664.227,173.938 658.727,181.438 654,189.5C 646.931,179.029 641.765,167.696 638.5,155.5C 649.843,155.232 657.01,149.566 660,138.5C 664.82,118.114 660.653,99.7804 647.5,83.5C 644.182,86.3172 641.015,89.3172 638,92.5C 637.601,92.2716 637.435,91.9382 637.5,91.5C 643.86,84.4729 650.527,77.8063 657.5,71.5 Z"/></g>
<g><path style="opacity:1" fill="#2f2e33" d="M 638.5,155.5 C 634.744,145.492 631.744,135.159 629.5,124.5C 630.327,119.015 630.827,113.348 631,107.5C 631.703,102.262 633.87,97.7618 637.5,94C 637.272,93.6012 636.938,93.4346 636.5,93.5C 636.328,92.5084 636.662,91.8417 637.5,91.5C 637.435,91.9382 637.601,92.2716 638,92.5C 641.015,89.3172 644.182,86.3172 647.5,83.5C 660.653,99.7804 664.82,118.114 660,138.5C 657.01,149.566 649.843,155.232 638.5,155.5 Z"/></g>
<g><path style="opacity:1" fill="#f3be9b" d="M 497.5,59.5 C 522.387,58.0299 546.387,62.1965 569.5,72C 576.528,75.5291 582.861,80.0291 588.5,85.5C 588.833,85.3333 589.167,85.1667 589.5,85C 588.898,82.9637 587.898,81.1303 586.5,79.5C 587.624,78.086 588.624,76.586 589.5,75C 591.602,75.6194 593.769,76.4528 596,77.5C 597.574,76.0158 598.907,74.3492 600,72.5C 600.589,74.8633 602.089,75.8633 604.5,75.5C 604.5,76.5 604.5,77.5 604.5,78.5C 603.325,78.281 602.325,78.6143 601.5,79.5C 602.309,81.0709 602.643,82.7376 602.5,84.5C 603.5,84.5 604.5,84.5 605.5,84.5C 605.5,85.5 605.5,86.5 605.5,87.5C 599.671,88.0002 597.337,85.3335 598.5,79.5C 593.877,78.4082 592.044,80.0748 593,84.5C 594.011,85.3366 595.178,85.67 596.5,85.5C 596.5,86.8333 596.5,88.1667 596.5,89.5C 595.448,89.3505 594.448,89.5172 593.5,90C 606.705,104.904 615.871,122.071 621,141.5C 624.212,154.984 626.212,168.65 627,182.5C 628.272,176.044 631.938,173.71 638,175.5C 636.414,179.312 634.248,182.979 631.5,186.5C 637.561,192.961 642.894,199.961 647.5,207.5C 646.224,208.645 644.891,208.645 643.5,207.5C 639.205,201.537 634.205,196.204 628.5,191.5C 623.938,199.012 620.438,207.012 618,215.5C 608.239,232.627 594.072,244.461 575.5,251C 556.473,256.18 537.14,257.846 517.5,256C 552.907,265.111 587.573,262.778 621.5,249C 637.36,242.272 650.694,232.439 661.5,219.5C 654.415,234.253 643.415,244.919 628.5,251.5C 623.533,252.988 618.866,254.988 614.5,257.5C 613.5,257.833 612.833,258.5 612.5,259.5C 611.584,259.018 610.584,258.685 609.5,258.5C 589.849,263.79 569.849,266.456 549.5,266.5C 546.167,266.5 542.833,266.5 539.5,266.5C 520.187,265.174 503.521,257.84 489.5,244.5C 493.214,240.95 496.381,236.95 499,232.5C 503.599,221.699 501.765,212.199 493.5,204C 489.328,200.94 484.828,198.44 480,196.5C 479.536,197.094 479.369,197.761 479.5,198.5C 477.843,193.847 476.176,189.181 474.5,184.5C 470.699,170.964 467.366,157.297 464.5,143.5C 472.01,143.166 479.177,141.499 486,138.5C 486.383,139.056 486.883,139.389 487.5,139.5C 486.064,140.429 484.731,141.595 483.5,143C 491.797,145.125 499.964,147.625 508,150.5C 508.503,144.378 505.669,140.544 499.5,139C 496.854,138.503 494.187,138.336 491.5,138.5C 496.113,135.188 501.113,132.354 506.5,130C 517.977,119.42 518.477,108.253 508,96.5C 499.205,88.3531 489.039,82.6864 477.5,79.5C 483.167,71.8333 489.833,65.1667 497.5,59.5 Z"/></g>
<g><path style="opacity:1" fill="#19191c" d="M 636.5,93.5 C 636.938,93.4346 637.272,93.6012 637.5,94C 633.87,97.7618 631.703,102.262 631,107.5C 630.827,113.348 630.327,119.015 629.5,124.5C 628.316,119.215 627.316,113.881 626.5,108.5C 629.073,102.939 632.406,97.9394 636.5,93.5 Z"/></g>
<g><path style="opacity:1" fill="#514d4e" d="M 463.5,103.5 C 461.935,111.072 461.268,118.738 461.5,126.5C 460.833,122.833 460.167,119.167 459.5,115.5C 460.261,111.216 461.595,107.216 463.5,103.5 Z"/></g>
<g><path style="opacity:1" fill="#d76b37" d="M 520.5,107.5 C 527.309,114.794 530.476,123.461 530,133.5C 525.882,136.592 522.549,135.925 520,131.5C 519.264,123.465 519.431,115.465 520.5,107.5 Z"/></g>
<g><path style="opacity:1" fill="#f8d7b7" d="M 477.5,79.5 C 489.039,82.6864 499.205,88.3531 508,96.5C 518.477,108.253 517.977,119.42 506.5,130C 501.113,132.354 496.113,135.188 491.5,138.5C 490.167,138.833 488.833,139.167 487.5,139.5C 486.883,139.389 486.383,139.056 486,138.5C 479.177,141.499 472.01,143.166 464.5,143.5C 462.926,138.056 461.926,132.389 461.5,126.5C 461.268,118.738 461.935,111.072 463.5,103.5C 466.124,94.2434 470.791,86.2434 477.5,79.5 Z"/></g>
<g><path style="opacity:1" fill="#0f0c0a" d="M 575.5,119.5 C 578.85,119.335 582.183,119.502 585.5,120C 587.002,120.583 588.335,121.416 589.5,122.5C 580.833,128.167 572.167,133.833 563.5,139.5C 562.165,135.13 562.998,131.13 566,127.5C 568.775,124.22 571.942,121.554 575.5,119.5 Z"/></g>
<g><path style="opacity:1" fill="#2f2e33" d="M 459.5,115.5 C 460.167,119.167 460.833,122.833 461.5,126.5C 461.926,132.389 462.926,138.056 464.5,143.5C 467.366,157.297 470.699,170.964 474.5,184.5C 469.137,181.921 463.804,181.921 458.5,184.5C 452.861,161.37 453.194,138.37 459.5,115.5 Z"/></g>
<g><path style="opacity:1" fill="#100c0a" d="M 491.5,138.5 C 494.187,138.336 496.854,138.503 499.5,139C 505.669,140.544 508.503,144.378 508,150.5C 499.964,147.625 491.797,145.125 483.5,143C 484.731,141.595 486.064,140.429 487.5,139.5C 488.833,139.167 490.167,138.833 491.5,138.5 Z"/></g>
<g><path style="opacity:1" fill="#efa67d" d="M 497.5,156.5 C 500.564,156.144 503.231,156.977 505.5,159C 513.327,168.429 514.494,178.596 509,189.5C 505.185,192.37 501.685,192.036 498.5,188.5C 489.862,177.88 489.529,167.214 497.5,156.5 Z"/></g>
<g><path style="opacity:1" fill="#2f2e33" d="M 499.5,164.5 C 504.928,165.084 508.428,168.084 510,173.5C 511.472,179.076 510.305,183.909 506.5,188C 504.5,188.667 502.5,188.667 500.5,188C 493.026,180.309 492.693,172.476 499.5,164.5 Z"/></g>
<g><path style="opacity:1" fill="#f4f5f5" d="M 497.5,169.5 C 500.91,169.384 502.244,171.05 501.5,174.5C 498.09,174.616 496.756,172.95 497.5,169.5 Z"/></g>
<g><path style="opacity:1" fill="#cdcccd" d="M 502.5,174.5 C 506.31,175.754 506.31,176.754 502.5,177.5C 502.5,176.5 502.5,175.5 502.5,174.5 Z"/></g>
<g><path style="opacity:1" fill="#eba37b" d="M 573.5,141.5 C 580.594,141.41 585.427,144.744 588,151.5C 590,159.5 590,167.5 588,175.5C 582.764,182.145 577.43,182.145 572,175.5C 567.807,167.666 566.474,159.333 568,150.5C 568.837,146.843 570.67,143.843 573.5,141.5 Z"/></g>
<g><path style="opacity:1" fill="#2e2e32" d="M 575.5,150.5 C 581.46,150.612 585.293,153.612 587,159.5C 587.751,164.572 587.418,169.572 586,174.5C 583.441,177.349 580.274,178.183 576.5,177C 570.75,170.98 568.917,163.814 571,155.5C 572.707,153.963 574.207,152.296 575.5,150.5 Z"/></g>
<g><path style="opacity:1" fill="#e1e1e2" d="M 579.5,161.5 C 580.586,161.62 581.253,162.287 581.5,163.5C 581.167,164.167 580.833,164.833 580.5,165.5C 579.571,164.311 579.238,162.978 579.5,161.5 Z"/></g>
<g><path style="opacity:1" fill="#f3f3f3" d="M 573.5,155.5 C 574.833,155.5 576.167,155.5 577.5,155.5C 577.5,157.5 577.5,159.5 577.5,161.5C 573.932,161.241 572.599,159.241 573.5,155.5 Z"/></g>
<g><path style="opacity:1" fill="#e9ad8d" d="M 700.5,192.5 C 700.768,194.099 700.434,195.432 699.5,196.5C 699.5,195.5 699.5,194.5 699.5,193.5C 696.962,193.507 694.462,193.841 692,194.5C 686.768,193.711 684.768,190.711 686,185.5C 686.833,184.667 687.667,183.833 688.5,183C 691.224,182.73 693.891,182.23 696.5,181.5C 697.086,181.709 697.586,182.043 698,182.5C 698.535,186.038 699.368,189.372 700.5,192.5 Z"/></g>
<g><path style="opacity:1" fill="#eda37c" d="M 474.5,184.5 C 476.176,189.181 477.843,193.847 479.5,198.5C 474.978,204.733 472.645,211.733 472.5,219.5C 456.34,221.175 448.84,213.842 450,197.5C 451.453,192.223 454.286,187.89 458.5,184.5C 463.804,181.921 469.137,181.921 474.5,184.5 Z"/></g>
<g><path style="opacity:1" fill="#fad9b8" d="M 540.5,188.5 C 544.024,189.095 546.69,190.928 548.5,194C 542.477,198.954 535.477,201.454 527.5,201.5C 525.559,199.989 525.059,197.989 526,195.5C 530.134,191.683 534.967,189.349 540.5,188.5 Z"/></g>
<g><path style="opacity:1" fill="#eea47d" d="M 657.5,71.5 C 650.527,77.8063 643.86,84.4729 637.5,91.5C 636.662,91.8417 636.328,92.5084 636.5,93.5C 632.406,97.9394 629.073,102.939 626.5,108.5C 627.316,113.881 628.316,119.215 629.5,124.5C 631.744,135.159 634.744,145.492 638.5,155.5C 641.765,167.696 646.931,179.029 654,189.5C 658.727,181.438 664.227,173.938 670.5,167C 673.89,163.804 677.89,161.971 682.5,161.5C 682.232,159.901 682.566,158.568 683.5,157.5C 683.5,158.833 683.5,160.167 683.5,161.5C 689.182,162.343 693.349,165.343 696,170.5C 700,177.289 701.5,184.623 700.5,192.5C 699.368,189.372 698.535,186.038 698,182.5C 697.586,182.043 697.086,181.709 696.5,181.5C 693.891,182.23 691.224,182.73 688.5,183C 687.667,183.833 686.833,184.667 686,185.5C 684.768,190.711 686.768,193.711 692,194.5C 694.462,193.841 696.962,193.507 699.5,193.5C 699.5,194.5 699.5,195.5 699.5,196.5C 698.199,203.306 694.199,207.806 687.5,210C 680.117,210.799 672.783,210.632 665.5,209.5C 663.578,212.601 662.244,215.934 661.5,219.5C 650.694,232.439 637.36,242.272 621.5,249C 587.573,262.778 552.907,265.111 517.5,256C 537.14,257.846 556.473,256.18 575.5,251C 594.072,244.461 608.239,232.627 618,215.5C 620.438,207.012 623.938,199.012 628.5,191.5C 634.205,196.204 639.205,201.537 643.5,207.5C 644.891,208.645 646.224,208.645 647.5,207.5C 642.894,199.961 637.561,192.961 631.5,186.5C 634.248,182.979 636.414,179.312 638,175.5C 631.938,173.71 628.272,176.044 627,182.5C 626.212,168.65 624.212,154.984 621,141.5C 615.871,122.071 606.705,104.904 593.5,90C 594.448,89.5172 595.448,89.3505 596.5,89.5C 596.5,88.1667 596.5,86.8333 596.5,85.5C 595.178,85.67 594.011,85.3366 593,84.5C 592.044,80.0748 593.877,78.4082 598.5,79.5C 597.337,85.3335 599.671,88.0002 605.5,87.5C 605.5,86.5 605.5,85.5 605.5,84.5C 604.5,84.5 603.5,84.5 602.5,84.5C 602.643,82.7376 602.309,81.0709 601.5,79.5C 602.325,78.6143 603.325,78.281 604.5,78.5C 604.5,77.5 604.5,76.5 604.5,75.5C 602.089,75.8633 600.589,74.8633 600,72.5C 598.907,74.3492 597.574,76.0158 596,77.5C 593.769,76.4528 591.602,75.6194 589.5,75C 588.624,76.586 587.624,78.086 586.5,79.5C 587.898,81.1303 588.898,82.9637 589.5,85C 589.167,85.1667 588.833,85.3333 588.5,85.5C 582.861,80.0291 576.528,75.5291 569.5,72C 546.387,62.1965 522.387,58.0299 497.5,59.5C 529.183,36.7556 563.85,30.9223 601.5,42C 622.411,47.9514 641.078,57.7848 657.5,71.5 Z"/></g>
<g><path style="opacity:1" fill="#db8d6a" d="M 540.5,188.5 C 534.967,189.349 530.134,191.683 526,195.5C 525.059,197.989 525.559,199.989 527.5,201.5C 528.343,203.173 529.676,204.34 531.5,205C 536.833,205.667 542.167,205.667 547.5,205C 548.667,203.833 549.833,202.667 551,201.5C 551.464,202.094 551.631,202.761 551.5,203.5C 545.322,208.209 538.322,209.709 530.5,208C 528.922,206.906 527.255,206.072 525.5,205.5C 520.093,197.301 522.093,191.468 531.5,188C 538.055,185.191 544.722,184.858 551.5,187C 547.644,187.177 543.977,187.677 540.5,188.5 Z"/></g>
<g><path style="opacity:1" fill="#1b1b1d" d="M 596.5,209.5 C 596.833,210.5 597.5,211.167 598.5,211.5C 585.205,221.385 570.205,227.385 553.5,229.5C 553.062,229.565 552.728,229.399 552.5,229C 557.4,226.967 560.234,223.467 561,218.5C 560.167,217.667 559.333,216.833 558.5,216C 548.239,214.74 537.906,214.073 527.5,214C 523.845,211.665 520.679,212.165 518,215.5C 517.601,215.272 517.435,214.938 517.5,214.5C 520.167,211.5 522.833,208.5 525.5,205.5C 527.255,206.072 528.922,206.906 530.5,208C 538.322,209.709 545.322,208.209 551.5,203.5C 562.161,202.144 572.828,202.311 583.5,204C 588.09,205.297 592.423,207.13 596.5,209.5 Z"/></g>
<g><path style="opacity:1" fill="#b97861" d="M 598.5,211.5 C 597.5,211.167 596.833,210.5 596.5,209.5C 598.126,207.757 600.126,207.257 602.5,208C 603.479,211.686 602.145,212.852 598.5,211.5 Z"/></g>
<g><path style="opacity:1" fill="#303034" d="M 553.5,229.5 C 539.056,232.712 524.389,233.212 509.5,231C 507.717,229.933 507.217,228.433 508,226.5C 509.983,221.52 513.149,217.52 517.5,214.5C 517.435,214.938 517.601,215.272 518,215.5C 520.679,212.165 523.845,211.665 527.5,214C 537.906,214.073 548.239,214.74 558.5,216C 559.333,216.833 560.167,217.667 561,218.5C 560.234,223.467 557.4,226.967 552.5,229C 552.728,229.399 553.062,229.565 553.5,229.5 Z"/></g>
<g><path style="opacity:1" fill="#f6d6b7" d="M 489.5,244.5 C 481.583,237.658 475.917,229.324 472.5,219.5C 472.645,211.733 474.978,204.733 479.5,198.5C 479.369,197.761 479.536,197.094 480,196.5C 484.828,198.44 489.328,200.94 493.5,204C 501.765,212.199 503.599,221.699 499,232.5C 496.381,236.95 493.214,240.95 489.5,244.5 Z"/></g>
<g><path style="opacity:1" fill="#bb7a63" d="M 599.5,213.5 C 600.969,216.102 600.302,218.269 597.5,220C 577.5,234.47 555.166,240.47 530.5,238C 529.833,237.333 529.167,236.667 528.5,236C 541.723,236.075 554.723,234.075 567.5,230C 577.693,226.24 587.693,221.907 597.5,217C 598.823,216.184 599.489,215.017 599.5,213.5 Z"/></g>
<g><path style="opacity:1" fill="#ba7962" d="M 575.5,236.5 C 577.355,236.272 578.188,236.939 578,238.5C 572.222,244.28 565.389,245.947 557.5,243.5C 563.465,240.853 569.465,238.519 575.5,236.5 Z"/></g>
<g><path style="opacity:1" fill="#efa57d" d="M 612.5,259.5 C 596.506,278.494 579.173,296.16 560.5,312.5C 558.784,310.792 556.784,309.458 554.5,308.5C 558.027,302.057 556.36,297.557 549.5,295C 553.751,289.517 553.418,284.351 548.5,279.5C 550.673,275.281 551.007,270.948 549.5,266.5C 569.849,266.456 589.849,263.79 609.5,258.5C 610.584,258.685 611.584,259.018 612.5,259.5 Z"/></g>
<g><path style="opacity:1" fill="#c33131" d="M 628.5,257.5 C 642.384,261.461 655.717,266.795 668.5,273.5C 668.44,274.043 668.107,274.376 667.5,274.5C 666.167,273.833 664.833,273.167 663.5,272.5C 654.851,279.315 647.018,286.982 640,295.5C 635.912,300.686 632.079,306.02 628.5,311.5C 627.849,310.909 627.182,310.243 626.5,309.5C 624.541,310.748 623.041,312.415 622,314.5C 620.301,313.594 618.467,313.261 616.5,313.5C 616.167,313.5 615.833,313.5 615.5,313.5C 615.297,311.956 614.63,310.622 613.5,309.5C 616.97,307.565 618.636,304.565 618.5,300.5C 618.596,298.074 617.93,295.907 616.5,294C 621.841,290.137 622.841,285.304 619.5,279.5C 625.806,275.432 627.139,270.099 623.5,263.5C 625.938,262.069 627.604,260.069 628.5,257.5 Z"/></g>
<g><path style="opacity:1" fill="#993c20" d="M 628.5,251.5 C 628.5,253.5 628.5,255.5 628.5,257.5C 627.604,260.069 625.938,262.069 623.5,263.5C 627.139,270.099 625.806,275.432 619.5,279.5C 622.841,285.304 621.841,290.137 616.5,294C 617.93,295.907 618.596,298.074 618.5,300.5C 618.636,304.565 616.97,307.565 613.5,309.5C 614.63,310.622 615.297,311.956 615.5,313.5C 612.972,312.977 610.639,311.977 608.5,310.5C 607.151,310.846 605.817,311.179 604.5,311.5C 605.343,309.827 606.676,308.66 608.5,308C 603.999,302.012 604.665,296.679 610.5,292C 606.568,284.992 608.234,279.992 615.5,277C 614.619,276.292 613.953,275.458 613.5,274.5C 611.068,268.711 612.734,264.544 618.5,262C 616.93,260.603 615.596,259.103 614.5,257.5C 618.866,254.988 623.533,252.988 628.5,251.5 Z"/></g>
<g><path style="opacity:1" fill="#efa47b" d="M 537.5,275.5 C 538.277,278.112 539.944,279.945 542.5,281C 539.572,284.257 538.738,288.091 540,292.5C 541.543,294.378 543.376,295.878 545.5,297C 542.27,300.65 541.603,304.816 543.5,309.5C 538.578,305.92 533.911,301.92 529.5,297.5C 526.406,294.417 523.739,291.084 521.5,287.5C 526.527,283.147 531.86,279.147 537.5,275.5 Z"/></g>
<g><path style="opacity:1" fill="#c03030" d="M 614.5,257.5 C 615.596,259.103 616.93,260.603 618.5,262C 612.734,264.544 611.068,268.711 613.5,274.5C 598.083,288.753 583.417,303.92 569.5,320C 567.939,320.318 566.772,321.151 566,322.5C 564.708,321.209 563.542,321.209 562.5,322.5C 561.833,322.5 561.167,322.5 560.5,322.5C 560.167,322.5 559.833,322.5 559.5,322.5C 560.414,319.272 560.747,315.939 560.5,312.5C 579.173,296.16 596.506,278.494 612.5,259.5C 612.833,258.5 613.5,257.833 614.5,257.5 Z"/></g>
<g><path style="opacity:1" fill="#9a3d21" d="M 539.5,266.5 C 542.833,266.5 546.167,266.5 549.5,266.5C 551.007,270.948 550.673,275.281 548.5,279.5C 553.418,284.351 553.751,289.517 549.5,295C 556.36,297.557 558.027,302.057 554.5,308.5C 556.784,309.458 558.784,310.792 560.5,312.5C 560.747,315.939 560.414,319.272 559.5,322.5C 557.876,322.64 556.71,321.973 556,320.5C 554.331,321.846 553.164,323.513 552.5,325.5C 550.596,325.262 549.262,324.262 548.5,322.5C 547.174,319.197 547.174,315.864 548.5,312.5C 546.681,311.68 545.014,310.68 543.5,309.5C 541.603,304.816 542.27,300.65 545.5,297C 543.376,295.878 541.543,294.378 540,292.5C 538.738,288.091 539.572,284.257 542.5,281C 539.944,279.945 538.277,278.112 537.5,275.5C 537.207,272.246 537.874,269.246 539.5,266.5 Z"/></g>
<g><path style="opacity:1" fill="#efa57d" d="M 698.5,303.5 C 702.414,322.618 702.414,341.784 698.5,361C 698.743,361.902 699.077,362.735 699.5,363.5C 697.36,369.887 696.026,376.553 695.5,383.5C 693.549,389.924 692.215,396.591 691.5,403.5C 690.078,403.25 689.078,402.417 688.5,401C 686.866,400.506 685.199,400.34 683.5,400.5C 683.188,394.864 680.188,392.531 674.5,393.5C 675.568,392.566 676.901,392.232 678.5,392.5C 678.838,382.117 678.338,371.784 677,361.5C 676.296,356.334 674.129,352 670.5,348.5C 679.096,332.96 688.429,317.96 698.5,303.5 Z"/></g>
<g><path style="opacity:1" fill="#f2be9b" d="M 521.5,287.5 C 523.739,291.084 526.406,294.417 529.5,297.5C 533.911,301.92 538.578,305.92 543.5,309.5C 545.014,310.68 546.681,311.68 548.5,312.5C 547.174,315.864 547.174,319.197 548.5,322.5C 544.81,325.199 541.143,327.865 537.5,330.5C 521.993,340.912 505.993,350.245 489.5,358.5C 487.524,372.42 484.524,386.087 480.5,399.5C 479.85,399.804 479.183,400.137 478.5,400.5C 476.915,394.628 473.248,392.961 467.5,395.5C 465.449,390.599 461.949,389.266 457,391.5C 455.871,389.859 454.371,388.859 452.5,388.5C 457.089,378.497 460.923,368.164 464,357.5C 466.908,350.686 470.074,344.019 473.5,337.5C 474.043,337.56 474.376,337.893 474.5,338.5C 472.57,342.458 470.737,346.458 469,350.5C 468.202,352.259 468.369,353.926 469.5,355.5C 470.478,355.023 471.311,354.357 472,353.5C 474.639,346.888 477.806,340.554 481.5,334.5C 487.018,339.184 492.018,344.351 496.5,350C 497.833,350.667 499.167,350.667 500.5,350C 495.55,342.716 490.217,335.716 484.5,329C 486.709,325.414 489.043,321.914 491.5,318.5C 490.051,317.828 488.718,317.161 487.5,316.5C 498.22,306.113 509.553,296.446 521.5,287.5 Z"/></g>
<g><path style="opacity:1" fill="#cd5554" d="M 646.5,315.5 C 646.5,317.5 646.5,319.5 646.5,321.5C 644.585,321.216 642.919,321.549 641.5,322.5C 639.473,322.662 637.473,322.495 635.5,322C 634.539,318.982 633.206,316.149 631.5,313.5C 632.441,311.228 633.774,309.228 635.5,307.5C 636.386,308.325 636.719,309.325 636.5,310.5C 637.833,310.5 639.167,310.5 640.5,310.5C 640.5,308.833 640.5,307.167 640.5,305.5C 641.833,305.5 643.167,305.5 644.5,305.5C 644.64,307.124 643.973,308.29 642.5,309C 643.448,309.483 644.448,309.649 645.5,309.5C 645.205,311.735 645.539,313.735 646.5,315.5 Z"/></g>
<g><path style="opacity:1" fill="#c95858" d="M 628.5,311.5 C 629.497,311.47 630.164,311.97 630.5,313C 628.889,315.21 628.222,317.71 628.5,320.5C 629.833,320.5 631.167,320.5 632.5,320.5C 632.157,324.438 630.157,325.438 626.5,323.5C 624.771,321.149 624.104,318.482 624.5,315.5C 623.5,315.5 622.5,315.5 621.5,315.5C 621.833,318.833 622.167,322.167 622.5,325.5C 620.585,325.216 618.919,325.549 617.5,326.5C 615.097,326.552 612.764,326.219 610.5,325.5C 610.5,325.167 610.5,324.833 610.5,324.5C 615.328,322.519 617.328,318.852 616.5,313.5C 618.467,313.261 620.301,313.594 622,314.5C 623.041,312.415 624.541,310.748 626.5,309.5C 627.182,310.243 627.849,310.909 628.5,311.5 Z"/></g>
<g><path style="opacity:1" fill="#cd3e3d" d="M 668.5,273.5 C 674.402,276.072 680.069,279.072 685.5,282.5C 678.38,287.113 671.38,291.946 664.5,297C 658.27,303.062 652.27,309.229 646.5,315.5C 645.539,313.735 645.205,311.735 645.5,309.5C 644.448,309.649 643.448,309.483 642.5,309C 643.973,308.29 644.64,307.124 644.5,305.5C 643.167,305.5 641.833,305.5 640.5,305.5C 640.5,307.167 640.5,308.833 640.5,310.5C 639.167,310.5 637.833,310.5 636.5,310.5C 636.719,309.325 636.386,308.325 635.5,307.5C 633.774,309.228 632.441,311.228 631.5,313.5C 633.206,316.149 634.539,318.982 635.5,322C 637.473,322.495 639.473,322.662 641.5,322.5C 635.163,331.68 628.996,341.013 623,350.5C 604.348,384.468 585.681,418.468 567,452.5C 556.662,470.517 545.328,487.85 533,504.5C 533.001,496.033 532.168,489.7 530.5,485.5C 528.841,477.53 526.841,469.53 524.5,461.5C 525.552,459.744 527.219,459.077 529.5,459.5C 529.632,456.43 529.299,453.43 528.5,450.5C 529.167,450.5 529.5,450.167 529.5,449.5C 531.003,452.241 532.669,455.075 534.5,458C 536.134,458.494 537.801,458.66 539.5,458.5C 539.5,457.167 539.5,455.833 539.5,454.5C 538.167,454.5 536.833,454.5 535.5,454.5C 534.887,450.488 536.554,448.488 540.5,448.5C 540.094,454.404 542.761,457.07 548.5,456.5C 548.5,455.5 548.5,454.5 548.5,453.5C 547.5,453.5 546.5,453.5 545.5,453.5C 545.167,451.5 544.833,449.5 544.5,447.5C 545.5,447.5 546.5,447.5 547.5,447.5C 547.5,446.5 547.5,445.5 547.5,444.5C 546.167,444.5 544.833,444.5 543.5,444.5C 543.649,443.448 543.483,442.448 543,441.5C 541.49,443.208 539.99,444.874 538.5,446.5C 536.974,446.006 535.641,445.339 534.5,444.5C 558.363,420.77 578.863,394.436 596,365.5C 603.193,352.441 610.36,339.441 617.5,326.5C 618.919,325.549 620.585,325.216 622.5,325.5C 622.167,322.167 621.833,318.833 621.5,315.5C 622.5,315.5 623.5,315.5 624.5,315.5C 624.104,318.482 624.771,321.149 626.5,323.5C 630.157,325.438 632.157,324.438 632.5,320.5C 631.167,320.5 629.833,320.5 628.5,320.5C 628.222,317.71 628.889,315.21 630.5,313C 630.164,311.97 629.497,311.47 628.5,311.5C 632.079,306.02 635.912,300.686 640,295.5C 647.018,286.982 654.851,279.315 663.5,272.5C 664.833,273.167 666.167,273.833 667.5,274.5C 668.107,274.376 668.44,274.043 668.5,273.5 Z"/></g>
<g><path style="opacity:1" fill="#a85940" d="M 615.5,313.5 C 615.833,313.5 616.167,313.5 616.5,313.5C 617.328,318.852 615.328,322.519 610.5,324.5C 608.989,322.524 608.156,320.191 608,317.5C 607.13,318.108 606.63,318.941 606.5,320C 608.33,324.215 607.663,327.882 604.5,331C 600.889,332.254 599.389,331.088 600,327.5C 600.997,325.677 602.164,324.01 603.5,322.5C 603.167,321.167 602.833,319.833 602.5,318.5C 602.338,316.473 602.505,314.473 603,312.5C 603.383,311.944 603.883,311.611 604.5,311.5C 605.817,311.179 607.151,310.846 608.5,310.5C 610.639,311.977 612.972,312.977 615.5,313.5 Z"/></g>
<g><path style="opacity:1" fill="#ce5f5e" d="M 602.5,318.5 C 602.833,319.833 603.167,321.167 603.5,322.5C 600.088,323.581 598.088,325.915 597.5,329.5C 596.5,329.5 595.5,329.5 594.5,329.5C 594.267,324.106 593.601,318.773 592.5,313.5C 596.151,313.162 597.817,314.828 597.5,318.5C 599.167,318.5 600.833,318.5 602.5,318.5 Z"/></g>
<g><path style="opacity:1" fill="#c65656" d="M 548.5,322.5 C 549.262,324.262 550.596,325.262 552.5,325.5C 553.492,325.328 554.158,325.662 554.5,326.5C 554.167,326.5 553.833,326.5 553.5,326.5C 551.144,328.683 550.811,331.35 552.5,334.5C 545.836,338.286 540.836,336.953 537.5,330.5C 541.143,327.865 544.81,325.199 548.5,322.5 Z"/></g>
<g><path style="opacity:1" fill="#edc3a8" d="M 487.5,316.5 C 488.718,317.161 490.051,317.828 491.5,318.5C 489.043,321.914 486.709,325.414 484.5,329C 490.217,335.716 495.55,342.716 500.5,350C 499.167,350.667 497.833,350.667 496.5,350C 492.018,344.351 487.018,339.184 481.5,334.5C 477.806,340.554 474.639,346.888 472,353.5C 471.311,354.357 470.478,355.023 469.5,355.5C 468.369,353.926 468.202,352.259 469,350.5C 470.737,346.458 472.57,342.458 474.5,338.5C 474.376,337.893 474.043,337.56 473.5,337.5C 477.416,329.933 482.082,322.933 487.5,316.5 Z"/></g>
<g><path style="opacity:1" fill="#c03231" d="M 543.5,327.5 C 548.159,327.015 549.492,328.848 547.5,333C 542.728,333.81 541.395,331.977 543.5,327.5 Z"/></g>
<g><path style="opacity:1" fill="#ae6750" d="M 559.5,322.5 C 559.833,322.5 560.167,322.5 560.5,322.5C 560.5,323.5 560.5,324.5 560.5,325.5C 559.448,325.351 558.448,325.517 557.5,326C 558.227,327.399 558.727,328.899 559,330.5C 560.011,331.337 561.178,331.67 562.5,331.5C 562.5,332.5 562.5,333.5 562.5,334.5C 556.5,335.167 553.833,332.5 554.5,326.5C 554.158,325.662 553.492,325.328 552.5,325.5C 553.164,323.513 554.331,321.846 556,320.5C 556.71,321.973 557.876,322.64 559.5,322.5 Z"/></g>
<g><path style="opacity:1" fill="#c83a3a" d="M 613.5,274.5 C 613.953,275.458 614.619,276.292 615.5,277C 608.234,279.992 606.568,284.992 610.5,292C 604.665,296.679 603.999,302.012 608.5,308C 606.676,308.66 605.343,309.827 604.5,311.5C 603.883,311.611 603.383,311.944 603,312.5C 602.505,314.473 602.338,316.473 602.5,318.5C 600.833,318.5 599.167,318.5 597.5,318.5C 597.817,314.828 596.151,313.162 592.5,313.5C 593.601,318.773 594.267,324.106 594.5,329.5C 595.5,329.5 596.5,329.5 597.5,329.5C 597.33,330.822 597.663,331.989 598.5,333C 591.667,333.167 588.167,336.667 588,343.5C 584.819,337.748 580.819,337.081 576,341.5C 575.215,335.877 572.048,333.543 566.5,334.5C 566.664,331.813 566.497,329.146 566,326.5C 565.31,324.65 564.144,323.316 562.5,322.5C 563.542,321.209 564.708,321.209 566,322.5C 566.772,321.151 567.939,320.318 569.5,320C 583.417,303.92 598.083,288.753 613.5,274.5 Z"/></g>
<g><path style="opacity:1" fill="#ca5b5b" d="M 575.5,319.5 C 576.5,319.5 577.5,319.5 578.5,319.5C 577.941,323.853 577.275,328.186 576.5,332.5C 575.022,332.762 573.689,332.429 572.5,331.5C 571.087,328.339 569.42,325.339 567.5,322.5C 568.365,321.417 569.365,321.251 570.5,322C 573.93,329.073 575.597,328.24 575.5,319.5 Z"/></g>
<g><path style="opacity:1" fill="#c75757" d="M 583.5,318.5 C 588.093,317.418 591.093,319.085 592.5,323.5C 589.373,324.185 586.373,325.185 583.5,326.5C 585.635,327.645 587.801,327.645 590,326.5C 591.726,327.648 591.559,328.815 589.5,330C 584.203,331.521 580.869,329.688 579.5,324.5C 580.347,322.129 581.68,320.129 583.5,318.5 Z"/></g>
<g><path style="opacity:1" fill="#ce3e3e" d="M 595.5,481.5 C 584.013,488.415 573.013,496.082 562.5,504.5C 562.082,503.778 561.416,503.278 560.5,503C 570.13,488.689 578.963,473.856 587,458.5C 602.476,427.369 617.476,396.035 632,364.5C 643.456,342.436 658.622,323.269 677.5,307C 680.418,305.291 683.252,303.458 686,301.5C 672.454,316.498 660.787,333.165 651,351.5C 643.392,367.715 636.059,384.048 629,400.5C 619.408,426.601 609.408,452.601 599,478.5C 597.581,479.46 596.081,480.293 594.5,481C 594.728,481.399 595.062,481.565 595.5,481.5 Z"/></g>
<g><path style="opacity:1" fill="#c03130" d="M 553.5,326.5 C 553.253,329.939 553.586,333.272 554.5,336.5C 537.441,353.541 517.774,366.874 495.5,376.5C 493.669,370.341 491.669,364.341 489.5,358.5C 505.993,350.245 521.993,340.912 537.5,330.5C 540.836,336.953 545.836,338.286 552.5,334.5C 550.811,331.35 551.144,328.683 553.5,326.5 Z"/></g>
<g><path style="opacity:1" fill="#c12f2f" d="M 685.5,282.5 C 691.186,285.094 696.686,288.094 702,291.5C 701.178,295.511 700.011,299.511 698.5,303.5C 688.429,317.96 679.096,332.96 670.5,348.5C 663.657,360.184 657.324,372.184 651.5,384.5C 644.419,380.469 640.919,382.469 641,390.5C 642.5,392.469 644.333,393.802 646.5,394.5C 634.676,419.463 624.51,445.13 616,471.5C 609.375,475.229 602.542,478.562 595.5,481.5C 595.062,481.565 594.728,481.399 594.5,481C 596.081,480.293 597.581,479.46 599,478.5C 609.408,452.601 619.408,426.601 629,400.5C 636.059,384.048 643.392,367.715 651,351.5C 660.787,333.165 672.454,316.498 686,301.5C 683.252,303.458 680.418,305.291 677.5,307C 658.622,323.269 643.456,342.436 632,364.5C 617.476,396.035 602.476,427.369 587,458.5C 578.963,473.856 570.13,488.689 560.5,503C 561.416,503.278 562.082,503.778 562.5,504.5C 552.478,512.179 541.811,518.845 530.5,524.5C 530.5,517.833 530.5,511.167 530.5,504.5C 530.5,498.167 530.5,491.833 530.5,485.5C 532.168,489.7 533.001,496.033 533,504.5C 545.328,487.85 556.662,470.517 567,452.5C 585.681,418.468 604.348,384.468 623,350.5C 628.996,341.013 635.163,331.68 641.5,322.5C 642.919,321.549 644.585,321.216 646.5,321.5C 646.5,319.5 646.5,317.5 646.5,315.5C 652.27,309.229 658.27,303.062 664.5,297C 671.38,291.946 678.38,287.113 685.5,282.5 Z"/></g>
<g><path style="opacity:1" fill="#cd3e3d" d="M 554.5,336.5 C 556.439,339.276 558.939,339.943 562,338.5C 562.464,339.094 562.631,339.761 562.5,340.5C 548.197,357.63 531.531,372.13 512.5,384C 508.556,386.141 504.556,387.975 500.5,389.5C 498.657,385.316 496.99,380.982 495.5,376.5C 517.774,366.874 537.441,353.541 554.5,336.5 Z"/></g>
<g><path style="opacity:1" fill="#993d21" d="M 610.5,324.5 C 610.5,324.833 610.5,325.167 610.5,325.5C 613.122,333.274 610.456,337.607 602.5,338.5C 603.202,344.448 600.869,348.448 595.5,350.5C 592.786,350.06 590.62,348.726 589,346.5C 588.206,350.129 586.372,353.129 583.5,355.5C 578.552,355.733 575.385,353.399 574,348.5C 572.152,351.041 569.652,352.041 566.5,351.5C 562.992,348.717 561.658,345.051 562.5,340.5C 562.631,339.761 562.464,339.094 562,338.5C 558.939,339.943 556.439,339.276 554.5,336.5C 553.586,333.272 553.253,329.939 553.5,326.5C 553.833,326.5 554.167,326.5 554.5,326.5C 553.833,332.5 556.5,335.167 562.5,334.5C 562.5,333.5 562.5,332.5 562.5,331.5C 561.178,331.67 560.011,331.337 559,330.5C 558.727,328.899 558.227,327.399 557.5,326C 558.448,325.517 559.448,325.351 560.5,325.5C 560.5,324.5 560.5,323.5 560.5,322.5C 561.167,322.5 561.833,322.5 562.5,322.5C 564.144,323.316 565.31,324.65 566,326.5C 566.497,329.146 566.664,331.813 566.5,334.5C 572.048,333.543 575.215,335.877 576,341.5C 580.819,337.081 584.819,337.748 588,343.5C 588.167,336.667 591.667,333.167 598.5,333C 597.663,331.989 597.33,330.822 597.5,329.5C 598.088,325.915 600.088,323.581 603.5,322.5C 602.164,324.01 600.997,325.677 600,327.5C 599.389,331.088 600.889,332.254 604.5,331C 607.663,327.882 608.33,324.215 606.5,320C 606.63,318.941 607.13,318.108 608,317.5C 608.156,320.191 608.989,322.524 610.5,324.5 Z"/></g>
<g><path style="opacity:1" fill="#c12f2f" d="M 562.5,340.5 C 561.658,345.051 562.992,348.717 566.5,351.5C 551.441,373.858 531.774,390.858 507.5,402.5C 506.828,403.949 506.161,405.282 505.5,406.5C 505.107,404.716 504.441,403.05 503.5,401.5C 502.5,397.5 501.5,393.5 500.5,389.5C 504.556,387.975 508.556,386.141 512.5,384C 531.531,372.13 548.197,357.63 562.5,340.5 Z"/></g>
<g><path style="opacity:1" fill="#c12f2f" d="M 610.5,325.5 C 612.764,326.219 615.097,326.552 617.5,326.5C 610.36,339.441 603.193,352.441 596,365.5C 578.863,394.436 558.363,420.77 534.5,444.5C 534.103,443.475 533.437,443.308 532.5,444C 531.242,445.741 530.242,447.574 529.5,449.5C 529.5,450.167 529.167,450.5 528.5,450.5C 528.5,449.5 528.5,448.5 528.5,447.5C 525.654,448.095 522.654,448.095 519.5,447.5C 517.829,442.155 516.163,436.822 514.5,431.5C 526.042,422.135 537.209,412.135 548,401.5C 560.814,386.862 572.647,371.528 583.5,355.5C 586.372,353.129 588.206,350.129 589,346.5C 590.62,348.726 592.786,350.06 595.5,350.5C 600.869,348.448 603.202,344.448 602.5,338.5C 610.456,337.607 613.122,333.274 610.5,325.5 Z"/></g>
<g><path style="opacity:1" fill="#ce3d3d" d="M 583.5,355.5 C 572.647,371.528 560.814,386.862 548,401.5C 537.209,412.135 526.042,422.135 514.5,431.5C 511.328,423.324 508.328,414.99 505.5,406.5C 506.161,405.282 506.828,403.949 507.5,402.5C 531.774,390.858 551.441,373.858 566.5,351.5C 569.652,352.041 572.152,351.041 574,348.5C 575.385,353.399 578.552,355.733 583.5,355.5 Z"/></g>
<g><path style="opacity:1" fill="#f5bf9b" d="M 670.5,348.5 C 674.129,352 676.296,356.334 677,361.5C 678.338,371.784 678.838,382.117 678.5,392.5C 676.901,392.232 675.568,392.566 674.5,393.5C 674.44,394.043 674.107,394.376 673.5,394.5C 672.223,388.361 668.723,386.361 663,388.5C 660.325,383.436 656.658,382.436 652,385.5C 651.601,385.272 651.435,384.938 651.5,384.5C 657.324,372.184 663.657,360.184 670.5,348.5 Z"/></g>
<g><path style="opacity:1" fill="#efa57d" d="M 489.5,358.5 C 491.669,364.341 493.669,370.341 495.5,376.5C 496.99,380.982 498.657,385.316 500.5,389.5C 501.5,393.5 502.5,397.5 503.5,401.5C 501.167,404.833 498.833,408.167 496.5,411.5C 494.841,408.167 492.175,406.5 488.5,406.5C 488.349,401.351 485.682,399.018 480.5,399.5C 484.524,386.087 487.524,372.42 489.5,358.5 Z"/></g>
<g><path style="opacity:1" fill="#9a3d21" d="M 651.5,384.5 C 651.435,384.938 651.601,385.272 652,385.5C 656.658,382.436 660.325,383.436 663,388.5C 668.723,386.361 672.223,388.361 673.5,394.5C 674.107,394.376 674.44,394.043 674.5,393.5C 680.188,392.531 683.188,394.864 683.5,400.5C 685.199,400.34 686.866,400.506 688.5,401C 689.078,402.417 690.078,403.25 691.5,403.5C 691.838,406.157 691.171,408.49 689.5,410.5C 693.007,412.461 694.34,415.461 693.5,419.5C 691.896,418.713 691.229,417.38 691.5,415.5C 687.914,416.089 685.58,418.089 684.5,421.5C 682.974,420.508 682.307,419.008 682.5,417C 682.603,415.439 682.937,413.939 683.5,412.5C 680.106,410.891 678.773,408.224 679.5,404.5C 678.167,404.5 676.833,404.5 675.5,404.5C 674.504,404.586 673.671,404.252 673,403.5C 672.261,401.779 671.427,400.113 670.5,398.5C 665.629,400.665 662.129,399.332 660,394.5C 659.329,395.252 658.496,395.586 657.5,395.5C 654.579,395.854 652.246,394.854 650.5,392.5C 649.14,393.18 647.807,393.847 646.5,394.5C 644.333,393.802 642.5,392.469 641,390.5C 640.919,382.469 644.419,380.469 651.5,384.5 Z"/></g>
<g><path style="opacity:1" fill="#f1c09e" d="M 675.5,404.5 C 675.326,406.861 674.993,409.194 674.5,411.5C 672.113,413.913 669.946,416.58 668,419.5C 667.244,421.809 667.744,423.809 669.5,425.5C 669.023,426.931 668.357,428.264 667.5,429.5C 666.481,428.313 665.314,427.313 664,426.5C 659.856,432.25 656.856,438.583 655,445.5C 653.867,447.211 652.367,447.711 650.5,447C 646.477,443.444 644.311,438.944 644,433.5C 643.184,426.877 642.684,420.377 642.5,414C 645.773,406.727 651.106,401.394 658.5,398C 657.167,397.667 655.833,397.333 654.5,397C 655.737,396.768 656.737,396.268 657.5,395.5C 658.496,395.586 659.329,395.252 660,394.5C 662.129,399.332 665.629,400.665 670.5,398.5C 671.427,400.113 672.261,401.779 673,403.5C 673.671,404.252 674.504,404.586 675.5,404.5 Z"/></g>
<g><path style="opacity:1" fill="#f4be9a" d="M 447.5,399.5 C 450.136,400.824 452.802,400.824 455.5,399.5C 458.468,401.662 461.634,401.995 465,400.5C 467.129,405.332 470.629,406.665 475.5,404.5C 476.429,405.689 476.762,407.022 476.5,408.5C 472.186,422.972 463.186,433.138 449.5,439C 444.448,439.726 439.448,439.559 434.5,438.5C 437.833,425.169 442.166,412.169 447.5,399.5 Z"/></g>
<g><path style="opacity:1" fill="#fcfbfa" d="M 503.5,401.5 C 504.441,403.05 505.107,404.716 505.5,406.5C 508.328,414.99 511.328,423.324 514.5,431.5C 516.163,436.822 517.829,442.155 519.5,447.5C 520.794,452.389 522.461,457.055 524.5,461.5C 526.841,469.53 528.841,477.53 530.5,485.5C 530.5,491.833 530.5,498.167 530.5,504.5C 510.652,504.183 490.985,505.85 471.5,509.5C 462.51,507.504 453.51,505.504 444.5,503.5C 444.5,502.833 444.5,502.167 444.5,501.5C 449.557,498.404 454.891,495.571 460.5,493C 463.939,490.861 467.106,488.361 470,485.5C 473.45,479.152 476.116,472.485 478,465.5C 480.375,453.998 483.375,442.665 487,431.5C 487.377,430.058 488.21,429.058 489.5,428.5C 496.276,430.227 499.109,427.561 498,420.5C 497.167,419 496,417.833 494.5,417C 495.464,415.275 496.131,413.441 496.5,411.5C 498.833,408.167 501.167,404.833 503.5,401.5 Z"/></g>
<g><path style="opacity:1" fill="#eca37d" d="M 675.5,404.5 C 676.833,404.5 678.167,404.5 679.5,404.5C 678.773,408.224 680.106,410.891 683.5,412.5C 682.937,413.939 682.603,415.439 682.5,417C 682.307,419.008 682.974,420.508 684.5,421.5C 685.167,422.167 685.833,422.833 686.5,423.5C 686.5,423.833 686.5,424.167 686.5,424.5C 685.512,427.081 684.512,429.748 683.5,432.5C 682.833,434.833 682.167,437.167 681.5,439.5C 678.243,435.065 674.743,430.732 671,426.5C 671.018,421.27 672.184,416.27 674.5,411.5C 674.993,409.194 675.326,406.861 675.5,404.5 Z"/></g>
<g><path style="opacity:1" fill="#9c3e22" d="M 452.5,388.5 C 454.371,388.859 455.871,389.859 457,391.5C 461.949,389.266 465.449,390.599 467.5,395.5C 473.248,392.961 476.915,394.628 478.5,400.5C 479.183,400.137 479.85,399.804 480.5,399.5C 485.682,399.018 488.349,401.351 488.5,406.5C 492.175,406.5 494.841,408.167 496.5,411.5C 496.131,413.441 495.464,415.275 494.5,417C 496,417.833 497.167,419 498,420.5C 499.109,427.561 496.276,430.227 489.5,428.5C 486.087,425.614 485.753,422.447 488.5,419C 485.059,417.682 483.725,415.182 484.5,411.5C 481.212,411.984 478.545,410.984 476.5,408.5C 476.762,407.022 476.429,405.689 475.5,404.5C 470.629,406.665 467.129,405.332 465,400.5C 461.634,401.995 458.468,401.662 455.5,399.5C 452.802,400.824 450.136,400.824 447.5,399.5C 443.681,393.18 445.348,389.513 452.5,388.5 Z"/></g>
<g><path style="opacity:1" fill="#ae6148" d="M 693.5,419.5 C 691.879,421.942 689.546,423.275 686.5,423.5C 685.833,422.833 685.167,422.167 684.5,421.5C 685.58,418.089 687.914,416.089 691.5,415.5C 691.229,417.38 691.896,418.713 693.5,419.5 Z"/></g>
<g><path style="opacity:1" fill="#ce6060" d="M 702.5,433.5 C 701.044,430.073 700.044,426.406 699.5,422.5C 699.624,421.893 699.957,421.56 700.5,421.5C 702.5,421.167 704.5,420.833 706.5,420.5C 706.539,422.359 705.706,423.692 704,424.5C 703.581,426.68 703.748,428.846 704.5,431C 704.316,432.376 703.649,433.209 702.5,433.5 Z"/></g>
<g><path style="opacity:1" fill="#cf6161" d="M 710.5,415.5 C 711.255,418.053 711.922,420.72 712.5,423.5C 711.959,425.75 711.626,428.084 711.5,430.5C 710.522,430.023 709.689,429.357 709,428.5C 708.435,423.971 708.935,419.637 710.5,415.5 Z"/></g>
<g><path style="opacity:1" fill="#cd3e3e" d="M 699.5,363.5 C 703.42,380.764 707.086,398.097 710.5,415.5C 708.935,419.637 708.435,423.971 709,428.5C 709.689,429.357 710.522,430.023 711.5,430.5C 711.626,428.084 711.959,425.75 712.5,423.5C 723.159,469.139 734.825,514.473 747.5,559.5C 740.83,555.33 733.83,551.997 726.5,549.5C 726.611,548.883 726.944,548.383 727.5,548C 717.193,510.3 708.859,472.133 702.5,433.5C 703.649,433.209 704.316,432.376 704.5,431C 703.748,428.846 703.581,426.68 704,424.5C 705.706,423.692 706.539,422.359 706.5,420.5C 704.5,420.833 702.5,421.167 700.5,421.5C 699.144,408.647 697.478,395.98 695.5,383.5C 696.026,376.553 697.36,369.887 699.5,363.5 Z"/></g>
<g><path style="opacity:1" fill="#ca5c5c" d="M 686.5,424.5 C 685.831,430 688.165,432.167 693.5,431C 694.219,428.444 695.886,427.277 698.5,427.5C 698.536,431.108 696.869,433.441 693.5,434.5C 691.5,434.5 689.5,434.5 687.5,434.5C 686.395,433.4 685.062,432.733 683.5,432.5C 684.512,429.748 685.512,427.081 686.5,424.5 Z"/></g>
<g><path style="opacity:1" fill="#cd3e3d" d="M 687.5,434.5 C 689.5,434.5 691.5,434.5 693.5,434.5C 699.564,472.088 706.897,509.422 715.5,546.5C 710.167,546.5 704.833,546.5 699.5,546.5C 699.5,546.167 699.5,545.833 699.5,545.5C 700.568,544.566 701.901,544.232 703.5,544.5C 695.997,508.149 690.664,471.483 687.5,434.5 Z"/></g>
<g><path style="opacity:1" fill="#d0711c" d="M 413.5,461.5 C 409.655,461.848 407.655,464.015 407.5,468C 408.225,471.836 409.559,475.336 411.5,478.5C 409.305,476.576 406.972,474.909 404.5,473.5C 404.826,464.651 404.493,455.984 403.5,447.5C 400.913,444.99 400.913,442.323 403.5,439.5C 401.819,434.833 403.486,432.166 408.5,431.5C 410.481,431.437 412.148,432.104 413.5,433.5C 414.151,437.616 415.484,441.449 417.5,445C 414.593,450.013 413.26,455.513 413.5,461.5 Z"/></g>
<g><path style="opacity:1" fill="#f1be9a" d="M 432.5,440.5 C 438.987,441.328 445.654,441.828 452.5,442C 457.247,442.626 461.414,444.459 465,447.5C 465.1,451.202 465.933,454.702 467.5,458C 465.822,459.932 465.322,462.098 466,464.5C 467.011,465.337 468.178,465.67 469.5,465.5C 469.5,466.5 469.5,467.5 469.5,468.5C 466.404,469.093 464.071,468.093 462.5,465.5C 459.719,470.775 456.053,475.275 451.5,479C 449.866,479.494 448.199,479.66 446.5,479.5C 445.5,477.833 444.167,476.5 442.5,475.5C 442.729,470.744 440.729,467.411 436.5,465.5C 435.83,463.709 435.163,462.042 434.5,460.5C 432.54,457.437 429.873,456.771 426.5,458.5C 425.06,457.048 423.394,456.048 421.5,455.5C 424.446,449.929 428.112,444.929 432.5,440.5 Z"/></g>
<g><path style="opacity:1" fill="#efa47c" d="M 680.5,443.5 C 680.5,443.833 680.5,444.167 680.5,444.5C 679.566,445.568 679.232,446.901 679.5,448.5C 676.386,456.598 673.72,464.932 671.5,473.5C 666.917,484.739 662.417,496.072 658,507.5C 650.303,515.268 641.469,521.434 631.5,526C 617.33,532.092 602.996,537.592 588.5,542.5C 567.606,548.307 546.606,553.64 525.5,558.5C 525.249,556.83 524.582,555.33 523.5,554C 524.252,553.329 524.586,552.496 524.5,551.5C 525.097,551.265 525.43,550.765 525.5,550C 524.711,548.374 523.711,546.874 522.5,545.5C 523.246,544.264 523.579,542.93 523.5,541.5C 545.672,540.874 566.672,535.707 586.5,526C 602.528,518.623 617.528,509.623 631.5,499C 642.521,490.888 643.188,482.222 633.5,473C 630.167,471.667 626.833,470.333 623.5,469C 633.272,466.781 641.939,462.447 649.5,456C 654.725,449.779 660.225,443.946 666,438.5C 667.771,439.304 669.271,440.471 670.5,442C 671.833,442.667 673.167,442.667 674.5,442C 672.181,438.682 669.515,435.682 666.5,433C 666.63,431.941 667.13,431.108 668,430.5C 672.398,434.729 676.564,439.062 680.5,443.5 Z"/></g>
<g><path style="opacity:1" fill="#cf6161" d="M 549.5,443.5 C 550.5,443.5 551.5,443.5 552.5,443.5C 553.331,447.476 553.497,451.476 553,455.5C 552.586,455.957 552.086,456.291 551.5,456.5C 549.407,452.282 548.74,447.949 549.5,443.5 Z"/></g>
<g><path style="opacity:1" fill="#ce6060" d="M 529.5,449.5 C 530.242,447.574 531.242,445.741 532.5,444C 533.437,443.308 534.103,443.475 534.5,444.5C 535.641,445.339 536.974,446.006 538.5,446.5C 539.99,444.874 541.49,443.208 543,441.5C 543.483,442.448 543.649,443.448 543.5,444.5C 544.833,444.5 546.167,444.5 547.5,444.5C 547.5,445.5 547.5,446.5 547.5,447.5C 546.5,447.5 545.5,447.5 544.5,447.5C 544.833,449.5 545.167,451.5 545.5,453.5C 546.5,453.5 547.5,453.5 548.5,453.5C 548.5,454.5 548.5,455.5 548.5,456.5C 542.761,457.07 540.094,454.404 540.5,448.5C 536.554,448.488 534.887,450.488 535.5,454.5C 536.833,454.5 538.167,454.5 539.5,454.5C 539.5,455.833 539.5,457.167 539.5,458.5C 537.801,458.66 536.134,458.494 534.5,458C 532.669,455.075 531.003,452.241 529.5,449.5 Z"/></g>
<g><path style="opacity:1" fill="#cc5b5a" d="M 519.5,447.5 C 522.654,448.095 525.654,448.095 528.5,447.5C 528.5,448.5 528.5,449.5 528.5,450.5C 529.299,453.43 529.632,456.43 529.5,459.5C 527.219,459.077 525.552,459.744 524.5,461.5C 522.461,457.055 520.794,452.389 519.5,447.5 Z"/></g>
<g><path style="opacity:1" fill="#93361b" d="M 421.5,455.5 C 423.394,456.048 425.06,457.048 426.5,458.5C 429.873,456.771 432.54,457.437 434.5,460.5C 434.371,462.216 434.038,463.883 433.5,465.5C 432.5,465.167 431.833,464.5 431.5,463.5C 426.447,461.74 421.114,461.073 415.5,461.5C 415.833,457.833 417.833,455.833 421.5,455.5 Z"/></g>
<g><path style="opacity:1" fill="#c13030" d="M 695.5,383.5 C 697.478,395.98 699.144,408.647 700.5,421.5C 699.957,421.56 699.624,421.893 699.5,422.5C 700.044,426.406 701.044,430.073 702.5,433.5C 708.859,472.133 717.193,510.3 727.5,548C 726.944,548.383 726.611,548.883 726.5,549.5C 722.573,549.074 718.907,548.074 715.5,546.5C 706.897,509.422 699.564,472.088 693.5,434.5C 696.869,433.441 698.536,431.108 698.5,427.5C 695.886,427.277 694.219,428.444 693.5,431C 688.165,432.167 685.831,430 686.5,424.5C 686.5,424.167 686.5,423.833 686.5,423.5C 689.546,423.275 691.879,421.942 693.5,419.5C 694.34,415.461 693.007,412.461 689.5,410.5C 691.171,408.49 691.838,406.157 691.5,403.5C 692.215,396.591 693.549,389.924 695.5,383.5 Z"/></g>
<g><path style="opacity:1" fill="#d68546" d="M 413.5,461.5 C 413.5,461.833 413.5,462.167 413.5,462.5C 413.431,467.854 413.098,473.187 412.5,478.5C 412.167,478.5 411.833,478.5 411.5,478.5C 409.559,475.336 408.225,471.836 407.5,468C 407.655,464.015 409.655,461.848 413.5,461.5 Z"/></g>
<g><path style="opacity:1" fill="#eaa580" d="M 415.5,461.5 C 421.114,461.073 426.447,461.74 431.5,463.5C 429.167,463.5 426.833,463.5 424.5,463.5C 424.5,465.5 424.5,467.5 424.5,469.5C 422.219,469.077 420.552,469.744 419.5,471.5C 417.5,474.167 415.167,476.5 412.5,478.5C 413.098,473.187 413.431,467.854 413.5,462.5C 414.492,462.672 415.158,462.338 415.5,461.5 Z"/></g>
<g><path style="opacity:1" fill="#f1bc99" d="M 431.5,463.5 C 431.833,464.5 432.5,465.167 433.5,465.5C 436.146,468.441 437.812,471.775 438.5,475.5C 438.5,476.5 438.5,477.5 438.5,478.5C 435.073,478.024 431.74,478.024 428.5,478.5C 423.098,483.236 418.098,488.236 413.5,493.5C 413.44,494.043 413.107,494.376 412.5,494.5C 411.353,492.235 411.186,489.902 412,487.5C 415.398,482.277 418.564,476.944 421.5,471.5C 421.03,470.537 420.363,470.537 419.5,471.5C 420.552,469.744 422.219,469.077 424.5,469.5C 424.5,467.5 424.5,465.5 424.5,463.5C 426.833,463.5 429.167,463.5 431.5,463.5 Z"/></g>
<g><path style="opacity:1" fill="#f4be9b" d="M 657.5,395.5 C 656.737,396.268 655.737,396.768 654.5,397C 655.833,397.333 657.167,397.667 658.5,398C 651.106,401.394 645.773,406.727 642.5,414C 642.684,420.377 643.184,426.877 644,433.5C 644.311,438.944 646.477,443.444 650.5,447C 652.367,447.711 653.867,447.211 655,445.5C 656.856,438.583 659.856,432.25 664,426.5C 665.314,427.313 666.481,428.313 667.5,429.5C 668.357,428.264 669.023,426.931 669.5,425.5C 667.744,423.809 667.244,421.809 668,419.5C 669.946,416.58 672.113,413.913 674.5,411.5C 672.184,416.27 671.018,421.27 671,426.5C 674.743,430.732 678.243,435.065 681.5,439.5C 681.167,440.833 680.833,442.167 680.5,443.5C 676.564,439.062 672.398,434.729 668,430.5C 667.13,431.108 666.63,431.941 666.5,433C 669.515,435.682 672.181,438.682 674.5,442C 673.167,442.667 671.833,442.667 670.5,442C 669.271,440.471 667.771,439.304 666,438.5C 660.225,443.946 654.725,449.779 649.5,456C 641.939,462.447 633.272,466.781 623.5,469C 626.833,470.333 630.167,471.667 633.5,473C 643.188,482.222 642.521,490.888 631.5,499C 617.528,509.623 602.528,518.623 586.5,526C 566.672,535.707 545.672,540.874 523.5,541.5C 522.542,541.047 521.708,540.381 521,539.5C 520.881,536.005 519.715,533.005 517.5,530.5C 521.151,529.341 524.485,527.674 527.5,525.5C 528.791,525.737 529.791,525.404 530.5,524.5C 541.811,518.845 552.478,512.179 562.5,504.5C 573.013,496.082 584.013,488.415 595.5,481.5C 602.542,478.562 609.375,475.229 616,471.5C 624.51,445.13 634.676,419.463 646.5,394.5C 647.807,393.847 649.14,393.18 650.5,392.5C 652.246,394.854 654.579,395.854 657.5,395.5 Z"/></g>
<g><path style="opacity:1" fill="#a95e47" d="M 434.5,460.5 C 435.163,462.042 435.83,463.709 436.5,465.5C 440.729,467.411 442.729,470.744 442.5,475.5C 441.141,474.993 440.141,473.993 439.5,472.5C 438.614,473.325 438.281,474.325 438.5,475.5C 437.812,471.775 436.146,468.441 433.5,465.5C 434.038,463.883 434.371,462.216 434.5,460.5 Z"/></g>
<g><path style="opacity:1" fill="#efbfa0" d="M 386.5,463.5 C 390.47,466.639 393.97,470.305 397,474.5C 397.315,477.372 397.815,480.205 398.5,483C 398.361,484.301 397.695,485.134 396.5,485.5C 393.066,481.731 389.066,478.731 384.5,476.5C 383.489,472.888 383.322,469.221 384,465.5C 384.708,464.619 385.542,463.953 386.5,463.5 Z"/></g>
<g><path style="opacity:1" fill="#eea47d" d="M 476.5,408.5 C 478.545,410.984 481.212,411.984 484.5,411.5C 483.725,415.182 485.059,417.682 488.5,419C 485.753,422.447 486.087,425.614 489.5,428.5C 488.21,429.058 487.377,430.058 487,431.5C 483.375,442.665 480.375,453.998 478,465.5C 476.116,472.485 473.45,479.152 470,485.5C 467.106,488.361 463.939,490.861 460.5,493C 454.891,495.571 449.557,498.404 444.5,501.5C 444.032,498.058 445.198,495.391 448,493.5C 449.379,489.525 448.213,486.691 444.5,485C 446.155,483.556 446.822,481.722 446.5,479.5C 448.199,479.66 449.866,479.494 451.5,479C 456.053,475.275 459.719,470.775 462.5,465.5C 464.071,468.093 466.404,469.093 469.5,468.5C 469.5,467.5 469.5,466.5 469.5,465.5C 468.178,465.67 467.011,465.337 466,464.5C 465.322,462.098 465.822,459.932 467.5,458C 465.933,454.702 465.1,451.202 465,447.5C 461.414,444.459 457.247,442.626 452.5,442C 445.654,441.828 438.987,441.328 432.5,440.5C 433.5,440.167 434.167,439.5 434.5,438.5C 439.448,439.559 444.448,439.726 449.5,439C 463.186,433.138 472.186,422.972 476.5,408.5 Z"/></g>
<g><path style="opacity:1" fill="#5c3a29" d="M 381.5,485.5 C 381.357,487.262 381.691,488.929 382.5,490.5C 379.841,495.876 379.841,501.209 382.5,506.5C 382.253,507.713 381.586,508.38 380.5,508.5C 349.462,502.659 318.462,496.493 287.5,490C 285.509,489.626 283.842,488.793 282.5,487.5C 297.699,482.32 312.866,476.987 328,471.5C 345.759,476.616 363.593,481.283 381.5,485.5 Z"/></g>
<g><path style="opacity:1" fill="#c23130" d="M 679.5,448.5 C 679.78,460.921 680.28,473.588 681,486.5C 682.251,496.839 683.418,507.173 684.5,517.5C 683.728,516.306 682.728,515.306 681.5,514.5C 678.947,500.621 675.614,486.955 671.5,473.5C 673.72,464.932 676.386,456.598 679.5,448.5 Z"/></g>
<g><path style="opacity:1" fill="#eaa884" d="M 403.5,447.5 C 404.493,455.984 404.826,464.651 404.5,473.5C 398.693,472.632 398.027,474.466 402.5,479C 404.842,480.171 407.176,481.338 409.5,482.5C 408.167,484.833 406.833,487.167 405.5,489.5C 402.231,488.531 399.231,487.198 396.5,485.5C 397.695,485.134 398.361,484.301 398.5,483C 397.815,480.205 397.315,477.372 397,474.5C 393.97,470.305 390.47,466.639 386.5,463.5C 388.462,461.983 390.795,461.316 393.5,461.5C 396.841,461.836 400.175,462.169 403.5,462.5C 403.5,457.5 403.5,452.5 403.5,447.5 Z"/></g>
<g><path style="opacity:1" fill="#f4be9a" d="M 671.5,473.5 C 675.614,486.955 678.947,500.621 681.5,514.5C 662.763,531.369 641.097,542.702 616.5,548.5C 607.21,546.292 597.877,544.292 588.5,542.5C 602.996,537.592 617.33,532.092 631.5,526C 641.469,521.434 650.303,515.268 658,507.5C 662.417,496.072 666.917,484.739 671.5,473.5 Z"/></g>
<g><path style="opacity:1" fill="#9d4023" d="M 442.5,475.5 C 444.167,476.5 445.5,477.833 446.5,479.5C 446.822,481.722 446.155,483.556 444.5,485C 448.213,486.691 449.379,489.525 448,493.5C 445.198,495.391 444.032,498.058 444.5,501.5C 444.5,502.167 444.5,502.833 444.5,503.5C 441.167,506.167 437.833,506.167 434.5,503.5C 434.5,502.5 434.5,501.5 434.5,500.5C 435.302,499.048 435.802,497.382 436,495.5C 436.75,494.874 437.584,494.374 438.5,494C 438.285,488.959 438.285,483.792 438.5,478.5C 438.5,477.5 438.5,476.5 438.5,475.5C 438.281,474.325 438.614,473.325 439.5,472.5C 440.141,473.993 441.141,474.993 442.5,475.5 Z"/></g>
<g><path style="opacity:1" fill="#efa57d" d="M 438.5,478.5 C 438.285,483.792 438.285,488.959 438.5,494C 437.584,494.374 436.75,494.874 436,495.5C 435.802,497.382 435.302,499.048 434.5,500.5C 430.288,498.922 425.955,498.422 421.5,499C 415.946,504.276 416.279,509.109 422.5,513.5C 420.5,514.167 418.5,514.833 416.5,515.5C 414.5,515.5 412.5,515.5 410.5,515.5C 410.474,512.124 411.141,508.958 412.5,506C 412.13,504.104 411.963,502.271 412,500.5C 414.365,499.711 416.532,498.544 418.5,497C 424.045,491.95 429.711,487.117 435.5,482.5C 435.333,482.167 435.167,481.833 435,481.5C 432.958,483.604 430.458,484.771 427.5,485C 422.684,487.662 418.018,490.495 413.5,493.5C 418.098,488.236 423.098,483.236 428.5,478.5C 431.74,478.024 435.073,478.024 438.5,478.5 Z"/></g>
<g><path style="opacity:1" fill="#c12f30" d="M 683.5,432.5 C 685.062,432.733 686.395,433.4 687.5,434.5C 690.664,471.483 695.997,508.149 703.5,544.5C 701.901,544.232 700.568,544.566 699.5,545.5C 697.326,542.485 695.659,539.151 694.5,535.5C 688.715,505.338 684.048,475.005 680.5,444.5C 680.5,444.167 680.5,443.833 680.5,443.5C 680.833,442.167 681.167,440.833 681.5,439.5C 682.167,437.167 682.833,434.833 683.5,432.5 Z"/></g>
<g><path style="opacity:1" fill="#dfd1b7" d="M 282.5,487.5 C 283.842,488.793 285.509,489.626 287.5,490C 318.462,496.493 349.462,502.659 380.5,508.5C 381.209,509.404 382.209,509.737 383.5,509.5C 383.859,511.371 384.859,512.871 386.5,514C 391.89,516.519 397.556,517.686 403.5,517.5C 403.168,527.522 403.501,537.522 404.5,547.5C 405.107,547.376 405.44,547.043 405.5,546.5C 406.347,536.513 407.014,526.513 407.5,516.5C 408.391,515.89 409.391,515.557 410.5,515.5C 412.5,515.5 414.5,515.5 416.5,515.5C 428.726,518.159 441.06,520.826 453.5,523.5C 453.5,527.5 453.5,531.5 453.5,535.5C 450.505,535.294 447.838,535.96 445.5,537.5C 436.959,542.701 429.293,549.034 422.5,556.5C 420.143,556.663 417.81,556.497 415.5,556C 361.877,541.178 308.211,526.511 254.5,512C 252.006,510.968 249.672,509.802 247.5,508.5C 255.302,503.095 263.302,497.928 271.5,493C 272.738,492.31 272.738,491.81 271.5,491.5C 274.779,489.427 278.445,488.094 282.5,487.5 Z"/></g>
<g><path style="opacity:1" fill="#f2ba95" d="M 384.5,476.5 C 386.284,483.283 390.284,488.283 396.5,491.5C 396.975,494.082 396.308,496.082 394.5,497.5C 390.939,495.952 387.606,493.952 384.5,491.5C 383.959,493.523 384.459,495.523 386,497.5C 392.549,504.786 400.382,506.452 409.5,502.5C 410.223,506.137 408.556,508.137 404.5,508.5C 397.584,506.681 390.584,505.847 383.5,506C 387.233,508.635 391.233,510.802 395.5,512.5C 391.006,514.011 387.006,513.011 383.5,509.5C 382.209,509.737 381.209,509.404 380.5,508.5C 381.586,508.38 382.253,507.713 382.5,506.5C 379.841,501.209 379.841,495.876 382.5,490.5C 381.691,488.929 381.357,487.262 381.5,485.5C 381.337,483.143 381.503,480.81 382,478.5C 382.708,477.619 383.542,476.953 384.5,476.5 Z"/></g>
<g><path style="opacity:1" fill="#cd3d3e" d="M 680.5,444.5 C 684.048,475.005 688.715,505.338 694.5,535.5C 690.663,529.83 687.33,523.83 684.5,517.5C 683.418,507.173 682.251,496.839 681,486.5C 680.28,473.588 679.78,460.921 679.5,448.5C 679.232,446.901 679.566,445.568 680.5,444.5 Z"/></g>
<g><path style="opacity:1" fill="#f3be9a" d="M 434.5,500.5 C 434.5,501.5 434.5,502.5 434.5,503.5C 432.619,509.382 428.619,512.715 422.5,513.5C 416.279,509.109 415.946,504.276 421.5,499C 425.955,498.422 430.288,498.922 434.5,500.5 Z"/></g>
<g><path style="opacity:1" fill="#5c3b2a" d="M 271.5,491.5 C 272.738,491.81 272.738,492.31 271.5,493C 263.302,497.928 255.302,503.095 247.5,508.5C 246.226,509.189 246.226,510.023 247.5,511C 244.095,511.967 243.595,513.8 246,516.5C 246.499,520.152 246.665,523.818 246.5,527.5C 247.5,527.5 248.5,527.5 249.5,527.5C 249.215,529.288 249.548,530.955 250.5,532.5C 287.09,541.648 323.757,550.481 360.5,559C 336.569,561.558 312.569,563.058 288.5,563.5C 286.801,563.66 285.134,563.494 283.5,563C 286.833,562.667 290.167,562.333 293.5,562C 274.133,553.991 254.799,545.991 235.5,538C 211.893,535.479 188.227,533.646 164.5,532.5C 163.5,532.5 162.5,532.5 161.5,532.5C 161.5,532.167 161.5,531.833 161.5,531.5C 198.031,517.988 234.698,504.654 271.5,491.5 Z"/></g>
<g><path style="opacity:1" fill="#5b3a29" d="M 434.5,503.5 C 437.833,506.167 441.167,506.167 444.5,503.5C 453.51,505.504 462.51,507.504 471.5,509.5C 489.886,515.401 508.552,520.734 527.5,525.5C 524.485,527.674 521.151,529.341 517.5,530.5C 515.992,527.75 513.659,526.916 510.5,528C 509.594,529.699 509.261,531.533 509.5,533.5C 507.167,533.5 504.833,533.5 502.5,533.5C 488.451,533.201 474.451,533.535 460.5,534.5C 458.5,534.5 456.5,534.5 454.5,534.5C 454.815,530.629 454.482,526.962 453.5,523.5C 441.06,520.826 428.726,518.159 416.5,515.5C 418.5,514.833 420.5,514.167 422.5,513.5C 428.619,512.715 432.619,509.382 434.5,503.5 Z"/></g>
<g><path style="opacity:1" fill="#de9009" d="M 530.5,504.5 C 530.5,511.167 530.5,517.833 530.5,524.5C 529.791,525.404 528.791,525.737 527.5,525.5C 508.552,520.734 489.886,515.401 471.5,509.5C 490.985,505.85 510.652,504.183 530.5,504.5 Z"/></g>
<g><path style="opacity:1" fill="#bb7a63" d="M 413.5,493.5 C 418.018,490.495 422.684,487.662 427.5,485C 430.458,484.771 432.958,483.604 435,481.5C 435.167,481.833 435.333,482.167 435.5,482.5C 429.711,487.117 424.045,491.95 418.5,497C 416.532,498.544 414.365,499.711 412,500.5C 411.963,502.271 412.13,504.104 412.5,506C 411.141,508.958 410.474,512.124 410.5,515.5C 409.391,515.557 408.391,515.89 407.5,516.5C 406.5,516.167 405.833,515.5 405.5,514.5C 402.344,513.566 399.011,512.899 395.5,512.5C 391.233,510.802 387.233,508.635 383.5,506C 390.584,505.847 397.584,506.681 404.5,508.5C 408.556,508.137 410.223,506.137 409.5,502.5C 400.382,506.452 392.549,504.786 386,497.5C 384.459,495.523 383.959,493.523 384.5,491.5C 387.606,493.952 390.939,495.952 394.5,497.5C 395.263,498.268 396.263,498.768 397.5,499C 401.167,499.667 404.833,499.667 408.5,499C 407.133,496.699 406.466,494.199 406.5,491.5C 403.167,491.5 399.833,491.5 396.5,491.5C 390.284,488.283 386.284,483.283 384.5,476.5C 389.066,478.731 393.066,481.731 396.5,485.5C 399.231,487.198 402.231,488.531 405.5,489.5C 406.833,487.167 408.167,484.833 409.5,482.5C 407.176,481.338 404.842,480.171 402.5,479C 398.027,474.466 398.693,472.632 404.5,473.5C 406.972,474.909 409.305,476.576 411.5,478.5C 411.833,478.5 412.167,478.5 412.5,478.5C 415.167,476.5 417.5,474.167 419.5,471.5C 420.363,470.537 421.03,470.537 421.5,471.5C 418.564,476.944 415.398,482.277 412,487.5C 411.186,489.902 411.353,492.235 412.5,494.5C 413.107,494.376 413.44,494.043 413.5,493.5 Z"/></g>
<g><path style="opacity:1" fill="#eda47c" d="M 396.5,491.5 C 399.833,491.5 403.167,491.5 406.5,491.5C 406.466,494.199 407.133,496.699 408.5,499C 404.833,499.667 401.167,499.667 397.5,499C 396.263,498.768 395.263,498.268 394.5,497.5C 396.308,496.082 396.975,494.082 396.5,491.5 Z"/></g>
<g><path style="opacity:1" fill="#c4b49b" d="M 247.5,508.5 C 249.672,509.802 252.006,510.968 254.5,512C 308.211,526.511 361.877,541.178 415.5,556C 417.81,556.497 420.143,556.663 422.5,556.5C 420.833,558.833 418.833,560.833 416.5,562.5C 362.481,569.765 308.481,577.265 254.5,585C 252.804,586.176 251.138,587.343 249.5,588.5C 247.631,585.422 246.298,582.089 245.5,578.5C 245.433,577.041 245.766,575.708 246.5,574.5C 250.181,571.002 254.181,568.002 258.5,565.5C 268.704,565.646 278.704,564.979 288.5,563.5C 312.569,563.058 336.569,561.558 360.5,559C 323.757,550.481 287.09,541.648 250.5,532.5C 249.548,530.955 249.215,529.288 249.5,527.5C 248.5,527.5 247.5,527.5 246.5,527.5C 246.665,523.818 246.499,520.152 246,516.5C 243.595,513.8 244.095,511.967 247.5,511C 246.226,510.023 246.226,509.189 247.5,508.5 Z"/></g>
<g><path style="opacity:1" fill="#efa37a" d="M 383.5,509.5 C 387.006,513.011 391.006,514.011 395.5,512.5C 399.011,512.899 402.344,513.566 405.5,514.5C 404.596,515.209 404.263,516.209 404.5,517.5C 404.167,517.5 403.833,517.5 403.5,517.5C 397.556,517.686 391.89,516.519 386.5,514C 384.859,512.871 383.859,511.371 383.5,509.5 Z"/></g>
<g><path style="opacity:1" fill="#dc7919" d="M 405.5,514.5 C 405.833,515.5 406.5,516.167 407.5,516.5C 407.014,526.513 406.347,536.513 405.5,546.5C 404.506,537.014 404.173,527.348 404.5,517.5C 404.263,516.209 404.596,515.209 405.5,514.5 Z"/></g>
<g><path style="opacity:1" fill="#deb686" d="M 403.5,517.5 C 403.833,517.5 404.167,517.5 404.5,517.5C 404.173,527.348 404.506,537.014 405.5,546.5C 405.44,547.043 405.107,547.376 404.5,547.5C 403.501,537.522 403.168,527.522 403.5,517.5 Z"/></g>
<g><path style="opacity:1" fill="#a1826a" d="M 453.5,523.5 C 454.482,526.962 454.815,530.629 454.5,534.5C 456.5,534.5 458.5,534.5 460.5,534.5C 458.393,535.468 456.059,535.802 453.5,535.5C 453.5,531.5 453.5,527.5 453.5,523.5 Z"/></g>
<g><path style="opacity:1" fill="#835440" d="M 161.5,532.5 C 162.5,532.5 163.5,532.5 164.5,532.5C 195.408,544.25 226.742,555.25 258.5,565.5C 254.181,568.002 250.181,571.002 246.5,574.5C 218.072,562.955 189.405,551.955 160.5,541.5C 160.19,538.287 160.523,535.287 161.5,532.5 Z"/></g>
<g><path style="opacity:1" fill="#9b3f22" d="M 517.5,530.5 C 519.715,533.005 520.881,536.005 521,539.5C 521.708,540.381 522.542,541.047 523.5,541.5C 523.579,542.93 523.246,544.264 522.5,545.5C 523.711,546.874 524.711,548.374 525.5,550C 525.43,550.765 525.097,551.265 524.5,551.5C 522.486,551.392 520.82,552.058 519.5,553.5C 517.281,551.935 516.948,549.935 518.5,547.5C 516.06,545.891 514.893,543.557 515,540.5C 513.428,537.893 511.594,535.559 509.5,533.5C 509.261,531.533 509.594,529.699 510.5,528C 513.659,526.916 515.992,527.75 517.5,530.5 Z"/></g>
<g><path style="opacity:1" fill="#f4be9a" d="M 502.5,533.5 C 503.698,537.098 504.698,540.764 505.5,544.5C 505.61,546.374 504.944,547.874 503.5,549C 492.199,554.995 480.199,557.995 467.5,558C 460.447,553.403 454.614,547.57 450,540.5C 448.871,538.859 447.371,537.859 445.5,537.5C 447.838,535.96 450.505,535.294 453.5,535.5C 456.059,535.802 458.393,535.468 460.5,534.5C 474.451,533.535 488.451,533.201 502.5,533.5 Z"/></g>
<g><path style="opacity:1" fill="#704b38" d="M 164.5,532.5 C 188.227,533.646 211.893,535.479 235.5,538C 254.799,545.991 274.133,553.991 293.5,562C 290.167,562.333 286.833,562.667 283.5,563C 285.134,563.494 286.801,563.66 288.5,563.5C 278.704,564.979 268.704,565.646 258.5,565.5C 226.742,555.25 195.408,544.25 164.5,532.5 Z"/></g>
<g><path style="opacity:1" fill="#5b3c2b" d="M 588.5,542.5 C 597.877,544.292 607.21,546.292 616.5,548.5C 620.319,550.128 624.319,551.461 628.5,552.5C 629.092,555.127 629.425,557.794 629.5,560.5C 629.5,561.833 628.833,562.5 627.5,562.5C 627.53,561.503 627.03,560.836 626,560.5C 624.026,562.372 621.859,562.705 619.5,561.5C 621.933,559.946 624.6,559.28 627.5,559.5C 626.816,554.15 623.816,552.316 618.5,554C 615.42,556.645 614.753,559.812 616.5,563.5C 615.432,564.434 614.099,564.768 612.5,564.5C 612.692,561.399 613.358,558.399 614.5,555.5C 613.349,554.269 612.183,554.269 611,555.5C 610.801,561.961 609.301,562.627 606.5,557.5C 605.277,556.386 603.944,556.219 602.5,557C 604.426,560.076 606.092,563.242 607.5,566.5C 605.833,566.5 604.167,566.5 602.5,566.5C 602.384,563.14 602.051,559.807 601.5,556.5C 600.167,556.5 598.833,556.5 597.5,556.5C 598.058,559.344 598.725,562.178 599.5,565C 599.316,566.376 598.649,567.209 597.5,567.5C 592.655,565.233 592.321,562.233 596.5,558.5C 595.311,557.571 593.978,557.238 592.5,557.5C 592.649,556.448 592.483,555.448 592,554.5C 590.25,556.734 588.75,559.068 587.5,561.5C 586.596,560.791 586.263,559.791 586.5,558.5C 582.115,558.522 578.282,559.855 575,562.5C 574.109,565.498 574.609,568.164 576.5,570.5C 576.083,571.124 575.416,571.457 574.5,571.5C 573.259,570.963 572.092,570.296 571,569.5C 569.118,570.606 567.284,570.606 565.5,569.5C 568.06,568.253 570.727,567.253 573.5,566.5C 571.073,561.148 567.407,560.148 562.5,563.5C 560.963,567.063 561.296,570.397 563.5,573.5C 561.604,574.466 559.604,574.799 557.5,574.5C 557.489,572.453 557.156,570.453 556.5,568.5C 556.925,566.62 557.925,565.12 559.5,564C 559.167,563.5 558.833,563 558.5,562.5C 557.065,564.401 555.398,564.734 553.5,563.5C 553.412,567.38 553.246,571.38 553,575.5C 551.644,576.38 550.144,576.714 548.5,576.5C 549.74,575.027 550.74,573.36 551.5,571.5C 550.833,571.167 550.167,570.833 549.5,570.5C 547.82,572.009 545.986,573.343 544,574.5C 539.24,572.367 538.407,569.2 541.5,565C 544.076,564.394 546.41,564.894 548.5,566.5C 550.872,565.637 550.872,564.471 548.5,563C 541.719,559.892 537.386,561.892 535.5,569C 536.137,572.463 537.803,575.296 540.5,577.5C 537.904,578.265 535.237,578.599 532.5,578.5C 528.487,574.485 524.821,570.152 521.5,565.5C 521.238,564.022 521.571,562.689 522.5,561.5C 523.735,560.66 524.735,559.66 525.5,558.5C 546.606,553.64 567.606,548.307 588.5,542.5 Z"/></g>
<g><path style="opacity:1" fill="#d99e35" d="M 642.5,555.5 C 639.572,555.435 636.905,554.768 634.5,553.5C 635.5,553.5 636.5,553.5 637.5,553.5C 637.338,551.473 637.505,549.473 638,547.5C 639,546.167 640,546.167 641,547.5C 641.272,550.254 641.772,552.921 642.5,555.5 Z"/></g>
<g><path style="opacity:1" fill="#e6a200" d="M 699.5,546.5 C 704.833,546.5 710.167,546.5 715.5,546.5C 718.907,548.074 722.573,549.074 726.5,549.5C 733.83,551.997 740.83,555.33 747.5,559.5C 766.127,573.409 776.461,592.075 778.5,615.5C 777.71,614.391 777.21,613.058 777,611.5C 744.776,629.962 710.276,636.462 673.5,631C 654.618,625.418 647.451,612.918 652,593.5C 656.468,582.078 663.301,572.244 672.5,564C 680.596,556.731 689.596,550.898 699.5,546.5 Z"/></g>
<g><path style="opacity:1" fill="#efa57d" d="M 502.5,533.5 C 504.833,533.5 507.167,533.5 509.5,533.5C 511.594,535.559 513.428,537.893 515,540.5C 514.893,543.557 516.06,545.891 518.5,547.5C 516.948,549.935 517.281,551.935 519.5,553.5C 518.462,556.919 516.462,559.586 513.5,561.5C 513.167,562.167 512.833,562.833 512.5,563.5C 507.21,567.31 501.544,570.31 495.5,572.5C 483.07,573.73 470.737,575.563 458.5,578C 450.617,582.877 443.617,588.877 437.5,596C 435.323,597.202 432.989,597.702 430.5,597.5C 430.343,596.127 430.51,594.793 431,593.5C 432.853,591.097 434.686,588.764 436.5,586.5C 440.733,589.005 444.233,588.005 447,583.5C 449.491,580.681 451.324,577.514 452.5,574C 452.316,572.624 451.649,571.791 450.5,571.5C 453.971,568.86 456.971,565.694 459.5,562C 457.833,561.333 456.167,561.333 454.5,562C 452.609,563.442 450.609,564.609 448.5,565.5C 446.473,564.139 444.806,562.473 443.5,560.5C 445.127,558.37 446.96,556.37 449,554.5C 449.667,553.833 449.667,553.167 449,552.5C 446.386,554.556 443.553,556.223 440.5,557.5C 438.5,556.167 436.833,554.5 435.5,552.5C 436.117,550.771 437.117,549.271 438.5,548C 437.833,547.333 437.167,547.333 436.5,548C 428.415,553.25 421.082,559.416 414.5,566.5C 414.733,564.938 415.4,563.605 416.5,562.5C 418.833,560.833 420.833,558.833 422.5,556.5C 429.293,549.034 436.959,542.701 445.5,537.5C 447.371,537.859 448.871,538.859 450,540.5C 454.614,547.57 460.447,553.403 467.5,558C 480.199,557.995 492.199,554.995 503.5,549C 504.944,547.874 505.61,546.374 505.5,544.5C 504.698,540.764 503.698,537.098 502.5,533.5 Z"/></g>
<g><path style="opacity:1" fill="#5b3a29" d="M 245.5,578.5 C 246.298,582.089 247.631,585.422 249.5,588.5C 247.525,590.137 245.525,591.804 243.5,593.5C 219.238,584.531 194.905,575.864 170.5,567.5C 170.824,574.354 170.491,581.021 169.5,587.5C 169.5,580.5 169.5,573.5 169.5,566.5C 169.172,561.125 169.505,555.792 170.5,550.5C 195.551,559.848 220.551,569.182 245.5,578.5 Z"/></g>
<g><path style="opacity:1" fill="#e8b092" d="M 513.5,561.5 C 510.351,561.789 507.351,561.289 504.5,560C 502.957,558.122 501.124,556.622 499,555.5C 498.333,554.833 498.333,554.167 499,553.5C 507.801,548.653 512.635,551.32 513.5,561.5 Z"/></g>
<g><path style="opacity:1" fill="#785f51" d="M 627.5,562.5 C 624.107,566.011 620.441,566.344 616.5,563.5C 614.753,559.812 615.42,556.645 618.5,554C 623.816,552.316 626.816,554.15 627.5,559.5C 624.6,559.28 621.933,559.946 619.5,561.5C 621.859,562.705 624.026,562.372 626,560.5C 627.03,560.836 627.53,561.503 627.5,562.5 Z"/></g>
<g><path style="opacity:1" fill="#dc9d2d" d="M 651.5,561.5 C 651.737,560.209 651.404,559.209 650.5,558.5C 648.039,557.469 645.373,556.802 642.5,556.5C 642.5,556.167 642.5,555.833 642.5,555.5C 643.783,553.132 645.45,550.965 647.5,549C 650.644,549.095 653.644,548.928 656.5,548.5C 657.272,552.452 657.605,556.452 657.5,560.5C 655.379,560.325 653.379,560.659 651.5,561.5 Z"/></g>
<g><path style="opacity:1" fill="#714432" d="M 161.5,531.5 C 161.5,531.833 161.5,532.167 161.5,532.5C 160.523,535.287 160.19,538.287 160.5,541.5C 189.405,551.955 218.072,562.955 246.5,574.5C 245.766,575.708 245.433,577.041 245.5,578.5C 220.551,569.182 195.551,559.848 170.5,550.5C 169.505,555.792 169.172,561.125 169.5,566.5C 168.833,560.986 168.167,555.319 167.5,549.5C 164.943,548.593 162.443,547.593 160,546.5C 159.833,544 159.667,541.5 159.5,539C 159.525,536.071 160.191,533.571 161.5,531.5 Z"/></g>
<g><path style="opacity:1" fill="#785f51" d="M 612.5,564.5 C 611.83,567.503 610.163,568.17 607.5,566.5C 606.092,563.242 604.426,560.076 602.5,557C 603.944,556.219 605.277,556.386 606.5,557.5C 609.301,562.627 610.801,561.961 611,555.5C 612.183,554.269 613.349,554.269 614.5,555.5C 613.358,558.399 612.692,561.399 612.5,564.5 Z"/></g>
<g><path style="opacity:1" fill="#7a6055" d="M 628.5,552.5 C 630.5,552.833 632.5,553.167 634.5,553.5C 636.905,554.768 639.572,555.435 642.5,555.5C 642.5,555.833 642.5,556.167 642.5,556.5C 642.833,558.5 643.167,560.5 643.5,562.5C 639.648,562.511 637.815,560.511 638,556.5C 636.644,557.38 635.144,557.714 633.5,557.5C 633.357,559.262 633.691,560.929 634.5,562.5C 633.68,564.111 632.346,564.778 630.5,564.5C 630.768,562.901 630.434,561.568 629.5,560.5C 629.425,557.794 629.092,555.127 628.5,552.5 Z"/></g>
<g><path style="opacity:1" fill="#785f51" d="M 597.5,567.5 C 597.209,568.649 596.376,569.316 595,569.5C 591.669,568.55 590.002,566.217 590,562.5C 589.329,561.748 588.496,561.414 587.5,561.5C 588.75,559.068 590.25,556.734 592,554.5C 592.483,555.448 592.649,556.448 592.5,557.5C 593.978,557.238 595.311,557.571 596.5,558.5C 592.321,562.233 592.655,565.233 597.5,567.5 Z"/></g>
<g><path style="opacity:1" fill="#786052" d="M 587.5,561.5 C 587.5,564.5 587.5,567.5 587.5,570.5C 583.771,571.521 580.104,571.521 576.5,570.5C 574.609,568.164 574.109,565.498 575,562.5C 578.282,559.855 582.115,558.522 586.5,558.5C 586.263,559.791 586.596,560.791 587.5,561.5 Z"/></g>
<g><path style="opacity:1" fill="#775f51" d="M 548.5,576.5 C 545.904,577.265 543.237,577.599 540.5,577.5C 537.803,575.296 536.137,572.463 535.5,569C 537.386,561.892 541.719,559.892 548.5,563C 550.872,564.471 550.872,565.637 548.5,566.5C 546.41,564.894 544.076,564.394 541.5,565C 538.407,569.2 539.24,572.367 544,574.5C 545.986,573.343 547.82,572.009 549.5,570.5C 550.167,570.833 550.833,571.167 551.5,571.5C 550.74,573.36 549.74,575.027 548.5,576.5 Z"/></g>
<g><path style="opacity:1" fill="#a55e49" d="M 524.5,551.5 C 524.586,552.496 524.252,553.329 523.5,554C 524.582,555.33 525.249,556.83 525.5,558.5C 524.735,559.66 523.735,560.66 522.5,561.5C 521.571,562.689 521.238,564.022 521.5,565.5C 518.833,568.167 516.167,568.167 513.5,565.5C 513.672,564.508 513.338,563.842 512.5,563.5C 512.833,562.833 513.167,562.167 513.5,561.5C 516.462,559.586 518.462,556.919 519.5,553.5C 520.82,552.058 522.486,551.392 524.5,551.5 Z"/></g>
<g><path style="opacity:1" fill="#f4be9a" d="M 435.5,552.5 C 436.833,554.5 438.5,556.167 440.5,557.5C 428.26,565.906 418.26,576.406 410.5,589C 411.167,589.667 411.833,589.667 412.5,589C 422.703,579.294 433.037,569.794 443.5,560.5C 444.806,562.473 446.473,564.139 448.5,565.5C 445.598,568.237 443.265,571.404 441.5,575C 441.833,575.5 442.167,576 442.5,576.5C 445.531,575.323 448.198,573.656 450.5,571.5C 451.649,571.791 452.316,572.624 452.5,574C 451.324,577.514 449.491,580.681 447,583.5C 444.233,588.005 440.733,589.005 436.5,586.5C 437.172,583.658 438.506,581.158 440.5,579C 440.167,578.833 439.833,578.667 439.5,578.5C 433.243,583.587 426.576,588.087 419.5,592C 416.208,592.936 413.208,592.436 410.5,590.5C 408.253,591.374 405.92,591.708 403.5,591.5C 403.415,588.351 404.415,585.684 406.5,583.5C 415.8,572.865 425.467,562.532 435.5,552.5 Z"/></g>
<g><path style="opacity:1" fill="#6f4b38" d="M 607.5,566.5 C 610.163,568.17 611.83,567.503 612.5,564.5C 614.099,564.768 615.432,564.434 616.5,563.5C 620.441,566.344 624.107,566.011 627.5,562.5C 628.833,562.5 629.5,561.833 629.5,560.5C 630.434,561.568 630.768,562.901 630.5,564.5C 632.346,564.778 633.68,564.111 634.5,562.5C 633.691,560.929 633.357,559.262 633.5,557.5C 635.144,557.714 636.644,557.38 638,556.5C 637.815,560.511 639.648,562.511 643.5,562.5C 643.167,560.5 642.833,558.5 642.5,556.5C 645.373,556.802 648.039,557.469 650.5,558.5C 650.079,562.2 649.412,565.867 648.5,569.5C 646.879,567.376 645.046,565.376 643,563.5C 609.144,585.367 575.311,607.2 541.5,629C 529.466,636.72 517.8,644.887 506.5,653.5C 464.724,638.687 423.057,623.687 381.5,608.5C 389.471,607.677 397.471,607.344 405.5,607.5C 414.551,611.907 424.051,615.241 434,617.5C 456.461,615.364 478.961,613.698 501.5,612.5C 503.376,604.874 505.042,597.208 506.5,589.5C 509.706,582.399 513.206,575.399 517,568.5C 522.533,573.698 527.7,579.198 532.5,585C 533.635,585.749 534.635,585.583 535.5,584.5C 534.441,582.466 533.441,580.466 532.5,578.5C 535.237,578.599 537.904,578.265 540.5,577.5C 543.237,577.599 545.904,577.265 548.5,576.5C 550.144,576.714 551.644,576.38 553,575.5C 553.246,571.38 553.412,567.38 553.5,563.5C 555.398,564.734 557.065,564.401 558.5,562.5C 558.833,563 559.167,563.5 559.5,564C 557.925,565.12 556.925,566.62 556.5,568.5C 557.156,570.453 557.489,572.453 557.5,574.5C 559.604,574.799 561.604,574.466 563.5,573.5C 561.296,570.397 560.963,567.063 562.5,563.5C 567.407,560.148 571.073,561.148 573.5,566.5C 570.727,567.253 568.06,568.253 565.5,569.5C 567.284,570.606 569.118,570.606 571,569.5C 572.092,570.296 573.259,570.963 574.5,571.5C 575.416,571.457 576.083,571.124 576.5,570.5C 580.104,571.521 583.771,571.521 587.5,570.5C 587.5,567.5 587.5,564.5 587.5,561.5C 588.496,561.414 589.329,561.748 590,562.5C 590.002,566.217 591.669,568.55 595,569.5C 596.376,569.316 597.209,568.649 597.5,567.5C 598.649,567.209 599.316,566.376 599.5,565C 598.725,562.178 598.058,559.344 597.5,556.5C 598.833,556.5 600.167,556.5 601.5,556.5C 602.051,559.807 602.384,563.14 602.5,566.5C 604.167,566.5 605.833,566.5 607.5,566.5 Z"/></g>
<g><path style="opacity:1" fill="#5c3d2c" d="M 578.5,562.5 C 583.159,562.015 584.492,563.848 582.5,568C 577.728,568.81 576.395,566.977 578.5,562.5 Z"/></g>
<g><path style="opacity:1" fill="#ba7962" d="M 443.5,560.5 C 433.037,569.794 422.703,579.294 412.5,589C 411.833,589.667 411.167,589.667 410.5,589C 418.26,576.406 428.26,565.906 440.5,557.5C 443.553,556.223 446.386,554.556 449,552.5C 449.667,553.167 449.667,553.833 449,554.5C 446.96,556.37 445.127,558.37 443.5,560.5 Z"/></g>
<g><path style="opacity:1" fill="#ded0b6" d="M 416.5,562.5 C 415.4,563.605 414.733,564.938 414.5,566.5C 411.051,571.735 408.384,577.402 406.5,583.5C 404.415,585.684 403.415,588.351 403.5,591.5C 405.92,591.708 408.253,591.374 410.5,590.5C 413.208,592.436 416.208,592.936 419.5,592C 426.576,588.087 433.243,583.587 439.5,578.5C 439.833,578.667 440.167,578.833 440.5,579C 438.506,581.158 437.172,583.658 436.5,586.5C 434.686,588.764 432.853,591.097 431,593.5C 430.51,594.793 430.343,596.127 430.5,597.5C 432.989,597.702 435.323,597.202 437.5,596C 443.617,588.877 450.617,582.877 458.5,578C 470.737,575.563 483.07,573.73 495.5,572.5C 497.017,580.575 496.517,588.575 494,596.5C 493.535,597.931 492.701,599.097 491.5,600C 462.876,603.08 434.209,605.58 405.5,607.5C 397.471,607.344 389.471,607.677 381.5,608.5C 370.986,609.864 360.652,611.531 350.5,613.5C 348.585,613.216 346.919,613.549 345.5,614.5C 334.118,615.876 322.785,617.542 311.5,619.5C 295.878,621.33 280.211,622.163 264.5,622C 259.405,619.394 254.738,616.228 250.5,612.5C 247.31,608.119 244.644,603.452 242.5,598.5C 242.366,596.708 242.699,595.042 243.5,593.5C 245.525,591.804 247.525,590.137 249.5,588.5C 251.138,587.343 252.804,586.176 254.5,585C 308.481,577.265 362.481,569.765 416.5,562.5 Z"/></g>
<g><path style="opacity:1" fill="#bb7a63" d="M 450.5,571.5 C 448.198,573.656 445.531,575.323 442.5,576.5C 442.167,576 441.833,575.5 441.5,575C 443.265,571.404 445.598,568.237 448.5,565.5C 450.609,564.609 452.609,563.442 454.5,562C 456.167,561.333 457.833,561.333 459.5,562C 456.971,565.694 453.971,568.86 450.5,571.5 Z"/></g>
<g><path style="opacity:1" fill="#796053" d="M 513.5,565.5 C 516.167,568.167 518.833,568.167 521.5,565.5C 524.821,570.152 528.487,574.485 532.5,578.5C 533.441,580.466 534.441,582.466 535.5,584.5C 534.635,585.583 533.635,585.749 532.5,585C 527.7,579.198 522.533,573.698 517,568.5C 513.206,575.399 509.706,582.399 506.5,589.5C 505.351,589.209 504.684,588.376 504.5,587C 506.449,579.299 509.449,572.133 513.5,565.5 Z"/></g>
<g><path style="opacity:1" fill="#ba7862" d="M 435.5,552.5 C 425.467,562.532 415.8,572.865 406.5,583.5C 408.384,577.402 411.051,571.735 414.5,566.5C 421.082,559.416 428.415,553.25 436.5,548C 437.167,547.333 437.833,547.333 438.5,548C 437.117,549.271 436.117,550.771 435.5,552.5 Z"/></g>
<g><path style="opacity:1" fill="#6f4b38" d="M 243.5,593.5 C 242.699,595.042 242.366,596.708 242.5,598.5C 237.069,607.361 232.735,616.694 229.5,626.5C 211.288,620.928 193.455,614.262 176,606.5C 175.832,634.003 175.332,661.336 174.5,688.5C 174.5,674.5 174.5,660.5 174.5,646.5C 174.833,633.15 174.499,619.817 173.5,606.5C 172.252,605.96 171.085,605.293 170,604.5C 169.501,598.843 169.334,593.176 169.5,587.5C 170.491,581.021 170.824,574.354 170.5,567.5C 194.905,575.864 219.238,584.531 243.5,593.5 Z"/></g>
<g><path style="opacity:1" fill="#5c3b2a" d="M 512.5,563.5 C 513.338,563.842 513.672,564.508 513.5,565.5C 509.449,572.133 506.449,579.299 504.5,587C 504.684,588.376 505.351,589.209 506.5,589.5C 505.042,597.208 503.376,604.874 501.5,612.5C 478.961,613.698 456.461,615.364 434,617.5C 424.051,615.241 414.551,611.907 405.5,607.5C 434.209,605.58 462.876,603.08 491.5,600C 492.701,599.097 493.535,597.931 494,596.5C 496.517,588.575 497.017,580.575 495.5,572.5C 501.544,570.31 507.21,567.31 512.5,563.5 Z"/></g>
<g><path style="opacity:1" fill="#714431" d="M 650.5,558.5 C 651.404,559.209 651.737,560.209 651.5,561.5C 651.665,565.182 651.499,568.848 651,572.5C 648.146,574.598 645.479,576.931 643,579.5C 642.5,586.492 642.334,593.492 642.5,600.5C 641.671,593.679 641.171,586.679 641,579.5C 638.349,582.43 635.516,585.264 632.5,588C 594.285,618.39 555.951,648.556 517.5,678.5C 463.777,659.153 410.11,639.653 356.5,620C 352.741,618.121 349.075,616.287 345.5,614.5C 346.919,613.549 348.585,613.216 350.5,613.5C 355.775,614.865 361.109,616.365 366.5,618C 415.519,637.175 464.853,655.675 514.5,673.5C 512.391,666.614 509.724,659.948 506.5,653.5C 517.8,644.887 529.466,636.72 541.5,629C 575.311,607.2 609.144,585.367 643,563.5C 645.046,565.376 646.879,567.376 648.5,569.5C 649.412,565.867 650.079,562.2 650.5,558.5 Z"/></g>
<g><path style="opacity:1" fill="#7d6355" d="M 517.5,574.5 C 520.964,577.462 524.297,580.629 527.5,584C 524.144,584.357 521.311,583.191 519,580.5C 517.691,582.976 515.858,584.976 513.5,586.5C 513.167,586 512.833,585.5 512.5,585C 514.058,581.387 515.725,577.887 517.5,574.5 Z"/></g>
<g><path style="opacity:1" fill="#5b3b2a" d="M 642.5,600.5 C 643.261,612.828 643.427,625.161 643,637.5C 641.846,638.743 640.512,639.743 639,640.5C 639.296,663.685 640.463,686.685 642.5,709.5C 642.666,713.846 642.499,718.179 642,722.5C 614.259,748.079 586.093,773.079 557.5,797.5C 558.211,794.445 559.877,791.445 562.5,788.5C 560.55,786.247 558.216,785.914 555.5,787.5C 550.818,793.864 547.484,800.864 545.5,808.5C 535.49,817.677 525.323,826.677 515,835.5C 437.571,803.195 360.404,770.528 283.5,737.5C 285.529,735.879 287.696,735.212 290,735.5C 289.71,732.587 289.543,729.587 289.5,726.5C 288.596,725.791 288.263,724.791 288.5,723.5C 285.124,723.952 281.791,724.618 278.5,725.5C 277.808,726.025 277.308,726.692 277,727.5C 276.731,730.127 276.564,732.46 276.5,734.5C 275.508,734.672 274.842,734.338 274.5,733.5C 274.276,729.821 273.942,726.154 273.5,722.5C 272.167,722.5 270.833,722.5 269.5,722.5C 270.315,726.833 268.648,729.166 264.5,729.5C 235.074,717.622 205.74,705.455 176.5,693C 174.893,691.951 174.227,690.451 174.5,688.5C 175.332,661.336 175.832,634.003 176,606.5C 193.455,614.262 211.288,620.928 229.5,626.5C 229.579,627.93 229.246,629.264 228.5,630.5C 230.24,631.809 231.573,631.476 232.5,629.5C 234.854,629.838 237.187,630.338 239.5,631C 299.284,654.318 359.284,677.152 419.5,699.5C 417.075,705.361 414.909,711.361 413,717.5C 412.163,719.821 411.83,722.155 412,724.5C 413,723.833 414,723.167 415,722.5C 417.129,715.574 420.296,709.241 424.5,703.5C 430.018,708.184 435.018,713.351 439.5,719C 440.635,719.749 441.635,719.583 442.5,718.5C 440.406,714.636 438.072,710.969 435.5,707.5C 435.56,706.957 435.893,706.624 436.5,706.5C 439.45,707.705 442.45,708.705 445.5,709.5C 447.297,710.73 449.297,711.396 451.5,711.5C 473.366,720.348 495.366,729.014 517.5,737.5C 518.832,723.855 519.832,710.188 520.5,696.5C 521.265,693.904 521.599,691.237 521.5,688.5C 520.5,688.5 519.5,688.5 518.5,688.5C 518.466,697.757 516.8,698.424 513.5,690.5C 449.35,667.5 385.016,644.333 320.5,621C 317.305,620.819 314.305,620.319 311.5,619.5C 322.785,617.542 334.118,615.876 345.5,614.5C 349.075,616.287 352.741,618.121 356.5,620C 410.11,639.653 463.777,659.153 517.5,678.5C 555.951,648.556 594.285,618.39 632.5,588C 635.516,585.264 638.349,582.43 641,579.5C 641.171,586.679 641.671,593.679 642.5,600.5 Z"/></g>
<g><path style="opacity:1" fill="#886b5d" d="M 227.5,592.5 C 234.503,592.339 238.003,595.672 238,602.5C 231.903,603.542 227.07,601.375 223.5,596C 224.686,594.588 226.019,593.421 227.5,592.5 Z"/></g>
<g><path style="opacity:1" fill="#866a5c" d="M 242.5,598.5 C 244.644,603.452 247.31,608.119 250.5,612.5C 254.171,616.852 257.505,621.519 260.5,626.5C 259.635,627.583 258.635,627.749 257.5,627C 252.7,621.198 247.533,615.698 242,610.5C 238.293,616.581 235.126,622.914 232.5,629.5C 231.573,631.476 230.24,631.809 228.5,630.5C 229.246,629.264 229.579,627.93 229.5,626.5C 232.735,616.694 237.069,607.361 242.5,598.5 Z"/></g>
<g><path style="opacity:1" fill="#df9002" d="M 681.5,514.5 C 682.728,515.306 683.728,516.306 684.5,517.5C 687.33,523.83 690.663,529.83 694.5,535.5C 695.659,539.151 697.326,542.485 699.5,545.5C 699.5,545.833 699.5,546.167 699.5,546.5C 689.596,550.898 680.596,556.731 672.5,564C 663.301,572.244 656.468,582.078 652,593.5C 647.451,612.918 654.618,625.418 673.5,631C 710.276,636.462 744.776,629.962 777,611.5C 777.21,613.058 777.71,614.391 778.5,615.5C 779.083,625.361 778.083,635.028 775.5,644.5C 773.928,647.318 772.594,650.318 771.5,653.5C 770.833,654.167 770.167,654.833 769.5,655.5C 769.029,654.099 768.362,652.766 767.5,651.5C 764.071,651.907 760.905,652.907 758,654.5C 756.071,660.107 757.905,663.44 763.5,664.5C 761.706,666.797 759.706,668.963 757.5,671C 754.113,674.053 750.447,676.72 746.5,679C 745.262,679.69 745.262,680.19 746.5,680.5C 741.561,682.97 736.561,685.47 731.5,688C 730.565,690.381 730.232,692.881 730.5,695.5C 729.835,693.631 729.169,691.631 728.5,689.5C 722.926,692.122 717.259,694.456 711.5,696.5C 689.151,704.075 666.151,708.409 642.5,709.5C 640.463,686.685 639.296,663.685 639,640.5C 640.512,639.743 641.846,638.743 643,637.5C 643.427,625.161 643.261,612.828 642.5,600.5C 642.334,593.492 642.5,586.492 643,579.5C 645.479,576.931 648.146,574.598 651,572.5C 651.499,568.848 651.665,565.182 651.5,561.5C 653.379,560.659 655.379,560.325 657.5,560.5C 657.605,556.452 657.272,552.452 656.5,548.5C 653.644,548.928 650.644,549.095 647.5,549C 645.45,550.965 643.783,553.132 642.5,555.5C 641.772,552.921 641.272,550.254 641,547.5C 640,546.167 639,546.167 638,547.5C 637.505,549.473 637.338,551.473 637.5,553.5C 636.5,553.5 635.5,553.5 634.5,553.5C 632.5,553.167 630.5,552.833 628.5,552.5C 624.319,551.461 620.319,550.128 616.5,548.5C 641.097,542.702 662.763,531.369 681.5,514.5 Z"/></g>
<g><path style="opacity:1" fill="#dca133" d="M 670.5,542.5 C 671.404,543.209 671.737,544.209 671.5,545.5C 672.833,545.5 674.167,545.5 675.5,545.5C 675.5,546.5 675.5,547.5 675.5,548.5C 674.325,548.281 673.325,548.614 672.5,549.5C 673.309,551.071 673.643,552.738 673.5,554.5C 674.5,554.5 675.5,554.5 676.5,554.5C 676.5,555.5 676.5,556.5 676.5,557.5C 670.671,558 668.337,555.334 669.5,549.5C 667.5,549.5 665.5,549.5 663.5,549.5C 662.599,553.241 663.932,555.241 667.5,555.5C 667.5,556.5 667.5,557.5 667.5,558.5C 665.473,558.662 663.473,558.495 661.5,558C 660.838,554.853 659.505,552.019 657.5,549.5C 658.604,547.611 659.937,545.945 661.5,544.5C 663.13,545.898 664.964,546.898 667,547.5C 668.176,545.804 669.343,544.138 670.5,542.5 Z"/></g>
<g><path style="opacity:1" fill="#835440" d="M 381.5,608.5 C 423.057,623.687 464.724,638.687 506.5,653.5C 509.724,659.948 512.391,666.614 514.5,673.5C 464.853,655.675 415.519,637.175 366.5,618C 361.109,616.365 355.775,614.865 350.5,613.5C 360.652,611.531 370.986,609.864 381.5,608.5 Z"/></g>
<g><path style="opacity:1" fill="#704b38" d="M 250.5,612.5 C 254.738,616.228 259.405,619.394 264.5,622C 280.211,622.163 295.878,621.33 311.5,619.5C 314.305,620.319 317.305,620.819 320.5,621C 385.016,644.333 449.35,667.5 513.5,690.5C 512.5,690.5 511.5,690.5 510.5,690.5C 511.629,694.755 513.796,698.422 517,701.5C 517.772,701.355 518.439,701.022 519,700.5C 519.21,698.942 519.71,697.609 520.5,696.5C 519.832,710.188 518.832,723.855 517.5,737.5C 495.366,729.014 473.366,720.348 451.5,711.5C 455.5,710.833 457.833,708.5 458.5,704.5C 455.886,704.277 454.219,705.444 453.5,708C 446.167,707.667 444.833,704.667 449.5,699C 452.437,699.623 455.437,699.957 458.5,700C 453.742,694.336 448.908,694.17 444,699.5C 443.037,703.149 443.537,706.482 445.5,709.5C 442.45,708.705 439.45,707.705 436.5,706.5C 435.893,706.624 435.56,706.957 435.5,707.5C 432.684,704.513 430.018,701.346 427.5,698C 429.261,694.569 431.428,691.403 434,688.5C 434.617,687.551 434.451,686.718 433.5,686C 431.432,685.313 429.432,685.48 427.5,686.5C 424.557,690.73 421.891,695.063 419.5,699.5C 359.284,677.152 299.284,654.318 239.5,631C 237.187,630.338 234.854,629.838 232.5,629.5C 235.126,622.914 238.293,616.581 242,610.5C 247.533,615.698 252.7,621.198 257.5,627C 258.635,627.749 259.635,627.583 260.5,626.5C 257.505,621.519 254.171,616.852 250.5,612.5 Z"/></g>
<g><path style="opacity:1" fill="#876a5c" d="M 242.5,616.5 C 245.812,619.146 248.812,622.146 251.5,625.5C 250.635,626.583 249.635,626.749 248.5,626C 247.183,624.341 245.517,623.174 243.5,622.5C 241.877,624.791 240.043,626.791 238,628.5C 237.5,628.167 237,627.833 236.5,627.5C 238.258,623.646 240.258,619.979 242.5,616.5 Z"/></g>
<g><path style="opacity:1" fill="#dca133" d="M 684.5,643.5 C 692.551,642.884 696.218,646.551 695.5,654.5C 693.473,654.662 691.473,654.495 689.5,654C 686.5,651.667 683.5,649.333 680.5,647C 682.093,646.051 683.426,644.885 684.5,643.5 Z"/></g>
<g><path style="opacity:1" fill="#dca133" d="M 702.5,644.5 C 704.924,644.192 707.257,644.526 709.5,645.5C 706.917,648.997 704.584,652.664 702.5,656.5C 708.269,662.601 713.269,669.268 717.5,676.5C 716.635,677.583 715.635,677.749 714.5,677C 710.018,671.351 705.018,666.184 699.5,661.5C 695.806,667.554 692.639,673.888 690,680.5C 689.035,682.26 687.868,682.594 686.5,681.5C 690.289,668.455 695.622,656.122 702.5,644.5 Z"/></g>
<g><path style="opacity:1" fill="#d8d8d8" d="M 174.5,646.5 C 174.5,660.5 174.5,674.5 174.5,688.5C 174.227,690.451 174.893,691.951 176.5,693C 205.74,705.455 235.074,717.622 264.5,729.5C 267.53,731.403 270.863,732.737 274.5,733.5C 274.842,734.338 275.508,734.672 276.5,734.5C 278.509,736.065 280.843,737.065 283.5,737.5C 360.404,770.528 437.571,803.195 515,835.5C 525.323,826.677 535.49,817.677 545.5,808.5C 549.541,804.824 553.541,801.157 557.5,797.5C 586.093,773.079 614.259,748.079 642,722.5C 642.499,718.179 642.666,713.846 642.5,709.5C 666.151,708.409 689.151,704.075 711.5,696.5C 716.469,701.162 722.469,703.495 729.5,703.5C 729.192,709.425 729.525,715.259 730.5,721C 740.37,721.993 749.87,720.493 759,716.5C 761.223,718.28 762.39,720.614 762.5,723.5C 769.15,722.921 775.484,721.254 781.5,718.5C 789.984,715.019 796.651,709.352 801.5,701.5C 798.82,696.14 796.153,690.807 793.5,685.5C 791.542,680.614 789.209,675.948 786.5,671.5C 786.371,669.784 786.038,668.117 785.5,666.5C 806.913,673.871 826.58,684.371 844.5,698C 874.074,723.657 875.074,750.323 847.5,778C 826.946,793.949 804.279,806.282 779.5,815C 727.475,832.895 674.141,845.229 619.5,852C 549.371,859.853 479.038,863.186 408.5,862C 334.693,859.878 261.693,851.212 189.5,836C 150.464,827.432 113.131,814.099 77.5,796C 61.1806,787.345 47.6806,775.512 37,760.5C 28.0153,742.143 30.0153,725.143 43,709.5C 59.4957,692.824 78.6624,679.991 100.5,671C 124.493,660.725 149.159,652.558 174.5,646.5 Z"/></g>
<g><path style="opacity:1" fill="#dd9d2c" d="M 769.5,655.5 C 768.255,658.987 766.255,661.987 763.5,664.5C 757.905,663.44 756.071,660.107 758,654.5C 760.905,652.907 764.071,651.907 767.5,651.5C 768.362,652.766 769.029,654.099 769.5,655.5 Z"/></g>
<g><path style="opacity:1" fill="#dc9f2f" d="M 747.5,653.5 C 752.648,653.066 755.315,655.399 755.5,660.5C 752.518,660.104 749.851,660.771 747.5,662.5C 750.285,662.931 752.952,662.931 755.5,662.5C 753.052,666.691 749.719,667.524 745.5,665C 742.494,660.528 743.161,656.695 747.5,653.5 Z"/></g>
<g><path style="opacity:1" fill="#cf5e5d" d="M 775.5,644.5 C 777.204,647.256 778.537,650.256 779.5,653.5C 778.85,653.196 778.183,652.863 777.5,652.5C 776.534,654.396 776.201,656.396 776.5,658.5C 777.833,658.5 779.167,658.5 780.5,658.5C 780.5,659.5 780.5,660.5 780.5,661.5C 778.473,661.662 776.473,661.495 774.5,661C 773.413,658.433 772.413,655.933 771.5,653.5C 772.594,650.318 773.928,647.318 775.5,644.5 Z"/></g>
<g><path style="opacity:1" fill="#c93c3c" d="M 779.5,653.5 C 781.261,658.018 783.261,662.351 785.5,666.5C 786.038,668.117 786.371,669.784 786.5,671.5C 778.901,681.151 768.901,685.151 756.5,683.5C 756.799,681.396 756.466,679.396 755.5,677.5C 752.55,678.705 749.55,679.705 746.5,680.5C 745.262,680.19 745.262,679.69 746.5,679C 750.447,676.72 754.113,674.053 757.5,671C 759.706,668.963 761.706,666.797 763.5,664.5C 766.255,661.987 768.255,658.987 769.5,655.5C 770.167,654.833 770.833,654.167 771.5,653.5C 772.413,655.933 773.413,658.433 774.5,661C 776.473,661.495 778.473,661.662 780.5,661.5C 780.5,660.5 780.5,659.5 780.5,658.5C 779.167,658.5 777.833,658.5 776.5,658.5C 776.201,656.396 776.534,654.396 777.5,652.5C 778.183,652.863 778.85,653.196 779.5,653.5 Z"/></g>
<g><path style="opacity:1" fill="#dca032" d="M 723.5,653.5 C 727.917,653.042 731.25,654.708 733.5,658.5C 732.833,658.833 732.167,659.167 731.5,659.5C 729.085,657.784 726.418,657.284 723.5,658C 720.966,660.587 720.966,663.253 723.5,666C 725.167,666.667 726.833,666.667 728.5,666C 729.509,663.828 731.176,662.662 733.5,662.5C 733.822,664.722 733.155,666.556 731.5,668C 722.457,671.292 718.29,668.126 719,658.5C 720.366,656.638 721.866,654.972 723.5,653.5 Z"/></g>
<g><path style="opacity:1" fill="#dca032" d="M 699.5,667.5 C 703.415,669.743 706.749,672.743 709.5,676.5C 708.635,677.583 707.635,677.749 706.5,677C 705.183,675.341 703.517,674.174 701.5,673.5C 699.861,675.806 697.861,677.806 695.5,679.5C 695.167,679.167 694.833,678.833 694.5,678.5C 696.453,674.931 698.119,671.264 699.5,667.5 Z"/></g>
<g><path style="opacity:1" fill="#786052" d="M 577.5,676.5 C 579.048,676.821 579.715,677.821 579.5,679.5C 580.5,679.5 581.5,679.5 582.5,679.5C 581.188,682.024 580.688,684.691 581,687.5C 582.011,688.337 583.178,688.67 584.5,688.5C 584.5,689.5 584.5,690.5 584.5,691.5C 582.473,691.662 580.473,691.495 578.5,691C 577.289,687.967 575.956,684.967 574.5,682C 575.741,680.269 576.741,678.436 577.5,676.5 Z"/></g>
<g><path style="opacity:1" fill="#775f51" d="M 584.5,678.5 C 585.822,678.33 586.989,678.663 588,679.5C 588.719,683.145 589.219,686.812 589.5,690.5C 588.167,690.5 586.833,690.5 585.5,690.5C 584.979,686.519 584.646,682.519 584.5,678.5 Z"/></g>
<g><path style="opacity:1" fill="#785f51" d="M 546.5,680.5 C 547.649,680.791 548.316,681.624 548.5,683C 549.439,687.469 550.106,691.969 550.5,696.5C 549.167,696.5 547.833,696.5 546.5,696.5C 546.917,691.932 544.917,690.432 540.5,692C 541.423,694.041 541.756,696.208 541.5,698.5C 540.167,698.5 538.833,698.5 537.5,698.5C 536.927,693.153 536.26,687.82 535.5,682.5C 536.833,682.5 538.167,682.5 539.5,682.5C 539.488,686.446 541.488,688.113 545.5,687.5C 545.481,685.94 545.148,684.44 544.5,683C 545.056,681.989 545.722,681.156 546.5,680.5 Z"/></g>
<g><path style="opacity:1" fill="#755c4e" d="M 567.5,678.5 C 569.282,679.72 571.282,680.386 573.5,680.5C 573.5,681.5 573.5,682.5 573.5,683.5C 572.325,683.281 571.325,683.614 570.5,684.5C 571.309,686.071 571.643,687.738 571.5,689.5C 574.166,689.066 575.333,690.066 575,692.5C 573.204,693.767 571.371,693.767 569.5,692.5C 568.167,689.833 566.833,687.167 565.5,684.5C 564.599,687.795 564.599,691.128 565.5,694.5C 561.837,695.112 558.17,695.279 554.5,695C 550.968,691.61 550.634,687.943 553.5,684C 557.094,682.259 560.761,682.092 564.5,683.5C 565.952,682.06 566.952,680.394 567.5,678.5 Z"/></g>
<g><path style="opacity:1" fill="#886c5d" d="M 408.5,685.5 C 416.513,684.187 420.513,687.521 420.5,695.5C 414.399,695.617 409.399,693.284 405.5,688.5C 406.34,687.265 407.34,686.265 408.5,685.5 Z"/></g>
<g><path style="opacity:1" fill="#e6a202" d="M 786.5,671.5 C 789.209,675.948 791.542,680.614 793.5,685.5C 788.294,691.708 781.96,696.374 774.5,699.5C 769.315,701.142 763.982,702.142 758.5,702.5C 758.795,699.266 758.129,696.266 756.5,693.5C 748.028,697.793 739.361,698.459 730.5,695.5C 730.232,692.881 730.565,690.381 731.5,688C 736.561,685.47 741.561,682.97 746.5,680.5C 749.55,679.705 752.55,678.705 755.5,677.5C 756.466,679.396 756.799,681.396 756.5,683.5C 768.901,685.151 778.901,681.151 786.5,671.5 Z"/></g>
<g><path style="opacity:1" fill="#765c4f" d="M 525.5,687.5 C 528.32,687.248 530.986,687.748 533.5,689C 534.38,690.356 534.714,691.856 534.5,693.5C 531.746,693.784 529.08,694.451 526.5,695.5C 528.959,696.643 531.293,696.31 533.5,694.5C 534.754,696.259 534.421,697.759 532.5,699C 526.648,701.04 523.315,699.04 522.5,693C 522.863,690.808 523.863,688.974 525.5,687.5 Z"/></g>
<g><path style="opacity:1" fill="#84685a" d="M 520.5,696.5 C 519.71,697.609 519.21,698.942 519,700.5C 518.439,701.022 517.772,701.355 517,701.5C 513.796,698.422 511.629,694.755 510.5,690.5C 511.5,690.5 512.5,690.5 513.5,690.5C 516.8,698.424 518.466,697.757 518.5,688.5C 519.5,688.5 520.5,688.5 521.5,688.5C 521.599,691.237 521.265,693.904 520.5,696.5 Z"/></g>
<g><path style="opacity:1" fill="#826455" d="M 491.5,692.5 C 493.77,695.974 495.103,699.974 495.5,704.5C 491.854,705.283 488.188,705.45 484.5,705C 480.5,701.333 480.5,697.667 484.5,694C 487.036,693.814 489.369,693.314 491.5,692.5 Z"/></g>
<g><path style="opacity:1" fill="#7d5d4d" d="M 498.5,688.5 C 499.404,689.209 499.737,690.209 499.5,691.5C 501.492,691.328 503.158,691.995 504.5,693.5C 505.386,692.675 505.719,691.675 505.5,690.5C 506.5,690.5 507.5,690.5 508.5,690.5C 509.272,694.452 509.605,698.452 509.5,702.5C 508.5,702.5 507.5,702.5 506.5,702.5C 505.955,698.828 505.622,699.162 505.5,703.5C 503.473,703.662 501.473,703.495 499.5,703C 498.874,702.25 498.374,701.416 498,700.5C 497.853,697.89 497.019,695.556 495.5,693.5C 496.952,692.06 497.952,690.394 498.5,688.5 Z"/></g>
<g><path style="opacity:1" fill="#ce3e3d" d="M 793.5,685.5 C 796.153,690.807 798.82,696.14 801.5,701.5C 796.651,709.352 789.984,715.019 781.5,718.5C 779.764,711.96 777.431,705.627 774.5,699.5C 781.96,696.374 788.294,691.708 793.5,685.5 Z"/></g>
<g><path style="opacity:1" fill="#876b5c" d="M 451.5,711.5 C 449.297,711.396 447.297,710.73 445.5,709.5C 443.537,706.482 443.037,703.149 444,699.5C 448.908,694.17 453.742,694.336 458.5,700C 455.437,699.957 452.437,699.623 449.5,699C 444.833,704.667 446.167,707.667 453.5,708C 454.219,705.444 455.886,704.277 458.5,704.5C 457.833,708.5 455.5,710.833 451.5,711.5 Z"/></g>
<g><path style="opacity:1" fill="#85685a" d="M 471.5,695.5 C 476.709,694.396 479.709,696.396 480.5,701.5C 477.746,701.784 475.08,702.451 472.5,703.5C 472.833,704.5 473.5,705.167 474.5,705.5C 476.191,703.744 478.191,703.244 480.5,704C 477.909,707.492 474.575,708.326 470.5,706.5C 467.663,702.526 467.997,698.859 471.5,695.5 Z"/></g>
<g><path style="opacity:1" fill="#c83737" d="M 730.5,695.5 C 739.361,698.459 748.028,697.793 756.5,693.5C 758.129,696.266 758.795,699.266 758.5,702.5C 763.982,702.142 769.315,701.142 774.5,699.5C 777.431,705.627 779.764,711.96 781.5,718.5C 775.484,721.254 769.15,722.921 762.5,723.5C 762.39,720.614 761.223,718.28 759,716.5C 749.87,720.493 740.37,721.993 730.5,721C 729.525,715.259 729.192,709.425 729.5,703.5C 722.469,703.495 716.469,701.162 711.5,696.5C 717.259,694.456 722.926,692.122 728.5,689.5C 729.169,691.631 729.835,693.631 730.5,695.5 Z"/></g>
<g><path style="opacity:1" fill="#7c6355" d="M 435.5,707.5 C 438.072,710.969 440.406,714.636 442.5,718.5C 441.635,719.583 440.635,719.749 439.5,719C 435.018,713.351 430.018,708.184 424.5,703.5C 420.296,709.241 417.129,715.574 415,722.5C 414,723.167 413,723.833 412,724.5C 411.83,722.155 412.163,719.821 413,717.5C 414.909,711.361 417.075,705.361 419.5,699.5C 421.891,695.063 424.557,690.73 427.5,686.5C 429.432,685.48 431.432,685.313 433.5,686C 434.451,686.718 434.617,687.551 434,688.5C 431.428,691.403 429.261,694.569 427.5,698C 430.018,701.346 432.684,704.513 435.5,707.5 Z"/></g>
<g><path style="opacity:1" fill="#785f52" d="M 424.5,709.5 C 428.235,711.725 431.568,714.558 434.5,718C 433.167,718.667 431.833,718.667 430.5,718C 426.927,714.437 424.26,715.104 422.5,720C 421.365,720.749 420.365,720.583 419.5,719.5C 421.18,716.14 422.847,712.807 424.5,709.5 Z"/></g>
<g><path style="opacity:1" fill="#785f52" d="M 289.5,726.5 C 290.48,723.884 291.98,721.551 294,719.5C 294.483,720.448 294.649,721.448 294.5,722.5C 296.144,722.286 297.644,722.62 299,723.5C 300.093,721.651 301.426,719.984 303,718.5C 304.11,720.037 305.61,720.703 307.5,720.5C 307.5,721.833 307.5,723.167 307.5,724.5C 306.448,724.351 305.448,724.517 304.5,725C 305.38,726.356 305.714,727.856 305.5,729.5C 308.166,729.066 309.333,730.066 309,732.5C 307.274,733.576 305.441,733.743 303.5,733C 302.198,730.787 301.198,728.454 300.5,726C 298.866,725.506 297.199,725.34 295.5,725.5C 295.833,727.5 296.167,729.5 296.5,731.5C 297.5,731.5 298.5,731.5 299.5,731.5C 299.5,732.5 299.5,733.5 299.5,734.5C 297.396,734.799 295.396,734.466 293.5,733.5C 292.888,730.567 291.555,728.234 289.5,726.5 Z"/></g>
<g><path style="opacity:1" fill="#775f51" d="M 309.5,720.5 C 310.822,720.33 311.989,720.663 313,721.5C 313.548,725.17 314.048,728.837 314.5,732.5C 313.167,732.5 311.833,732.5 310.5,732.5C 309.838,728.534 309.505,724.534 309.5,720.5 Z"/></g>
<g><path style="opacity:1" fill="#795f52" d="M 274.5,733.5 C 270.863,732.737 267.53,731.403 264.5,729.5C 268.648,729.166 270.315,726.833 269.5,722.5C 270.833,722.5 272.167,722.5 273.5,722.5C 273.942,726.154 274.276,729.821 274.5,733.5 Z"/></g>
<g><path style="opacity:1" fill="#745b4c" d="M 289.5,726.5 C 289.543,729.587 289.71,732.587 290,735.5C 287.696,735.212 285.529,735.879 283.5,737.5C 280.843,737.065 278.509,736.065 276.5,734.5C 276.564,732.46 276.731,730.127 277,727.5C 277.308,726.692 277.808,726.025 278.5,725.5C 281.791,724.618 285.124,723.952 288.5,723.5C 288.263,724.791 288.596,725.791 289.5,726.5 Z"/></g>
<g><path style="opacity:1" fill="#786052" d="M 538.5,785.5 C 545.988,785.323 549.321,788.99 548.5,796.5C 546.473,796.662 544.473,796.495 542.5,796C 539.5,793.833 536.5,791.667 533.5,789.5C 535.015,787.918 536.681,786.584 538.5,785.5 Z"/></g>
<g><path style="opacity:1" fill="#785f52" d="M 557.5,797.5 C 553.541,801.157 549.541,804.824 545.5,808.5C 547.484,800.864 550.818,793.864 555.5,787.5C 558.216,785.914 560.55,786.247 562.5,788.5C 559.877,791.445 558.211,794.445 557.5,797.5 Z"/></g>
</svg>
