<?xml version="1.0" encoding="UTF-8"?>
<!DOCTYPE svg PUBLIC "-//W3C//DTD SVG 1.1//EN" "http://www.w3.org/Graphics/SVG/1.1/DTD/svg11.dtd">
<svg xmlns="http://www.w3.org/2000/svg" version="1.1" width="360px" height="360px" style="shape-rendering:geometricPrecision; text-rendering:geometricPrecision; image-rendering:optimizeQuality; fill-rule:evenodd; clip-rule:evenodd" xmlns:xlink="http://www.w3.org/1999/xlink">
<g><path style="opacity:1" fill="#fefefe" d="M -0.5,-0.5 C 119.5,-0.5 239.5,-0.5 359.5,-0.5C 359.5,119.5 359.5,239.5 359.5,359.5C 239.5,359.5 119.5,359.5 -0.5,359.5C -0.5,239.5 -0.5,119.5 -0.5,-0.5 Z"/></g>
<g><path style="opacity:1" fill="#dc600b" d="M 236.5,105.5 C 235.094,105.973 234.427,106.973 234.5,108.5C 233.5,108.833 232.833,109.5 232.5,110.5C 231.833,110.833 231.167,111.167 230.5,111.5C 229.171,114.48 226.837,115.813 223.5,115.5C 221.806,113.139 219.806,111.139 217.5,109.5C 218.625,108.652 218.625,107.652 217.5,106.5C 219.993,108.112 222.493,109.778 225,111.5C 227.833,110 230,107.833 231.5,105C 212.729,89.23 197.229,70.73 185,49.5C 180.552,41.3332 176.385,32.9999 172.5,24.5C 169.013,23.8922 166.013,25.0589 163.5,28C 168.861,42.2211 175.694,55.7211 184,68.5C 191.626,78.626 199.793,88.2926 208.5,97.5C 207.167,97.5 205.833,97.5 204.5,97.5C 203.167,95.5 201.5,93.8333 199.5,92.5C 194.594,86.2523 189.26,80.2523 183.5,74.5C 177.209,82.1268 170.542,89.4601 163.5,96.5C 162.167,96.5 160.833,96.5 159.5,96.5C 166.406,88.4252 173.572,80.4252 181,72.5C 181.239,69.303 180.072,66.6363 177.5,64.5C 162.087,78.043 146.087,90.8763 129.5,103C 131.979,106.647 134.979,109.813 138.5,112.5C 141.202,110.78 143.868,109.113 146.5,107.5C 146.389,108.117 146.056,108.617 145.5,109C 146.416,109.278 147.082,109.778 147.5,110.5C 144.499,112.168 141.499,113.834 138.5,115.5C 134.91,113.909 131.91,111.575 129.5,108.5C 128.89,106.566 127.89,104.899 126.5,103.5C 112.266,85.7267 109.766,66.3934 119,45.5C 125.088,38.5357 132.588,33.7024 141.5,31C 152.252,29.1539 162.252,25.4873 171.5,20C 180.693,17.6067 190.026,16.94 199.5,18C 213.567,21.3509 226.567,27.0175 238.5,35C 252.492,50.4434 255.658,67.9434 248,87.5C 243.943,93.3836 240.11,99.3836 236.5,105.5 Z"/></g>
<g><path style="opacity:1" fill="#fba119" d="M 217.5,106.5 C 214.833,103.167 211.833,100.167 208.5,97.5C 199.793,88.2926 191.626,78.626 184,68.5C 175.694,55.7211 168.861,42.2211 163.5,28C 166.013,25.0589 169.013,23.8922 172.5,24.5C 176.385,32.9999 180.552,41.3332 185,49.5C 197.229,70.73 212.729,89.23 231.5,105C 230,107.833 227.833,110 225,111.5C 222.493,109.778 219.993,108.112 217.5,106.5 Z"/></g>
<g><path style="opacity:1" fill="#faa019" d="M 163.5,39.5 C 166.294,41.7696 167.46,44.7696 167,48.5C 164.628,50.7032 162.461,53.0365 160.5,55.5C 150.719,61.5624 140.719,67.3958 130.5,73C 137.75,70.5448 144.75,67.2115 151.5,63C 153.167,62.3333 154.833,62.3333 156.5,63C 155.552,63.4828 154.552,63.6495 153.5,63.5C 153.719,64.675 153.386,65.675 152.5,66.5C 147.926,69.2758 143.593,72.2758 139.5,75.5C 135.568,77.1267 131.568,78.7934 127.5,80.5C 126.09,80.1322 125.09,79.2989 124.5,78C 125.833,77 127.167,76 128.5,75C 128.167,74.8333 127.833,74.6667 127.5,74.5C 124.371,76.3999 121.037,77.7333 117.5,78.5C 117.5,78.1667 117.5,77.8333 117.5,77.5C 117.281,76.325 117.614,75.325 118.5,74.5C 127.432,70.1346 136.098,65.3012 144.5,60C 137.263,63.0335 130.097,66.5335 123,70.5C 120.402,69.5362 119.902,67.8696 121.5,65.5C 128.703,61.7319 136.036,58.2319 143.5,55C 145.093,54.0513 146.426,52.8846 147.5,51.5C 153.687,48.6471 159.021,44.6471 163.5,39.5 Z"/></g>
<g><path style="opacity:1" fill="#ec870b" d="M 126.5,42.5 C 124.942,47.4583 122.942,52.2917 120.5,57C 121.5,57.3333 122.5,57.6667 123.5,58C 119.033,59.0658 118.533,60.8991 122,63.5C 130.492,59.3356 138.992,55.3356 147.5,51.5C 146.426,52.8846 145.093,54.0513 143.5,55C 136.036,58.2319 128.703,61.7319 121.5,65.5C 119.902,67.8696 120.402,69.5362 123,70.5C 130.097,66.5335 137.263,63.0335 144.5,60C 136.098,65.3012 127.432,70.1346 118.5,74.5C 117.614,75.325 117.281,76.325 117.5,77.5C 115.531,67.2756 116.697,57.2756 121,47.5C 122.704,45.6266 124.537,43.9599 126.5,42.5 Z"/></g>
<g><path style="opacity:1" fill="#f29111" d="M 117.5,78.5 C 121.037,77.7333 124.371,76.3999 127.5,74.5C 127.833,74.6667 128.167,74.8333 128.5,75C 127.167,76 125.833,77 124.5,78C 125.09,79.2989 126.09,80.1322 127.5,80.5C 131.568,78.7934 135.568,77.1267 139.5,75.5C 143.593,72.2758 147.926,69.2758 152.5,66.5C 153.386,65.675 153.719,64.675 153.5,63.5C 154.552,63.6495 155.552,63.4828 156.5,63C 154.833,62.3333 153.167,62.3333 151.5,63C 144.75,67.2115 137.75,70.5448 130.5,73C 140.719,67.3958 150.719,61.5624 160.5,55.5C 163.394,54.1177 165.894,52.1177 168,49.5C 168.692,50.0253 169.192,50.6919 169.5,51.5C 166.672,55.1981 167.005,55.8648 170.5,53.5C 171.72,53.8869 172.387,54.7202 172.5,56C 171.33,58.6682 169.663,61.0016 167.5,63C 170.25,61.7734 172.917,60.2734 175.5,58.5C 174.861,60.7604 173.694,62.7604 172,64.5C 158.097,77.2849 143.097,88.6182 127,98.5C 122.404,92.5635 119.238,85.8969 117.5,78.5 Z"/></g>
<g><path style="opacity:1" fill="#fca21a" d="M 139.5,75.5 C 143.673,74.1626 147.506,72.1626 151,69.5C 151.85,70.4239 152.85,70.4239 154,69.5C 157.044,67.9918 158.877,65.9918 159.5,63.5C 161.489,63.5211 163.489,63.5211 165.5,63.5C 163.684,65.8169 161.684,67.9835 159.5,70C 150.335,76.0836 141.002,81.917 131.5,87.5C 129.216,86.4182 128.05,84.7516 128,82.5C 132.147,80.5177 135.98,78.1844 139.5,75.5 Z"/></g>
<g><path style="opacity:1" fill="#ef8a0f" d="M 188.5,42.5 C 194.922,47.5567 201.589,52.39 208.5,57C 211.543,57.8625 212.543,57.0291 211.5,54.5C 213.017,54.4894 214.184,53.8228 215,52.5C 214.852,53.825 215.018,54.9916 215.5,56C 218.246,57.7497 221.246,58.7497 224.5,59C 224.167,59.3333 223.833,59.6667 223.5,60C 225.5,61 227.5,62 229.5,63C 229,63.1667 228.5,63.3333 228,63.5C 223.667,61.5 219.333,59.5 215,57.5C 214.5,57.8333 214,58.1667 213.5,58.5C 214.522,59.354 215.355,60.354 216,61.5C 223.665,65.7493 231.498,69.5827 239.5,73C 224.948,68.4735 211.448,61.6401 199,52.5C 198.805,53.8193 198.972,55.1526 199.5,56.5C 195.208,53.3802 191.041,50.0469 187,46.5C 186.5,45.5 186,44.5 185.5,43.5C 186.472,43.407 187.472,43.0736 188.5,42.5 Z"/></g>
<g><path style="opacity:1" fill="#fba019" d="M 244.5,87.5 C 234.776,84.2034 225.443,80.0368 216.5,75C 213.96,72.9135 214.127,71.4135 217,70.5C 220.055,71.6105 222.888,73.1105 225.5,75C 226.5,75.6667 227.5,75.6667 228.5,75C 224.993,72.746 221.327,70.746 217.5,69C 216.299,68.0975 215.465,66.9308 215,65.5C 214.282,66.4506 213.449,66.6172 212.5,66C 213.833,65.3333 213.833,64.6667 212.5,64C 208.82,63.6521 205.486,62.4854 202.5,60.5C 201.5,59.1667 200.5,57.8333 199.5,56.5C 198.972,55.1526 198.805,53.8193 199,52.5C 211.448,61.6401 224.948,68.4735 239.5,73C 231.498,69.5827 223.665,65.7493 216,61.5C 215.355,60.354 214.522,59.354 213.5,58.5C 214,58.1667 214.5,57.8333 215,57.5C 219.333,59.5 223.667,61.5 228,63.5C 228.5,63.3333 229,63.1667 229.5,63C 227.5,62 225.5,61 223.5,60C 223.833,59.6667 224.167,59.3333 224.5,59C 221.246,58.7497 218.246,57.7497 215.5,56C 215.018,54.9916 214.852,53.825 215,52.5C 214.184,53.8228 213.017,54.4894 211.5,54.5C 208.731,52.3373 208.898,50.3373 212,48.5C 217.247,51.2064 222.414,54.0397 227.5,57C 228.833,57.6667 230.167,57.6667 231.5,57C 225.537,53.3518 219.204,50.1851 212.5,47.5C 212.167,47.1667 211.833,46.8333 211.5,46.5C 212.167,46.1667 212.833,45.8333 213.5,45.5C 220.975,48.4059 228.308,51.5725 235.5,55C 236.833,55.6667 238.167,55.6667 239.5,55C 221.138,47.9864 203.805,39.153 187.5,28.5C 192.844,28.334 198.177,28.5006 203.5,29C 210.463,30.5673 217.13,32.734 223.5,35.5C 223.439,33.4078 222.439,31.9078 220.5,31C 209.3,26.4833 197.8,24.3167 186,24.5C 185.517,25.448 185.351,26.448 185.5,27.5C 183.193,26.3466 180.86,25.1799 178.5,24C 177.748,23.3292 177.414,22.4959 177.5,21.5C 200.941,19.3064 221.774,25.6398 240,40.5C 246.557,49.3832 249.723,59.3832 249.5,70.5C 245.183,69.0011 240.85,67.8345 236.5,67C 240.342,69.0017 244.342,70.5017 248.5,71.5C 248.543,74.9099 248.043,78.2432 247,81.5C 245.933,82.1905 244.766,82.6905 243.5,83C 244.308,83.3076 244.975,83.8076 245.5,84.5C 244.873,85.4168 244.539,86.4168 244.5,87.5 Z"/></g>
<g><path style="opacity:1" fill="#e77b0b" d="M 163.5,39.5 C 159.021,44.6471 153.687,48.6471 147.5,51.5C 152.545,47.1223 157.878,43.1223 163.5,39.5 Z"/></g>
<g><path style="opacity:1" fill="#fa9f1a" d="M 211.5,54.5 C 212.543,57.0291 211.543,57.8625 208.5,57C 201.589,52.39 194.922,47.5567 188.5,42.5C 187.167,41.5 185.833,40.5 184.5,39.5C 183.2,38.399 182.7,37.0657 183,35.5C 186.937,38.7049 191.104,41.2049 195.5,43C 191.995,40.3248 188.661,37.4915 185.5,34.5C 186.002,33.479 186.668,33.3123 187.5,34C 195.172,38.6757 202.839,43.3424 210.5,48C 209.57,48.9907 208.404,49.4907 207,49.5C 204.125,48.1365 201.292,46.9699 198.5,46C 202.549,49.3518 206.882,52.1852 211.5,54.5 Z"/></g>
<g><path style="opacity:1" fill="#fcce52" d="M 226.5,37.5 C 228.5,37.5 230.5,37.5 232.5,37.5C 232.5,39.1667 232.5,40.8333 232.5,42.5C 228.69,43.024 226.69,41.3574 226.5,37.5 Z"/></g>
<g><path style="opacity:1" fill="#fba119" d="M 163.5,39.5 C 157.878,43.1223 152.545,47.1223 147.5,51.5C 138.992,55.3356 130.492,59.3356 122,63.5C 118.533,60.8991 119.033,59.0658 123.5,58C 122.5,57.6667 121.5,57.3333 120.5,57C 122.942,52.2917 124.942,47.4583 126.5,42.5C 137.058,35.2737 148.724,30.9404 161.5,29.5C 161.815,31.2259 161.981,32.8925 162,34.5C 159.555,35.9771 157.388,37.8104 155.5,40C 158.664,39.8788 161.164,38.3788 163,35.5C 163.49,36.7932 163.657,38.1266 163.5,39.5 Z"/></g>
<g><path style="opacity:1" fill="#f08d12" d="M 177.5,21.5 C 177.414,22.4959 177.748,23.3292 178.5,24C 180.86,25.1799 183.193,26.3466 185.5,27.5C 185.842,28.3382 186.508,28.6716 187.5,28.5C 203.805,39.153 221.138,47.9864 239.5,55C 238.167,55.6667 236.833,55.6667 235.5,55C 228.308,51.5725 220.975,48.4059 213.5,45.5C 212.833,45.8333 212.167,46.1667 211.5,46.5C 211.833,46.8333 212.167,47.1667 212.5,47.5C 219.204,50.1851 225.537,53.3518 231.5,57C 230.167,57.6667 228.833,57.6667 227.5,57C 222.414,54.0397 217.247,51.2064 212,48.5C 208.898,50.3373 208.731,52.3373 211.5,54.5C 206.882,52.1852 202.549,49.3518 198.5,46C 201.292,46.9699 204.125,48.1365 207,49.5C 208.404,49.4907 209.57,48.9907 210.5,48C 202.839,43.3424 195.172,38.6757 187.5,34C 186.668,33.3123 186.002,33.479 185.5,34.5C 188.661,37.4915 191.995,40.3248 195.5,43C 191.104,41.2049 186.937,38.7049 183,35.5C 182.7,37.0657 183.2,38.399 184.5,39.5C 183.504,39.5858 182.671,39.2524 182,38.5C 180.701,35.2448 179.035,32.2448 177,29.5C 176.296,27.7216 175.796,25.8882 175.5,24C 175.684,22.6244 176.351,21.7911 177.5,21.5 Z"/></g>
<g><path style="opacity:1" fill="#fbd155" d="M 187.5,28.5 C 186.508,28.6716 185.842,28.3382 185.5,27.5C 185.351,26.448 185.517,25.448 186,24.5C 197.8,24.3167 209.3,26.4833 220.5,31C 222.439,31.9078 223.439,33.4078 223.5,35.5C 217.13,32.734 210.463,30.5673 203.5,29C 198.177,28.5006 192.844,28.334 187.5,28.5 Z"/></g>
<g><path style="opacity:1" fill="#fba219" d="M 159.5,96.5 C 158.833,96.5 158.5,96.8333 158.5,97.5C 153.58,99.4189 149.913,102.752 147.5,107.5C 147.167,107.5 146.833,107.5 146.5,107.5C 143.868,109.113 141.202,110.78 138.5,112.5C 134.979,109.813 131.979,106.647 129.5,103C 146.087,90.8763 162.087,78.043 177.5,64.5C 180.072,66.6363 181.239,69.303 181,72.5C 173.572,80.4252 166.406,88.4252 159.5,96.5 Z"/></g>
<g><path style="opacity:1" fill="#d67857" d="M 199.5,92.5 C 194.192,90.8516 188.859,89.1849 183.5,87.5C 177.728,89.5522 172.394,92.3855 167.5,96C 166.207,96.49 164.873,96.6567 163.5,96.5C 170.542,89.4601 177.209,82.1268 183.5,74.5C 189.26,80.2523 194.594,86.2523 199.5,92.5 Z"/></g>
<g><path style="opacity:1" fill="#f08d0f" d="M 202.5,60.5 C 205.486,62.4854 208.82,63.6521 212.5,64C 213.833,64.6667 213.833,65.3333 212.5,66C 213.449,66.6172 214.282,66.4506 215,65.5C 215.465,66.9308 216.299,68.0975 217.5,69C 221.327,70.746 224.993,72.746 228.5,75C 227.5,75.6667 226.5,75.6667 225.5,75C 222.888,73.1105 220.055,71.6105 217,70.5C 214.127,71.4135 213.96,72.9135 216.5,75C 225.443,80.0368 234.776,84.2034 244.5,87.5C 241.841,90.8092 239.674,94.4758 238,98.5C 237.163,100.007 235.996,100.507 234.5,100C 215.779,87.7843 201.112,71.951 190.5,52.5C 190.667,52.1667 190.833,51.8333 191,51.5C 194.441,55.1209 198.274,58.1209 202.5,60.5 Z"/></g>
<g><path style="opacity:1" fill="#fbfaf6" d="M 158.5,97.5 C 161.518,97.3354 164.518,97.502 167.5,98C 170.022,99.3409 172.689,100.174 175.5,100.5C 176.167,102.819 176.334,105.153 176,107.5C 166.744,104.54 157.577,104.874 148.5,108.5C 147.893,108.376 147.56,108.043 147.5,107.5C 149.913,102.752 153.58,99.4189 158.5,97.5 Z"/></g>
<g><path style="opacity:1" fill="#fbf9f5" d="M 204.5,97.5 C 205.833,97.5 207.167,97.5 208.5,97.5C 211.833,100.167 214.833,103.167 217.5,106.5C 218.625,107.652 218.625,108.652 217.5,109.5C 208.235,104.994 198.568,104.327 188.5,107.5C 188.39,104.941 189.056,102.608 190.5,100.5C 195.003,98.7328 199.669,97.7328 204.5,97.5 Z"/></g>
<g><path style="opacity:1" fill="#e59a78" d="M 199.5,92.5 C 201.5,93.8333 203.167,95.5 204.5,97.5C 199.669,97.7328 195.003,98.7328 190.5,100.5C 189.056,102.608 188.39,104.941 188.5,107.5C 198.568,104.327 208.235,104.994 217.5,109.5C 219.806,111.139 221.806,113.139 223.5,115.5C 222.549,116.919 222.216,118.585 222.5,120.5C 222.806,123.385 222.473,126.052 221.5,128.5C 215.307,121.851 208.307,120.851 200.5,125.5C 198.704,124.207 197.037,122.707 195.5,121C 193.5,120.333 191.5,120.333 189.5,121C 195.719,121.035 197.719,123.868 195.5,129.5C 193.161,130.724 190.828,130.724 188.5,129.5C 189.313,128.186 190.313,127.019 191.5,126C 191,125.833 190.5,125.667 190,125.5C 187.566,127.525 185.732,130.025 184.5,133C 179.924,133.95 176.924,132.117 175.5,127.5C 173.833,126.167 172.167,126.167 170.5,127.5C 170.938,128.506 171.604,128.506 172.5,127.5C 173.386,128.325 173.719,129.325 173.5,130.5C 170.728,130.78 168.228,130.113 166,128.5C 165.318,124.82 166.818,122.32 170.5,121C 169.5,120.333 168.5,120.333 167.5,121C 165.365,121.876 164.031,123.376 163.5,125.5C 158.95,122.111 153.95,121.111 148.5,122.5C 146.164,121.044 144.831,118.878 144.5,116C 145.741,114.269 146.741,112.436 147.5,110.5C 147.082,109.778 146.416,109.278 145.5,109C 146.056,108.617 146.389,108.117 146.5,107.5C 146.833,107.5 147.167,107.5 147.5,107.5C 147.56,108.043 147.893,108.376 148.5,108.5C 157.577,104.874 166.744,104.54 176,107.5C 176.334,105.153 176.167,102.819 175.5,100.5C 172.689,100.174 170.022,99.3409 167.5,98C 164.518,97.502 161.518,97.3354 158.5,97.5C 158.5,96.8333 158.833,96.5 159.5,96.5C 160.833,96.5 162.167,96.5 163.5,96.5C 164.873,96.6567 166.207,96.49 167.5,96C 172.394,92.3855 177.728,89.5522 183.5,87.5C 188.859,89.1849 194.192,90.8516 199.5,92.5 Z"/></g>
<g><path style="opacity:1" fill="#89422e" d="M 210.5,111.5 C 211.552,111.351 212.552,111.517 213.5,112C 209.282,115.814 204.282,117.481 198.5,117C 199.696,117.654 199.696,118.154 198.5,118.5C 196.076,117.577 194.076,116.077 192.5,114C 196.784,114.457 201.118,114.457 205.5,114C 207.315,113.243 208.981,112.41 210.5,111.5 Z"/></g>
<g><path style="opacity:1" fill="#853d29" d="M 232.5,110.5 C 234.478,111.317 235.478,112.817 235.5,115C 234.92,118.328 233.42,121.161 231,123.5C 231.782,121.154 232.615,118.654 233.5,116C 232.445,114.493 231.445,112.993 230.5,111.5C 231.167,111.167 231.833,110.833 232.5,110.5 Z"/></g>
<g><path style="opacity:1" fill="#88432d" d="M 150.5,113.5 C 150.56,112.957 150.893,112.624 151.5,112.5C 157.093,114.913 162.76,115.913 168.5,115.5C 167.421,117.543 165.754,118.876 163.5,119.5C 162.304,119.154 162.304,118.654 163.5,118C 158.532,118.176 154.199,116.676 150.5,113.5 Z"/></g>
<g><path style="opacity:1" fill="#7d3d2c" d="M 236.5,105.5 C 243.147,113.408 243.147,121.408 236.5,129.5C 235.221,130.968 233.554,131.635 231.5,131.5C 233.837,128.319 236.004,124.986 238,121.5C 239.461,116.284 238.295,111.95 234.5,108.5C 234.427,106.973 235.094,105.973 236.5,105.5 Z"/></g>
<g><path style="opacity:1" fill="#cf7557" d="M 234.5,108.5 C 238.295,111.95 239.461,116.284 238,121.5C 236.004,124.986 233.837,128.319 231.5,131.5C 229.265,131.795 227.265,131.461 225.5,130.5C 226.807,129.198 226.807,127.865 225.5,126.5C 226.593,124.651 227.926,122.984 229.5,121.5C 227.955,120.548 226.288,120.215 224.5,120.5C 224.657,119.127 224.49,117.793 224,116.5C 223.79,118.058 223.29,119.391 222.5,120.5C 222.216,118.585 222.549,116.919 223.5,115.5C 226.837,115.813 229.171,114.48 230.5,111.5C 231.445,112.993 232.445,114.493 233.5,116C 232.615,118.654 231.782,121.154 231,123.5C 233.42,121.161 234.92,118.328 235.5,115C 235.478,112.817 234.478,111.317 232.5,110.5C 232.833,109.5 233.5,108.833 234.5,108.5 Z"/></g>
<g><path style="opacity:1" fill="#823f2d" d="M 126.5,103.5 C 127.89,104.899 128.89,106.566 129.5,108.5C 126.095,116.125 127.262,123.125 133,129.5C 134.011,130.337 135.178,130.67 136.5,130.5C 134.735,131.461 132.735,131.795 130.5,131.5C 124.861,125.222 123.028,117.889 125,109.5C 126.128,107.655 126.628,105.655 126.5,103.5 Z"/></g>
<g><path style="opacity:1" fill="#7d3a26" d="M 139.5,128.5 C 139.167,129.5 138.5,130.167 137.5,130.5C 137.937,127.193 137.27,124.193 135.5,121.5C 136.325,120.614 137.325,120.281 138.5,120.5C 139.896,119.581 140.23,122.247 139.5,128.5 Z"/></g>
<g><path style="opacity:1" fill="#cf7556" d="M 129.5,108.5 C 131.91,111.575 134.91,113.909 138.5,115.5C 141.499,113.834 144.499,112.168 147.5,110.5C 146.741,112.436 145.741,114.269 144.5,116C 144.831,118.878 146.164,121.044 148.5,122.5C 146.763,124.55 144.763,126.383 142.5,128C 141.552,128.483 140.552,128.649 139.5,128.5C 140.23,122.247 139.896,119.581 138.5,120.5C 137.325,120.281 136.325,120.614 135.5,121.5C 137.27,124.193 137.937,127.193 137.5,130.5C 137.167,130.5 136.833,130.5 136.5,130.5C 135.178,130.67 134.011,130.337 133,129.5C 127.262,123.125 126.095,116.125 129.5,108.5 Z"/></g>
<g><path style="opacity:1" fill="#833f2c" d="M 225.5,130.5 C 223.847,130.34 222.514,129.674 221.5,128.5C 222.473,126.052 222.806,123.385 222.5,120.5C 223.29,119.391 223.79,118.058 224,116.5C 224.49,117.793 224.657,119.127 224.5,120.5C 226.288,120.215 227.955,120.548 229.5,121.5C 227.926,122.984 226.593,124.651 225.5,126.5C 226.807,127.865 226.807,129.198 225.5,130.5 Z"/></g>
<g><path style="opacity:1" fill="#834432" d="M 200.5,125.5 C 199.89,126.391 199.557,127.391 199.5,128.5C 198.326,130.441 196.659,131.941 194.5,133C 190.861,133.026 187.528,133.86 184.5,135.5C 183.833,135.5 183.5,135.833 183.5,136.5C 182.167,136.5 180.833,136.5 179.5,136.5C 179.5,135.833 179.167,135.5 178.5,135.5C 177.373,134.878 176.373,134.045 175.5,133C 172.086,132.703 168.753,132.036 165.5,131C 164.177,130.184 163.511,129.017 163.5,127.5C 163.5,126.833 163.5,126.167 163.5,125.5C 164.031,123.376 165.365,121.876 167.5,121C 168.5,120.333 169.5,120.333 170.5,121C 166.818,122.32 165.318,124.82 166,128.5C 168.228,130.113 170.728,130.78 173.5,130.5C 173.719,129.325 173.386,128.325 172.5,127.5C 171.604,128.506 170.938,128.506 170.5,127.5C 172.167,126.167 173.833,126.167 175.5,127.5C 176.924,132.117 179.924,133.95 184.5,133C 185.732,130.025 187.566,127.525 190,125.5C 190.5,125.667 191,125.833 191.5,126C 190.313,127.019 189.313,128.186 188.5,129.5C 190.828,130.724 193.161,130.724 195.5,129.5C 197.719,123.868 195.719,121.035 189.5,121C 191.5,120.333 193.5,120.333 195.5,121C 197.037,122.707 198.704,124.207 200.5,125.5 Z"/></g>
<g><path style="opacity:1" fill="#4b5352" d="M 163.5,125.5 C 163.5,126.167 163.5,126.833 163.5,127.5C 162.395,126.4 161.062,125.733 159.5,125.5C 159.082,124.778 158.416,124.278 157.5,124C 154.833,123.333 152.167,123.333 149.5,124C 143.766,131.023 136.433,133.689 127.5,132C 126.069,131.535 124.903,130.701 124,129.5C 123.891,133.282 125.391,136.282 128.5,138.5C 131.655,140.898 135.321,142.064 139.5,142C 138.241,142.923 136.908,143.757 135.5,144.5C 148.785,150.048 161.785,149.214 174.5,142C 176.923,140.429 178.256,138.263 178.5,135.5C 179.167,135.5 179.5,135.833 179.5,136.5C 179.256,139.263 177.923,141.429 175.5,143C 165.581,148.684 154.914,150.851 143.5,149.5C 140.275,148.35 136.942,147.184 133.5,146C 131.109,144.691 131.109,143.691 133.5,143C 132.473,142.487 131.473,141.987 130.5,141.5C 127.843,143.466 126.177,146.133 125.5,149.5C 124.447,154.133 124.281,158.799 125,163.5C 125.667,162.167 126.333,160.833 127,159.5C 129.958,172.087 136.458,182.421 146.5,190.5C 146.833,189.833 147.167,189.167 147.5,188.5C 145.985,185.169 144.818,181.836 144,178.5C 149.569,186.46 155.736,193.96 162.5,201C 168.21,204.855 174.21,208.188 180.5,211C 183.362,212.786 184.028,215.119 182.5,218C 183.094,218.464 183.761,218.631 184.5,218.5C 188.138,218.262 190.971,216.596 193,213.5C 196.252,208.666 199.252,203.666 202,198.5C 202.192,200.577 202.692,202.577 203.5,204.5C 209.974,198.858 215.141,192.191 219,184.5C 219.923,185.759 220.757,187.092 221.5,188.5C 226.16,184.548 229.16,179.548 230.5,173.5C 231.913,167.216 233.247,160.883 234.5,154.5C 235.316,156.287 236.316,157.954 237.5,159.5C 238.777,153.391 237.444,147.891 233.5,143C 232.365,142.251 231.365,142.417 230.5,143.5C 231.025,144.192 231.692,144.692 232.5,145C 215.902,153.13 200.069,151.963 185,141.5C 183.991,139.975 183.491,138.308 183.5,136.5C 183.5,135.833 183.833,135.5 184.5,135.5C 184.472,137.582 185.139,139.416 186.5,141C 199.807,149.291 213.807,150.624 228.5,145C 226.956,144.71 225.623,144.044 224.5,143C 232.529,142.791 237.862,138.958 240.5,131.5C 240.167,131.167 239.833,130.833 239.5,130.5C 238.099,131.521 236.765,132.521 235.5,133.5C 227.144,133.988 220.144,131.154 214.5,125C 208.694,122.562 203.694,123.729 199.5,128.5C 199.557,127.391 199.89,126.391 200.5,125.5C 208.307,120.851 215.307,121.851 221.5,128.5C 222.514,129.674 223.847,130.34 225.5,130.5C 227.265,131.461 229.265,131.795 231.5,131.5C 233.554,131.635 235.221,130.968 236.5,129.5C 236.435,129.938 236.601,130.272 237,130.5C 238.264,128.393 240.097,127.393 242.5,127.5C 242.271,132.792 240.271,137.292 236.5,141C 240.595,146.879 242.095,153.379 241,160.5C 239.599,162.192 237.766,162.859 235.5,162.5C 235.194,174.102 230.861,183.768 222.5,191.5C 220.302,191.12 218.635,191.787 217.5,193.5C 213.293,200.712 207.293,205.712 199.5,208.5C 196.784,212.203 194.117,215.87 191.5,219.5C 185.488,222.108 179.488,222.108 173.5,219.5C 175.386,218.594 177.22,217.594 179,216.5C 179.684,215.216 179.517,214.049 178.5,213C 171.634,210.653 165.468,207.153 160,202.5C 159.333,204.167 159.333,205.833 160,207.5C 165.375,221.217 173.542,233.051 184.5,243C 189.398,247.408 194.398,251.574 199.5,255.5C 177.318,242.47 162.818,223.47 156,198.5C 156.349,208.746 158.182,218.746 161.5,228.5C 158.613,223.998 156.78,218.998 156,213.5C 155.167,207.5 154.333,201.5 153.5,195.5C 151.306,209.072 150.139,222.739 150,236.5C 148.536,237.459 147.703,238.792 147.5,240.5C 148.698,243.426 149.698,246.426 150.5,249.5C 147.267,254.058 147.934,257.892 152.5,261C 156.732,263.275 160.732,265.775 164.5,268.5C 160.926,267.379 157.592,265.713 154.5,263.5C 151.569,261.909 148.902,259.909 146.5,257.5C 139.216,258.3 131.883,258.8 124.5,259C 123.892,259.87 123.059,260.37 122,260.5C 112.569,258.012 103.069,257.845 93.5,260C 91.5789,260.36 89.9122,261.194 88.5,262.5C 97.398,263.724 106.065,265.891 114.5,269C 116.618,270.049 118.284,271.549 119.5,273.5C 118.391,273.443 117.391,273.11 116.5,272.5C 107.573,267.611 97.9067,264.944 87.5,264.5C 86.4324,263.566 85.099,263.232 83.5,263.5C 87.0941,259.2 91.7608,256.7 97.5,256C 113.651,256.457 129.651,256.457 145.5,256C 146.894,254.261 147.561,252.261 147.5,250C 146.793,246.584 145.793,243.25 144.5,240C 145.635,237.518 146.801,235.018 148,232.5C 148.495,230.527 148.662,228.527 148.5,226.5C 149.207,223.214 149.54,219.881 149.5,216.5C 149.395,212.452 149.728,208.452 150.5,204.5C 151.005,201.159 151.172,197.826 151,194.5C 148.924,195.757 147.09,195.424 145.5,193.5C 144.71,192.599 143.71,191.932 142.5,191.5C 135.622,185.423 130.455,178.09 127,169.5C 126.15,168.576 125.15,168.576 124,169.5C 122.523,168.556 121.523,167.223 121,165.5C 119.599,156.273 121.433,147.773 126.5,140C 124.577,136.822 122.911,133.488 121.5,130C 121.613,128.72 122.28,127.887 123.5,127.5C 125.4,129.616 127.733,130.949 130.5,131.5C 132.735,131.795 134.735,131.461 136.5,130.5C 136.833,130.5 137.167,130.5 137.5,130.5C 138.5,130.167 139.167,129.5 139.5,128.5C 140.552,128.649 141.552,128.483 142.5,128C 144.763,126.383 146.763,124.55 148.5,122.5C 153.95,121.111 158.95,122.111 163.5,125.5 Z"/></g>
<g><path style="opacity:1" fill="#f5f6f7" d="M 130.5,141.5 C 130.736,144.226 129.903,146.559 128,148.5C 126.459,154.767 127.793,155.767 132,151.5C 131.758,161.656 134.258,170.989 139.5,179.5C 140.711,176.239 141.711,172.905 142.5,169.5C 148.029,179.872 155.029,189.205 163.5,197.5C 170.958,201.372 178.125,205.706 185,210.5C 185.722,213.261 185.555,215.927 184.5,218.5C 183.761,218.631 183.094,218.464 182.5,218C 184.028,215.119 183.362,212.786 180.5,211C 174.21,208.188 168.21,204.855 162.5,201C 155.736,193.96 149.569,186.46 144,178.5C 144.818,181.836 145.985,185.169 147.5,188.5C 147.167,189.167 146.833,189.833 146.5,190.5C 136.458,182.421 129.958,172.087 127,159.5C 126.333,160.833 125.667,162.167 125,163.5C 124.281,158.799 124.447,154.133 125.5,149.5C 126.177,146.133 127.843,143.466 130.5,141.5 Z"/></g>
<g><path style="opacity:1" fill="#e0e4e3" d="M 159.5,125.5 C 161.062,125.733 162.395,126.4 163.5,127.5C 163.511,129.017 164.177,130.184 165.5,131C 168.753,132.036 172.086,132.703 175.5,133C 176.373,134.045 177.373,134.878 178.5,135.5C 178.256,138.263 176.923,140.429 174.5,142C 161.785,149.214 148.785,150.048 135.5,144.5C 136.908,143.757 138.241,142.923 139.5,142C 135.321,142.064 131.655,140.898 128.5,138.5C 134.03,139.455 139.696,139.455 145.5,138.5C 145.672,140.492 145.005,142.158 143.5,143.5C 153.155,145.666 162.155,144.166 170.5,139C 172.616,137.829 173.282,136.329 172.5,134.5C 168.89,135.658 165.223,136.158 161.5,136C 163.5,135 165.5,134 167.5,133C 165.833,132.667 164.167,132.333 162.5,132C 161.18,129.683 159.514,127.683 157.5,126C 158.094,125.536 158.761,125.369 159.5,125.5 Z"/></g>
<g><path style="opacity:1" fill="#e3e6e6" d="M 199.5,128.5 C 199.414,129.496 199.748,130.329 200.5,131C 195.443,133.729 196.109,135.396 202.5,136C 198.814,136.807 195.314,136.307 192,134.5C 190.521,135.873 190.688,137.373 192.5,139C 201.205,143.873 210.539,145.54 220.5,144C 219.313,142.981 218.313,141.814 217.5,140.5C 221.842,139.703 226.176,138.87 230.5,138C 232.286,137.215 233.786,136.049 235,134.5C 235.893,135.711 236.726,135.711 237.5,134.5C 237.043,133.702 236.376,133.369 235.5,133.5C 236.765,132.521 238.099,131.521 239.5,130.5C 239.833,130.833 240.167,131.167 240.5,131.5C 237.862,138.958 232.529,142.791 224.5,143C 225.623,144.044 226.956,144.71 228.5,145C 213.807,150.624 199.807,149.291 186.5,141C 185.139,139.416 184.472,137.582 184.5,135.5C 187.528,133.86 190.861,133.026 194.5,133C 196.659,131.941 198.326,130.441 199.5,128.5 Z"/></g>
<g><path style="opacity:1" fill="#fdfdfd" d="M 179.5,136.5 C 180.833,136.5 182.167,136.5 183.5,136.5C 183.491,138.308 183.991,139.975 185,141.5C 200.069,151.963 215.902,153.13 232.5,145C 231.692,144.692 231.025,144.192 230.5,143.5C 231.365,142.417 232.365,142.251 233.5,143C 237.444,147.891 238.777,153.391 237.5,159.5C 236.316,157.954 235.316,156.287 234.5,154.5C 233.247,160.883 231.913,167.216 230.5,173.5C 227.703,175.761 225.37,178.427 223.5,181.5C 221.833,180.167 220.167,178.833 218.5,177.5C 215.432,183.299 212.099,188.966 208.5,194.5C 207.808,193.975 207.308,193.308 207,192.5C 206.667,189.5 206.333,186.5 206,183.5C 202.703,191.273 198.536,198.439 193.5,205C 190.364,206.041 187.864,205.207 186,202.5C 177.371,192.242 171.704,180.576 169,167.5C 168.829,180.489 172.662,192.156 180.5,202.5C 180.167,202.833 179.833,203.167 179.5,203.5C 167.596,196.299 158.429,186.632 152,174.5C 149.792,168.106 147.626,161.772 145.5,155.5C 142.891,155.83 141.224,157.33 140.5,160C 139.517,160.591 138.85,160.257 138.5,159C 139.256,156.144 140.089,153.311 141,150.5C 141.671,149.748 142.504,149.414 143.5,149.5C 154.914,150.851 165.581,148.684 175.5,143C 177.923,141.429 179.256,139.263 179.5,136.5 Z"/></g>
<g><path style="opacity:1" fill="#fafafa" d="M 159.5,125.5 C 158.761,125.369 158.094,125.536 157.5,126C 159.514,127.683 161.18,129.683 162.5,132C 164.167,132.333 165.833,132.667 167.5,133C 165.5,134 163.5,135 161.5,136C 165.223,136.158 168.89,135.658 172.5,134.5C 173.282,136.329 172.616,137.829 170.5,139C 162.155,144.166 153.155,145.666 143.5,143.5C 145.005,142.158 145.672,140.492 145.5,138.5C 139.696,139.455 134.03,139.455 128.5,138.5C 125.391,136.282 123.891,133.282 124,129.5C 124.903,130.701 126.069,131.535 127.5,132C 136.433,133.689 143.766,131.023 149.5,124C 152.167,123.333 154.833,123.333 157.5,124C 158.416,124.278 159.082,124.778 159.5,125.5 Z"/></g>
<g><path style="opacity:1" fill="#fbfbfb" d="M 235.5,133.5 C 236.376,133.369 237.043,133.702 237.5,134.5C 236.726,135.711 235.893,135.711 235,134.5C 233.786,136.049 232.286,137.215 230.5,138C 226.176,138.87 221.842,139.703 217.5,140.5C 218.313,141.814 219.313,142.981 220.5,144C 210.539,145.54 201.205,143.873 192.5,139C 190.688,137.373 190.521,135.873 192,134.5C 195.314,136.307 198.814,136.807 202.5,136C 196.109,135.396 195.443,133.729 200.5,131C 199.748,130.329 199.414,129.496 199.5,128.5C 203.694,123.729 208.694,122.562 214.5,125C 220.144,131.154 227.144,133.988 235.5,133.5 Z"/></g>
<g><path style="opacity:1" fill="#c96e55" d="M 145.5,193.5 C 147.09,195.424 148.924,195.757 151,194.5C 151.172,197.826 151.005,201.159 150.5,204.5C 149.751,203.469 149.085,202.302 148.5,201C 144.797,200.421 141.131,200.588 137.5,201.5C 139.167,197.833 141.833,195.167 145.5,193.5 Z"/></g>
<g><path style="opacity:1" fill="#dae0e0" d="M 130.5,141.5 C 131.473,141.987 132.473,142.487 133.5,143C 131.109,143.691 131.109,144.691 133.5,146C 136.942,147.184 140.275,148.35 143.5,149.5C 142.504,149.414 141.671,149.748 141,150.5C 140.089,153.311 139.256,156.144 138.5,159C 138.85,160.257 139.517,160.591 140.5,160C 141.224,157.33 142.891,155.83 145.5,155.5C 147.626,161.772 149.792,168.106 152,174.5C 158.429,186.632 167.596,196.299 179.5,203.5C 179.833,203.167 180.167,202.833 180.5,202.5C 172.662,192.156 168.829,180.489 169,167.5C 171.704,180.576 177.371,192.242 186,202.5C 187.864,205.207 190.364,206.041 193.5,205C 198.536,198.439 202.703,191.273 206,183.5C 206.333,186.5 206.667,189.5 207,192.5C 207.308,193.308 207.808,193.975 208.5,194.5C 212.099,188.966 215.432,183.299 218.5,177.5C 220.167,178.833 221.833,180.167 223.5,181.5C 225.37,178.427 227.703,175.761 230.5,173.5C 229.16,179.548 226.16,184.548 221.5,188.5C 220.757,187.092 219.923,185.759 219,184.5C 215.141,192.191 209.974,198.858 203.5,204.5C 202.692,202.577 202.192,200.577 202,198.5C 199.252,203.666 196.252,208.666 193,213.5C 190.971,216.596 188.138,218.262 184.5,218.5C 185.555,215.927 185.722,213.261 185,210.5C 178.125,205.706 170.958,201.372 163.5,197.5C 155.029,189.205 148.029,179.872 142.5,169.5C 141.711,172.905 140.711,176.239 139.5,179.5C 134.258,170.989 131.758,161.656 132,151.5C 127.793,155.767 126.459,154.767 128,148.5C 129.903,146.559 130.736,144.226 130.5,141.5 Z"/></g>
<g><path style="opacity:1" fill="#c96c55" d="M 217.5,193.5 C 221.37,194.263 224.37,196.263 226.5,199.5C 223.744,197.747 220.744,196.914 217.5,197C 215.249,200.925 212.583,204.592 209.5,208C 207.285,209.044 204.952,209.71 202.5,210C 200.65,213.362 198.317,216.362 195.5,219C 194.207,219.49 192.873,219.657 191.5,219.5C 194.117,215.87 196.784,212.203 199.5,208.5C 207.293,205.712 213.293,200.712 217.5,193.5 Z"/></g>
<g><path style="opacity:1" fill="#7f3e2d" d="M 142.5,191.5 C 143.71,191.932 144.71,192.599 145.5,193.5C 141.833,195.167 139.167,197.833 137.5,201.5C 136.08,211.843 131.414,220.343 123.5,227C 124.608,229.112 126.108,230.946 128,232.5C 129.588,235.038 130.588,237.705 131,240.5C 127.306,234.469 122.139,230.303 115.5,228C 102.776,226.989 90.4428,224.322 78.5,220C 77.6433,219.311 76.9767,218.478 76.5,217.5C 79.5,215.167 82.1667,212.5 84.5,209.5C 77.1983,204.262 74.8649,197.262 77.5,188.5C 71.5822,189.937 68.9156,193.771 69.5,200C 72.6475,209.813 69.3141,212.146 59.5,207C 57.2256,205.235 55.5589,203.068 54.5,200.5C 54.6082,199.558 54.9415,198.725 55.5,198C 58.3269,196.377 61.3269,195.21 64.5,194.5C 65.8772,192.711 66.8772,190.711 67.5,188.5C 66.8333,188.167 66.1667,187.833 65.5,187.5C 58.9475,188.109 52.4475,188.776 46,189.5C 43.8032,200.943 47.9699,209.443 58.5,215C 48.8922,213.276 40.7256,208.776 34,201.5C 32.5775,192.578 29.0775,191.412 23.5,198C 25.9802,203.494 29.6468,208.16 34.5,212C 40.0021,215.585 45.6688,218.919 51.5,222C 44.4682,220.489 37.4682,218.489 30.5,216C 28.5,213.333 26.5,210.667 24.5,208C 22.3763,206.418 20.2096,206.251 18,207.5C 19.4022,213.607 22.5689,218.773 27.5,223C 37.8318,222.102 47.4985,224.102 56.5,229C 61.5152,229.219 66.5152,229.219 71.5,229C 82.905,234.248 94.5717,238.914 106.5,243C 115.583,246.829 124.75,247.329 134,244.5C 136.869,233.75 142.036,224.417 149.5,216.5C 149.54,219.881 149.207,223.214 148.5,226.5C 147.778,226.082 147.278,225.416 147,224.5C 146,225.833 145,227.167 144,228.5C 141.349,234.803 138.516,240.97 135.5,247C 129.369,249.344 123.036,250.011 116.5,249C 100.793,244.32 85.4592,238.653 70.5,232C 65.5246,232.328 60.5246,232.328 55.5,232C 52.2046,229.566 48.538,227.899 44.5,227C 38.1667,226.667 31.8333,226.333 25.5,226C 21.0301,220.861 17.3635,215.195 14.5,209C 14.7606,204.572 17.0939,202.405 21.5,202.5C 19.5728,195.899 22.0728,191.899 29,190.5C 33.823,192 36.4896,195.334 37,200.5C 39.039,202.874 41.3723,204.874 44,206.5C 42.902,203.006 42.0687,199.339 41.5,195.5C 41.3817,191.679 42.715,188.513 45.5,186C 53.4741,184.811 61.4741,184.478 69.5,185C 70.0465,185.925 70.7132,186.758 71.5,187.5C 74.6124,185.816 77.9457,185.15 81.5,185.5C 79.8518,190.022 79.3518,194.688 80,199.5C 82.7256,202.717 85.2256,206.05 87.5,209.5C 85.9181,212.424 83.9181,215.091 81.5,217.5C 84.2796,219.117 87.2796,220.284 90.5,221C 100.477,222.935 110.477,224.268 120.5,225C 123.295,223.207 125.795,221.04 128,218.5C 131.124,211.666 133.791,204.666 136,197.5C 138.037,195.294 140.203,193.294 142.5,191.5 Z"/></g>
<g><path style="opacity:1" fill="#e59978" d="M 210.5,255.5 C 206.983,256.62 203.316,256.62 199.5,255.5C 194.398,251.574 189.398,247.408 184.5,243C 173.542,233.051 165.375,221.217 160,207.5C 159.333,205.833 159.333,204.167 160,202.5C 165.468,207.153 171.634,210.653 178.5,213C 179.517,214.049 179.684,215.216 179,216.5C 177.22,217.594 175.386,218.594 173.5,219.5C 179.488,222.108 185.488,222.108 191.5,219.5C 192.873,219.657 194.207,219.49 195.5,219C 198.317,216.362 200.65,213.362 202.5,210C 204.952,209.71 207.285,209.044 209.5,208C 212.583,204.592 215.249,200.925 217.5,197C 220.744,196.914 223.744,197.747 226.5,199.5C 229.777,206.219 232.61,213.219 235,220.5C 237.124,223.325 239.624,225.825 242.5,228C 238.591,231.682 236.257,235.849 235.5,240.5C 238.659,236.508 242.326,233.008 246.5,230C 254.011,227.831 261.678,226.498 269.5,226C 275.917,224.57 281.917,222.237 287.5,219C 284.65,216.318 281.984,213.484 279.5,210.5C 281.008,208.493 282.842,206.826 285,205.5C 288.044,200.581 288.21,195.581 285.5,190.5C 289.928,189.705 292.761,191.705 294,196.5C 295.114,200.95 294.28,204.95 291.5,208.5C 298.995,211.572 304.662,209.405 308.5,202C 308.415,200.893 308.081,199.893 307.5,199C 301.409,198.377 297.409,195.21 295.5,189.5C 302.501,188.755 309.501,189.088 316.5,190.5C 317.469,192.573 318.135,194.739 318.5,197C 316.655,203.195 313.655,208.695 309.5,213.5C 307.922,212.36 306.256,211.86 304.5,212C 307.321,213.822 309.821,215.989 312,218.5C 312,217.167 312,215.833 312,214.5C 316.415,212.377 320.582,209.877 324.5,207C 327.393,203.316 329.726,199.316 331.5,195C 337.37,195.326 339.203,198.16 337,203.5C 334.128,206.037 331.628,208.87 329.5,212C 325.5,214.333 321.5,216.667 317.5,219C 322.447,218.512 327.447,218.012 332.5,217.5C 333.826,212.541 336.826,208.874 341.5,206.5C 343.446,208.044 343.946,210.044 343,212.5C 340.552,216.615 337.719,220.448 334.5,224C 324.424,223.062 315.091,225.062 306.5,230C 301.485,230.219 296.485,230.219 291.5,230C 275.442,238.241 258.609,244.074 241,247.5C 237.757,247.693 234.757,247.027 232,245.5C 228.993,234.481 223.66,224.815 216,216.5C 218.19,228.976 213.024,234.143 200.5,232C 195.379,230.46 190.379,228.627 185.5,226.5C 184.263,226.556 183.263,227.056 182.5,228C 188.447,229.137 194.113,231.137 199.5,234C 202.833,234.333 206.167,234.667 209.5,235C 210.479,241.744 210.812,248.578 210.5,255.5 Z"/></g>
<g><path style="opacity:1" fill="#f7f8f8" d="M 199.5,255.5 C 202.891,258.438 206.724,259.105 211,257.5C 211.617,258.449 211.451,259.282 210.5,260C 207.637,261.399 204.637,262.399 201.5,263C 205.323,263.617 208.823,262.783 212,260.5C 213.636,255.988 214.636,251.322 215,246.5C 221.681,251.839 223.681,258.506 221,266.5C 219.223,269.059 217.723,271.726 216.5,274.5C 211.62,276.568 206.62,276.901 201.5,275.5C 207.658,273.368 212.824,269.702 217,264.5C 217.667,262.5 217.667,260.5 217,258.5C 215.526,262.641 212.693,265.474 208.5,267C 203.669,269.062 198.669,269.729 193.5,269C 190,266.833 186.5,264.667 183,262.5C 178.637,255.986 174.137,249.653 169.5,243.5C 167.578,237.984 164.912,232.984 161.5,228.5C 158.182,218.746 156.349,208.746 156,198.5C 162.818,223.47 177.318,242.47 199.5,255.5 Z"/></g>
<g><path style="opacity:1" fill="#e59978" d="M 137.5,201.5 C 141.131,200.588 144.797,200.421 148.5,201C 149.085,202.302 149.751,203.469 150.5,204.5C 149.728,208.452 149.395,212.452 149.5,216.5C 142.036,224.417 136.869,233.75 134,244.5C 124.75,247.329 115.583,246.829 106.5,243C 94.5717,238.914 82.905,234.248 71.5,229C 66.5152,229.219 61.5152,229.219 56.5,229C 47.4985,224.102 37.8318,222.102 27.5,223C 22.5689,218.773 19.4022,213.607 18,207.5C 20.2096,206.251 22.3763,206.418 24.5,208C 26.5,210.667 28.5,213.333 30.5,216C 37.4682,218.489 44.4682,220.489 51.5,222C 45.6688,218.919 40.0021,215.585 34.5,212C 29.6468,208.16 25.9802,203.494 23.5,198C 29.0775,191.412 32.5775,192.578 34,201.5C 40.7256,208.776 48.8922,213.276 58.5,215C 47.9699,209.443 43.8032,200.943 46,189.5C 52.4475,188.776 58.9475,188.109 65.5,187.5C 66.1667,187.833 66.8333,188.167 67.5,188.5C 66.8772,190.711 65.8772,192.711 64.5,194.5C 61.3269,195.21 58.3269,196.377 55.5,198C 54.9415,198.725 54.6082,199.558 54.5,200.5C 55.5589,203.068 57.2256,205.235 59.5,207C 69.3141,212.146 72.6475,209.813 69.5,200C 68.9156,193.771 71.5822,189.937 77.5,188.5C 74.8649,197.262 77.1983,204.262 84.5,209.5C 82.1667,212.5 79.5,215.167 76.5,217.5C 76.9767,218.478 77.6433,219.311 78.5,220C 90.4428,224.322 102.776,226.989 115.5,228C 122.139,230.303 127.306,234.469 131,240.5C 130.588,237.705 129.588,235.038 128,232.5C 126.108,230.946 124.608,229.112 123.5,227C 131.414,220.343 136.08,211.843 137.5,201.5 Z"/></g>
<g><path style="opacity:1" fill="#f7f2ef" d="M 64.5,197.5 C 69.3962,208.191 67.0629,209.357 57.5,201C 59.7133,199.384 62.0466,198.217 64.5,197.5 Z"/></g>
<g><path style="opacity:1" fill="#dde2e2" d="M 161.5,228.5 C 162.878,234.26 165.545,239.26 169.5,243.5C 174.137,249.653 178.637,255.986 183,262.5C 186.5,264.667 190,266.833 193.5,269C 198.669,269.729 203.669,269.062 208.5,267C 212.693,265.474 215.526,262.641 217,258.5C 217.667,260.5 217.667,262.5 217,264.5C 212.824,269.702 207.658,273.368 201.5,275.5C 194.973,273.327 188.307,271.661 181.5,270.5C 182.609,269.71 183.942,269.21 185.5,269C 181.14,265.489 176.473,262.489 171.5,260C 166.695,253.522 161.862,247.022 157,240.5C 156.333,243.5 156.333,246.5 157,249.5C 161.008,258.18 167.175,265.013 175.5,270C 177.134,270.494 178.801,270.66 180.5,270.5C 179.101,271.89 177.434,272.89 175.5,273.5C 172.249,271.043 168.582,269.376 164.5,268.5C 160.732,265.775 156.732,263.275 152.5,261C 147.934,257.892 147.267,254.058 150.5,249.5C 149.698,246.426 148.698,243.426 147.5,240.5C 147.703,238.792 148.536,237.459 150,236.5C 150.139,222.739 151.306,209.072 153.5,195.5C 154.333,201.5 155.167,207.5 156,213.5C 156.78,218.998 158.613,223.998 161.5,228.5 Z"/></g>
<g><path style="opacity:1" fill="#6d7574" d="M 161.5,228.5 C 164.912,232.984 167.578,237.984 169.5,243.5C 165.545,239.26 162.878,234.26 161.5,228.5 Z"/></g>
<g><path style="opacity:1" fill="#7e3d2c" d="M 213.5,240.5 C 212.992,245.6 211.992,250.6 210.5,255.5C 210.812,248.578 210.479,241.744 209.5,235C 206.167,234.667 202.833,234.333 199.5,234C 194.113,231.137 188.447,229.137 182.5,228C 183.263,227.056 184.263,226.556 185.5,226.5C 190.379,228.627 195.379,230.46 200.5,232C 213.024,234.143 218.19,228.976 216,216.5C 223.66,224.815 228.993,234.481 232,245.5C 234.757,247.027 237.757,247.693 241,247.5C 258.609,244.074 275.442,238.241 291.5,230C 296.485,230.219 301.485,230.219 306.5,230C 315.091,225.062 324.424,223.062 334.5,224C 337.719,220.448 340.552,216.615 343,212.5C 343.946,210.044 343.446,208.044 341.5,206.5C 336.826,208.874 333.826,212.541 332.5,217.5C 327.447,218.012 322.447,218.512 317.5,219C 321.5,216.667 325.5,214.333 329.5,212C 331.628,208.87 334.128,206.037 337,203.5C 339.203,198.16 337.37,195.326 331.5,195C 329.726,199.316 327.393,203.316 324.5,207C 320.582,209.877 316.415,212.377 312,214.5C 312,215.833 312,217.167 312,218.5C 309.821,215.989 307.321,213.822 304.5,212C 306.256,211.86 307.922,212.36 309.5,213.5C 313.655,208.695 316.655,203.195 318.5,197C 318.135,194.739 317.469,192.573 316.5,190.5C 309.501,189.088 302.501,188.755 295.5,189.5C 297.409,195.21 301.409,198.377 307.5,199C 308.081,199.893 308.415,200.893 308.5,202C 304.662,209.405 298.995,211.572 291.5,208.5C 294.28,204.95 295.114,200.95 294,196.5C 292.761,191.705 289.928,189.705 285.5,190.5C 288.21,195.581 288.044,200.581 285,205.5C 282.842,206.826 281.008,208.493 279.5,210.5C 281.984,213.484 284.65,216.318 287.5,219C 281.917,222.237 275.917,224.57 269.5,226C 261.678,226.498 254.011,227.831 246.5,230C 242.326,233.008 238.659,236.508 235.5,240.5C 236.257,235.849 238.591,231.682 242.5,228C 239.624,225.825 237.124,223.325 235,220.5C 232.61,213.219 229.777,206.219 226.5,199.5C 224.37,196.263 221.37,194.263 217.5,193.5C 218.635,191.787 220.302,191.12 222.5,191.5C 225.464,193.962 228.297,196.629 231,199.5C 232.735,206.371 235.068,213.037 238,219.5C 240.489,222.832 243.656,225.166 247.5,226.5C 252.712,224.98 258.045,224.147 263.5,224C 269.99,222.628 276.324,220.795 282.5,218.5C 280.082,216.091 278.082,213.424 276.5,210.5C 278.774,207.05 281.274,203.717 284,200.5C 284.437,195.719 283.937,191.052 282.5,186.5C 285.724,186.203 288.724,186.87 291.5,188.5C 293.411,186.114 295.911,185.114 299,185.5C 305.555,185.974 312.055,186.808 318.5,188C 322.586,194.513 322.253,200.846 317.5,207C 323.004,204.806 326.504,200.64 328,194.5C 332.732,190.631 337.065,191.298 341,196.5C 341.334,198.847 341.167,201.181 340.5,203.5C 345.346,204.509 347.18,207.509 346,212.5C 343.242,217.916 339.742,222.75 335.5,227C 325.132,226.099 315.465,228.099 306.5,233C 301.811,233.291 297.144,233.291 292.5,233C 280.29,238.271 267.957,243.271 255.5,248C 248.315,250.275 240.982,250.942 233.5,250C 231.714,249.215 230.214,248.049 229,246.5C 226.881,239.02 223.714,232.02 219.5,225.5C 218.172,228.824 216.339,231.824 214,234.5C 213.505,236.473 213.338,238.473 213.5,240.5 Z"/></g>
<g><path style="opacity:1" fill="#f7f4f1" d="M 297.5,198.5 C 300.296,199.376 302.963,200.543 305.5,202C 303.066,204.878 300.066,206.712 296.5,207.5C 297.159,204.545 297.492,201.545 297.5,198.5 Z"/></g>
<g><path style="opacity:1" fill="#fbfcfc" d="M 181.5,270.5 C 181.167,270.5 180.833,270.5 180.5,270.5C 178.801,270.66 177.134,270.494 175.5,270C 167.175,265.013 161.008,258.18 157,249.5C 156.333,246.5 156.333,243.5 157,240.5C 161.862,247.022 166.695,253.522 171.5,260C 176.473,262.489 181.14,265.489 185.5,269C 183.942,269.21 182.609,269.71 181.5,270.5 Z"/></g>
<g><path style="opacity:1" fill="#fafbfb" d="M 252.5,257.5 C 259.187,259.208 265.853,260.875 272.5,262.5C 269.645,265.927 265.979,267.761 261.5,268C 258.929,271.137 255.596,272.637 251.5,272.5C 249.621,272.607 249.288,272.107 250.5,271C 247.833,270.333 245.167,270.333 242.5,271C 238.214,271.97 234.38,273.803 231,276.5C 227.987,274.39 227.654,271.724 230,268.5C 236.45,262.631 243.95,258.964 252.5,257.5 Z"/></g>
<g><path style="opacity:1" fill="#f9f9f9" d="M 154.5,263.5 C 156.983,266.373 159.483,269.373 162,272.5C 162.162,276.457 160.328,277.457 156.5,275.5C 153.349,271.849 150.016,268.349 146.5,265C 143.77,262.796 140.77,261.463 137.5,261C 144.358,265.025 149.692,270.525 153.5,277.5C 148.282,278.452 143.282,277.618 138.5,275C 132.884,271.385 127.55,267.385 122.5,263C 120.523,261.459 118.523,260.959 116.5,261.5C 125.976,270.351 136.309,276.684 147.5,280.5C 137.994,278.79 128.66,276.457 119.5,273.5C 118.284,271.549 116.618,270.049 114.5,269C 106.065,265.891 97.398,263.724 88.5,262.5C 89.9122,261.194 91.5789,260.36 93.5,260C 103.069,257.845 112.569,258.012 122,260.5C 123.059,260.37 123.892,259.87 124.5,259C 131.883,258.8 139.216,258.3 146.5,257.5C 148.902,259.909 151.569,261.909 154.5,263.5 Z"/></g>
<g><path style="opacity:1" fill="#4b5351" d="M 213.5,240.5 C 217.38,244.215 220.713,248.381 223.5,253C 233.5,253.333 243.5,253.667 253.5,254C 259.948,256.817 266.615,258.817 273.5,260C 274.71,261.039 275.71,262.206 276.5,263.5C 274.694,264.024 273.028,264.691 271.5,265.5C 267.905,267.757 264.239,269.924 260.5,272C 256.044,272.957 251.711,274.29 247.5,276C 243.957,279.049 240.291,281.882 236.5,284.5C 236.167,284.5 235.833,284.5 235.5,284.5C 240.007,279.317 245.34,275.317 251.5,272.5C 255.596,272.637 258.929,271.137 261.5,268C 265.979,267.761 269.645,265.927 272.5,262.5C 265.853,260.875 259.187,259.208 252.5,257.5C 249.305,255.97 245.805,255.304 242,255.5C 235.796,255.895 229.63,256.562 223.5,257.5C 224.034,264.092 222.034,269.759 217.5,274.5C 217.167,274.5 216.833,274.5 216.5,274.5C 217.723,271.726 219.223,269.059 221,266.5C 223.681,258.506 221.681,251.839 215,246.5C 214.636,251.322 213.636,255.988 212,260.5C 208.823,262.783 205.323,263.617 201.5,263C 204.637,262.399 207.637,261.399 210.5,260C 211.451,259.282 211.617,258.449 211,257.5C 206.724,259.105 202.891,258.438 199.5,255.5C 203.316,256.62 206.983,256.62 210.5,255.5C 211.992,250.6 212.992,245.6 213.5,240.5 Z"/></g>
<g><path style="opacity:1" fill="#e7eaea" d="M 252.5,257.5 C 243.95,258.964 236.45,262.631 230,268.5C 227.654,271.724 227.987,274.39 231,276.5C 234.38,273.803 238.214,271.97 242.5,271C 245.167,270.333 247.833,270.333 250.5,271C 249.288,272.107 249.621,272.607 251.5,272.5C 245.34,275.317 240.007,279.317 235.5,284.5C 233.066,281.562 230.399,278.729 227.5,276C 224.312,274.684 220.978,274.184 217.5,274.5C 222.034,269.759 224.034,264.092 223.5,257.5C 229.63,256.562 235.796,255.895 242,255.5C 245.805,255.304 249.305,255.97 252.5,257.5 Z"/></g>
<g><path style="opacity:1" fill="#dbdfde" d="M 154.5,263.5 C 157.592,265.713 160.926,267.379 164.5,268.5C 167.874,270.862 171.54,272.862 175.5,274.5C 175.16,276.679 174.16,278.512 172.5,280C 167.393,281.222 162.226,282.055 157,282.5C 153.549,282.579 150.382,281.913 147.5,280.5C 136.309,276.684 125.976,270.351 116.5,261.5C 118.523,260.959 120.523,261.459 122.5,263C 127.55,267.385 132.884,271.385 138.5,275C 143.282,277.618 148.282,278.452 153.5,277.5C 149.692,270.525 144.358,265.025 137.5,261C 140.77,261.463 143.77,262.796 146.5,265C 150.016,268.349 153.349,271.849 156.5,275.5C 160.328,277.457 162.162,276.457 162,272.5C 159.483,269.373 156.983,266.373 154.5,263.5 Z"/></g>
<g><path style="opacity:1" fill="#7f3e2e" d="M 83.5,263.5 C 85.099,263.232 86.4324,263.566 87.5,264.5C 87.5,264.833 87.5,265.167 87.5,265.5C 73.9771,272.996 72.3104,282.33 82.5,293.5C 83.9093,295.417 85.576,297.25 87.5,299C 100.837,302.993 114.17,303.493 127.5,300.5C 146.545,299.619 165.211,296.452 183.5,291C 195.162,290.5 206.829,290.333 218.5,290.5C 206.316,291.246 193.983,292.079 181.5,293C 177.448,294.337 173.448,295.671 169.5,297C 180.503,298.215 191.503,299.382 202.5,300.5C 227.389,303.016 251.389,299.516 274.5,290C 276.618,288.951 278.284,287.451 279.5,285.5C 282.178,282.818 283.511,279.485 283.5,275.5C 283.415,273.667 282.748,272.334 281.5,271.5C 279.022,268.214 275.689,266.214 271.5,265.5C 273.028,264.691 274.694,264.024 276.5,263.5C 285.554,265.723 289.054,271.39 287,280.5C 286.063,283.656 284.563,286.489 282.5,289C 272.767,295.53 262.1,299.863 250.5,302C 239.394,303.753 228.227,304.919 217,305.5C 200.013,303.834 183.013,302.168 166,300.5C 157.128,301.174 148.295,302.174 139.5,303.5C 139.842,307.824 137.842,309.824 133.5,309.5C 130.729,309.918 128.729,308.918 127.5,306.5C 126.167,306.167 124.833,305.833 123.5,305.5C 110.978,307.306 98.6445,306.473 86.5,303C 78.4722,297.48 73.4722,289.98 71.5,280.5C 73.1154,273.208 77.1154,267.541 83.5,263.5 Z"/></g>
<g><path style="opacity:1" fill="#f1c79e" d="M 127.5,300.5 C 114.17,303.493 100.837,302.993 87.5,299C 85.576,297.25 83.9093,295.417 82.5,293.5C 82.3691,292.624 82.7025,291.957 83.5,291.5C 86.5027,295.007 90.1693,297.507 94.5,299C 105.674,299.17 116.674,299.67 127.5,300.5 Z"/></g>
<g><path style="opacity:1" fill="#c66952" d="M 218.5,290.5 C 220.415,290.216 222.081,290.549 223.5,291.5C 222.209,291.263 221.209,291.596 220.5,292.5C 214.112,292.312 207.778,292.812 201.5,294C 199.254,295.257 197.921,297.09 197.5,299.5C 199.415,299.216 201.081,299.549 202.5,300.5C 191.503,299.382 180.503,298.215 169.5,297C 173.448,295.671 177.448,294.337 181.5,293C 193.983,292.079 206.316,291.246 218.5,290.5 Z"/></g>
<g><path style="opacity:1" fill="#efc69c" d="M 281.5,271.5 C 282.748,272.334 283.415,273.667 283.5,275.5C 283.511,279.485 282.178,282.818 279.5,285.5C 280.52,281.249 280.52,276.749 279.5,272C 280.094,271.536 280.761,271.369 281.5,271.5 Z"/></g>
<g><path style="opacity:1" fill="#e59978" d="M 271.5,265.5 C 275.689,266.214 279.022,268.214 281.5,271.5C 280.761,271.369 280.094,271.536 279.5,272C 280.52,276.749 280.52,281.249 279.5,285.5C 278.284,287.451 276.618,288.951 274.5,290C 251.389,299.516 227.389,303.016 202.5,300.5C 201.081,299.549 199.415,299.216 197.5,299.5C 197.921,297.09 199.254,295.257 201.5,294C 207.778,292.812 214.112,292.312 220.5,292.5C 225.322,292.911 229.322,294.911 232.5,298.5C 236.163,297.683 238.496,295.517 239.5,292C 238.349,289.535 237.349,287.035 236.5,284.5C 240.291,281.882 243.957,279.049 247.5,276C 251.711,274.29 256.044,272.957 260.5,272C 264.239,269.924 267.905,267.757 271.5,265.5 Z"/></g>
<g><path style="opacity:1" fill="#834533" d="M 180.5,270.5 C 180.833,270.5 181.167,270.5 181.5,270.5C 188.307,271.661 194.973,273.327 201.5,275.5C 206.62,276.901 211.62,276.568 216.5,274.5C 216.833,274.5 217.167,274.5 217.5,274.5C 220.978,274.184 224.312,274.684 227.5,276C 230.399,278.729 233.066,281.562 235.5,284.5C 235.833,284.5 236.167,284.5 236.5,284.5C 237.349,287.035 238.349,289.535 239.5,292C 238.496,295.517 236.163,297.683 232.5,298.5C 229.322,294.911 225.322,292.911 220.5,292.5C 221.209,291.596 222.209,291.263 223.5,291.5C 227.292,291.979 230.459,293.646 233,296.5C 238.217,294.165 238.884,290.831 235,286.5C 231.962,283.797 229.295,280.797 227,277.5C 225.426,276.152 223.593,275.486 221.5,275.5C 214.904,277.115 208.237,277.615 201.5,277C 195.293,275.314 189.127,273.481 183,271.5C 178.82,273.166 175.987,276.166 174.5,280.5C 166.032,283.238 157.365,284.071 148.5,283C 136.626,279.907 124.793,276.74 113,273.5C 109.738,274.198 106.572,275.198 103.5,276.5C 102.537,276.03 102.537,275.363 103.5,274.5C 107.704,273.09 112.037,272.423 116.5,272.5C 117.391,273.11 118.391,273.443 119.5,273.5C 128.66,276.457 137.994,278.79 147.5,280.5C 150.382,281.913 153.549,282.579 157,282.5C 162.226,282.055 167.393,281.222 172.5,280C 174.16,278.512 175.16,276.679 175.5,274.5C 175.5,274.167 175.5,273.833 175.5,273.5C 177.434,272.89 179.101,271.89 180.5,270.5 Z"/></g>
<g><path style="opacity:1" fill="#cb6c56" d="M 87.5,264.5 C 97.9067,264.944 107.573,267.611 116.5,272.5C 112.037,272.423 107.704,273.09 103.5,274.5C 103.5,273.167 103.5,271.833 103.5,270.5C 98.1246,268.825 92.7913,267.159 87.5,265.5C 87.5,265.167 87.5,264.833 87.5,264.5 Z"/></g>
<g><path style="opacity:1" fill="#e69a78" d="M 87.5,265.5 C 92.7913,267.159 98.1246,268.825 103.5,270.5C 103.5,271.833 103.5,273.167 103.5,274.5C 102.537,275.363 102.537,276.03 103.5,276.5C 106.572,275.198 109.738,274.198 113,273.5C 124.793,276.74 136.626,279.907 148.5,283C 157.365,284.071 166.032,283.238 174.5,280.5C 175.987,276.166 178.82,273.166 183,271.5C 189.127,273.481 195.293,275.314 201.5,277C 208.237,277.615 214.904,277.115 221.5,275.5C 223.593,275.486 225.426,276.152 227,277.5C 229.295,280.797 231.962,283.797 235,286.5C 238.884,290.831 238.217,294.165 233,296.5C 230.459,293.646 227.292,291.979 223.5,291.5C 222.081,290.549 220.415,290.216 218.5,290.5C 206.829,290.333 195.162,290.5 183.5,291C 165.211,296.452 146.545,299.619 127.5,300.5C 116.674,299.67 105.674,299.17 94.5,299C 90.1693,297.507 86.5027,295.007 83.5,291.5C 82.7025,291.957 82.3691,292.624 82.5,293.5C 72.3104,282.33 73.9771,272.996 87.5,265.5 Z"/></g>
<g><path style="opacity:1" fill="#555d5d" d="M 164.5,268.5 C 168.582,269.376 172.249,271.043 175.5,273.5C 175.5,273.833 175.5,274.167 175.5,274.5C 171.54,272.862 167.874,270.862 164.5,268.5 Z"/></g>
<g><path style="opacity:1" fill="#db9075" d="M 130.5,302.5 C 132.167,302.5 133.833,302.5 135.5,302.5C 135.5,303.833 135.5,305.167 135.5,306.5C 132.412,306.803 130.746,305.47 130.5,302.5 Z"/></g>
<g><path style="opacity:1" fill="#dde1e0" d="M 143.5,325.5 C 170.169,325.333 196.835,325.5 223.5,326C 231.539,326.781 239.539,327.781 247.5,329C 250.525,329.154 252.191,330.654 252.5,333.5C 230.146,336.915 207.646,338.248 185,337.5C 162.006,338.24 139.173,336.907 116.5,333.5C 116.297,331.61 116.963,330.11 118.5,329C 127.014,328.088 135.347,326.921 143.5,325.5 Z"/></g>
</svg>
