<?xml version="1.0" encoding="UTF-8"?>
<!DOCTYPE svg PUBLIC "-//W3C//DTD SVG 1.1//EN" "http://www.w3.org/Graphics/SVG/1.1/DTD/svg11.dtd">
<svg xmlns="http://www.w3.org/2000/svg" version="1.1" width="225px" height="225px" style="shape-rendering:geometricPrecision; text-rendering:geometricPrecision; image-rendering:optimizeQuality; fill-rule:evenodd; clip-rule:evenodd" xmlns:xlink="http://www.w3.org/1999/xlink">
<g><path style="opacity:1" fill="#183150" d="M -0.5,-0.5 C 74.5,-0.5 149.5,-0.5 224.5,-0.5C 224.5,44.1667 224.5,88.8333 224.5,133.5C 213.476,133.076 202.476,132.243 191.5,131C 187.842,130.407 184.509,129.073 181.5,127C 182.056,126.617 182.389,126.117 182.5,125.5C 186.578,125.74 188.744,123.74 189,119.5C 192.115,117.353 194.948,114.853 197.5,112C 196.376,111.751 195.376,111.251 194.5,110.5C 196.173,106.648 197.339,102.648 198,98.5C 198.5,89.5062 198.666,80.5062 198.5,71.5C 197.5,71.5 196.5,71.5 195.5,71.5C 195.206,66.0178 193.54,61.0178 190.5,56.5C 190.987,55.5539 191.32,54.5539 191.5,53.5C 189.812,51.1455 187.812,49.1455 185.5,47.5C 183.964,45.9749 182.964,43.9749 182.5,41.5C 179.732,39.9093 177.398,37.9093 175.5,35.5C 174.272,32.9249 172.605,30.5916 170.5,28.5C 165.737,25.452 160.737,22.952 155.5,21C 145.752,19.2968 136.086,17.4634 126.5,15.5C 115.708,15.9853 106.208,19.652 98,26.5C 87.62,30.3816 80.4533,37.3816 76.5,47.5C 64.8088,65.3205 62.3088,84.6539 69,105.5C 71.4148,109.737 73.5815,114.07 75.5,118.5C 79.3085,120.427 81.9752,123.427 83.5,127.5C 82.1667,127.5 80.8333,127.5 79.5,127.5C 79.5,128.5 79.5,129.5 79.5,130.5C 52.7815,131.503 26.1149,133.17 -0.5,135.5C -0.5,90.1667 -0.5,44.8333 -0.5,-0.5 Z"/></g>
<g><path style="opacity:1" fill="#606f82" d="M 159.5,27.5 C 162.906,30.0675 166.24,32.9008 169.5,36C 172.07,36.7229 174.403,37.8896 176.5,39.5C 180.235,44.6256 183.735,49.9589 187,55.5C 191.128,71.2156 192.628,87.2156 191.5,103.5C 190.5,103.5 189.5,103.5 188.5,103.5C 188.167,106.167 187.833,108.833 187.5,111.5C 183.934,117.079 179.934,122.412 175.5,127.5C 175.649,128.552 175.483,129.552 175,130.5C 173.333,131.733 171.833,133.067 170.5,134.5C 168.435,136.216 166.102,137.549 163.5,138.5C 163.5,138.167 163.5,137.833 163.5,137.5C 163.414,136.504 163.748,135.671 164.5,135C 163.552,134.517 162.552,134.351 161.5,134.5C 162.5,132.167 164.167,130.5 166.5,129.5C 167.749,128.222 169.249,127.222 171,126.5C 171.483,125.552 171.649,124.552 171.5,123.5C 175.842,122.537 179.342,120.204 182,116.5C 183.139,111.249 184.973,106.249 187.5,101.5C 188.553,96.8673 188.719,92.2007 188,87.5C 185.664,88.2921 185.164,89.6254 186.5,91.5C 184.978,92.562 183.312,93.2287 181.5,93.5C 183.406,89.6302 184.739,85.6302 185.5,81.5C 186.469,82.3094 187.302,83.3094 188,84.5C 188.167,83.1667 188.333,81.8333 188.5,80.5C 186.305,73.4077 184.972,66.0744 184.5,58.5C 182.729,55.9492 180.729,53.6158 178.5,51.5C 173.701,42.6151 166.701,35.9485 157.5,31.5C 153.064,29.3889 148.398,27.8889 143.5,27C 134.833,26.3333 126.167,26.3333 117.5,27C 114.721,27.561 112.054,28.3944 109.5,29.5C 105.783,30.5274 102.45,32.3607 99.5,35C 100.167,35.3333 100.833,35.6667 101.5,36C 101.272,36.3988 100.938,36.5654 100.5,36.5C 97.8021,36.8449 95.8021,38.1782 94.5,40.5C 91.0291,41.6332 89.0291,43.9666 88.5,47.5C 87.325,47.281 86.325,47.6143 85.5,48.5C 80.4357,54.3963 77.1023,61.063 75.5,68.5C 73.9575,69.0819 73.1242,70.7486 73,73.5C 72.1477,78.4767 72.6477,83.31 74.5,88C 74.1081,89.0105 73.4415,89.5105 72.5,89.5C 73.8215,94.0665 74.6548,98.7332 75,103.5C 75.2355,105.119 76.0689,106.119 77.5,106.5C 78.0517,110.124 79.385,113.457 81.5,116.5C 86.1433,121.478 90.81,126.478 95.5,131.5C 96.5511,132.222 97.2178,133.222 97.5,134.5C 96.8333,134.5 96.1667,134.5 95.5,134.5C 90.2088,131.043 85.7088,126.71 82,121.5C 80.6897,118.873 79.023,116.54 77,114.5C 76.5172,113.552 76.3505,112.552 76.5,111.5C 75.5,111.5 74.5,111.5 73.5,111.5C 72.9305,101.86 71.5971,92.527 69.5,83.5C 70.0576,76.1403 70.7243,68.8069 71.5,61.5C 72.5,61.5 73.5,61.5 74.5,61.5C 76.7387,53.0364 81.0721,45.703 87.5,39.5C 87.369,38.7611 87.5357,38.0944 88,37.5C 90.7306,35.5813 93.2306,33.5813 95.5,31.5C 103.087,27.9796 111.087,25.1463 119.5,23C 133.23,21.9742 146.563,23.4742 159.5,27.5 Z"/></g>
<g><path style="opacity:1" fill="#dae2e9" d="M 157.5,31.5 C 156.254,33.4167 155.587,35.25 155.5,37C 156.624,37.2492 157.624,37.7492 158.5,38.5C 158.333,38.8333 158.167,39.1667 158,39.5C 156.185,38.7556 154.352,38.0889 152.5,37.5C 150.458,35.2869 148.125,34.6202 145.5,35.5C 148.425,33.1615 148.092,31.3282 144.5,30C 144.833,29.6667 145.167,29.3333 145.5,29C 139.352,29.1138 133.352,29.9471 127.5,31.5C 124.377,31.2935 121.377,30.6268 118.5,29.5C 115.434,31.0645 112.267,32.3978 109,33.5C 108.167,33.1667 107.333,32.8333 106.5,32.5C 107.34,31.265 108.34,30.265 109.5,29.5C 112.054,28.3944 114.721,27.561 117.5,27C 126.167,26.3333 134.833,26.3333 143.5,27C 148.398,27.8889 153.064,29.3889 157.5,31.5 Z"/></g>
<g><path style="opacity:1" fill="#a5afb7" d="M 145.5,35.5 C 144.739,34.6091 143.739,33.9424 142.5,33.5C 135.662,33.8873 128.995,33.8873 122.5,33.5C 115.598,34.3383 108.765,36.005 102,38.5C 101.235,38.4301 100.735,38.0967 100.5,37.5C 100.5,37.1667 100.5,36.8333 100.5,36.5C 100.938,36.5654 101.272,36.3988 101.5,36C 100.833,35.6667 100.167,35.3333 99.5,35C 102.45,32.3607 105.783,30.5274 109.5,29.5C 108.34,30.265 107.34,31.265 106.5,32.5C 107.333,32.8333 108.167,33.1667 109,33.5C 112.267,32.3978 115.434,31.0645 118.5,29.5C 121.377,30.6268 124.377,31.2935 127.5,31.5C 133.352,29.9471 139.352,29.1138 145.5,29C 145.167,29.3333 144.833,29.6667 144.5,30C 148.092,31.3282 148.425,33.1615 145.5,35.5 Z"/></g>
<g><path style="opacity:1" fill="#667079" d="M 122.5,33.5 C 123.847,34.1712 125.014,34.1712 126,33.5C 126.489,35.6044 127.655,35.9378 129.5,34.5C 131.795,36.433 134.295,36.7663 137,35.5C 141.896,36.2699 146.729,37.2699 151.5,38.5C 151.5,40.8333 151.5,43.1667 151.5,45.5C 147.551,45.6932 147.551,46.1932 151.5,47C 149.699,47.3173 149.366,47.984 150.5,49C 151.931,49.4652 153.097,50.2986 154,51.5C 154.249,50.376 154.749,49.376 155.5,48.5C 158.153,50.1848 160.486,52.1848 162.5,54.5C 161.391,55.29 160.058,55.79 158.5,56C 159.198,56.9707 159.198,58.1374 158.5,59.5C 158.899,61.1966 159.399,62.8632 160,64.5C 161.857,63.8334 163.357,64.5001 164.5,66.5C 162.817,68.5136 160.817,70.1802 158.5,71.5C 157.318,67.7694 156.818,64.1027 157,60.5C 155.855,59.3636 154.688,58.3636 153.5,57.5C 153.5,56.1667 153.5,54.8333 153.5,53.5C 149.924,54.8483 146.59,54.515 143.5,52.5C 144.5,52.5 145.5,52.5 146.5,52.5C 146.227,50.549 146.893,49.049 148.5,48C 145.833,46.6667 145.833,45.3333 148.5,44C 147.167,43.6667 145.833,43.3333 144.5,43C 144.833,42.6667 145.167,42.3333 145.5,42C 143.741,41.2025 142.074,41.3691 140.5,42.5C 141.167,43.1667 141.833,43.8333 142.5,44.5C 142,44.8333 141.5,45.1667 141,45.5C 136.178,43.488 131.178,41.1547 126,38.5C 123.409,38.5653 120.909,39.0653 118.5,40C 119.416,40.2784 120.082,40.7784 120.5,41.5C 118.158,41.5041 116.158,42.3375 114.5,44C 111.854,44.4974 109.187,44.6641 106.5,44.5C 108.532,43.5218 110.198,42.0218 111.5,40C 110.5,39.8333 109.5,39.6667 108.5,39.5C 106.307,39.7705 104.641,40.7705 103.5,42.5C 102.708,40.7428 101.375,39.4095 99.5,38.5C 99.6236,37.8933 99.9569,37.56 100.5,37.5C 100.735,38.0967 101.235,38.4301 102,38.5C 108.765,36.005 115.598,34.3383 122.5,33.5 Z"/></g>
<g><path style="opacity:1" fill="#293f5e" d="M 175.5,35.5 C 170.596,31.9179 165.262,29.2512 159.5,27.5C 159.631,26.6236 159.298,25.9569 158.5,25.5C 155.717,24.5371 153.05,23.3704 150.5,22C 139.167,21.3333 127.833,21.3333 116.5,22C 109.375,23.2092 102.708,25.7092 96.5,29.5C 95.7025,29.9569 95.3691,30.6236 95.5,31.5C 93.2306,33.5813 90.7306,35.5813 88,37.5C 87.5357,38.0944 87.369,38.7611 87.5,39.5C 83.8333,41.1667 81.1667,43.8333 79.5,47.5C 78.5,47.5 77.5,47.5 76.5,47.5C 80.4533,37.3816 87.62,30.3816 98,26.5C 106.208,19.652 115.708,15.9853 126.5,15.5C 136.086,17.4634 145.752,19.2968 155.5,21C 160.737,22.952 165.737,25.452 170.5,28.5C 172.605,30.5916 174.272,32.9249 175.5,35.5 Z"/></g>
<g><path style="opacity:1" fill="#41546e" d="M 159.5,27.5 C 146.563,23.4742 133.23,21.9742 119.5,23C 111.087,25.1463 103.087,27.9796 95.5,31.5C 95.3691,30.6236 95.7025,29.9569 96.5,29.5C 102.708,25.7092 109.375,23.2092 116.5,22C 127.833,21.3333 139.167,21.3333 150.5,22C 153.05,23.3704 155.717,24.5371 158.5,25.5C 159.298,25.9569 159.631,26.6236 159.5,27.5 Z"/></g>
<g><path style="opacity:1" fill="#535e66" d="M 100.5,36.5 C 100.5,36.8333 100.5,37.1667 100.5,37.5C 99.9569,37.56 99.6236,37.8933 99.5,38.5C 101.375,39.4095 102.708,40.7428 103.5,42.5C 102.737,43.2679 101.737,43.7679 100.5,44C 102.503,44.3345 104.17,45.1679 105.5,46.5C 105.5,47.5 105.5,48.5 105.5,49.5C 103.57,49.7706 102.236,50.7706 101.5,52.5C 100.36,53.1611 98.8603,53.1611 97,52.5C 96.9519,50.4559 97.4519,48.4559 98.5,46.5C 97.91,45.2011 96.91,44.3678 95.5,44C 97.6124,42.7834 97.2791,41.6168 94.5,40.5C 95.8021,38.1782 97.8021,36.8449 100.5,36.5 Z"/></g>
<g><path style="opacity:1" fill="#838d96" d="M 122.5,33.5 C 128.995,33.8873 135.662,33.8873 142.5,33.5C 143.739,33.9424 144.739,34.6091 145.5,35.5C 148.125,34.6202 150.458,35.2869 152.5,37.5C 153.673,39.3405 153.673,41.1739 152.5,43C 152.944,44.7618 153.444,44.5951 154,42.5C 154.483,43.448 154.649,44.448 154.5,45.5C 158.808,44.7353 161.642,46.4019 163,50.5C 163.915,49.6721 164.581,48.6721 165,47.5C 166.049,48.5171 167.216,48.6838 168.5,48C 167.284,46.2602 165.618,45.2602 163.5,45C 164.907,43.548 166.407,43.7147 168,45.5C 168.333,45.1667 168.667,44.8333 169,44.5C 171.77,47.4453 174.936,49.7786 178.5,51.5C 180.729,53.6158 182.729,55.9492 184.5,58.5C 184.972,66.0744 186.305,73.4077 188.5,80.5C 188.333,81.8333 188.167,83.1667 188,84.5C 187.302,83.3094 186.469,82.3094 185.5,81.5C 186.494,79.6656 186.494,77.9989 185.5,76.5C 185.598,74.4471 184.931,72.7804 183.5,71.5C 183.509,69.6916 183.009,68.0249 182,66.5C 180.373,65.4677 179.207,64.1344 178.5,62.5C 177.086,60.9458 175.419,59.6125 173.5,58.5C 172.812,55.0821 171.812,51.7488 170.5,48.5C 166.882,49.3517 164.216,51.3517 162.5,54.5C 160.486,52.1848 158.153,50.1848 155.5,48.5C 154.749,49.376 154.249,50.376 154,51.5C 153.097,50.2986 151.931,49.4652 150.5,49C 149.366,47.984 149.699,47.3173 151.5,47C 147.551,46.1932 147.551,45.6932 151.5,45.5C 151.5,43.1667 151.5,40.8333 151.5,38.5C 146.729,37.2699 141.896,36.2699 137,35.5C 134.295,36.7663 131.795,36.433 129.5,34.5C 127.655,35.9378 126.489,35.6044 126,33.5C 125.014,34.1712 123.847,34.1712 122.5,33.5 Z"/></g>
<g><path style="opacity:1" fill="#8b969c" d="M 106.5,44.5 C 106.167,45.1667 105.833,45.8333 105.5,46.5C 104.17,45.1679 102.503,44.3345 100.5,44C 101.737,43.7679 102.737,43.2679 103.5,42.5C 104.641,40.7705 106.307,39.7705 108.5,39.5C 109.5,39.6667 110.5,39.8333 111.5,40C 110.198,42.0218 108.532,43.5218 106.5,44.5 Z"/></g>
<g><path style="opacity:1" fill="#99a5ae" d="M 157.5,31.5 C 166.701,35.9485 173.701,42.6151 178.5,51.5C 174.936,49.7786 171.77,47.4453 169,44.5C 168.667,44.8333 168.333,45.1667 168,45.5C 166.407,43.7147 164.907,43.548 163.5,45C 165.618,45.2602 167.284,46.2602 168.5,48C 167.216,48.6838 166.049,48.5171 165,47.5C 164.581,48.6721 163.915,49.6721 163,50.5C 161.642,46.4019 158.808,44.7353 154.5,45.5C 154.649,44.448 154.483,43.448 154,42.5C 153.444,44.5951 152.944,44.7618 152.5,43C 153.673,41.1739 153.673,39.3405 152.5,37.5C 154.352,38.0889 156.185,38.7556 158,39.5C 158.167,39.1667 158.333,38.8333 158.5,38.5C 157.624,37.7492 156.624,37.2492 155.5,37C 155.587,35.25 156.254,33.4167 157.5,31.5 Z"/></g>
<g><path style="opacity:1" fill="#828c95" d="M 143.5,52.5 C 140.966,52.2591 139.3,53.2591 138.5,55.5C 136.836,54.0512 136.002,52.0512 136,49.5C 135.586,49.9574 135.086,50.2907 134.5,50.5C 133.41,49.273 132.076,48.4396 130.5,48C 129.704,44.9299 127.704,43.2633 124.5,43C 125.711,42.1072 125.711,41.2739 124.5,40.5C 123.808,41.0253 123.308,41.6919 123,42.5C 122.329,41.7476 121.496,41.4142 120.5,41.5C 120.082,40.7784 119.416,40.2784 118.5,40C 120.909,39.0653 123.409,38.5653 126,38.5C 131.178,41.1547 136.178,43.488 141,45.5C 141.5,45.1667 142,44.8333 142.5,44.5C 141.833,43.8333 141.167,43.1667 140.5,42.5C 142.074,41.3691 143.741,41.2025 145.5,42C 145.167,42.3333 144.833,42.6667 144.5,43C 145.833,43.3333 147.167,43.6667 148.5,44C 145.833,45.3333 145.833,46.6667 148.5,48C 146.893,49.049 146.227,50.549 146.5,52.5C 145.5,52.5 144.5,52.5 143.5,52.5 Z"/></g>
<g><path style="opacity:1" fill="#2e3840" d="M 94.5,40.5 C 97.2791,41.6168 97.6124,42.7834 95.5,44C 96.91,44.3678 97.91,45.2011 98.5,46.5C 97.4519,48.4559 96.9519,50.4559 97,52.5C 98.8603,53.1611 100.36,53.1611 101.5,52.5C 101.489,54.0174 100.823,55.1841 99.5,56C 100.685,57.353 102.019,58.5197 103.5,59.5C 101.661,61.5271 101.161,63.8604 102,66.5C 102.308,65.6919 102.808,65.0253 103.5,64.5C 104.354,65.5217 105.354,66.3551 106.5,67C 105.833,67.3333 105.167,67.6667 104.5,68C 107.31,68.0072 109.31,69.1738 110.5,71.5C 110.5,72.1667 110.167,72.5 109.5,72.5C 107.084,71.0318 104.417,70.3651 101.5,70.5C 101.33,71.8221 101.663,72.9887 102.5,74C 100.582,75.7702 100.082,77.9369 101,80.5C 101.957,78.2908 103.124,78.4575 104.5,81C 102.866,81.4935 101.199,81.6602 99.5,81.5C 98.8826,81.3893 98.3826,81.056 98,80.5C 97.7316,75.4226 96.2316,70.7559 93.5,66.5C 94.09,65.2011 95.09,64.3678 96.5,64C 95.7877,62.575 95.621,61.075 96,59.5C 94.2602,60.7158 93.2602,62.3825 93,64.5C 92.7605,62.2388 92.5938,60.2388 92.5,58.5C 90.8253,60.5309 89.1586,62.5309 87.5,64.5C 87.9408,61.7686 88.2741,59.2686 88.5,57C 87.354,56.3551 86.354,55.5217 85.5,54.5C 84.8679,56.7368 83.5346,58.4035 81.5,59.5C 80.3192,61.1353 80.3192,62.802 81.5,64.5C 80.1166,67.0756 79.2833,66.7423 79,63.5C 77.661,68.7364 77.161,74.0698 77.5,79.5C 75.9177,76.1244 75.2511,72.4578 75.5,68.5C 77.1023,61.063 80.4357,54.3963 85.5,48.5C 86.325,47.6143 87.325,47.281 88.5,47.5C 89.0291,43.9666 91.0291,41.6332 94.5,40.5 Z"/></g>
<g><path style="opacity:1" fill="#49535c" d="M 138.5,55.5 C 137.594,58.4359 136.928,61.4359 136.5,64.5C 136.167,64.5 135.833,64.5 135.5,64.5C 134.579,61.8964 133.413,58.8964 132,55.5C 130.506,54.2528 129.006,54.2528 127.5,55.5C 128.688,55.3069 130.022,55.8069 131.5,57C 130.552,57.4828 129.552,57.6495 128.5,57.5C 128.351,58.552 128.517,59.552 129,60.5C 130.845,61.0495 132.345,62.0495 133.5,63.5C 130.817,64.7404 128.483,66.4071 126.5,68.5C 124.287,67.1345 122.62,65.1345 121.5,62.5C 123.14,60.8604 124.806,59.1937 126.5,57.5C 125.735,55.7049 125.068,53.8716 124.5,52C 125.885,50.4029 126.551,48.5695 126.5,46.5C 124.876,46.6399 123.71,45.9733 123,44.5C 121.387,45.6223 120.22,45.1223 119.5,43C 120.056,42.6174 120.389,42.1174 120.5,41.5C 121.496,41.4142 122.329,41.7476 123,42.5C 123.308,41.6919 123.808,41.0253 124.5,40.5C 125.711,41.2739 125.711,42.1072 124.5,43C 127.704,43.2633 129.704,44.9299 130.5,48C 132.076,48.4396 133.41,49.273 134.5,50.5C 135.086,50.2907 135.586,49.9574 136,49.5C 136.002,52.0512 136.836,54.0512 138.5,55.5 Z"/></g>
<g><path style="opacity:1" fill="#959ea8" d="M 173.5,58.5 C 172.852,60.0858 172.352,61.7525 172,63.5C 171.581,62.3279 170.915,61.3279 170,60.5C 168.887,61.7111 167.72,61.7111 166.5,60.5C 166.051,63.0436 166.051,65.7102 166.5,68.5C 165.167,68.5 164.5,67.8333 164.5,66.5C 163.357,64.5001 161.857,63.8334 160,64.5C 159.399,62.8632 158.899,61.1966 158.5,59.5C 159.198,58.1374 159.198,56.9707 158.5,56C 160.058,55.79 161.391,55.29 162.5,54.5C 164.216,51.3517 166.882,49.3517 170.5,48.5C 171.812,51.7488 172.812,55.0821 173.5,58.5 Z"/></g>
<g><path style="opacity:1" fill="#222c35" d="M 110.5,71.5 C 109.31,69.1738 107.31,68.0072 104.5,68C 105.167,67.6667 105.833,67.3333 106.5,67C 105.354,66.3551 104.354,65.5217 103.5,64.5C 102.808,65.0253 102.308,65.6919 102,66.5C 101.161,63.8604 101.661,61.5271 103.5,59.5C 102.019,58.5197 100.685,57.353 99.5,56C 100.823,55.1841 101.489,54.0174 101.5,52.5C 102.236,50.7706 103.57,49.7706 105.5,49.5C 108.433,47.8604 111.599,46.5271 115,45.5C 118.061,48.4144 118.228,51.5811 115.5,55C 116.648,56.726 117.815,56.5593 119,54.5C 119.5,55 120,55.5 120.5,56C 119.377,57.0437 118.044,57.7104 116.5,58C 117.938,58.2189 119.271,58.7189 120.5,59.5C 119.675,60.3857 118.675,60.719 117.5,60.5C 117.36,62.1238 118.027,63.2904 119.5,64C 118.333,64.5 117.5,65.3333 117,66.5C 115.806,64.3766 115.14,62.0432 115,59.5C 114.667,61.1667 114.333,62.8333 114,64.5C 112.667,65.1667 111.667,66.1667 111,67.5C 110.275,65.842 109.108,65.342 107.5,66C 110.301,67.206 111.301,69.0393 110.5,71.5 Z"/></g>
<g><path style="opacity:1" fill="#303a43" d="M 120.5,41.5 C 120.389,42.1174 120.056,42.6174 119.5,43C 120.22,45.1223 121.387,45.6223 123,44.5C 123.71,45.9733 124.876,46.6399 126.5,46.5C 126.551,48.5695 125.885,50.4029 124.5,52C 125.068,53.8716 125.735,55.7049 126.5,57.5C 124.806,59.1937 123.14,60.8604 121.5,62.5C 122.62,65.1345 124.287,67.1345 126.5,68.5C 125.564,69.9744 124.23,70.9744 122.5,71.5C 121.849,70.9094 121.182,70.2427 120.5,69.5C 117.72,70.1951 115.053,71.1951 112.5,72.5C 111.817,72.1373 111.15,71.8039 110.5,71.5C 111.301,69.0393 110.301,67.206 107.5,66C 109.108,65.342 110.275,65.842 111,67.5C 111.667,66.1667 112.667,65.1667 114,64.5C 114.333,62.8333 114.667,61.1667 115,59.5C 115.14,62.0432 115.806,64.3766 117,66.5C 117.5,65.3333 118.333,64.5 119.5,64C 118.027,63.2904 117.36,62.1238 117.5,60.5C 118.675,60.719 119.675,60.3857 120.5,59.5C 119.271,58.7189 117.938,58.2189 116.5,58C 118.044,57.7104 119.377,57.0437 120.5,56C 120,55.5 119.5,55 119,54.5C 117.815,56.5593 116.648,56.726 115.5,55C 118.228,51.5811 118.061,48.4144 115,45.5C 111.599,46.5271 108.433,47.8604 105.5,49.5C 105.5,48.5 105.5,47.5 105.5,46.5C 105.833,45.8333 106.167,45.1667 106.5,44.5C 109.187,44.6641 111.854,44.4974 114.5,44C 116.158,42.3375 118.158,41.5041 120.5,41.5 Z"/></g>
<g><path style="opacity:1" fill="#29343d" d="M 143.5,52.5 C 146.59,54.515 149.924,54.8483 153.5,53.5C 153.5,54.8333 153.5,56.1667 153.5,57.5C 151.345,56.4476 151.012,57.1143 152.5,59.5C 151.088,62.9018 150.088,66.4018 149.5,70C 148.216,70.6838 147.049,70.5171 146,69.5C 145.667,67.5 145.333,65.5 145,63.5C 144.692,64.3081 144.192,64.9747 143.5,65.5C 141.491,63.9895 139.658,62.3229 138,60.5C 137.79,62.0581 137.29,63.3915 136.5,64.5C 136.928,61.4359 137.594,58.4359 138.5,55.5C 139.3,53.2591 140.966,52.2591 143.5,52.5 Z"/></g>
<g><path style="opacity:1" fill="#636c74" d="M 135.5,64.5 C 135.785,66.288 135.452,67.9547 134.5,69.5C 132.853,70.1327 131.187,71.1327 129.5,72.5C 128.504,72.5858 127.671,72.2524 127,71.5C 126.667,72.1667 126.333,72.8333 126,73.5C 124.698,72.9152 123.531,72.2485 122.5,71.5C 124.23,70.9744 125.564,69.9744 126.5,68.5C 128.483,66.4071 130.817,64.7404 133.5,63.5C 132.345,62.0495 130.845,61.0495 129,60.5C 128.517,59.552 128.351,58.552 128.5,57.5C 129.552,57.6495 130.552,57.4828 131.5,57C 130.022,55.8069 128.688,55.3069 127.5,55.5C 129.006,54.2528 130.506,54.2528 132,55.5C 133.413,58.8964 134.579,61.8964 135.5,64.5 Z"/></g>
<g><path style="opacity:1" fill="#283138" d="M 164.5,66.5 C 164.5,67.8333 165.167,68.5 166.5,68.5C 166.5,69.8333 166.5,71.1667 166.5,72.5C 164.9,73.252 163.4,74.252 162,75.5C 160.898,74.051 159.731,72.7177 158.5,71.5C 160.817,70.1802 162.817,68.5136 164.5,66.5 Z"/></g>
<g><path style="opacity:1" fill="#a4adb4" d="M 173.5,68.5 C 174.15,70.4352 174.483,72.4352 174.5,74.5C 173.791,75.404 172.791,75.7373 171.5,75.5C 171.762,74.0222 171.429,72.6888 170.5,71.5C 169.167,70.8333 168.167,69.8333 167.5,68.5C 169.113,68.9679 170.613,68.3013 172,66.5C 172.278,67.4158 172.778,68.0825 173.5,68.5 Z"/></g>
<g><path style="opacity:1" fill="#293239" d="M 178.5,62.5 C 179.207,64.1344 180.373,65.4677 182,66.5C 183.009,68.0249 183.509,69.6916 183.5,71.5C 182.566,72.5676 182.232,73.901 182.5,75.5C 179.518,77.0775 176.851,76.7442 174.5,74.5C 174.483,72.4352 174.15,70.4352 173.5,68.5C 173.687,65.3095 175.354,63.3095 178.5,62.5 Z"/></g>
<g><path style="opacity:1" fill="#2c363d" d="M 135.5,64.5 C 135.833,64.5 136.167,64.5 136.5,64.5C 137.048,66.3936 138.048,68.0603 139.5,69.5C 140.086,69.2907 140.586,68.9574 141,68.5C 142.456,70.4653 144.29,71.7987 146.5,72.5C 144.628,76.5956 141.461,80.2623 137,83.5C 134.435,82.2724 132.269,80.6057 130.5,78.5C 127.571,78.9958 125.905,80.6624 125.5,83.5C 127.079,88.085 125.579,89.4183 121,87.5C 120.641,90.5443 119.974,90.8776 119,88.5C 118.692,89.3081 118.192,89.9747 117.5,90.5C 113.934,88.8037 112.934,86.137 114.5,82.5C 117.612,83.3505 117.946,84.5172 115.5,86C 116.416,86.3742 117.25,86.8742 118,87.5C 119.618,83.4698 121.118,79.4698 122.5,75.5C 119.012,75.1009 118.846,74.4342 122,73.5C 124.449,73.8613 126.782,74.528 129,75.5C 129.483,74.552 129.649,73.552 129.5,72.5C 131.187,71.1327 132.853,70.1327 134.5,69.5C 135.452,67.9547 135.785,66.288 135.5,64.5 Z"/></g>
<g><path style="opacity:1" fill="#151e24" d="M 153.5,57.5 C 154.688,58.3636 155.855,59.3636 157,60.5C 156.818,64.1027 157.318,67.7694 158.5,71.5C 159.731,72.7177 160.898,74.051 162,75.5C 163.4,74.252 164.9,73.252 166.5,72.5C 166.5,73.5 166.5,74.5 166.5,75.5C 168.698,75.1201 170.365,75.7868 171.5,77.5C 167.67,78.1406 167.004,79.8073 169.5,82.5C 168.833,83.1667 168.167,83.8333 167.5,84.5C 168.791,85.5272 168.791,86.5272 167.5,87.5C 166.883,87.6107 166.383,87.944 166,88.5C 161.691,85.5889 159.525,86.9222 159.5,92.5C 158.5,92.5 157.5,92.5 156.5,92.5C 156.5,91.5 156.5,90.5 156.5,89.5C 154.5,89.5 152.5,89.5 150.5,89.5C 148.036,85.5358 146.703,81.3692 146.5,77C 147.613,75.6057 148.947,74.439 150.5,73.5C 149.311,72.5713 147.978,72.238 146.5,72.5C 144.29,71.7987 142.456,70.4653 141,68.5C 140.586,68.9574 140.086,69.2907 139.5,69.5C 138.048,68.0603 137.048,66.3936 136.5,64.5C 137.29,63.3915 137.79,62.0581 138,60.5C 139.658,62.3229 141.491,63.9895 143.5,65.5C 144.192,64.9747 144.692,64.3081 145,63.5C 145.333,65.5 145.667,67.5 146,69.5C 147.049,70.5171 148.216,70.6838 149.5,70C 150.088,66.4018 151.088,62.9018 152.5,59.5C 151.012,57.1143 151.345,56.4476 153.5,57.5 Z"/></g>
<g><path style="opacity:1" fill="#394d69" d="M 87.5,39.5 C 81.0721,45.703 76.7387,53.0364 74.5,61.5C 73.5,61.5 72.5,61.5 71.5,61.5C 70.7243,68.8069 70.0576,76.1403 69.5,83.5C 71.5971,92.527 72.9305,101.86 73.5,111.5C 74.5,111.5 75.5,111.5 76.5,111.5C 76.3505,112.552 76.5172,113.552 77,114.5C 79.023,116.54 80.6897,118.873 82,121.5C 85.7088,126.71 90.2088,131.043 95.5,134.5C 95.5,134.833 95.5,135.167 95.5,135.5C 93.1055,134.985 90.7722,134.319 88.5,133.5C 86.8333,131.5 85.1667,129.5 83.5,127.5C 81.9752,123.427 79.3085,120.427 75.5,118.5C 73.5815,114.07 71.4148,109.737 69,105.5C 62.3088,84.6539 64.8088,65.3205 76.5,47.5C 77.5,47.5 78.5,47.5 79.5,47.5C 81.1667,43.8333 83.8333,41.1667 87.5,39.5 Z"/></g>
<g><path style="opacity:1" fill="#3f494f" d="M 171.5,77.5 C 173.167,78.5 174.5,79.8333 175.5,81.5C 174.533,82.8062 173.199,83.4729 171.5,83.5C 171.771,85.3797 171.104,86.713 169.5,87.5C 168.604,88.5063 167.938,88.5063 167.5,87.5C 168.791,86.5272 168.791,85.5272 167.5,84.5C 168.167,83.8333 168.833,83.1667 169.5,82.5C 167.004,79.8073 167.67,78.1406 171.5,77.5 Z"/></g>
<g><path style="opacity:1" fill="#757e85" d="M 173.5,58.5 C 175.419,59.6125 177.086,60.9458 178.5,62.5C 175.354,63.3095 173.687,65.3095 173.5,68.5C 172.778,68.0825 172.278,67.4158 172,66.5C 170.613,68.3013 169.113,68.9679 167.5,68.5C 168.167,69.8333 169.167,70.8333 170.5,71.5C 171.429,72.6888 171.762,74.0222 171.5,75.5C 172.791,75.7373 173.791,75.404 174.5,74.5C 176.851,76.7442 179.518,77.0775 182.5,75.5C 182.232,73.901 182.566,72.5676 183.5,71.5C 184.931,72.7804 185.598,74.4471 185.5,76.5C 184.069,77.0819 182.736,77.9152 181.5,79C 183.418,80.7702 183.918,82.9369 183,85.5C 181.951,83.8934 180.451,83.2267 178.5,83.5C 177.5,82.8333 176.5,82.1667 175.5,81.5C 174.5,79.8333 173.167,78.5 171.5,77.5C 170.365,75.7868 168.698,75.1201 166.5,75.5C 166.5,74.5 166.5,73.5 166.5,72.5C 166.5,71.1667 166.5,69.8333 166.5,68.5C 166.051,65.7102 166.051,63.0436 166.5,60.5C 167.72,61.7111 168.887,61.7111 170,60.5C 170.915,61.3279 171.581,62.3279 172,63.5C 172.352,61.7525 172.852,60.0858 173.5,58.5 Z"/></g>
<g><path style="opacity:1" fill="#151e24" d="M 87.5,64.5 C 87.5,65.1667 87.8333,65.5 88.5,65.5C 88.8395,67.9912 89.8395,70.1579 91.5,72C 91.3333,72.8333 91.1667,73.6667 91,74.5C 90.3762,69.7637 89.2095,69.4303 87.5,73.5C 87.7189,74.938 88.2189,76.2713 89,77.5C 89.3333,77.1667 89.6667,76.8333 90,76.5C 89.1879,82.7933 91.6879,86.9599 97.5,89C 97.2549,90.9114 97.2549,92.9114 97.5,95C 96.1312,96.7189 95.1312,98.5522 94.5,100.5C 94.5299,99.5028 94.0299,98.8361 93,98.5C 89.4538,99.0859 86.1204,99.0859 83,98.5C 82.5017,96.4556 81.335,95.1223 79.5,94.5C 79.5,94.1667 79.5,93.8333 79.5,93.5C 79.5946,90.3033 78.9279,87.3033 77.5,84.5C 77.5,82.8333 77.5,81.1667 77.5,79.5C 77.161,74.0698 77.661,68.7364 79,63.5C 79.2833,66.7423 80.1166,67.0756 81.5,64.5C 80.3192,62.802 80.3192,61.1353 81.5,59.5C 83.5346,58.4035 84.8679,56.7368 85.5,54.5C 86.354,55.5217 87.354,56.3551 88.5,57C 88.2741,59.2686 87.9408,61.7686 87.5,64.5 Z"/></g>
<g><path style="opacity:1" fill="#656e76" d="M 146.5,72.5 C 147.978,72.238 149.311,72.5713 150.5,73.5C 148.947,74.439 147.613,75.6057 146.5,77C 146.703,81.3692 148.036,85.5358 150.5,89.5C 152.5,89.5 154.5,89.5 156.5,89.5C 156.5,90.5 156.5,91.5 156.5,92.5C 157.5,92.5 158.5,92.5 159.5,92.5C 159.525,86.9222 161.691,85.5889 166,88.5C 166.383,87.944 166.883,87.6107 167.5,87.5C 167.938,88.5063 168.604,88.5063 169.5,87.5C 169.5,88.8333 169.5,90.1667 169.5,91.5C 169.423,92.7498 168.756,93.5831 167.5,94C 168.305,95.1127 168.972,96.2794 169.5,97.5C 167.956,97.2969 166.622,96.6302 165.5,95.5C 164.081,96.0047 163.415,97.0047 163.5,98.5C 159.71,98.0077 159.044,98.841 161.5,101C 160.099,101.41 158.766,101.91 157.5,102.5C 156.766,101.292 156.433,99.9587 156.5,98.5C 154.833,98.5 153.167,98.5 151.5,98.5C 151.5,96.1667 151.5,93.8333 151.5,91.5C 149.801,91.5271 148.467,92.1938 147.5,93.5C 145.676,84.9992 141.176,82.9992 134,87.5C 133.314,91.4024 132.147,95.4024 130.5,99.5C 132.167,99.5 133.833,99.5 135.5,99.5C 135.5,100.5 135.5,101.5 135.5,102.5C 134.448,102.351 133.448,102.517 132.5,103C 133.711,103.893 133.711,104.726 132.5,105.5C 130.568,104.855 129.401,103.521 129,101.5C 128.667,102.833 128.333,104.167 128,105.5C 127.692,104.692 127.192,104.025 126.5,103.5C 125.451,106.08 124.784,108.746 124.5,111.5C 123.069,110.22 122.402,108.553 122.5,106.5C 124.377,105.341 124.877,103.674 124,101.5C 123.107,102.711 122.274,102.711 121.5,101.5C 121.709,100.914 122.043,100.414 122.5,100C 121.301,98.3057 119.968,96.8057 118.5,95.5C 119.745,93.3584 121.245,91.3584 123,89.5C 125.724,90.6868 128.557,91.3535 131.5,91.5C 132.329,88.5314 132.495,85.5314 132,82.5C 131.667,83.8333 131.333,85.1667 131,86.5C 129.22,85.3606 127.386,84.3606 125.5,83.5C 125.905,80.6624 127.571,78.9958 130.5,78.5C 132.269,80.6057 134.435,82.2724 137,83.5C 141.461,80.2623 144.628,76.5956 146.5,72.5 Z"/></g>
<g><path style="opacity:1" fill="#828e99" d="M 75.5,68.5 C 75.2511,72.4578 75.9177,76.1244 77.5,79.5C 77.5,81.1667 77.5,82.8333 77.5,84.5C 76.2651,86.017 76.2651,87.6837 77.5,89.5C 77.1543,90.6956 76.6543,90.6956 76,89.5C 75.2195,90.9437 75.3861,92.277 76.5,93.5C 77.1924,92.9747 77.6924,92.3081 78,91.5C 78.2784,92.4158 78.7784,93.0825 79.5,93.5C 79.5,93.8333 79.5,94.1667 79.5,94.5C 80.0138,96.3664 80.6805,98.1997 81.5,100C 80.8979,101.563 80.0646,101.396 79,99.5C 78.3333,100.833 78.3333,102.167 79,103.5C 80.159,102.434 80.9924,102.767 81.5,104.5C 79.847,104.66 78.5137,105.326 77.5,106.5C 76.0689,106.119 75.2355,105.119 75,103.5C 74.6548,98.7332 73.8215,94.0665 72.5,89.5C 73.4415,89.5105 74.1081,89.0105 74.5,88C 72.6477,83.31 72.1477,78.4767 73,73.5C 73.1242,70.7486 73.9575,69.0819 75.5,68.5 Z"/></g>
<g><path style="opacity:1" fill="#525b64" d="M 77.5,84.5 C 78.9279,87.3033 79.5946,90.3033 79.5,93.5C 78.7784,93.0825 78.2784,92.4158 78,91.5C 77.6924,92.3081 77.1924,92.9747 76.5,93.5C 75.3861,92.277 75.2195,90.9437 76,89.5C 76.6543,90.6956 77.1543,90.6956 77.5,89.5C 76.2651,87.6837 76.2651,86.017 77.5,84.5 Z"/></g>
<g><path style="opacity:1" fill="#454f57" d="M 185.5,76.5 C 186.494,77.9989 186.494,79.6656 185.5,81.5C 184.739,85.6302 183.406,89.6302 181.5,93.5C 179.502,97.1259 178.502,101.126 178.5,105.5C 176.973,105.427 175.973,106.094 175.5,107.5C 174.542,107.953 173.708,108.619 173,109.5C 172.333,107.167 172.333,104.833 173,102.5C 173.893,103.711 174.726,103.711 175.5,102.5C 173.827,100.914 171.827,100.247 169.5,100.5C 169.5,99.5 169.5,98.5 169.5,97.5C 168.972,96.2794 168.305,95.1127 167.5,94C 168.756,93.5831 169.423,92.7498 169.5,91.5C 171.105,93.4799 172.272,95.8132 173,98.5C 173.419,94.1482 174.086,93.8149 175,97.5C 177.61,93.5589 179.776,89.3922 181.5,85C 180.263,84.7679 179.263,84.2679 178.5,83.5C 180.451,83.2267 181.951,83.8934 183,85.5C 183.918,82.9369 183.418,80.7702 181.5,79C 182.736,77.9152 184.069,77.0819 185.5,76.5 Z"/></g>
<g><path style="opacity:1" fill="#262f37" d="M 88.5,65.5 C 89.5,65.5 90.5,65.5 91.5,65.5C 92.6162,68.2448 93.6162,71.0782 94.5,74C 94.1487,76.1929 93.1487,78.0262 91.5,79.5C 92.5853,81.8773 93.7519,84.2106 95,86.5C 96.5066,82.7636 97.3399,82.7636 97.5,86.5C 100.761,86.1005 101.428,87.2671 99.5,90C 99.6667,90.8333 99.8333,91.6667 100,92.5C 100.333,91.1667 100.667,89.8333 101,88.5C 101.497,90.8098 101.663,93.1432 101.5,95.5C 97.9286,95.4077 96.7619,97.0743 98,100.5C 98.3076,99.6919 98.8076,99.0253 99.5,98.5C 100.432,100.766 101.766,102.766 103.5,104.5C 99.5831,106.769 98.9165,109.603 101.5,113C 100.635,114.359 99.635,115.526 98.5,116.5C 96.8333,115.833 95.1667,115.167 93.5,114.5C 92.596,113.791 92.2627,112.791 92.5,111.5C 92.5,110.167 92.5,108.833 92.5,107.5C 93.5,107.5 94.5,107.5 95.5,107.5C 95.0074,105.194 94.6741,102.861 94.5,100.5C 95.1312,98.5522 96.1312,96.7189 97.5,95C 97.2549,92.9114 97.2549,90.9114 97.5,89C 91.6879,86.9599 89.1879,82.7933 90,76.5C 89.6667,76.8333 89.3333,77.1667 89,77.5C 88.2189,76.2713 87.7189,74.938 87.5,73.5C 89.2095,69.4303 90.3762,69.7637 91,74.5C 91.1667,73.6667 91.3333,72.8333 91.5,72C 89.8395,70.1579 88.8395,67.9912 88.5,65.5 Z"/></g>
<g><path style="opacity:1" fill="#212931" d="M 175.5,81.5 C 176.5,82.1667 177.5,82.8333 178.5,83.5C 179.263,84.2679 180.263,84.7679 181.5,85C 179.776,89.3922 177.61,93.5589 175,97.5C 174.086,93.8149 173.419,94.1482 173,98.5C 172.272,95.8132 171.105,93.4799 169.5,91.5C 169.5,90.1667 169.5,88.8333 169.5,87.5C 171.104,86.713 171.771,85.3797 171.5,83.5C 173.199,83.4729 174.533,82.8062 175.5,81.5 Z"/></g>
<g><path style="opacity:1" fill="#263c5a" d="M 185.5,47.5 C 187.812,49.1455 189.812,51.1455 191.5,53.5C 191.32,54.5539 190.987,55.5539 190.5,56.5C 193.54,61.0178 195.206,66.0178 195.5,71.5C 196.5,71.5 197.5,71.5 198.5,71.5C 198.666,80.5062 198.5,89.5062 198,98.5C 197.339,102.648 196.173,106.648 194.5,110.5C 195.376,111.251 196.376,111.751 197.5,112C 194.948,114.853 192.115,117.353 189,119.5C 188.744,123.74 186.578,125.74 182.5,125.5C 180.973,125.427 179.973,126.094 179.5,127.5C 178.167,127.5 176.833,127.5 175.5,127.5C 179.934,122.412 183.934,117.079 187.5,111.5C 189.312,108.886 191.312,106.219 193.5,103.5C 195.997,92.2146 196.163,80.8812 194,69.5C 191.447,62.0007 188.614,54.6674 185.5,47.5 Z"/></g>
<g><path style="opacity:1" fill="#9ca6af" d="M 157.5,102.5 C 157.5,102.833 157.5,103.167 157.5,103.5C 158.291,106.417 158.291,109.25 157.5,112C 158.744,112.456 159.577,111.956 160,110.5C 160.798,112.259 160.631,113.926 159.5,115.5C 156.735,117.601 153.735,119.267 150.5,120.5C 150.167,120.167 149.833,119.833 149.5,119.5C 152.357,115.528 151.857,114.861 148,117.5C 147.833,117.167 147.667,116.833 147.5,116.5C 148.76,115.618 149.926,114.618 151,113.5C 150.598,111.126 150.764,108.793 151.5,106.5C 149.993,105.261 148.826,105.595 148,107.5C 147.805,105.793 147.805,104.126 148,102.5C 145.432,104.203 144.932,106.369 146.5,109C 146.223,110.892 145.223,112.225 143.5,113C 143.833,113.333 144.167,113.667 144.5,114C 142.485,114.424 140.651,115.258 139,116.5C 137.775,116.138 136.609,115.638 135.5,115C 137.553,110.972 140.886,108.972 145.5,109C 144.663,107.989 144.33,106.822 144.5,105.5C 142.61,105.297 141.11,105.963 140,107.5C 139.25,106.874 138.416,106.374 137.5,106C 139.392,105.027 141.392,104.36 143.5,104C 144.167,102.333 144.833,100.667 145.5,99C 148.959,99.7344 149.293,98.7344 146.5,96C 147.252,95.3292 147.586,94.4959 147.5,93.5C 148.467,92.1938 149.801,91.5271 151.5,91.5C 151.5,93.8333 151.5,96.1667 151.5,98.5C 153.167,98.5 154.833,98.5 156.5,98.5C 156.433,99.9587 156.766,101.292 157.5,102.5 Z"/></g>
<g><path style="opacity:1" fill="#3c516d" d="M 159.5,27.5 C 165.262,29.2512 170.596,31.9179 175.5,35.5C 177.398,37.9093 179.732,39.9093 182.5,41.5C 182.964,43.9749 183.964,45.9749 185.5,47.5C 188.614,54.6674 191.447,62.0007 194,69.5C 196.163,80.8812 195.997,92.2146 193.5,103.5C 191.312,106.219 189.312,108.886 187.5,111.5C 187.833,108.833 188.167,106.167 188.5,103.5C 189.5,103.5 190.5,103.5 191.5,103.5C 192.628,87.2156 191.128,71.2156 187,55.5C 183.735,49.9589 180.235,44.6256 176.5,39.5C 174.403,37.8896 172.07,36.7229 169.5,36C 166.24,32.9008 162.906,30.0675 159.5,27.5 Z"/></g>
<g><path style="opacity:1" fill="#58616a" d="M 79.5,94.5 C 81.335,95.1223 82.5017,96.4556 83,98.5C 86.1204,99.0859 89.4538,99.0859 93,98.5C 94.0299,98.8361 94.5299,99.5028 94.5,100.5C 94.6741,102.861 95.0074,105.194 95.5,107.5C 94.5,107.5 93.5,107.5 92.5,107.5C 92.5,108.833 92.5,110.167 92.5,111.5C 90.4012,110.63 90.0679,109.297 91.5,107.5C 90.5022,104.972 89.6689,104.972 89,107.5C 88.1072,106.289 87.2739,106.289 86.5,107.5C 87.8114,108.258 88.3114,109.258 88,110.5C 86.8873,109.695 85.7206,109.028 84.5,108.5C 83.6588,107.074 82.6588,105.74 81.5,104.5C 80.9924,102.767 80.159,102.434 79,103.5C 78.3333,102.167 78.3333,100.833 79,99.5C 80.0646,101.396 80.8979,101.563 81.5,100C 80.6805,98.1997 80.0138,96.3664 79.5,94.5 Z"/></g>
<g><path style="opacity:1" fill="#2c363e" d="M 118.5,95.5 C 119.968,96.8057 121.301,98.3057 122.5,100C 122.043,100.414 121.709,100.914 121.5,101.5C 122.274,102.711 123.107,102.711 124,101.5C 124.877,103.674 124.377,105.341 122.5,106.5C 121.674,109.014 121.508,111.681 122,114.5C 119.333,115.167 116.667,115.833 114,116.5C 111.502,114.538 110.502,112.205 111,109.5C 109.491,108.91 107.991,108.244 106.5,107.5C 107.167,106.167 107.833,104.833 108.5,103.5C 106.149,102.988 104.149,101.988 102.5,100.5C 103.833,98.1667 103.833,95.8333 102.5,93.5C 103.768,91.953 105.435,90.953 107.5,90.5C 108.308,92.4233 108.808,94.4233 109,96.5C 109.333,95.8333 109.667,95.1667 110,94.5C 111.612,97.6173 113.446,100.617 115.5,103.5C 116.76,101.647 116.76,99.8138 115.5,98C 116.373,96.955 117.373,96.1217 118.5,95.5 Z"/></g>
<g><path style="opacity:1" fill="#a7b1ba" d="M 81.5,104.5 C 82.6588,105.74 83.6588,107.074 84.5,108.5C 84.762,109.978 84.4287,111.311 83.5,112.5C 81.479,110.479 79.479,108.479 77.5,106.5C 78.5137,105.326 79.847,104.66 81.5,104.5 Z"/></g>
<g><path style="opacity:1" fill="#9ba7ad" d="M 178.5,105.5 C 177.49,108.244 177.824,110.577 179.5,112.5C 178.5,114.813 177.166,116.813 175.5,118.5C 174.5,116.5 173.5,114.5 172.5,112.5C 174.741,111.7 175.741,110.034 175.5,107.5C 175.973,106.094 176.973,105.427 178.5,105.5 Z"/></g>
<g><path style="opacity:1" fill="#464f57" d="M 99.5,81.5 C 100.609,82.29 101.942,82.79 103.5,83C 103.167,83.3333 102.833,83.6667 102.5,84C 103.912,85.7856 105.579,87.2856 107.5,88.5C 110.255,86.2388 109.922,84.4055 106.5,83C 107.066,82.0053 107.733,81.172 108.5,80.5C 109.5,80.5 110.5,80.5 111.5,80.5C 115.893,80.5432 116.226,80.0432 112.5,79C 113.646,78.3551 114.646,77.5217 115.5,76.5C 116.192,77.0253 116.692,77.6919 117,78.5C 118.314,73.8849 117.314,72.8849 114,75.5C 112.591,74.2189 111.091,73.2189 109.5,72.5C 110.167,72.5 110.5,72.1667 110.5,71.5C 111.15,71.8039 111.817,72.1373 112.5,72.5C 115.053,71.1951 117.72,70.1951 120.5,69.5C 121.182,70.2427 121.849,70.9094 122.5,71.5C 123.531,72.2485 124.698,72.9152 126,73.5C 126.333,72.8333 126.667,72.1667 127,71.5C 127.671,72.2524 128.504,72.5858 129.5,72.5C 129.649,73.552 129.483,74.552 129,75.5C 126.782,74.528 124.449,73.8613 122,73.5C 118.846,74.4342 119.012,75.1009 122.5,75.5C 121.118,79.4698 119.618,83.4698 118,87.5C 117.25,86.8742 116.416,86.3742 115.5,86C 117.946,84.5172 117.612,83.3505 114.5,82.5C 112.934,86.137 113.934,88.8037 117.5,90.5C 118.192,89.9747 118.692,89.3081 119,88.5C 119.974,90.8776 120.641,90.5443 121,87.5C 125.579,89.4183 127.079,88.085 125.5,83.5C 127.386,84.3606 129.22,85.3606 131,86.5C 131.333,85.1667 131.667,83.8333 132,82.5C 132.495,85.5314 132.329,88.5314 131.5,91.5C 128.557,91.3535 125.724,90.6868 123,89.5C 121.245,91.3584 119.745,93.3584 118.5,95.5C 117.373,96.1217 116.373,96.955 115.5,98C 116.76,99.8138 116.76,101.647 115.5,103.5C 113.446,100.617 111.612,97.6173 110,94.5C 109.667,95.1667 109.333,95.8333 109,96.5C 108.808,94.4233 108.308,92.4233 107.5,90.5C 105.435,90.953 103.768,91.953 102.5,93.5C 103.833,95.8333 103.833,98.1667 102.5,100.5C 104.149,101.988 106.149,102.988 108.5,103.5C 107.833,104.833 107.167,106.167 106.5,107.5C 107.991,108.244 109.491,108.91 111,109.5C 110.502,112.205 111.502,114.538 114,116.5C 116.667,115.833 119.333,115.167 122,114.5C 121.508,111.681 121.674,109.014 122.5,106.5C 122.402,108.553 123.069,110.22 124.5,111.5C 124.5,112.167 124.5,112.833 124.5,113.5C 123.596,114.209 123.263,115.209 123.5,116.5C 121.43,116.449 119.597,117.115 118,118.5C 115.447,117.892 112.947,117.225 110.5,116.5C 108.696,116.34 106.863,115.34 105,113.5C 104.676,115.569 103.842,115.902 102.5,114.5C 101.476,115.853 100.143,116.52 98.5,116.5C 99.635,115.526 100.635,114.359 101.5,113C 98.9165,109.603 99.5831,106.769 103.5,104.5C 101.766,102.766 100.432,100.766 99.5,98.5C 98.8076,99.0253 98.3076,99.6919 98,100.5C 96.7619,97.0743 97.9286,95.4077 101.5,95.5C 101.663,93.1432 101.497,90.8098 101,88.5C 100.667,89.8333 100.333,91.1667 100,92.5C 99.8333,91.6667 99.6667,90.8333 99.5,90C 101.428,87.2671 100.761,86.1005 97.5,86.5C 97.3399,82.7636 96.5066,82.7636 95,86.5C 93.7519,84.2106 92.5853,81.8773 91.5,79.5C 93.1487,78.0262 94.1487,76.1929 94.5,74C 93.6162,71.0782 92.6162,68.2448 91.5,65.5C 90.5,65.5 89.5,65.5 88.5,65.5C 87.8333,65.5 87.5,65.1667 87.5,64.5C 89.1586,62.5309 90.8253,60.5309 92.5,58.5C 92.5938,60.2388 92.7605,62.2388 93,64.5C 93.2602,62.3825 94.2602,60.7158 96,59.5C 95.621,61.075 95.7877,62.575 96.5,64C 95.09,64.3678 94.09,65.2011 93.5,66.5C 96.2316,70.7559 97.7316,75.4226 98,80.5C 98.3826,81.056 98.8826,81.3893 99.5,81.5 Z"/></g>
<g><path style="opacity:1" fill="#5c666f" d="M 109.5,72.5 C 111.091,73.2189 112.591,74.2189 114,75.5C 117.314,72.8849 118.314,73.8849 117,78.5C 116.692,77.6919 116.192,77.0253 115.5,76.5C 114.646,77.5217 113.646,78.3551 112.5,79C 116.226,80.0432 115.893,80.5432 111.5,80.5C 111.5,79.5 111.5,78.5 111.5,77.5C 108.506,77.1457 107.506,78.1457 108.5,80.5C 107.733,81.172 107.066,82.0053 106.5,83C 109.922,84.4055 110.255,86.2388 107.5,88.5C 105.579,87.2856 103.912,85.7856 102.5,84C 102.833,83.6667 103.167,83.3333 103.5,83C 101.942,82.79 100.609,82.29 99.5,81.5C 101.199,81.6602 102.866,81.4935 104.5,81C 103.124,78.4575 101.957,78.2908 101,80.5C 100.082,77.9369 100.582,75.7702 102.5,74C 101.663,72.9887 101.33,71.8221 101.5,70.5C 104.417,70.3651 107.084,71.0318 109.5,72.5 Z"/></g>
<g><path style="opacity:1" fill="#a5afb8" d="M 111.5,80.5 C 110.5,80.5 109.5,80.5 108.5,80.5C 107.506,78.1457 108.506,77.1457 111.5,77.5C 111.5,78.5 111.5,79.5 111.5,80.5 Z"/></g>
<g><path style="opacity:1" fill="#838d95" d="M 147.5,93.5 C 147.586,94.4959 147.252,95.3292 146.5,96C 149.293,98.7344 148.959,99.7344 145.5,99C 144.833,100.667 144.167,102.333 143.5,104C 141.392,104.36 139.392,105.027 137.5,106C 138.416,106.374 139.25,106.874 140,107.5C 141.11,105.963 142.61,105.297 144.5,105.5C 144.33,106.822 144.663,107.989 145.5,109C 140.886,108.972 137.553,110.972 135.5,115C 136.609,115.638 137.775,116.138 139,116.5C 140.651,115.258 142.485,114.424 144.5,114C 144.167,113.667 143.833,113.333 143.5,113C 145.223,112.225 146.223,110.892 146.5,109C 144.932,106.369 145.432,104.203 148,102.5C 147.805,104.126 147.805,105.793 148,107.5C 148.826,105.595 149.993,105.261 151.5,106.5C 150.764,108.793 150.598,111.126 151,113.5C 149.926,114.618 148.76,115.618 147.5,116.5C 147.667,116.833 147.833,117.167 148,117.5C 151.857,114.861 152.357,115.528 149.5,119.5C 149.833,119.833 150.167,120.167 150.5,120.5C 153.735,119.267 156.735,117.601 159.5,115.5C 160.631,113.926 160.798,112.259 160,110.5C 159.577,111.956 158.744,112.456 157.5,112C 158.291,109.25 158.291,106.417 157.5,103.5C 159.559,104.986 160.225,106.82 159.5,109C 164.122,108.921 166.455,106.421 166.5,101.5C 165.23,100.712 164.23,99.7124 163.5,98.5C 163.415,97.0047 164.081,96.0047 165.5,95.5C 166.622,96.6302 167.956,97.2969 169.5,97.5C 169.5,98.5 169.5,99.5 169.5,100.5C 171.827,100.247 173.827,100.914 175.5,102.5C 174.726,103.711 173.893,103.711 173,102.5C 172.333,104.833 172.333,107.167 173,109.5C 173.708,108.619 174.542,107.953 175.5,107.5C 175.741,110.034 174.741,111.7 172.5,112.5C 172.565,112.062 172.399,111.728 172,111.5C 169.534,113.734 167.7,116.4 166.5,119.5C 164.362,119.297 162.695,118.297 161.5,116.5C 159.783,117.668 159.116,119.335 159.5,121.5C 155.538,121.987 151.704,122.987 148,124.5C 146.877,123.573 145.377,122.74 143.5,122C 146.032,121.388 146.865,119.888 146,117.5C 143.834,118.731 141.667,119.731 139.5,120.5C 137.506,118.178 135.173,116.178 132.5,114.5C 133.326,113.549 133.492,112.549 133,111.5C 131.385,112.386 129.885,113.386 128.5,114.5C 127.167,114.167 125.833,113.833 124.5,113.5C 124.5,112.833 124.5,112.167 124.5,111.5C 124.784,108.746 125.451,106.08 126.5,103.5C 127.192,104.025 127.692,104.692 128,105.5C 128.333,104.167 128.667,102.833 129,101.5C 129.401,103.521 130.568,104.855 132.5,105.5C 133.711,104.726 133.711,103.893 132.5,103C 133.448,102.517 134.448,102.351 135.5,102.5C 135.5,101.5 135.5,100.5 135.5,99.5C 133.833,99.5 132.167,99.5 130.5,99.5C 132.147,95.4024 133.314,91.4024 134,87.5C 141.176,82.9992 145.676,84.9992 147.5,93.5 Z"/></g>
<g><path style="opacity:1" fill="#3f4952" d="M 163.5,98.5 C 164.23,99.7124 165.23,100.712 166.5,101.5C 166.455,106.421 164.122,108.921 159.5,109C 160.225,106.82 159.559,104.986 157.5,103.5C 157.5,103.167 157.5,102.833 157.5,102.5C 158.766,101.91 160.099,101.41 161.5,101C 159.044,98.841 159.71,98.0077 163.5,98.5 Z"/></g>
<g><path style="opacity:1" fill="#b0bbc1" d="M 139.5,120.5 C 140.133,120.88 140.8,121.213 141.5,121.5C 140.723,123.539 139.557,124.205 138,123.5C 137.333,124.167 137.333,124.833 138,125.5C 139.626,125.854 141.459,125.854 143.5,125.5C 143.5,126.5 143.5,127.5 143.5,128.5C 141.5,128.5 139.5,128.5 137.5,128.5C 136.699,126.492 135.366,125.992 133.5,127C 134.328,126.085 135.328,125.419 136.5,125C 134.598,124.801 133.098,123.967 132,122.5C 131.026,124.878 130.359,124.544 130,121.5C 129.282,122.451 128.449,122.617 127.5,122C 128.833,121.333 128.833,120.667 127.5,120C 125.241,120.439 122.908,120.939 120.5,121.5C 120.5,120.5 120.5,119.5 120.5,118.5C 122.993,118.671 124.826,117.671 126,115.5C 127.204,116.471 127.704,117.471 127.5,118.5C 128.429,117.311 128.762,115.978 128.5,114.5C 129.885,113.386 131.385,112.386 133,111.5C 133.492,112.549 133.326,113.549 132.5,114.5C 135.173,116.178 137.506,118.178 139.5,120.5 Z"/></g>
<g><path style="opacity:1" fill="#79858f" d="M 166.5,129.5 C 165.791,128.596 164.791,128.263 163.5,128.5C 164.228,126.265 165.561,124.432 167.5,123C 170.08,121.232 172.747,119.732 175.5,118.5C 177.166,116.813 178.5,114.813 179.5,112.5C 177.824,110.577 177.49,108.244 178.5,105.5C 178.502,101.126 179.502,97.1259 181.5,93.5C 183.312,93.2287 184.978,92.562 186.5,91.5C 185.164,89.6254 185.664,88.2921 188,87.5C 188.719,92.2007 188.553,96.8673 187.5,101.5C 184.973,106.249 183.139,111.249 182,116.5C 179.342,120.204 175.842,122.537 171.5,123.5C 171.649,124.552 171.483,125.552 171,126.5C 169.249,127.222 167.749,128.222 166.5,129.5 Z"/></g>
<g><path style="opacity:1" fill="#9ba5ae" d="M 166.5,119.5 C 167.706,120.88 167.373,122.047 165.5,123C 162.482,124.084 159.482,124.584 156.5,124.5C 156.33,125.822 156.663,126.989 157.5,128C 156.975,128.692 156.308,129.192 155.5,129.5C 151.449,127.856 148.449,129.022 146.5,133C 148.762,135.829 151.095,135.996 153.5,133.5C 154.609,134.59 155.609,134.59 156.5,133.5C 155.975,132.808 155.308,132.308 154.5,132C 157.53,130.716 160.53,129.549 163.5,128.5C 164.791,128.263 165.791,128.596 166.5,129.5C 164.167,130.5 162.5,132.167 161.5,134.5C 159.055,135.312 156.722,136.312 154.5,137.5C 151.669,136.444 148.669,136.444 145.5,137.5C 142.884,136.487 140.218,135.653 137.5,135C 137.63,132.764 137.63,130.597 137.5,128.5C 139.5,128.5 141.5,128.5 143.5,128.5C 143.5,127.5 143.5,126.5 143.5,125.5C 141.459,125.854 139.626,125.854 138,125.5C 137.333,124.833 137.333,124.167 138,123.5C 139.557,124.205 140.723,123.539 141.5,121.5C 140.8,121.213 140.133,120.88 139.5,120.5C 141.667,119.731 143.834,118.731 146,117.5C 146.865,119.888 146.032,121.388 143.5,122C 145.377,122.74 146.877,123.573 148,124.5C 151.704,122.987 155.538,121.987 159.5,121.5C 159.116,119.335 159.783,117.668 161.5,116.5C 162.695,118.297 164.362,119.297 166.5,119.5 Z"/></g>
<g><path style="opacity:1" fill="#b1bac3" d="M 172.5,112.5 C 173.5,114.5 174.5,116.5 175.5,118.5C 172.747,119.732 170.08,121.232 167.5,123C 165.561,124.432 164.228,126.265 163.5,128.5C 160.53,129.549 157.53,130.716 154.5,132C 155.308,132.308 155.975,132.808 156.5,133.5C 155.609,134.59 154.609,134.59 153.5,133.5C 151.095,135.996 148.762,135.829 146.5,133C 148.449,129.022 151.449,127.856 155.5,129.5C 156.308,129.192 156.975,128.692 157.5,128C 156.663,126.989 156.33,125.822 156.5,124.5C 159.482,124.584 162.482,124.084 165.5,123C 167.373,122.047 167.706,120.88 166.5,119.5C 167.7,116.4 169.534,113.734 172,111.5C 172.399,111.728 172.565,112.062 172.5,112.5 Z"/></g>
<g><path style="opacity:1" fill="#bdc5cc" d="M 120.5,121.5 C 119.047,122.933 118.213,124.6 118,126.5C 120.041,125.577 122.208,125.244 124.5,125.5C 124.649,126.552 124.483,127.552 124,128.5C 123.29,127.027 122.124,126.36 120.5,126.5C 120.5,127.5 120.5,128.5 120.5,129.5C 125.833,129.833 125.833,130.167 120.5,130.5C 120.704,133.518 121.037,136.518 121.5,139.5C 119.143,139.663 116.81,139.497 114.5,139C 113.944,138.617 113.611,138.117 113.5,137.5C 115.117,135.7 116.45,133.533 117.5,131C 117.016,128.525 115.683,126.692 113.5,125.5C 115.936,123.447 115.602,121.614 112.5,120C 115.212,120.984 117.878,121.484 120.5,121.5 Z"/></g>
<g><path style="opacity:1" fill="#8b969f" d="M 92.5,111.5 C 92.2627,112.791 92.596,113.791 93.5,114.5C 96.0276,117.817 96.0276,121.15 93.5,124.5C 93.8678,125.91 94.7011,126.91 96,127.5C 96.5074,126.004 96.0074,124.837 94.5,124C 96.7851,122.046 98.9517,122.213 101,124.5C 102.177,123.682 103.51,122.682 105,121.5C 107.112,122.386 109.278,122.386 111.5,121.5C 111.371,119.784 111.038,118.117 110.5,116.5C 112.947,117.225 115.447,117.892 118,118.5C 119.597,117.115 121.43,116.449 123.5,116.5C 123.263,115.209 123.596,114.209 124.5,113.5C 125.833,113.833 127.167,114.167 128.5,114.5C 128.762,115.978 128.429,117.311 127.5,118.5C 127.704,117.471 127.204,116.471 126,115.5C 124.826,117.671 122.993,118.671 120.5,118.5C 120.5,119.5 120.5,120.5 120.5,121.5C 117.878,121.484 115.212,120.984 112.5,120C 115.602,121.614 115.936,123.447 113.5,125.5C 115.683,126.692 117.016,128.525 117.5,131C 116.45,133.533 115.117,135.7 113.5,137.5C 111.01,136.172 108.344,135.172 105.5,134.5C 104.537,134.97 104.537,135.637 105.5,136.5C 102.378,134.37 99.0447,132.703 95.5,131.5C 90.81,126.478 86.1433,121.478 81.5,116.5C 79.385,113.457 78.0517,110.124 77.5,106.5C 79.479,108.479 81.479,110.479 83.5,112.5C 84.4287,111.311 84.762,109.978 84.5,108.5C 85.7206,109.028 86.8873,109.695 88,110.5C 88.3114,109.258 87.8114,108.258 86.5,107.5C 87.2739,106.289 88.1072,106.289 89,107.5C 89.6689,104.972 90.5022,104.972 91.5,107.5C 90.0679,109.297 90.4012,110.63 92.5,111.5 Z"/></g>
<g><path style="opacity:1" fill="#636d76" d="M 110.5,116.5 C 111.038,118.117 111.371,119.784 111.5,121.5C 109.278,122.386 107.112,122.386 105,121.5C 103.51,122.682 102.177,123.682 101,124.5C 98.9517,122.213 96.7851,122.046 94.5,124C 96.0074,124.837 96.5074,126.004 96,127.5C 94.7011,126.91 93.8678,125.91 93.5,124.5C 96.0276,121.15 96.0276,117.817 93.5,114.5C 95.1667,115.167 96.8333,115.833 98.5,116.5C 100.143,116.52 101.476,115.853 102.5,114.5C 103.842,115.902 104.676,115.569 105,113.5C 106.863,115.34 108.696,116.34 110.5,116.5 Z"/></g>
<g><path style="opacity:1" fill="#d4dee7" d="M 137.5,128.5 C 134.813,128.336 132.146,128.503 129.5,129C 131.134,129.494 132.801,129.66 134.5,129.5C 134.617,131.484 133.95,133.15 132.5,134.5C 130.425,132.936 128.092,131.936 125.5,131.5C 124.396,132.631 124.729,133.465 126.5,134C 122.633,135.987 122.633,136.487 126.5,135.5C 127.386,136.325 127.719,137.325 127.5,138.5C 135.945,139.562 144.278,139.562 152.5,138.5C 136.49,144.269 120.823,143.602 105.5,136.5C 104.537,135.637 104.537,134.97 105.5,134.5C 108.344,135.172 111.01,136.172 113.5,137.5C 113.611,138.117 113.944,138.617 114.5,139C 116.81,139.497 119.143,139.663 121.5,139.5C 121.037,136.518 120.704,133.518 120.5,130.5C 125.833,130.167 125.833,129.833 120.5,129.5C 120.5,128.5 120.5,127.5 120.5,126.5C 122.124,126.36 123.29,127.027 124,128.5C 124.483,127.552 124.649,126.552 124.5,125.5C 122.208,125.244 120.041,125.577 118,126.5C 118.213,124.6 119.047,122.933 120.5,121.5C 122.908,120.939 125.241,120.439 127.5,120C 128.833,120.667 128.833,121.333 127.5,122C 128.449,122.617 129.282,122.451 130,121.5C 130.359,124.544 131.026,124.878 132,122.5C 133.098,123.967 134.598,124.801 136.5,125C 135.328,125.419 134.328,126.085 133.5,127C 135.366,125.992 136.699,126.492 137.5,128.5 Z"/></g>
<g><path style="opacity:1" fill="#203c65" d="M 83.5,127.5 C 85.1667,129.5 86.8333,131.5 88.5,133.5C 88.631,134.239 88.4643,134.906 88,135.5C 85.6307,135.677 83.1307,135.344 80.5,134.5C 61.9777,134.96 43.4777,135.96 25,137.5C 20.8904,137.035 16.7237,137.535 12.5,139C 8.17944,139.499 3.84611,139.666 -0.5,139.5C -0.5,138.167 -0.5,136.833 -0.5,135.5C 26.1149,133.17 52.7815,131.503 79.5,130.5C 79.5,129.5 79.5,128.5 79.5,127.5C 80.8333,127.5 82.1667,127.5 83.5,127.5 Z"/></g>
<g><path style="opacity:1" fill="#1e3a60" d="M 182.5,125.5 C 182.389,126.117 182.056,126.617 181.5,127C 184.509,129.073 187.842,130.407 191.5,131C 202.476,132.243 213.476,133.076 224.5,133.5C 224.5,135.5 224.5,137.5 224.5,139.5C 209.062,137.316 193.729,135.816 178.5,135C 177.978,134.439 177.645,133.772 177.5,133C 178.32,131.2 178.986,129.366 179.5,127.5C 179.973,126.094 180.973,125.427 182.5,125.5 Z"/></g>
<g><path style="opacity:1" fill="#b9c3c9" d="M 137.5,128.5 C 137.63,130.597 137.63,132.764 137.5,135C 140.218,135.653 142.884,136.487 145.5,137.5C 148.669,136.444 151.669,136.444 154.5,137.5C 153.833,137.833 153.167,138.167 152.5,138.5C 144.278,139.562 135.945,139.562 127.5,138.5C 127.719,137.325 127.386,136.325 126.5,135.5C 122.633,136.487 122.633,135.987 126.5,134C 124.729,133.465 124.396,132.631 125.5,131.5C 128.092,131.936 130.425,132.936 132.5,134.5C 133.95,133.15 134.617,131.484 134.5,129.5C 132.801,129.66 131.134,129.494 129.5,129C 132.146,128.503 134.813,128.336 137.5,128.5 Z"/></g>
<g><path style="opacity:1" fill="#7287a5" d="M 95.5,131.5 C 99.0447,132.703 102.378,134.37 105.5,136.5C 120.823,143.602 136.49,144.269 152.5,138.5C 153.167,138.167 153.833,137.833 154.5,137.5C 156.722,136.312 159.055,135.312 161.5,134.5C 162.552,134.351 163.552,134.517 164.5,135C 163.748,135.671 163.414,136.504 163.5,137.5C 158.739,139.033 154.072,140.866 149.5,143C 137.5,143.667 125.5,143.667 113.5,143C 107.542,141.178 102.209,138.345 97.5,134.5C 97.2178,133.222 96.5511,132.222 95.5,131.5 Z"/></g>
<g><path style="opacity:1" fill="#264674" d="M 175.5,127.5 C 176.833,127.5 178.167,127.5 179.5,127.5C 178.986,129.366 178.32,131.2 177.5,133C 177.645,133.772 177.978,134.439 178.5,135C 193.729,135.816 209.062,137.316 224.5,139.5C 224.5,140.833 224.5,142.167 224.5,143.5C 209.071,143.457 193.738,142.29 178.5,140C 175.36,138.631 172.693,136.798 170.5,134.5C 171.833,133.067 173.333,131.733 175,130.5C 175.483,129.552 175.649,128.552 175.5,127.5 Z"/></g>
<g><path style="opacity:1" fill="#2a4a7a" d="M 88.5,133.5 C 90.7722,134.319 93.1055,134.985 95.5,135.5C 95.5,136.5 95.5,137.5 95.5,138.5C 96.552,138.351 97.552,138.517 98.5,139C 94.9099,140.53 91.2432,141.864 87.5,143C 68.8674,143.023 50.3674,144.189 32,146.5C 31.5172,145.552 31.3505,144.552 31.5,143.5C 30.5,143.5 29.5,143.5 28.5,143.5C 28.3512,146.607 28.8512,149.607 30,152.5C 32.5551,150.35 35.3884,150.017 38.5,151.5C 39.6119,152.265 40.2786,153.265 40.5,154.5C 38.4175,153.412 36.2508,152.412 34,151.5C 31.7969,153.669 30.9635,156.335 31.5,159.5C 30.5,159.5 29.5,159.5 28.5,159.5C 28.8633,157.089 27.8633,155.589 25.5,155C 28.001,153.582 27.6677,152.582 24.5,152C 27.2297,150.768 27.063,149.935 24,149.5C 21.0999,150.369 18.2666,151.369 15.5,152.5C 12.8294,151.834 10.3294,151.834 8,152.5C 6.51235,150.84 4.67901,149.84 2.5,149.5C 2.63088,148.624 2.29755,147.957 1.5,147.5C 0.824341,148.602 0.157674,149.602 -0.5,150.5C -0.5,146.833 -0.5,143.167 -0.5,139.5C 3.84611,139.666 8.17944,139.499 12.5,139C 16.7237,137.535 20.8904,137.035 25,137.5C 43.4777,135.96 61.9777,134.96 80.5,134.5C 83.1307,135.344 85.6307,135.677 88,135.5C 88.4643,134.906 88.631,134.239 88.5,133.5 Z"/></g>
<g><path style="opacity:1" fill="#375d9a" d="M 95.5,135.5 C 99.5,138.167 103.5,140.833 107.5,143.5C 107.421,144.93 107.754,146.264 108.5,147.5C 98.8563,148.498 89.1896,148.832 79.5,148.5C 68.149,148.165 56.649,147.831 45,147.5C 42.9792,147.673 41.1459,148.34 39.5,149.5C 41.6493,152.039 44.1493,153.039 47,152.5C 47.4643,153.094 47.631,153.761 47.5,154.5C 46.1733,155.8 44.84,157.133 43.5,158.5C 42.8503,156.816 41.8503,155.483 40.5,154.5C 40.2786,153.265 39.6119,152.265 38.5,151.5C 35.3884,150.017 32.5551,150.35 30,152.5C 28.8512,149.607 28.3512,146.607 28.5,143.5C 29.5,143.5 30.5,143.5 31.5,143.5C 31.3505,144.552 31.5172,145.552 32,146.5C 50.3674,144.189 68.8674,143.023 87.5,143C 91.2432,141.864 94.9099,140.53 98.5,139C 97.552,138.517 96.552,138.351 95.5,138.5C 95.5,137.5 95.5,136.5 95.5,135.5 Z"/></g>
<g><path style="opacity:1" fill="#5679ac" d="M 95.5,135.5 C 95.5,135.167 95.5,134.833 95.5,134.5C 96.1667,134.5 96.8333,134.5 97.5,134.5C 102.209,138.345 107.542,141.178 113.5,143C 125.5,143.667 137.5,143.667 149.5,143C 154.072,140.866 158.739,139.033 163.5,137.5C 163.5,137.833 163.5,138.167 163.5,138.5C 160.79,140.232 158.124,141.899 155.5,143.5C 154.055,145.063 152.389,146.396 150.5,147.5C 137.771,148.797 124.771,148.797 111.5,147.5C 111.5,146.167 111.5,144.833 111.5,143.5C 110.167,143.5 108.833,143.5 107.5,143.5C 103.5,140.833 99.5,138.167 95.5,135.5 Z"/></g>
<g><path style="opacity:1" fill="#3e67ab" d="M 79.5,148.5 C 79.5,149.833 79.5,151.167 79.5,152.5C 71.2786,153.051 63.1119,153.718 55,154.5C 54.0853,153.672 53.4186,152.672 53,151.5C 52.6667,152.167 52.3333,152.833 52,153.5C 49.5528,152.004 48.7194,152.337 49.5,154.5C 48.8333,154.5 48.1667,154.5 47.5,154.5C 47.631,153.761 47.4643,153.094 47,152.5C 44.1493,153.039 41.6493,152.039 39.5,149.5C 41.1459,148.34 42.9792,147.673 45,147.5C 56.649,147.831 68.149,148.165 79.5,148.5 Z"/></g>
<g><path style="opacity:1" fill="#4c72af" d="M 107.5,143.5 C 108.833,143.5 110.167,143.5 111.5,143.5C 111.5,144.833 111.5,146.167 111.5,147.5C 124.771,148.797 137.771,148.797 150.5,147.5C 151.931,150.758 154.431,152.758 158,153.5C 169.097,153.364 180.263,153.364 191.5,153.5C 191.5,154.5 191.5,155.5 191.5,156.5C 170.164,155.813 148.83,154.98 127.5,154C 125.5,153.5 123.5,153 121.5,152.5C 100.33,153.159 79.1632,154.159 58,155.5C 55.9063,155.464 53.9063,155.131 52,154.5C 51.2917,155.381 50.4584,156.047 49.5,156.5C 49.5,155.833 49.5,155.167 49.5,154.5C 48.7194,152.337 49.5528,152.004 52,153.5C 52.3333,152.833 52.6667,152.167 53,151.5C 53.4186,152.672 54.0853,153.672 55,154.5C 63.1119,153.718 71.2786,153.051 79.5,152.5C 79.5,151.167 79.5,149.833 79.5,148.5C 89.1896,148.832 98.8563,148.498 108.5,147.5C 107.754,146.264 107.421,144.93 107.5,143.5 Z"/></g>
<g><path style="opacity:1" fill="#3a62a2" d="M 155.5,143.5 C 167.455,144.981 179.455,145.981 191.5,146.5C 191.5,145.5 191.5,144.5 191.5,143.5C 196.479,145.574 201.479,147.907 206.5,150.5C 207.623,149.456 208.956,148.79 210.5,148.5C 213.071,149.401 215.404,150.734 217.5,152.5C 219.409,151.652 221.409,151.318 223.5,151.5C 223.263,150.209 223.596,149.209 224.5,148.5C 224.5,152.833 224.5,157.167 224.5,161.5C 221.721,163.109 219.721,162.442 218.5,159.5C 217.986,157.561 216.653,156.561 214.5,156.5C 212.238,157.467 209.905,158.134 207.5,158.5C 204.401,154.76 200.401,153.593 195.5,155C 194.944,155.383 194.611,155.883 194.5,156.5C 193.21,157.058 192.377,158.058 192,159.5C 191.517,158.552 191.351,157.552 191.5,156.5C 191.5,155.5 191.5,154.5 191.5,153.5C 180.263,153.364 169.097,153.364 158,153.5C 154.431,152.758 151.931,150.758 150.5,147.5C 152.389,146.396 154.055,145.063 155.5,143.5 Z"/></g>
<g><path style="opacity:1" fill="#2f5489" d="M 170.5,134.5 C 172.693,136.798 175.36,138.631 178.5,140C 193.738,142.29 209.071,143.457 224.5,143.5C 224.5,145.167 224.5,146.833 224.5,148.5C 223.596,149.209 223.263,150.209 223.5,151.5C 221.409,151.318 219.409,151.652 217.5,152.5C 215.404,150.734 213.071,149.401 210.5,148.5C 208.956,148.79 207.623,149.456 206.5,150.5C 201.479,147.907 196.479,145.574 191.5,143.5C 191.5,144.5 191.5,145.5 191.5,146.5C 179.455,145.981 167.455,144.981 155.5,143.5C 158.124,141.899 160.79,140.232 163.5,138.5C 166.102,137.549 168.435,136.216 170.5,134.5 Z"/></g>
<g><path style="opacity:1" fill="#000001" d="M 2.5,149.5 C 3.45105,151.472 4.45105,153.472 5.5,155.5C 6.25753,154.189 7.25753,153.689 8.5,154C 9.64055,154.741 9.64055,155.575 8.5,156.5C 8.83333,157.5 9.5,158.167 10.5,158.5C 11.4975,155.861 13.1642,153.861 15.5,152.5C 18.2666,151.369 21.0999,150.369 24,149.5C 27.063,149.935 27.2297,150.768 24.5,152C 27.6677,152.582 28.001,153.582 25.5,155C 27.8633,155.589 28.8633,157.089 28.5,159.5C 29.5,159.5 30.5,159.5 31.5,159.5C 30.9635,156.335 31.7969,153.669 34,151.5C 36.2508,152.412 38.4175,153.412 40.5,154.5C 40.2969,156.044 39.6302,157.378 38.5,158.5C 40.396,159.466 42.396,159.799 44.5,159.5C 45.7525,161.339 45.7525,163.172 44.5,165C 45.2438,166.039 46.2438,166.539 47.5,166.5C 50.3467,166.782 53.0134,166.782 55.5,166.5C 57.7411,167.032 59.2411,168.365 60,170.5C 60.3333,170.167 60.6667,169.833 61,169.5C 64.1312,170.206 67.2979,170.873 70.5,171.5C 82.916,170.633 94.916,170.3 106.5,170.5C 107.5,170.5 108.5,170.5 109.5,170.5C 109.433,169.041 109.766,167.708 110.5,166.5C 112.453,167.462 114.286,167.795 116,167.5C 117.583,165.798 117.083,164.464 114.5,163.5C 115.171,162.054 116.338,161.388 118,161.5C 119.724,161.955 121.224,162.788 122.5,164C 121.179,165.545 121.512,166.711 123.5,167.5C 123.517,166.606 123.851,165.606 124.5,164.5C 125.315,163.571 126.148,162.571 127,161.5C 127.805,163.901 128.638,163.734 129.5,161C 128.288,159.893 128.621,159.393 130.5,159.5C 130.833,159.5 131.167,159.5 131.5,159.5C 131.709,160.922 132.209,162.255 133,163.5C 133.464,162.906 133.631,162.239 133.5,161.5C 135.017,161.511 136.184,162.177 137,163.5C 137.236,161.881 138.069,160.881 139.5,160.5C 140.496,160.414 141.329,160.748 142,161.5C 142.536,163.869 143.703,165.869 145.5,167.5C 146.167,167.167 146.833,166.833 147.5,166.5C 148.631,167.751 149.964,168.751 151.5,169.5C 153.762,168.533 156.095,167.866 158.5,167.5C 160.929,167.585 162.929,168.585 164.5,170.5C 165.598,169.385 166.765,169.385 168,170.5C 172.513,168.74 177.013,167.074 181.5,165.5C 181.5,164.5 181.5,163.5 181.5,162.5C 182.833,162.5 184.167,162.5 185.5,162.5C 185.337,166.035 186.67,167.035 189.5,165.5C 189.833,165.5 190.167,165.5 190.5,165.5C 193.442,164.123 196.109,162.456 198.5,160.5C 198.294,158.451 197.461,158.117 196,159.5C 195.251,158.365 195.417,157.365 196.5,156.5C 198.409,155.652 200.409,155.318 202.5,155.5C 202.36,157.124 203.027,158.29 204.5,159C 203.663,160.011 203.33,161.178 203.5,162.5C 204.873,162.657 206.207,162.49 207.5,162C 206.226,161.023 206.226,160.189 207.5,159.5C 211.167,159.5 214.833,159.5 218.5,159.5C 219.721,162.442 221.721,163.109 224.5,161.5C 224.5,182.5 224.5,203.5 224.5,224.5C 149.5,224.5 74.5,224.5 -0.5,224.5C -0.5,199.833 -0.5,175.167 -0.5,150.5C 0.157674,149.602 0.824341,148.602 1.5,147.5C 2.29755,147.957 2.63088,148.624 2.5,149.5 Z"/></g>
<g><path style="opacity:1" fill="#1d3252" d="M 2.5,149.5 C 4.67901,149.84 6.51235,150.84 8,152.5C 10.3294,151.834 12.8294,151.834 15.5,152.5C 13.1642,153.861 11.4975,155.861 10.5,158.5C 9.5,158.167 8.83333,157.5 8.5,156.5C 9.64055,155.575 9.64055,154.741 8.5,154C 7.25753,153.689 6.25753,154.189 5.5,155.5C 4.45105,153.472 3.45105,151.472 2.5,149.5 Z"/></g>
<g><path style="opacity:1" fill="#465c87" d="M 207.5,158.5 C 207.5,158.833 207.5,159.167 207.5,159.5C 206.226,160.189 206.226,161.023 207.5,162C 206.207,162.49 204.873,162.657 203.5,162.5C 203.33,161.178 203.663,160.011 204.5,159C 203.027,158.29 202.36,157.124 202.5,155.5C 200.409,155.318 198.409,155.652 196.5,156.5C 195.417,157.365 195.251,158.365 196,159.5C 197.461,158.117 198.294,158.451 198.5,160.5C 196.5,160.833 194.5,161.167 192.5,161.5C 193.968,160.221 194.635,158.554 194.5,156.5C 194.611,155.883 194.944,155.383 195.5,155C 200.401,153.593 204.401,154.76 207.5,158.5 Z"/></g>
<g><path style="opacity:1" fill="#607cad" d="M 191.5,156.5 C 191.351,157.552 191.517,158.552 192,159.5C 192.377,158.058 193.21,157.058 194.5,156.5C 194.635,158.554 193.968,160.221 192.5,161.5C 190.896,162.287 190.229,163.62 190.5,165.5C 190.167,165.5 189.833,165.5 189.5,165.5C 187.797,162.8 185.464,160.8 182.5,159.5C 180.275,160.061 178.275,161.061 176.5,162.5C 175.614,161.675 175.281,160.675 175.5,159.5C 168.492,159.666 161.492,159.5 154.5,159C 147.945,157.347 141.278,156.514 134.5,156.5C 132.856,156.81 131.856,157.81 131.5,159.5C 131.167,159.5 130.833,159.5 130.5,159.5C 128.95,158.28 127.284,158.28 125.5,159.5C 110.746,159.801 96.0796,159.967 81.5,160C 80.1095,161.02 78.6095,161.853 77,162.5C 74.4367,162.659 71.7701,162.325 69,161.5C 68.6667,162.167 68.3333,162.833 68,163.5C 67.2303,162.402 66.397,162.402 65.5,163.5C 62.0403,161.718 58.3737,160.384 54.5,159.5C 54.1667,159.5 53.8333,159.5 53.5,159.5C 52.4097,158.143 51.0764,157.143 49.5,156.5C 50.4584,156.047 51.2917,155.381 52,154.5C 53.9063,155.131 55.9063,155.464 58,155.5C 79.1632,154.159 100.33,153.159 121.5,152.5C 123.5,153 125.5,153.5 127.5,154C 148.83,154.98 170.164,155.813 191.5,156.5 Z"/></g>
<g><path style="opacity:1" fill="#0f1c40" d="M 218.5,159.5 C 214.833,159.5 211.167,159.5 207.5,159.5C 207.5,159.167 207.5,158.833 207.5,158.5C 209.905,158.134 212.238,157.467 214.5,156.5C 216.653,156.561 217.986,157.561 218.5,159.5 Z"/></g>
<g><path style="opacity:1" fill="#233d6d" d="M 40.5,154.5 C 41.8503,155.483 42.8503,156.816 43.5,158.5C 44.84,157.133 46.1733,155.8 47.5,154.5C 48.1667,154.5 48.8333,154.5 49.5,154.5C 49.5,155.167 49.5,155.833 49.5,156.5C 51.0764,157.143 52.4097,158.143 53.5,159.5C 52.5,159.5 51.5,159.5 50.5,159.5C 48.5,159.5 46.5,159.5 44.5,159.5C 42.396,159.799 40.396,159.466 38.5,158.5C 39.6302,157.378 40.2969,156.044 40.5,154.5 Z"/></g>
<g><path style="opacity:1" fill="#373d57" d="M 134.5,156.5 C 133.767,158.25 133.434,159.917 133.5,161.5C 133.631,162.239 133.464,162.906 133,163.5C 132.209,162.255 131.709,160.922 131.5,159.5C 131.856,157.81 132.856,156.81 134.5,156.5 Z"/></g>
<g><path style="opacity:1" fill="#7583a7" d="M 134.5,156.5 C 141.278,156.514 147.945,157.347 154.5,159C 161.492,159.5 168.492,159.666 175.5,159.5C 175.281,160.675 175.614,161.675 176.5,162.5C 178.275,161.061 180.275,160.061 182.5,159.5C 185.464,160.8 187.797,162.8 189.5,165.5C 186.67,167.035 185.337,166.035 185.5,162.5C 184.167,162.5 182.833,162.5 181.5,162.5C 181.5,163.5 181.5,164.5 181.5,165.5C 177.013,167.074 172.513,168.74 168,170.5C 166.765,169.385 165.598,169.385 164.5,170.5C 162.929,168.585 160.929,167.585 158.5,167.5C 158.778,165.654 158.111,164.32 156.5,163.5C 154.605,164.973 152.939,166.64 151.5,168.5C 150.684,166.713 149.684,165.046 148.5,163.5C 147.406,165.836 146.073,165.836 144.5,163.5C 145.729,160.695 144.729,159.028 141.5,158.5C 140.287,158.747 139.62,159.414 139.5,160.5C 138.069,160.881 137.236,161.881 137,163.5C 136.184,162.177 135.017,161.511 133.5,161.5C 133.434,159.917 133.767,158.25 134.5,156.5 Z"/></g>
<g><path style="opacity:1" fill="#7d88a8" d="M 125.5,159.5 C 124.962,161.117 124.629,162.784 124.5,164.5C 123.851,165.606 123.517,166.606 123.5,167.5C 121.512,166.711 121.179,165.545 122.5,164C 121.224,162.788 119.724,161.955 118,161.5C 116.338,161.388 115.171,162.054 114.5,163.5C 117.083,164.464 117.583,165.798 116,167.5C 114.286,167.795 112.453,167.462 110.5,166.5C 107.884,162.518 105.217,162.518 102.5,166.5C 100.081,162.771 97.7475,162.771 95.5,166.5C 93.9081,164.438 92.0748,164.105 90,165.5C 89.6667,164.833 89.3333,164.167 89,163.5C 87.2196,165.794 85.0529,167.461 82.5,168.5C 76.9833,168.591 71.65,168.925 66.5,169.5C 65.2867,169.253 64.62,168.586 64.5,167.5C 65.2341,166.292 65.5674,164.959 65.5,163.5C 66.397,162.402 67.2303,162.402 68,163.5C 68.3333,162.833 68.6667,162.167 69,161.5C 71.7701,162.325 74.4367,162.659 77,162.5C 78.6095,161.853 80.1095,161.02 81.5,160C 96.0796,159.967 110.746,159.801 125.5,159.5 Z"/></g>
<g><path style="opacity:1" fill="#373f55" d="M 44.5,159.5 C 46.5,159.5 48.5,159.5 50.5,159.5C 49.7634,161.97 48.7634,164.304 47.5,166.5C 46.2438,166.539 45.2438,166.039 44.5,165C 45.7525,163.172 45.7525,161.339 44.5,159.5 Z"/></g>
<g><path style="opacity:1" fill="#4b5568" d="M 130.5,159.5 C 128.621,159.393 128.288,159.893 129.5,161C 128.638,163.734 127.805,163.901 127,161.5C 126.148,162.571 125.315,163.571 124.5,164.5C 124.629,162.784 124.962,161.117 125.5,159.5C 127.284,158.28 128.95,158.28 130.5,159.5 Z"/></g>
<g><path style="opacity:1" fill="#3f4c67" d="M 54.5,159.5 C 58.3737,160.384 62.0403,161.718 65.5,163.5C 65.5674,164.959 65.2341,166.292 64.5,167.5C 63.8501,167.804 63.1835,168.137 62.5,168.5C 60.2553,166.24 57.5886,164.906 54.5,164.5C 54.5,162.833 54.5,161.167 54.5,159.5 Z"/></g>
<g><path style="opacity:1" fill="#202846" d="M 198.5,160.5 C 196.109,162.456 193.442,164.123 190.5,165.5C 190.229,163.62 190.896,162.287 192.5,161.5C 194.5,161.167 196.5,160.833 198.5,160.5 Z"/></g>
<g><path style="opacity:1" fill="#191c24" d="M 158.5,167.5 C 156.095,167.866 153.762,168.533 151.5,169.5C 149.964,168.751 148.631,167.751 147.5,166.5C 146.833,166.833 146.167,167.167 145.5,167.5C 143.703,165.869 142.536,163.869 142,161.5C 141.329,160.748 140.496,160.414 139.5,160.5C 139.62,159.414 140.287,158.747 141.5,158.5C 144.729,159.028 145.729,160.695 144.5,163.5C 146.073,165.836 147.406,165.836 148.5,163.5C 149.684,165.046 150.684,166.713 151.5,168.5C 152.939,166.64 154.605,164.973 156.5,163.5C 158.111,164.32 158.778,165.654 158.5,167.5 Z"/></g>
<g><path style="opacity:1" fill="#50576a" d="M 102.5,166.5 C 102.5,167.5 102.5,168.5 102.5,169.5C 95.8259,169.287 89.1593,168.954 82.5,168.5C 85.0529,167.461 87.2196,165.794 89,163.5C 89.3333,164.167 89.6667,164.833 90,165.5C 92.0748,164.105 93.9081,164.438 95.5,166.5C 97.7475,162.771 100.081,162.771 102.5,166.5 Z"/></g>
<g><path style="opacity:1" fill="#484f63" d="M 110.5,166.5 C 109.766,167.708 109.433,169.041 109.5,170.5C 108.5,170.5 107.5,170.5 106.5,170.5C 106.512,167.858 105.179,166.525 102.5,166.5C 105.217,162.518 107.884,162.518 110.5,166.5 Z"/></g>
<g><path style="opacity:1" fill="#050813" d="M 50.5,159.5 C 51.5,159.5 52.5,159.5 53.5,159.5C 53.8333,159.5 54.1667,159.5 54.5,159.5C 54.5,161.167 54.5,162.833 54.5,164.5C 57.5886,164.906 60.2553,166.24 62.5,168.5C 63.1835,168.137 63.8501,167.804 64.5,167.5C 64.62,168.586 65.2867,169.253 66.5,169.5C 71.65,168.925 76.9833,168.591 82.5,168.5C 89.1593,168.954 95.8259,169.287 102.5,169.5C 102.5,168.5 102.5,167.5 102.5,166.5C 105.179,166.525 106.512,167.858 106.5,170.5C 94.916,170.3 82.916,170.633 70.5,171.5C 67.2979,170.873 64.1312,170.206 61,169.5C 60.6667,169.833 60.3333,170.167 60,170.5C 59.2411,168.365 57.7411,167.032 55.5,166.5C 53.0134,166.782 50.3467,166.782 47.5,166.5C 48.7634,164.304 49.7634,161.97 50.5,159.5 Z"/></g>
</svg>
