<?xml version="1.0" encoding="UTF-8"?>
<!DOCTYPE svg PUBLIC "-//W3C//DTD SVG 1.1//EN" "http://www.w3.org/Graphics/SVG/1.1/DTD/svg11.dtd">
<svg xmlns="http://www.w3.org/2000/svg" version="1.1" width="225px" height="225px" style="shape-rendering:geometricPrecision; text-rendering:geometricPrecision; image-rendering:optimizeQuality; fill-rule:evenodd; clip-rule:evenodd" xmlns:xlink="http://www.w3.org/1999/xlink">
<g><path style="opacity:1" fill="#fefefe" d="M -0.5,-0.5 C 74.5,-0.5 149.5,-0.5 224.5,-0.5C 224.5,74.5 224.5,149.5 224.5,224.5C 149.5,224.5 74.5,224.5 -0.5,224.5C -0.5,149.5 -0.5,74.5 -0.5,-0.5 Z"/></g>
<g><path style="opacity:1" fill="#2d1d1f" d="M 117.5,64.5 C 115.833,63.1667 114.167,61.8333 112.5,60.5C 112.315,62.8896 110.982,63.8896 108.5,63.5C 98.4457,62.9406 93.9457,57.6073 95,47.5C 92.8333,50.3333 90.6667,53.1667 88.5,56C 85.8524,58.0496 82.8524,59.2163 79.5,59.5C 77.1667,59.5 74.8333,59.5 72.5,59.5C 72.1667,59.5 71.8333,59.5 71.5,59.5C 71.2406,47.5947 76.9073,39.428 88.5,35C 99.2208,33.0193 108.387,35.8526 116,43.5C 120.137,50.2367 120.637,57.2367 117.5,64.5 Z"/></g>
<g><path style="opacity:1" fill="#a63925" d="M 81.5,44.5 C 83.8418,44.7748 83.8418,45.6081 81.5,47C 79.5979,48.3011 77.5979,48.9678 75.5,49C 77.6838,47.6366 79.6838,46.1366 81.5,44.5 Z"/></g>
<g><path style="opacity:1" fill="#ac3b25" d="M 86.5,47.5 C 87.2389,47.369 87.9056,47.5357 88.5,48C 86.7957,50.7568 84.4623,52.0901 81.5,52C 83.6175,50.9509 85.2842,49.4509 86.5,47.5 Z"/></g>
<g><path style="opacity:1" fill="#ce7c34" d="M 112.5,60.5 C 114.167,61.8333 115.833,63.1667 117.5,64.5C 118.997,69.5356 116.997,72.369 111.5,73C 108.75,76.858 105.416,80.0247 101.5,82.5C 97.6089,83.5018 93.6089,84.3352 89.5,85C 90.5,85.5 91.5,86 92.5,86.5C 93.7759,87.6136 93.7759,88.6136 92.5,89.5C 90.9317,90.4731 89.265,90.6397 87.5,90C 86.2401,87.6987 84.9067,85.5321 83.5,83.5C 83.1667,83.5 82.8333,83.5 82.5,83.5C 73.5081,78.1713 69.8415,70.1713 71.5,59.5C 71.8333,59.5 72.1667,59.5 72.5,59.5C 74.2922,60.3091 76.2922,60.8091 78.5,61C 77.1118,61.8893 77.2785,62.3893 79,62.5C 80.4509,61.6447 81.9509,61.4781 83.5,62C 82.1416,61.0656 80.8083,60.2323 79.5,59.5C 82.8524,59.2163 85.8524,58.0496 88.5,56C 90.6667,53.1667 92.8333,50.3333 95,47.5C 93.9457,57.6073 98.4457,62.9406 108.5,63.5C 110.982,63.8896 112.315,62.8896 112.5,60.5 Z"/></g>
<g><path style="opacity:1" fill="#9d3724" d="M 110.5,47.5 C 113.387,49.9561 115.221,52.9561 116,56.5C 113.517,53.8607 111.684,50.8607 110.5,47.5 Z"/></g>
<g><path style="opacity:1" fill="#9f3824" d="M 101.5,41.5 C 102.675,48.2018 104.175,54.8685 106,61.5C 102.279,55.4005 100.779,48.7338 101.5,41.5 Z"/></g>
<g><path style="opacity:1" fill="#9b3724" d="M 112.5,60.5 C 109.351,57.5626 107.851,53.896 108,49.5C 109.513,53.188 111.013,56.8546 112.5,60.5 Z"/></g>
<g><path style="opacity:1" fill="#85512a" d="M 72.5,59.5 C 74.8333,59.5 77.1667,59.5 79.5,59.5C 80.8083,60.2323 82.1416,61.0656 83.5,62C 81.9509,61.4781 80.4509,61.6447 79,62.5C 77.2785,62.3893 77.1118,61.8893 78.5,61C 76.2922,60.8091 74.2922,60.3091 72.5,59.5 Z"/></g>
<g><path style="opacity:1" fill="#25191f" d="M 79.5,64.5 C 80.6491,64.7911 81.3158,65.6244 81.5,67C 81.1667,67.8333 80.8333,68.6667 80.5,69.5C 79.5481,67.9547 79.2148,66.288 79.5,64.5 Z"/></g>
<g><path style="opacity:1" fill="#2d1d20" d="M 93.5,64.5 C 96.9563,65.5362 97.2896,67.2029 94.5,69.5C 93.5481,67.9547 93.2148,66.288 93.5,64.5 Z"/></g>
<g><path style="opacity:1" fill="#513225" d="M 83.5,72.5 C 84.8068,73.1534 86.1401,73.8201 87.5,74.5C 91.445,73.5728 91.445,73.9061 87.5,75.5C 85.3472,75.4387 84.0138,74.4387 83.5,72.5 Z"/></g>
<g><path style="opacity:1" fill="#2d1d1f" d="M 101.5,82.5 C 105.688,84.025 108.021,87.025 108.5,91.5C 109.012,98.0306 108.178,104.364 106,110.5C 105.667,110.833 105.333,111.167 105,111.5C 103.22,110.361 101.386,109.361 99.5,108.5C 95.931,106.881 92.2644,105.548 88.5,104.5C 89.4289,99.382 90.7622,94.382 92.5,89.5C 93.7759,88.6136 93.7759,87.6136 92.5,86.5C 91.5,86 90.5,85.5 89.5,85C 93.6089,84.3352 97.6089,83.5018 101.5,82.5 Z"/></g>
<g><path style="opacity:1" fill="#291b1d" d="M 82.5,83.5 C 82.8333,83.5 83.1667,83.5 83.5,83.5C 81.8901,88.6643 79.8901,93.6643 77.5,98.5C 75.4776,96.4687 73.8109,94.1354 72.5,91.5C 75.8333,88.8333 79.1667,86.1667 82.5,83.5 Z"/></g>
<g><path style="opacity:1" fill="#b93e25" d="M 83.5,83.5 C 84.9067,85.5321 86.2401,87.6987 87.5,90C 89.265,90.6397 90.9317,90.4731 92.5,89.5C 90.7622,94.382 89.4289,99.382 88.5,104.5C 84.3537,105.647 80.0204,105.814 75.5,105C 74.944,104.617 74.6107,104.117 74.5,103.5C 75.3382,103.158 75.6716,102.492 75.5,101.5C 76.4013,100.71 77.0679,99.7095 77.5,98.5C 79.8901,93.6643 81.8901,88.6643 83.5,83.5 Z"/></g>
<g><path style="opacity:1" fill="#c63553" d="M 46.5,81.5 C 47.9194,83.927 48.9194,86.5936 49.5,89.5C 54.2293,86.9511 59.2293,86.1178 64.5,87C 68.0542,91.953 71.7209,96.7863 75.5,101.5C 75.6716,102.492 75.3382,103.158 74.5,103.5C 73.3063,100.982 72.1396,100.982 71,103.5C 69.54,101.578 67.8733,100.911 66,101.5C 65.3623,102.609 64.8623,103.775 64.5,105C 65.6502,106.981 66.9835,108.814 68.5,110.5C 67.8333,111.167 67.1667,111.833 66.5,112.5C 64.5,112.833 62.5,113.167 60.5,113.5C 56.3447,106.528 52.1781,99.5277 48,92.5C 47.0593,89.1853 46.226,85.852 45.5,82.5C 45.6236,81.8933 45.9569,81.56 46.5,81.5 Z"/></g>
<g><path style="opacity:1" fill="#f39026" d="M 46.5,81.5 C 49.4012,82.4102 52.0678,83.7436 54.5,85.5C 58.4649,84.4701 62.4649,84.3035 66.5,85C 68.4002,87.3353 70.4002,89.502 72.5,91.5C 73.8109,94.1354 75.4776,96.4687 77.5,98.5C 77.0679,99.7095 76.4013,100.71 75.5,101.5C 71.7209,96.7863 68.0542,91.953 64.5,87C 59.2293,86.1178 54.2293,86.9511 49.5,89.5C 48.9194,86.5936 47.9194,83.927 46.5,81.5 Z"/></g>
<g><path style="opacity:1" fill="#d17d34" d="M 74.5,103.5 C 74.6107,104.117 74.944,104.617 75.5,105C 80.0204,105.814 84.3537,105.647 88.5,104.5C 92.2644,105.548 95.931,106.881 99.5,108.5C 98.7457,111.091 97.079,112.924 94.5,114C 91.5807,115.14 88.5807,115.973 85.5,116.5C 79.3563,115.675 73.6896,113.675 68.5,110.5C 66.9835,108.814 65.6502,106.981 64.5,105C 64.8623,103.775 65.3623,102.609 66,101.5C 67.8733,100.911 69.54,101.578 71,103.5C 72.1396,100.982 73.3063,100.982 74.5,103.5 Z"/></g>
<g><path style="opacity:1" fill="#b83f26" d="M 180.5,129.5 C 178.435,129.483 176.435,129.15 174.5,128.5C 175.88,127.81 177.214,127.476 178.5,127.5C 176.808,125.641 175.308,123.641 174,121.5C 173.346,120.304 172.846,120.304 172.5,121.5C 173.64,123.078 174.14,124.744 174,126.5C 173.329,125.748 172.496,125.414 171.5,125.5C 171.833,126.167 172.167,126.833 172.5,127.5C 167.622,125.461 163.788,122.127 161,117.5C 158.894,120.118 156.394,122.118 153.5,123.5C 154.8,122.399 155.3,121.066 155,119.5C 153.167,121.333 151.333,123.167 149.5,125C 149.728,125.399 150.062,125.565 150.5,125.5C 147.797,129.134 144.63,129.8 141,127.5C 140.228,127.645 139.561,127.978 139,128.5C 138.503,126.19 138.337,123.857 138.5,121.5C 139.684,113.97 143.684,108.47 150.5,105C 156.833,104.333 163.167,104.333 169.5,105C 181.365,109.87 185.031,118.037 180.5,129.5 Z"/></g>
<g><path style="opacity:1" fill="#b83e26" d="M 108.5,91.5 C 109.117,91.6107 109.617,91.944 110,92.5C 110.499,97.4889 110.666,102.489 110.5,107.5C 109.435,113.867 107.101,119.7 103.5,125C 104.672,126.868 104.505,128.702 103,130.5C 102.346,131.696 101.846,131.696 101.5,130.5C 102.326,129.549 102.492,128.549 102,127.5C 98.998,131.668 95.498,135.335 91.5,138.5C 91.0711,134.976 89.5711,131.976 87,129.5C 81.1176,122.43 74.2843,116.763 66.5,112.5C 67.1667,111.833 67.8333,111.167 68.5,110.5C 73.6896,113.675 79.3563,115.675 85.5,116.5C 88.5807,115.973 91.5807,115.14 94.5,114C 97.079,112.924 98.7457,111.091 99.5,108.5C 101.386,109.361 103.22,110.361 105,111.5C 105.333,111.167 105.667,110.833 106,110.5C 108.178,104.364 109.012,98.0306 108.5,91.5 Z"/></g>
<g><path style="opacity:1" fill="#2d1d1f" d="M 110.5,107.5 C 123.203,109.164 131.537,115.997 135.5,128C 135.134,132.701 132.801,136.034 128.5,138C 115.89,143.39 103.224,143.89 90.5,139.5C 90.5,138.833 90.8333,138.5 91.5,138.5C 95.498,135.335 98.998,131.668 102,127.5C 102.492,128.549 102.326,129.549 101.5,130.5C 101.846,131.696 102.346,131.696 103,130.5C 104.505,128.702 104.672,126.868 103.5,125C 107.101,119.7 109.435,113.867 110.5,107.5 Z"/></g>
<g><path style="opacity:1" fill="#c53453" d="M 41.5,121.5 C 44.1379,127.349 44.8046,133.349 43.5,139.5C 41.0797,141.924 38.413,142.091 35.5,140C 32.9593,136.696 29.7926,134.196 26,132.5C 22.7686,125.85 21.7686,118.85 23,111.5C 23.4083,109.59 24.5749,108.59 26.5,108.5C 29.933,110.563 33.2663,112.73 36.5,115C 38.7655,116.758 40.4322,118.925 41.5,121.5 Z"/></g>
<g><path style="opacity:1" fill="#f59326" d="M 66.5,112.5 C 74.2843,116.763 81.1176,122.43 87,129.5C 89.5711,131.976 91.0711,134.976 91.5,138.5C 90.8333,138.5 90.5,138.833 90.5,139.5C 90.1667,139.5 89.8333,139.5 89.5,139.5C 81.7802,136.582 74.4469,137.582 67.5,142.5C 65.3926,141.532 63.0593,141.198 60.5,141.5C 60.6757,136.12 60.3424,130.787 59.5,125.5C 63.4764,124.705 67.4764,124.038 71.5,123.5C 71.6495,122.448 71.4828,121.448 71,120.5C 66.8951,122.822 62.3951,124.156 57.5,124.5C 56.6547,120.985 54.6547,118.319 51.5,116.5C 54.7846,116.072 57.7846,115.072 60.5,113.5C 62.5,113.167 64.5,112.833 66.5,112.5 Z"/></g>
<g><path style="opacity:1" fill="#cd7b35" d="M 172.5,127.5 C 173.167,127.833 173.833,128.167 174.5,128.5C 176.435,129.15 178.435,129.483 180.5,129.5C 179.715,134.212 178.715,138.879 177.5,143.5C 176.5,144.833 175.5,146.167 174.5,147.5C 169.213,150.198 163.546,151.198 157.5,150.5C 154.996,145.673 150.996,143.34 145.5,143.5C 144.147,139.415 141.481,136.749 137.5,135.5C 136.811,130.713 137.145,126.047 138.5,121.5C 138.337,123.857 138.503,126.19 139,128.5C 139.561,127.978 140.228,127.645 141,127.5C 144.63,129.8 147.797,129.134 150.5,125.5C 151.5,124.833 152.5,124.167 153.5,123.5C 156.394,122.118 158.894,120.118 161,117.5C 163.788,122.127 167.622,125.461 172.5,127.5 Z"/></g>
<g><path style="opacity:1" fill="#982d43" d="M 120.5,114.5 C 122.347,114.234 123.014,114.568 122.5,115.5C 118.082,117.138 113.749,118.638 109.5,120C 113.017,117.674 116.683,115.84 120.5,114.5 Z"/></g>
<g><path style="opacity:1" fill="#3b2220" d="M 175.5,116.5 C 178.499,117.976 179.999,120.309 180,123.5C 178.25,121.266 176.75,118.932 175.5,116.5 Z"/></g>
<g><path style="opacity:1" fill="#301f20" d="M 171.5,125.5 C 169.554,124.746 168.721,123.412 169,121.5C 170.481,122.471 171.315,123.804 171.5,125.5 Z"/></g>
<g><path style="opacity:1" fill="#322020" d="M 144.5,122.5 C 145.239,122.369 145.906,122.536 146.5,123C 145.534,124.678 144.201,125.345 142.5,125C 143.381,124.292 144.047,123.458 144.5,122.5 Z"/></g>
<g><path style="opacity:1" fill="#361e20" d="M 153.5,123.5 C 152.5,124.167 151.5,124.833 150.5,125.5C 150.062,125.565 149.728,125.399 149.5,125C 151.333,123.167 153.167,121.333 155,119.5C 155.3,121.066 154.8,122.399 153.5,123.5 Z"/></g>
<g><path style="opacity:1" fill="#704429" d="M 59.5,125.5 C 55.9521,126.843 52.2854,127.343 48.5,127C 51.5789,126.315 54.5789,125.481 57.5,124.5C 62.3951,124.156 66.8951,122.822 71,120.5C 71.4828,121.448 71.6495,122.448 71.5,123.5C 67.4764,124.038 63.4764,124.705 59.5,125.5 Z"/></g>
<g><path style="opacity:1" fill="#d17f35" d="M 51.5,116.5 C 54.6547,118.319 56.6547,120.985 57.5,124.5C 54.5789,125.481 51.5789,126.315 48.5,127C 52.2854,127.343 55.9521,126.843 59.5,125.5C 60.3424,130.787 60.6757,136.12 60.5,141.5C 54.6965,141.791 49.0299,141.125 43.5,139.5C 44.8046,133.349 44.1379,127.349 41.5,121.5C 45.0438,120.211 48.3771,118.544 51.5,116.5 Z"/></g>
<g><path style="opacity:1" fill="#a02e46" d="M 114.5,125.5 C 117.52,124.528 120.52,125.028 123.5,127C 120.498,126.842 117.498,126.342 114.5,125.5 Z"/></g>
<g><path style="opacity:1" fill="#702f23" d="M 174.5,128.5 C 173.833,128.167 173.167,127.833 172.5,127.5C 172.167,126.833 171.833,126.167 171.5,125.5C 172.496,125.414 173.329,125.748 174,126.5C 174.14,124.744 173.64,123.078 172.5,121.5C 172.846,120.304 173.346,120.304 174,121.5C 175.308,123.641 176.808,125.641 178.5,127.5C 177.214,127.476 175.88,127.81 174.5,128.5 Z"/></g>
<g><path style="opacity:1" fill="#58252d" d="M 29.5,117.5 C 30.5437,122.677 31.0437,128.011 31,133.5C 29.661,128.264 29.161,122.93 29.5,117.5 Z"/></g>
<g><path style="opacity:1" fill="#8f2c40" d="M 107.5,127.5 C 107.56,126.957 107.893,126.624 108.5,126.5C 112.018,130.564 113.852,135.23 114,140.5C 112.351,135.868 110.184,131.535 107.5,127.5 Z"/></g>
<g><path style="opacity:1" fill="#301f21" d="M 157.5,131.5 C 158.649,131.791 159.316,132.624 159.5,134C 159.013,137.093 158.013,137.259 156.5,134.5C 157.127,133.583 157.461,132.583 157.5,131.5 Z"/></g>
<g><path style="opacity:1" fill="#b43d24" d="M 137.5,135.5 C 141.481,136.749 144.147,139.415 145.5,143.5C 143.833,144.5 142.5,145.833 141.5,147.5C 136.328,149.082 131.328,148.748 126.5,146.5C 127.833,140.5 131.5,136.833 137.5,135.5 Z"/></g>
<g><path style="opacity:1" fill="#311f21" d="M 172.5,133.5 C 175.148,135.128 175.148,136.794 172.5,138.5C 171.334,136.833 171.334,135.166 172.5,133.5 Z"/></g>
<g><path style="opacity:1" fill="#c73953" d="M 89.5,139.5 C 89.5,140.5 89.5,141.5 89.5,142.5C 85.9221,141.411 82.2554,141.245 78.5,142C 77.6634,143.011 77.33,144.178 77.5,145.5C 76.8333,145.833 76.1667,146.167 75.5,146.5C 74.7542,142.69 73.7542,142.69 72.5,146.5C 68.7135,147.021 67.0468,145.687 67.5,142.5C 74.4469,137.582 81.7802,136.582 89.5,139.5 Z"/></g>
<g><path style="opacity:1" fill="#f49027" d="M 185.5,139.5 C 189.332,142.499 192.665,145.999 195.5,150C 190.958,148.731 186.624,146.898 182.5,144.5C 183.11,142.566 184.11,140.899 185.5,139.5 Z"/></g>
<g><path style="opacity:1" fill="#d27d39" d="M 75.5,146.5 C 74.5,146.5 73.5,146.5 72.5,146.5C 73.7542,142.69 74.7542,142.69 75.5,146.5 Z"/></g>
<g><path style="opacity:1" fill="#c63553" d="M 145.5,143.5 C 150.996,143.34 154.996,145.673 157.5,150.5C 157.5,150.833 157.5,151.167 157.5,151.5C 159.108,154.382 160.441,157.382 161.5,160.5C 161.631,161.239 161.464,161.906 161,162.5C 159.698,163.085 158.531,163.751 157.5,164.5C 153.593,164.726 149.926,165.726 146.5,167.5C 144.5,167.833 142.5,168.167 140.5,168.5C 138.931,161.342 139.264,154.342 141.5,147.5C 142.5,145.833 143.833,144.5 145.5,143.5 Z"/></g>
<g><path style="opacity:1" fill="#c63553" d="M 172.5,172.5 C 178.386,172.593 181.053,169.926 180.5,164.5C 179.784,163.689 178.95,163.022 178,162.5C 176.467,163.695 174.967,163.695 173.5,162.5C 171.754,164.854 169.421,165.854 166.5,165.5C 167.5,163.5 168.5,161.5 169.5,159.5C 170.305,157.085 171.305,154.751 172.5,152.5C 173.441,150.95 174.107,149.284 174.5,147.5C 175.5,146.167 176.5,144.833 177.5,143.5C 179.117,144.038 180.784,144.371 182.5,144.5C 186.624,146.898 190.958,148.731 195.5,150C 192.665,145.999 189.332,142.499 185.5,139.5C 185.369,138.624 185.702,137.957 186.5,137.5C 190.49,141.659 194.324,145.993 198,150.5C 198.667,151.5 198.667,152.5 198,153.5C 194.023,161.287 190.189,169.121 186.5,177C 181.603,176.201 176.936,174.701 172.5,172.5 Z"/></g>
<g><path style="opacity:1" fill="#f49326" d="M 126.5,146.5 C 131.328,148.748 136.328,149.082 141.5,147.5C 139.264,154.342 138.931,161.342 140.5,168.5C 142.5,168.167 144.5,167.833 146.5,167.5C 146.5,167.833 146.5,168.167 146.5,168.5C 139.641,170.787 132.641,172.453 125.5,173.5C 122.537,165.591 119.204,157.925 115.5,150.5C 115.511,148.983 116.177,147.816 117.5,147C 120.482,146.502 123.482,146.335 126.5,146.5 Z"/></g>
<g><path style="opacity:1" fill="#f8e9e1" d="M 174.5,147.5 C 174.107,149.284 173.441,150.95 172.5,152.5C 167.473,152.497 162.473,152.164 157.5,151.5C 157.5,151.167 157.5,150.833 157.5,150.5C 163.546,151.198 169.213,150.198 174.5,147.5 Z"/></g>
<g><path style="opacity:1" fill="#2d1d1f" d="M 115.5,150.5 C 119.204,157.925 122.537,165.591 125.5,173.5C 116.5,173.5 107.5,173.5 98.5,173.5C 98.5,172.5 98.5,171.5 98.5,170.5C 98.5,166.5 98.5,162.5 98.5,158.5C 96.8008,158.66 95.1341,158.494 93.5,158C 94.0944,157.536 94.7611,157.369 95.5,157.5C 96.5,157.5 97.5,157.5 98.5,157.5C 98.2865,155.856 98.6198,154.356 99.5,153C 104.897,152.487 110.23,151.653 115.5,150.5 Z"/></g>
<g><path style="opacity:1" fill="#d17d33" d="M 157.5,151.5 C 162.473,152.164 167.473,152.497 172.5,152.5C 171.305,154.751 170.305,157.085 169.5,159.5C 166.833,159.833 164.167,160.167 161.5,160.5C 160.441,157.382 159.108,154.382 157.5,151.5 Z"/></g>
<g><path style="opacity:1" fill="#c73b56" d="M 71.5,155.5 C 67.6654,158.505 66.3321,162.338 67.5,167C 65.4215,168.27 65.0882,169.77 66.5,171.5C 65.891,174.966 64.0577,175.966 61,174.5C 60.6199,167.413 62.4533,160.913 66.5,155C 68.3869,154.22 70.0536,154.387 71.5,155.5 Z"/></g>
<g><path style="opacity:1" fill="#d07d34" d="M 89.5,142.5 C 91.7741,147.383 93.7741,152.383 95.5,157.5C 94.7611,157.369 94.0944,157.536 93.5,158C 95.1341,158.494 96.8008,158.66 98.5,158.5C 98.5,162.5 98.5,166.5 98.5,170.5C 89.2523,169.197 80.2523,166.863 71.5,163.5C 69.8339,166.161 68.1673,168.828 66.5,171.5C 65.0882,169.77 65.4215,168.27 67.5,167C 66.3321,162.338 67.6654,158.505 71.5,155.5C 75.8244,155.927 80.1578,156.261 84.5,156.5C 83.9836,153.101 83.1503,149.768 82,146.5C 80.6439,145.62 79.1439,145.286 77.5,145.5C 77.33,144.178 77.6634,143.011 78.5,142C 82.2554,141.245 85.9221,141.411 89.5,142.5 Z"/></g>
<g><path style="opacity:1" fill="#faf0ee" d="M 169.5,159.5 C 168.5,161.5 167.5,163.5 166.5,165.5C 163.287,165.81 160.287,165.477 157.5,164.5C 158.531,163.751 159.698,163.085 161,162.5C 161.464,161.906 161.631,161.239 161.5,160.5C 164.167,160.167 166.833,159.833 169.5,159.5 Z"/></g>
<g><path style="opacity:1" fill="#d17d34" d="M 172.5,172.5 C 166.796,172.791 161.129,173.458 155.5,174.5C 154.5,174.333 153.5,174.167 152.5,174C 150.63,171.96 148.63,170.127 146.5,168.5C 146.5,168.167 146.5,167.833 146.5,167.5C 149.926,165.726 153.593,164.726 157.5,164.5C 160.287,165.477 163.287,165.81 166.5,165.5C 169.421,165.854 171.754,164.854 173.5,162.5C 174.967,163.695 176.467,163.695 178,162.5C 178.95,163.022 179.784,163.689 180.5,164.5C 181.053,169.926 178.386,172.593 172.5,172.5 Z"/></g>
</svg>
