<?xml version="1.0" encoding="UTF-8"?>
<!DOCTYPE svg PUBLIC "-//W3C//DTD SVG 1.1//EN" "http://www.w3.org/Graphics/SVG/1.1/DTD/svg11.dtd">
<svg xmlns="http://www.w3.org/2000/svg" version="1.1" width="456px" height="340px" style="shape-rendering:geometricPrecision; text-rendering:geometricPrecision; image-rendering:optimizeQuality; fill-rule:evenodd; clip-rule:evenodd" xmlns:xlink="http://www.w3.org/1999/xlink">
<g><path style="opacity:1" fill="#fefefe" d="M -0.5,-0.5 C 151.5,-0.5 303.5,-0.5 455.5,-0.5C 455.5,112.833 455.5,226.167 455.5,339.5C 303.5,339.5 151.5,339.5 -0.5,339.5C -0.5,226.167 -0.5,112.833 -0.5,-0.5 Z"/></g>
<g><path style="opacity:1" fill="#fefbf3" d="M 112.5,13.5 C 119.289,13.4552 124.955,15.9552 129.5,21C 132.167,21.6667 134.833,21.6667 137.5,21C 142.76,16.1842 148.76,14.8508 155.5,17C 159.832,20.4714 161.332,24.9714 160,30.5C 159.514,35.3225 157.681,39.4891 154.5,43C 157.204,46.7929 159.371,50.6262 161,54.5C 164.404,63.1084 162.238,69.6084 154.5,74C 152.567,74.2511 150.734,74.7511 149,75.5C 148.61,78.8392 148.776,82.1725 149.5,85.5C 150.019,91.9703 147.353,96.4703 141.5,99C 136.35,99.8183 131.35,99.3183 126.5,97.5C 107.014,103.012 99.6808,96.0123 104.5,76.5C 103.613,70.6844 100.78,66.3511 96,63.5C 95.6667,63.8333 95.3333,64.1667 95,64.5C 88.5555,55.8395 86.8889,46.1729 90,35.5C 92.1443,30.843 95.6443,27.6764 100.5,26C 100.167,25.6667 99.8333,25.3333 99.5,25C 100.416,24.6258 101.25,24.1258 102,23.5C 103.506,18.0091 107.006,14.6757 112.5,13.5 Z"/></g>
<g><path style="opacity:1" fill="#fefbf1" d="M 355.5,70.5 C 355.414,69.5041 355.748,68.6708 356.5,68C 358.5,67.3333 360.5,67.3333 362.5,68C 367.167,71.1771 371.167,75.0104 374.5,79.5C 382.498,79.8338 390.498,80.1671 398.5,80.5C 404.898,80.102 408.232,76.7686 408.5,70.5C 408.312,67.0184 407.645,63.6851 406.5,60.5C 410.135,46.4738 405.135,41.1405 391.5,44.5C 388.375,45.4794 385.042,45.8128 381.5,45.5C 381.337,43.1432 381.503,40.8098 382,38.5C 386.836,33.7232 386.669,29.2232 381.5,25C 378.167,24.3333 374.833,24.3333 371.5,25C 368.941,26.7774 366.274,28.2774 363.5,29.5C 361.801,29.6602 360.134,29.4935 358.5,29C 354.833,26.6667 351.167,24.3333 347.5,22C 342.848,20.8069 338.681,21.6403 335,24.5C 334.015,26.3659 333.515,28.3659 333.5,30.5C 334.765,34.0496 335.765,37.7163 336.5,41.5C 339.792,42.3037 341.458,44.4704 341.5,48C 340.114,51.4394 338.447,54.7728 336.5,58C 335.839,60.464 335.339,62.964 335,65.5C 334.184,64.1772 333.017,63.5106 331.5,63.5C 330.833,63.5 330.5,63.1667 330.5,62.5C 330.859,58.8061 332.693,55.4728 336,52.5C 337.475,47.5239 336.142,43.1905 332,39.5C 327.965,31.9094 329.132,25.2427 335.5,19.5C 337.813,18.7267 340.146,18.0601 342.5,17.5C 344.776,18.2132 347.109,18.7132 349.5,19C 352.856,21.7387 356.522,23.9053 360.5,25.5C 365.585,22.4345 370.918,19.7679 376.5,17.5C 384.463,17.5939 389.463,21.7606 391.5,30C 390.983,32.077 390.316,34.077 389.5,36C 390.406,37.6995 390.739,39.5328 390.5,41.5C 406.519,37.8569 412.519,44.1903 408.5,60.5C 413.945,77.5421 408.112,84.2088 391,80.5C 385.655,82.3193 380.155,82.8193 374.5,82C 370.826,78.6584 367.492,74.9917 364.5,71C 361.604,69.3024 358.604,69.1357 355.5,70.5 Z"/></g>
<g><path style="opacity:1" fill="#fef0cc" d="M 391.5,44.5 C 396.485,43.7708 400.985,44.7708 405,47.5C 405.263,55.5201 405.763,63.5201 406.5,71.5C 406.566,74.5353 405.233,76.7019 402.5,78C 398.638,78.6454 394.804,78.4787 391,77.5C 386.911,78.9011 382.744,79.4011 378.5,79C 376.907,78.0513 375.574,76.8846 374.5,75.5C 383.457,76.1303 392.457,75.9636 401.5,75C 402,74.5 402.5,74 403,73.5C 403.326,65.0608 402.659,56.7274 401,48.5C 394.216,48.5185 387.383,48.1852 380.5,47.5C 380.38,45.8014 380.046,44.1347 379.5,42.5C 380.658,39.0252 381.658,35.5252 382.5,32C 381.938,26.4471 378.938,24.4471 373.5,26C 370.451,28.7112 367.118,31.0446 363.5,33C 359.643,33.7585 355.977,33.2585 352.5,31.5C 351.833,30.5 351.167,29.5 350.5,28.5C 353.744,29.4156 356.911,30.4156 360,31.5C 361.681,31.3917 362.848,30.7251 363.5,29.5C 366.274,28.2774 368.941,26.7774 371.5,25C 374.833,24.3333 378.167,24.3333 381.5,25C 386.669,29.2232 386.836,33.7232 382,38.5C 381.503,40.8098 381.337,43.1432 381.5,45.5C 385.042,45.8128 388.375,45.4794 391.5,44.5 Z"/></g>
<g><path style="opacity:1" fill="#fef5dd" d="M 108.5,18.5 C 112.846,18.3343 117.179,18.501 121.5,19C 123.473,20.973 125.473,22.973 127.5,25C 128.5,25.1667 129.5,25.3333 130.5,25.5C 135.538,24.6646 139.872,22.4979 143.5,19C 156.13,16.0811 160.797,20.9145 157.5,33.5C 156.675,34.3857 155.675,34.719 154.5,34.5C 154.059,38.0363 153.059,41.3697 151.5,44.5C 153.407,48.9228 155.573,53.2561 158,57.5C 159.494,62.5256 158.327,66.6923 154.5,70C 151.058,70.1165 148.058,71.2832 145.5,73.5C 145.587,79.872 145.087,86.2053 144,92.5C 141.579,94.4964 138.746,95.4964 135.5,95.5C 127.177,94.7488 118.844,94.5822 110.5,95C 107.572,93.1488 105.906,90.4821 105.5,87C 108.64,78.6881 107.806,70.8547 103,63.5C 101.075,61.7868 98.9082,60.4535 96.5,59.5C 93.5139,55.7728 92.1805,51.4395 92.5,46.5C 92.6667,43.5 92.8333,40.5 93,37.5C 97.3482,32.9847 101.848,28.6513 106.5,24.5C 107.372,22.5504 108.039,20.5504 108.5,18.5 Z"/></g>
<g><path style="opacity:1" fill="#fecf5b" d="M 116.5,29.5 C 118.861,31.1939 120.861,33.1939 122.5,35.5C 127.988,42.6213 127.321,49.288 120.5,55.5C 118.203,57.2941 116.037,59.2941 114,61.5C 112.567,56.4018 109.4,52.9018 104.5,51C 105.381,50.2917 106.047,49.4584 106.5,48.5C 108.226,48.8146 109.893,48.9813 111.5,49C 110.594,47.3005 110.261,45.4672 110.5,43.5C 109.167,43.5 107.833,43.5 106.5,43.5C 105.261,42.788 104.761,41.788 105,40.5C 106.552,39.0339 108.386,38.0339 110.5,37.5C 111.93,34.3501 113.93,31.6835 116.5,29.5 Z"/></g>
<g><path style="opacity:1" fill="#fed570" d="M 148.5,29.5 C 148.345,33.1493 146.678,35.816 143.5,37.5C 142.506,42.456 142.173,47.456 142.5,52.5C 139.701,50.411 138.034,47.5777 137.5,44C 138.853,40.1266 140.853,36.6266 143.5,33.5C 145.167,32.1667 146.833,30.8333 148.5,29.5 Z"/></g>
<g><path style="opacity:1" fill="#fefcf6" d="M 143.5,32.5 C 143.5,32.8333 143.5,33.1667 143.5,33.5C 140.853,36.6266 138.853,40.1266 137.5,44C 138.034,47.5777 139.701,50.411 142.5,52.5C 142.5,53.1667 142.5,53.8333 142.5,54.5C 139.375,52.1887 135.875,50.522 132,49.5C 128.127,50.8532 124.627,52.8532 121.5,55.5C 121.167,55.5 120.833,55.5 120.5,55.5C 127.321,49.288 127.988,42.6213 122.5,35.5C 122.5,34.8333 122.833,34.5 123.5,34.5C 130.666,40.1471 137.333,39.4804 143.5,32.5 Z"/></g>
<g><path style="opacity:1" fill="#fed776" d="M 146.5,28.5 C 145.5,29.8333 144.5,31.1667 143.5,32.5C 137.333,39.4804 130.666,40.1471 123.5,34.5C 122.375,32.8712 121.041,31.3712 119.5,30C 124.023,30.8764 128.69,31.7097 133.5,32.5C 138.14,32.0048 142.474,30.6714 146.5,28.5 Z"/></g>
<g><path style="opacity:1" fill="#fee5a7" d="M 137.5,27.5 C 140.863,26.1489 144.196,24.8156 147.5,23.5C 148.5,23.8333 149.5,24.1667 150.5,24.5C 149.479,26.188 148.145,27.5213 146.5,28.5C 142.474,30.6714 138.14,32.0048 133.5,32.5C 128.69,31.7097 124.023,30.8764 119.5,30C 121.041,31.3712 122.375,32.8712 123.5,34.5C 122.833,34.5 122.5,34.8333 122.5,35.5C 120.861,33.1939 118.861,31.1939 116.5,29.5C 115.998,27.9153 114.998,27.4153 113.5,28C 112.544,30.8771 111.211,33.5438 109.5,36C 106.793,36.3951 104.127,36.8951 101.5,37.5C 103.116,36.0108 105.116,35.0108 107.5,34.5C 109.287,32.1416 110.287,29.475 110.5,26.5C 111.258,23.1032 113.425,21.7699 117,22.5C 119.042,22.6155 121.042,22.9488 123,23.5C 126.803,28.3585 131.637,29.6919 137.5,27.5 Z"/></g>
<g><path style="opacity:1" fill="#feb704" d="M 194.5,51.5 C 195.922,61.1642 200.589,68.9976 208.5,75C 246.726,102.057 288.726,110.724 334.5,101C 338.241,99.2621 341.408,96.7621 344,93.5C 343.989,95.8846 343.489,98.218 342.5,100.5C 342.5,101.5 342.5,102.5 342.5,103.5C 341.261,108.455 338.594,112.622 334.5,116C 329.163,118.002 324.163,120.502 319.5,123.5C 317.19,122.836 314.69,122.503 312,122.5C 308.895,122.611 306.062,123.278 303.5,124.5C 295.443,123.811 287.277,122.811 279,121.5C 277.624,121.684 276.791,122.351 276.5,123.5C 275.596,122.791 275.263,121.791 275.5,120.5C 270.07,120.464 264.737,119.797 259.5,118.5C 258.07,117.463 256.403,116.796 254.5,116.5C 253.833,116.5 253.167,116.5 252.5,116.5C 250.067,115.587 247.567,114.587 245,113.5C 244.617,114.056 244.117,114.389 243.5,114.5C 233.956,109.728 224.29,104.895 214.5,100C 206.785,95.2911 199.951,89.4577 194,82.5C 191.506,78.6813 190.006,74.5146 189.5,70C 190.863,63.6499 192.53,57.4832 194.5,51.5 Z"/></g>
<g><path style="opacity:1" fill="#feda81" d="M 116.5,29.5 C 113.93,31.6835 111.93,34.3501 110.5,37.5C 108.386,38.0339 106.552,39.0339 105,40.5C 104.761,41.788 105.261,42.788 106.5,43.5C 105.167,45.1667 105.167,46.8333 106.5,48.5C 106.047,49.4584 105.381,50.2917 104.5,51C 109.4,52.9018 112.567,56.4018 114,61.5C 116.037,59.2941 118.203,57.2941 120.5,55.5C 120.833,55.5 121.167,55.5 121.5,55.5C 119.189,58.147 116.856,60.8136 114.5,63.5C 116.882,66.5483 119.548,69.2149 122.5,71.5C 122.293,73.6036 122.126,75.937 122,78.5C 120.454,79.5029 120.287,80.5029 121.5,81.5C 121.389,82.1174 121.056,82.6174 120.5,83C 124.152,83.4986 127.818,83.6653 131.5,83.5C 132.167,83.5 132.833,83.5 133.5,83.5C 133.414,84.4959 133.748,85.3292 134.5,86C 128.833,86.6667 123.167,86.6667 117.5,86C 117.957,85.586 118.291,85.086 118.5,84.5C 116.803,80.0637 115.969,75.3971 116,70.5C 113.704,67.95 112.37,64.95 112,61.5C 110.878,59.3762 109.378,57.5429 107.5,56C 99.2207,52.0673 97.2207,45.9006 101.5,37.5C 104.127,36.8951 106.793,36.3951 109.5,36C 111.211,33.5438 112.544,30.8771 113.5,28C 114.998,27.4153 115.998,27.9153 116.5,29.5 Z"/></g>
<g><path style="opacity:1" fill="#feeab7" d="M 350.5,28.5 C 351.167,29.5 351.833,30.5 352.5,31.5C 355.977,33.2585 359.643,33.7585 363.5,33C 367.118,31.0446 370.451,28.7112 373.5,26C 378.938,24.4471 381.938,26.4471 382.5,32C 381.658,35.5252 380.658,39.0252 379.5,42.5C 380.046,44.1347 380.38,45.8014 380.5,47.5C 387.383,48.1852 394.216,48.5185 401,48.5C 402.659,56.7274 403.326,65.0608 403,73.5C 402.5,74 402,74.5 401.5,75C 392.457,75.9636 383.457,76.1303 374.5,75.5C 371.44,71.7896 368.107,68.2896 364.5,65C 362.5,64.3333 360.5,64.3333 358.5,65C 354.921,66.2622 351.588,67.9289 348.5,70C 339.513,72.676 336.013,69.5093 338,60.5C 342.956,55.8769 344.956,50.2102 344,43.5C 338.924,39.6877 336.924,34.6877 338,28.5C 339.64,26.0766 341.973,25.0766 345,25.5C 347.574,25.4439 349.407,26.4439 350.5,28.5 Z"/></g>
<g><path style="opacity:1" fill="#fed87a" d="M 347.5,35.5 C 350.921,39.0805 353.255,43.2472 354.5,48C 354.03,52.1048 352.364,55.6048 349.5,58.5C 347.871,59.6253 346.371,60.9586 345,62.5C 344.833,61.8333 344.667,61.1667 344.5,60.5C 349.978,51.4442 349.644,42.6109 343.5,34C 345.066,33.7003 346.399,34.2003 347.5,35.5 Z"/></g>
<g><path style="opacity:1" fill="#fece58" d="M 369.5,40.5 C 370.675,40.281 371.675,40.6143 372.5,41.5C 370.963,45.0633 371.296,48.3966 373.5,51.5C 376.532,52.8332 379.532,54.1665 382.5,55.5C 386.559,58.6459 387.225,62.3125 384.5,66.5C 383.167,67.5 381.833,68.5 380.5,69.5C 380.082,68.7784 379.416,68.2784 378.5,68C 379.451,67.2825 379.617,66.4491 379,65.5C 376.914,63.5626 374.748,61.896 372.5,60.5C 370.522,57.6667 368.689,54.6667 367,51.5C 365.946,47.3445 366.78,43.6779 369.5,40.5 Z"/></g>
<g><path style="opacity:1" fill="#fedc8a" d="M 396.5,52.5 C 391.489,52.3341 386.489,52.5007 381.5,53C 382.381,53.7083 383.047,54.5416 383.5,55.5C 383.167,55.5 382.833,55.5 382.5,55.5C 379.532,54.1665 376.532,52.8332 373.5,51.5C 371.296,48.3966 370.963,45.0633 372.5,41.5C 371.675,40.6143 370.675,40.281 369.5,40.5C 371.5,38.1667 373.5,35.8333 375.5,33.5C 376.458,33.0472 377.292,32.3805 378,31.5C 378.164,34.5225 377.164,37.1891 375,39.5C 373.582,44.3903 375.082,47.8903 379.5,50C 385.833,50.3333 392.167,50.6667 398.5,51C 397.956,51.7172 397.289,52.2172 396.5,52.5 Z"/></g>
<g><path style="opacity:1" fill="#fefbf1" d="M 374.5,33.5 C 374.833,33.5 375.167,33.5 375.5,33.5C 373.5,35.8333 371.5,38.1667 369.5,40.5C 366.78,43.6779 365.946,47.3445 367,51.5C 368.689,54.6667 370.522,57.6667 372.5,60.5C 365.121,52.9511 357.454,52.6177 349.5,59.5C 349.5,59.1667 349.5,58.8333 349.5,58.5C 352.364,55.6048 354.03,52.1048 354.5,48C 353.255,43.2472 350.921,39.0805 347.5,35.5C 347.833,35.5 348.167,35.5 348.5,35.5C 351.574,39.3719 355.574,41.7053 360.5,42.5C 363.028,42.2372 365.361,41.4039 367.5,40C 369.703,37.6278 372.037,35.4611 374.5,33.5 Z"/></g>
<g><path style="opacity:1" fill="#fed673" d="M 374.5,33.5 C 372.037,35.4611 369.703,37.6278 367.5,40C 365.361,41.4039 363.028,42.2372 360.5,42.5C 355.574,41.7053 351.574,39.3719 348.5,35.5C 348.167,34.8333 347.833,34.1667 347.5,33.5C 351.625,35.0262 355.959,36.0262 360.5,36.5C 364.8,35.6006 368.967,34.2672 373,32.5C 373.765,32.5699 374.265,32.9033 374.5,33.5 Z"/></g>
<g><path style="opacity:1" fill="#fee29b" d="M 352.5,31.5 C 352.47,32.4972 352.97,33.1639 354,33.5C 355.958,34.0512 357.958,34.3845 360,34.5C 364.736,34.1412 369.07,32.8079 373,30.5C 374.167,30.6667 375.333,30.8333 376.5,31C 375.748,31.6708 375.414,32.5041 375.5,33.5C 375.167,33.5 374.833,33.5 374.5,33.5C 374.265,32.9033 373.765,32.5699 373,32.5C 368.967,34.2672 364.8,35.6006 360.5,36.5C 355.959,36.0262 351.625,35.0262 347.5,33.5C 344.915,32.5346 344.415,31.2012 346,29.5C 347.879,31.0128 350.046,31.6795 352.5,31.5 Z"/></g>
<g><path style="opacity:1" fill="#fef5de" d="M 363.5,29.5 C 362.848,30.7251 361.681,31.3917 360,31.5C 356.911,30.4156 353.744,29.4156 350.5,28.5C 349.407,26.4439 347.574,25.4439 345,25.5C 341.973,25.0766 339.64,26.0766 338,28.5C 336.924,34.6877 338.924,39.6877 344,43.5C 344.956,50.2102 342.956,55.8769 338,60.5C 336.013,69.5093 339.513,72.676 348.5,70C 351.588,67.9289 354.921,66.2622 358.5,65C 360.5,64.3333 362.5,64.3333 364.5,65C 368.107,68.2896 371.44,71.7896 374.5,75.5C 375.574,76.8846 376.907,78.0513 378.5,79C 382.744,79.4011 386.911,78.9011 391,77.5C 394.804,78.4787 398.638,78.6454 402.5,78C 405.233,76.7019 406.566,74.5353 406.5,71.5C 405.763,63.5201 405.263,55.5201 405,47.5C 400.985,44.7708 396.485,43.7708 391.5,44.5C 405.135,41.1405 410.135,46.4738 406.5,60.5C 407.645,63.6851 408.312,67.0184 408.5,70.5C 408.232,76.7686 404.898,80.102 398.5,80.5C 390.498,80.1671 382.498,79.8338 374.5,79.5C 371.167,75.0104 367.167,71.1771 362.5,68C 360.5,67.3333 358.5,67.3333 356.5,68C 355.748,68.6708 355.414,69.5041 355.5,70.5C 351.289,72.6296 346.956,74.2963 342.5,75.5C 338.862,71.5259 335.195,67.5259 331.5,63.5C 333.017,63.5106 334.184,64.1772 335,65.5C 335.339,62.964 335.839,60.464 336.5,58C 338.447,54.7728 340.114,51.4394 341.5,48C 341.458,44.4704 339.792,42.3037 336.5,41.5C 335.765,37.7163 334.765,34.0496 333.5,30.5C 333.515,28.3659 334.015,26.3659 335,24.5C 338.681,21.6403 342.848,20.8069 347.5,22C 351.167,24.3333 354.833,26.6667 358.5,29C 360.134,29.4935 361.801,29.6602 363.5,29.5 Z"/></g>
<g><path style="opacity:1" fill="#fee19a" d="M 380.5,69.5 C 381.833,68.5 383.167,67.5 384.5,66.5C 384.833,66.5 385.167,66.5 385.5,66.5C 384.5,67.8333 383.5,69.1667 382.5,70.5C 379.999,72.0373 380.499,72.7039 384,72.5C 388.803,71.7148 393.637,71.3815 398.5,71.5C 399.043,71.56 399.376,71.8933 399.5,72.5C 391.509,73.9767 383.509,74.3101 375.5,73.5C 371.583,63.8769 364.583,60.0436 354.5,62C 351.891,62.9431 349.891,64.6097 348.5,67C 341.614,68.2991 340.947,67.1324 346.5,63.5C 358.796,56.2529 368.796,58.5863 376.5,70.5C 378.297,71.9321 379.63,71.5988 380.5,69.5 Z"/></g>
<g><path style="opacity:1" fill="#fedb83" d="M 398.5,71.5 C 393.637,71.3815 388.803,71.7148 384,72.5C 380.499,72.7039 379.999,72.0373 382.5,70.5C 385.456,69.8629 388.456,69.3629 391.5,69C 392.756,68.5831 393.423,67.7498 393.5,66.5C 394.167,66.5 394.5,66.1667 394.5,65.5C 396.402,62.6627 397.069,59.3293 396.5,55.5C 397.458,54.0384 398.624,52.7051 400,51.5C 400.667,57.8333 400.667,64.1667 400,70.5C 397.821,69.1602 397.321,69.4935 398.5,71.5 Z"/></g>
<g><path style="opacity:1" fill="#fece58" d="M 393.5,66.5 C 393.423,67.7498 392.756,68.5831 391.5,69C 388.456,69.3629 385.456,69.8629 382.5,70.5C 383.5,69.1667 384.5,67.8333 385.5,66.5C 388.167,65.1667 390.833,65.1667 393.5,66.5 Z"/></g>
<g><path style="opacity:1" fill="#fecf5a" d="M 395.5,55.5 C 395.833,55.5 396.167,55.5 396.5,55.5C 397.069,59.3293 396.402,62.6627 394.5,65.5C 391.869,61.9775 392.202,58.6442 395.5,55.5 Z"/></g>
<g><path style="opacity:1" fill="#fefaf0" d="M 382.5,55.5 C 382.833,55.5 383.167,55.5 383.5,55.5C 387.084,59.3673 390.751,59.3673 394.5,55.5C 394.833,55.5 395.167,55.5 395.5,55.5C 392.202,58.6442 391.869,61.9775 394.5,65.5C 394.5,66.1667 394.167,66.5 393.5,66.5C 390.833,65.1667 388.167,65.1667 385.5,66.5C 385.167,66.5 384.833,66.5 384.5,66.5C 387.225,62.3125 386.559,58.6459 382.5,55.5 Z"/></g>
<g><path style="opacity:1" fill="#fed673" d="M 372.5,60.5 C 374.748,61.896 376.914,63.5626 379,65.5C 379.617,66.4491 379.451,67.2825 378.5,68C 379.416,68.2784 380.082,68.7784 380.5,69.5C 379.63,71.5988 378.297,71.9321 376.5,70.5C 368.796,58.5863 358.796,56.2529 346.5,63.5C 347.5,62.1667 348.5,60.8333 349.5,59.5C 357.454,52.6177 365.121,52.9511 372.5,60.5 Z"/></g>
<g><path style="opacity:1" fill="#fed265" d="M 396.5,52.5 C 395.833,53.5 395.167,54.5 394.5,55.5C 390.751,59.3673 387.084,59.3673 383.5,55.5C 383.047,54.5416 382.381,53.7083 381.5,53C 386.489,52.5007 391.489,52.3341 396.5,52.5 Z"/></g>
<g><path style="opacity:1" fill="#fee097" d="M 148.5,64.5 C 144.046,64.0603 140.713,65.727 138.5,69.5C 138.064,75.3524 137.064,81.0191 135.5,86.5C 135.709,87.086 136.043,87.586 136.5,88C 129.167,87.3333 121.833,87.3333 114.5,88C 114.833,87.6667 115.167,87.3333 115.5,87C 114.094,79.6098 112.594,72.1098 111,64.5C 110.017,62.5516 108.85,60.7183 107.5,59C 104.246,57.9731 101.246,56.4731 98.5,54.5C 97.3384,49.8687 97.1717,45.202 98,40.5C 98.4224,38.5743 99.5891,37.5743 101.5,37.5C 97.2207,45.9006 99.2207,52.0673 107.5,56C 109.378,57.5429 110.878,59.3762 112,61.5C 112.37,64.95 113.704,67.95 116,70.5C 115.969,75.3971 116.803,80.0637 118.5,84.5C 118.291,85.086 117.957,85.586 117.5,86C 123.167,86.6667 128.833,86.6667 134.5,86C 133.748,85.3292 133.414,84.4959 133.5,83.5C 134.809,81.4294 135.475,78.9294 135.5,76C 135.333,73.5 135.167,71 135,68.5C 133.961,69.7101 132.794,70.7101 131.5,71.5C 131.5,71.1667 131.5,70.8333 131.5,70.5C 131.631,69.6236 131.298,68.9569 130.5,68.5C 127.257,67.9852 124.424,66.6519 122,64.5C 121.437,58.5572 124.27,55.5572 130.5,55.5C 135.137,56.8108 139.47,58.8108 143.5,61.5C 144.672,61.0814 145.672,60.4147 146.5,59.5C 145.143,57.8144 143.81,56.1477 142.5,54.5C 142.5,53.8333 142.5,53.1667 142.5,52.5C 142.173,47.456 142.506,42.456 143.5,37.5C 146.678,35.816 148.345,33.1493 148.5,29.5C 148.783,28.7109 149.283,28.0442 150,27.5C 150.667,29.5 150.667,31.5 150,33.5C 146.332,37.8342 144.999,42.8342 146,48.5C 148.821,51.976 150.987,55.8093 152.5,60C 151.722,62.0991 150.389,63.5991 148.5,64.5 Z"/></g>
<g><path style="opacity:1" fill="#fed368" d="M 142.5,54.5 C 143.81,56.1477 145.143,57.8144 146.5,59.5C 145.672,60.4147 144.672,61.0814 143.5,61.5C 139.47,58.8108 135.137,56.8108 130.5,55.5C 124.27,55.5572 121.437,58.5572 122,64.5C 124.424,66.6519 127.257,67.9852 130.5,68.5C 131.298,68.9569 131.631,69.6236 131.5,70.5C 128.687,72.5292 125.687,72.8626 122.5,71.5C 119.548,69.2149 116.882,66.5483 114.5,63.5C 116.856,60.8136 119.189,58.147 121.5,55.5C 124.627,52.8532 128.127,50.8532 132,49.5C 135.875,50.522 139.375,52.1887 142.5,54.5 Z"/></g>
<g><path style="opacity:1" fill="#fef6e0" d="M 106.5,43.5 C 107.833,43.5 109.167,43.5 110.5,43.5C 110.261,45.4672 110.594,47.3005 111.5,49C 109.893,48.9813 108.226,48.8146 106.5,48.5C 105.167,46.8333 105.167,45.1667 106.5,43.5 Z"/></g>
<g><path style="opacity:1" fill="#fee9b4" d="M 110.5,26.5 C 110.287,29.475 109.287,32.1416 107.5,34.5C 105.116,35.0108 103.116,36.0108 101.5,37.5C 99.5891,37.5743 98.4224,38.5743 98,40.5C 97.1717,45.202 97.3384,49.8687 98.5,54.5C 101.246,56.4731 104.246,57.9731 107.5,59C 108.85,60.7183 110.017,62.5516 111,64.5C 112.594,72.1098 114.094,79.6098 115.5,87C 115.167,87.3333 114.833,87.6667 114.5,88C 121.833,87.3333 129.167,87.3333 136.5,88C 136.043,87.586 135.709,87.086 135.5,86.5C 137.064,81.0191 138.064,75.3524 138.5,69.5C 140.713,65.727 144.046,64.0603 148.5,64.5C 146.7,66.0504 144.533,67.0504 142,67.5C 140.266,70.2978 139.099,73.2978 138.5,76.5C 140.169,80.3521 140.669,84.3521 140,88.5C 138.426,89.8476 136.593,90.5142 134.5,90.5C 127.52,89.7788 120.52,89.2788 113.5,89C 112.69,83.2488 112.19,77.4155 112,71.5C 111.617,70.944 111.117,70.6107 110.5,70.5C 108.937,67.3583 107.437,64.025 106,60.5C 103,58.8333 100,57.1667 97,55.5C 94.7858,48.6399 95.2858,41.9732 98.5,35.5C 101.287,33.7725 104.287,32.6058 107.5,32C 107.989,29.7908 108.989,27.9575 110.5,26.5 Z"/></g>
<g><path style="opacity:1" fill="#fed672" d="M 133.5,83.5 C 129.324,79.9684 128.657,75.9684 131.5,71.5C 132.794,70.7101 133.961,69.7101 135,68.5C 135.167,71 135.333,73.5 135.5,76C 135.475,78.9294 134.809,81.4294 133.5,83.5 Z"/></g>
<g><path style="opacity:1" fill="#feedc3" d="M 110.5,70.5 C 111.117,70.6107 111.617,70.944 112,71.5C 112.19,77.4155 112.69,83.2488 113.5,89C 120.52,89.2788 127.52,89.7788 134.5,90.5C 136.593,90.5142 138.426,89.8476 140,88.5C 140.669,84.3521 140.169,80.3521 138.5,76.5C 139.099,73.2978 140.266,70.2978 142,67.5C 144.533,67.0504 146.7,66.0504 148.5,64.5C 150.389,63.5991 151.722,62.0991 152.5,60C 150.987,55.8093 148.821,51.976 146,48.5C 144.999,42.8342 146.332,37.8342 150,33.5C 150.667,31.5 150.667,29.5 150,27.5C 149.283,28.0442 148.783,28.7109 148.5,29.5C 146.833,30.8333 145.167,32.1667 143.5,33.5C 143.5,33.1667 143.5,32.8333 143.5,32.5C 144.5,31.1667 145.5,29.8333 146.5,28.5C 148.145,27.5213 149.479,26.188 150.5,24.5C 149.5,24.1667 148.5,23.8333 147.5,23.5C 144.196,24.8156 140.863,26.1489 137.5,27.5C 138.896,25.2911 140.896,23.7911 143.5,23C 147.737,22.1963 151.737,22.6963 155.5,24.5C 156.22,29.3089 154.887,33.3089 151.5,36.5C 150.5,39.1667 149.5,41.8333 148.5,44.5C 150.04,48.2135 152.207,51.5468 155,54.5C 157.87,62.9502 155.036,67.7835 146.5,69C 144.91,70.0458 143.41,71.2125 142,72.5C 142.101,78.2054 141.935,83.8721 141.5,89.5C 139.38,90.8909 137.047,91.5576 134.5,91.5C 127.501,90.5354 120.501,90.3687 113.5,91C 111.406,89.745 110.406,87.9116 110.5,85.5C 111.83,80.4866 111.83,75.4866 110.5,70.5 Z"/></g>
<g><path style="opacity:1" fill="#fece59" d="M 131.5,83.5 C 127.818,83.6653 124.152,83.4986 120.5,83C 121.056,82.6174 121.389,82.1174 121.5,81.5C 125.454,78.6525 128.788,79.3192 131.5,83.5 Z"/></g>
<g><path style="opacity:1" fill="#fefbf4" d="M 131.5,70.5 C 131.5,70.8333 131.5,71.1667 131.5,71.5C 128.657,75.9684 129.324,79.9684 133.5,83.5C 132.833,83.5 132.167,83.5 131.5,83.5C 128.788,79.3192 125.454,78.6525 121.5,81.5C 120.287,80.5029 120.454,79.5029 122,78.5C 122.126,75.937 122.293,73.6036 122.5,71.5C 125.687,72.8626 128.687,72.5292 131.5,70.5 Z"/></g>
<g><path style="opacity:1" fill="#fee613" d="M 330.5,62.5 C 330.5,63.1667 330.833,63.5 331.5,63.5C 335.195,67.5259 338.862,71.5259 342.5,75.5C 345.006,80.4654 346.172,85.7987 346,91.5C 351.252,92.7091 356.086,94.8758 360.5,98C 362.232,99.9719 363.565,102.139 364.5,104.5C 365.225,110.275 364.059,115.608 361,120.5C 348.396,135.068 332.896,145.568 314.5,152C 299.271,157.724 283.605,161.724 267.5,164C 255.451,164.891 243.451,164.557 231.5,163C 228.716,162.108 226.05,160.942 223.5,159.5C 222.158,152.141 219.825,145.141 216.5,138.5C 223.613,128.387 232.613,120.387 243.5,114.5C 244.117,114.389 244.617,114.056 245,113.5C 247.567,114.587 250.067,115.587 252.5,116.5C 244.615,120.883 237.782,126.55 232,133.5C 225.42,144.021 227.92,151.521 239.5,156C 272.373,160.785 303.04,154.452 331.5,137C 338.653,132.18 344.819,126.347 350,119.5C 354.187,110.539 351.687,104.205 342.5,100.5C 343.489,98.218 343.989,95.8846 344,93.5C 341.408,96.7621 338.241,99.2621 334.5,101C 288.726,110.724 246.726,102.057 208.5,75C 200.589,68.9976 195.922,61.1642 194.5,51.5C 196.213,43.9511 200.88,39.1178 208.5,37C 237.432,31.266 265.766,33.5994 293.5,44C 306.723,48.6116 319.057,54.7783 330.5,62.5 Z"/></g>
<g><path style="opacity:1" fill="#fffdec" d="M 232.5,39.5 C 264.078,38.8638 293.078,47.0305 319.5,64C 324.833,68.3217 328.999,73.4883 332,79.5C 333.484,88.0408 329.984,93.5408 321.5,96C 285.022,102.799 251.355,95.7992 220.5,75C 217.333,71.8333 214.167,68.6667 211,65.5C 205.597,58.0996 206.43,51.5996 213.5,46C 219.708,43.0431 226.042,40.8764 232.5,39.5 Z"/></g>
<g><path style="opacity:1" fill="#fde50e" d="M 233.5,41.5 C 257.635,40.9666 280.635,45.8 302.5,56C 309.888,60.056 316.722,64.8894 323,70.5C 331.506,80.3042 330.006,88.1375 318.5,94C 282.061,101.112 249.061,93.4457 219.5,71C 213.78,66.0648 211.614,59.8981 213,52.5C 213.785,50.714 214.951,49.214 216.5,48C 221.895,44.7751 227.561,42.6084 233.5,41.5 Z"/></g>
<g><path style="opacity:1" fill="#eb8400" d="M 247.5,45.5 C 267.424,47.2652 286.424,52.4319 304.5,61C 310.989,64.135 312.823,68.9684 310,75.5C 308.2,77.317 306.034,78.4837 303.5,79C 296.833,79.6667 290.167,79.6667 283.5,79C 275.178,77.002 266.844,75.1687 258.5,73.5C 259.582,82.9212 255.582,86.4212 246.5,84C 242.921,83.3858 240.254,81.5525 238.5,78.5C 241.348,67.4377 244.348,56.4377 247.5,45.5 Z"/></g>
<g><path style="opacity:1" fill="#fde300" d="M 263.5,54.5 C 272.177,55.3356 280.51,57.5022 288.5,61C 292.491,62.6206 294.324,65.4539 294,69.5C 291.347,71.9407 288.18,72.9407 284.5,72.5C 277.414,71.479 270.414,69.979 263.5,68C 262.376,67.1612 261.709,65.9945 261.5,64.5C 262.17,61.1539 262.837,57.8206 263.5,54.5 Z"/></g>
<g><path style="opacity:1" fill="#fee610" d="M 206.5,126.5 C 214.114,139.112 216.614,152.779 214,167.5C 203.608,208.893 177.441,233.393 135.5,241C 118.177,243.607 102.844,239.44 89.5,228.5C 75.9668,215.069 70.4668,198.736 73,179.5C 80.4706,145.022 100.637,121.188 133.5,108C 156.323,99.7992 177.656,102.466 197.5,116C 201.085,119.078 204.085,122.578 206.5,126.5 Z"/></g>
<g><path style="opacity:1" fill="#fde509" d="M 342.5,103.5 C 347.189,106.988 348.689,111.655 347,117.5C 342.192,126.308 335.358,133.142 326.5,138C 309.692,147.535 291.692,153.368 272.5,155.5C 276.001,154.063 279.501,152.396 283,150.5C 282.84,146.163 282.34,141.83 281.5,137.5C 295.011,134.998 307.678,130.331 319.5,123.5C 324.163,120.502 329.163,118.002 334.5,116C 338.594,112.622 341.261,108.455 342.5,103.5 Z"/></g>
<g><path style="opacity:1" fill="#feb704" d="M 364.5,104.5 C 368.056,112.398 369.89,120.731 370,129.5C 368.538,134.297 366.204,138.631 363,142.5C 357.935,147.074 352.769,151.407 347.5,155.5C 344.304,156.929 341.304,158.595 338.5,160.5C 337.833,160.5 337.5,160.833 337.5,161.5C 335.181,161.992 333.181,162.992 331.5,164.5C 328.111,165.631 324.778,166.964 321.5,168.5C 320.702,168.957 320.369,169.624 320.5,170.5C 319.883,170.389 319.383,170.056 319,169.5C 312.445,171.96 305.945,174.294 299.5,176.5C 288.696,179.356 277.696,181.023 266.5,181.5C 266.737,182.791 266.404,183.791 265.5,184.5C 259.926,182.547 253.926,181.88 247.5,182.5C 245.958,181.699 244.292,181.366 242.5,181.5C 234.847,180.424 228.347,177.09 223,171.5C 226.237,179.419 231.737,185.586 239.5,190C 274.261,208.204 310.928,213.537 349.5,206C 361.309,204.119 370.309,198.286 376.5,188.5C 375.497,195.187 374.33,201.854 373,208.5C 369.951,213.216 365.951,216.882 361,219.5C 361.405,223.121 361.405,226.787 361,230.5C 359.408,234.021 357.575,237.354 355.5,240.5C 354.833,240.5 354.5,240.833 354.5,241.5C 353.197,243.142 351.864,244.809 350.5,246.5C 347.545,248.122 344.878,250.122 342.5,252.5C 341.833,252.5 341.5,252.833 341.5,253.5C 339.77,254.026 338.436,255.026 337.5,256.5C 309.55,272.698 279.384,281.364 247,282.5C 236.508,283.17 226.674,281.003 217.5,276C 214.894,274.062 213.061,271.562 212,268.5C 210.791,263.707 209.291,259.04 207.5,254.5C 214.203,260.582 222.203,264.082 231.5,265C 267.437,266.349 300.77,257.683 331.5,239C 337.792,234.377 343.792,229.377 349.5,224C 344.648,224.218 339.981,225.051 335.5,226.5C 334.167,226.5 332.833,226.5 331.5,226.5C 322.195,227.354 312.861,227.687 303.5,227.5C 298.974,225.857 294.307,225.523 289.5,226.5C 281.636,224.578 273.803,222.244 266,219.5C 265.601,219.728 265.435,220.062 265.5,220.5C 261.491,218.589 257.491,217.589 253.5,217.5C 252.965,215.554 251.632,214.554 249.5,214.5C 248.833,214.5 248.167,214.5 247.5,214.5C 245.664,212.412 243.331,211.079 240.5,210.5C 234.612,206.793 229.112,202.459 224,197.5C 222.217,194.657 220.717,191.657 219.5,188.5C 201.626,231.772 169.293,252.272 122.5,250C 108.667,246.969 97.6672,239.802 89.5,228.5C 102.844,239.44 118.177,243.607 135.5,241C 177.441,233.393 203.608,208.893 214,167.5C 216.614,152.779 214.114,139.112 206.5,126.5C 210.31,130.131 213.643,134.131 216.5,138.5C 219.825,145.141 222.158,152.141 223.5,159.5C 226.05,160.942 228.716,162.108 231.5,163C 243.451,164.557 255.451,164.891 267.5,164C 283.605,161.724 299.271,157.724 314.5,152C 332.896,145.568 348.396,135.068 361,120.5C 364.059,115.608 365.225,110.275 364.5,104.5 Z"/></g>
<g><path style="opacity:1" fill="#fefdf2" d="M 149.5,115.5 C 188.296,115.143 205.463,134.143 201,172.5C 191.783,203.05 171.616,221.883 140.5,229C 120.509,232.453 104.343,226.287 92,210.5C 82.5792,190.673 83.5792,171.34 95,152.5C 107.937,132.386 126.103,120.053 149.5,115.5 Z"/></g>
<g><path style="opacity:1" fill="#fde508" d="M 147.5,119.5 C 172.969,116.297 189.803,126.631 198,150.5C 199.663,183.511 185.496,207.011 155.5,221C 143.863,225.276 131.863,226.61 119.5,225C 96.8907,217.304 86.724,201.471 89,177.5C 94.2502,153.246 108.084,135.746 130.5,125C 136.127,122.623 141.793,120.79 147.5,119.5 Z"/></g>
<g><path style="opacity:1" fill="#eb8300" d="M 159.5,125.5 C 162.32,125.248 164.986,125.748 167.5,127C 176.232,134.055 183.065,142.555 188,152.5C 189.95,168.766 183.784,180.933 169.5,189C 160.138,195.216 150.471,195.882 140.5,191C 134.991,186.657 129.991,181.824 125.5,176.5C 117.981,182.429 110.648,188.596 103.5,195C 99.1019,196.378 95.6019,195.212 93,191.5C 92.2937,189.029 92.627,186.695 94,184.5C 115.73,164.598 137.563,144.931 159.5,125.5 Z"/></g>
<g><path style="opacity:1" fill="#fde400" d="M 161.5,143.5 C 175,151.006 177,160.84 167.5,173C 154.476,183.11 144.142,180.777 136.5,166C 144.73,158.264 153.063,150.764 161.5,143.5 Z"/></g>
<g><path style="opacity:1" fill="#fffcea" d="M 342.5,100.5 C 351.687,104.205 354.187,110.539 350,119.5C 344.819,126.347 338.653,132.18 331.5,137C 303.04,154.452 272.373,160.785 239.5,156C 227.92,151.521 225.42,144.021 232,133.5C 237.782,126.55 244.615,120.883 252.5,116.5C 253.167,116.5 253.833,116.5 254.5,116.5C 247.641,120.847 241.474,126.18 236,132.5C 229.645,143.962 232.812,151.462 245.5,155C 253.612,156.71 261.612,156.877 269.5,155.5C 270.5,155.5 271.5,155.5 272.5,155.5C 291.692,153.368 309.692,147.535 326.5,138C 335.358,133.142 342.192,126.308 347,117.5C 348.689,111.655 347.189,106.988 342.5,103.5C 342.5,102.5 342.5,101.5 342.5,100.5 Z"/></g>
<g><path style="opacity:1" fill="#fde400" d="M 303.5,124.5 C 295.728,127.757 287.728,130.424 279.5,132.5C 278.296,129.556 277.296,126.556 276.5,123.5C 276.791,122.351 277.624,121.684 279,121.5C 287.277,122.811 295.443,123.811 303.5,124.5 Z"/></g>
<g><path style="opacity:1" fill="#eb8400" d="M 259.5,118.5 C 264.737,119.797 270.07,120.464 275.5,120.5C 275.263,121.791 275.596,122.791 276.5,123.5C 277.296,126.556 278.296,129.556 279.5,132.5C 287.728,130.424 295.728,127.757 303.5,124.5C 306.062,123.278 308.895,122.611 312,122.5C 314.69,122.503 317.19,122.836 319.5,123.5C 307.678,130.331 295.011,134.998 281.5,137.5C 282.34,141.83 282.84,146.163 283,150.5C 279.501,152.396 276.001,154.063 272.5,155.5C 271.5,155.5 270.5,155.5 269.5,155.5C 267.248,155.084 265.748,153.751 265,151.5C 262.933,142.3 260.266,133.3 257,124.5C 256.034,121.66 256.867,119.66 259.5,118.5 Z"/></g>
<g><path style="opacity:1" fill="#fde509" d="M 254.5,116.5 C 256.403,116.796 258.07,117.463 259.5,118.5C 256.867,119.66 256.034,121.66 257,124.5C 260.266,133.3 262.933,142.3 265,151.5C 265.748,153.751 267.248,155.084 269.5,155.5C 261.612,156.877 253.612,156.71 245.5,155C 232.812,151.462 229.645,143.962 236,132.5C 241.474,126.18 247.641,120.847 254.5,116.5 Z"/></g>
<g><path style="opacity:1" fill="#fee511" d="M 347.5,155.5 C 356.293,159.623 364.293,164.957 371.5,171.5C 373.181,174.203 374.847,176.869 376.5,179.5C 376.5,182.5 376.5,185.5 376.5,188.5C 370.309,198.286 361.309,204.119 349.5,206C 310.928,213.537 274.261,208.204 239.5,190C 231.737,185.586 226.237,179.419 223,171.5C 228.347,177.09 234.847,180.424 242.5,181.5C 255.537,192.137 270.537,198.637 287.5,201C 306.232,204.497 324.899,204.164 343.5,200C 351.065,198.306 357.232,194.473 362,188.5C 364.19,183.972 363.856,179.639 361,175.5C 355.031,168.106 347.531,163.106 338.5,160.5C 341.304,158.595 344.304,156.929 347.5,155.5 Z"/></g>
<g><path style="opacity:1" fill="#fde50b" d="M 337.5,161.5 C 345.087,164.553 351.587,169.22 357,175.5C 360.476,186.376 356.642,193.542 345.5,197C 317.322,204.262 289.655,202.596 262.5,192C 256.791,189.76 251.791,186.593 247.5,182.5C 253.926,181.88 259.926,182.547 265.5,184.5C 265.104,187.044 265.771,189.211 267.5,191C 273.016,193.75 278.516,193.917 284,191.5C 284.42,187.809 284.92,184.142 285.5,180.5C 300.343,184.43 315.343,185.264 330.5,183C 338.261,180.594 340.428,175.761 337,168.5C 334.985,167.303 333.151,165.97 331.5,164.5C 333.181,162.992 335.181,161.992 337.5,161.5 Z"/></g>
<g><path style="opacity:1" fill="#eb8500" d="M 331.5,164.5 C 333.151,165.97 334.985,167.303 337,168.5C 340.428,175.761 338.261,180.594 330.5,183C 315.343,185.264 300.343,184.43 285.5,180.5C 284.92,184.142 284.42,187.809 284,191.5C 278.516,193.917 273.016,193.75 267.5,191C 265.771,189.211 265.104,187.044 265.5,184.5C 266.404,183.791 266.737,182.791 266.5,181.5C 277.696,181.023 288.696,179.356 299.5,176.5C 304.65,177.651 309.984,177.817 315.5,177C 319.283,176.391 320.95,174.224 320.5,170.5C 320.369,169.624 320.702,168.957 321.5,168.5C 324.778,166.964 328.111,165.631 331.5,164.5 Z"/></g>
<g><path style="opacity:1" fill="#fde100" d="M 320.5,170.5 C 320.95,174.224 319.283,176.391 315.5,177C 309.984,177.817 304.65,177.651 299.5,176.5C 305.945,174.294 312.445,171.96 319,169.5C 319.383,170.056 319.883,170.389 320.5,170.5 Z"/></g>
<g><path style="opacity:1" fill="#fefbf2" d="M 376.5,179.5 C 374.847,176.869 373.181,174.203 371.5,171.5C 371.36,169.876 372.027,168.71 373.5,168C 372.978,167.439 372.645,166.772 372.5,166C 373.127,163.865 373.627,161.698 374,159.5C 377.304,157.272 379.804,154.272 381.5,150.5C 379.851,146.536 377.684,142.869 375,139.5C 373.424,136.074 373.258,132.74 374.5,129.5C 374.389,128.883 374.056,128.383 373.5,128C 377.146,121.876 382.48,119.876 389.5,122C 394.354,125.883 399.687,126.883 405.5,125C 410.579,119.227 417.246,117.561 425.5,120C 427.286,120.785 428.786,121.951 430,123.5C 430.979,127.673 431.812,131.839 432.5,136C 429.71,139.746 427.043,143.579 424.5,147.5C 425.597,151.935 427.931,155.602 431.5,158.5C 432.974,164.156 432.641,169.656 430.5,175C 428.404,176.766 426.071,178.099 423.5,179C 416.194,179.728 409.694,177.228 404,171.5C 399.357,173.13 395.19,175.63 391.5,179C 388.11,179.246 384.777,179.746 381.5,180.5C 380.522,180.023 379.689,179.357 379,178.5C 378.333,181.167 377.667,181.167 377,178.5C 376.601,178.728 376.435,179.062 376.5,179.5 Z"/></g>
<g><path style="opacity:1" fill="#fef4da" d="M 374.5,129.5 C 377.13,127.372 379.63,125.039 382,122.5C 384.74,123.282 387.574,123.782 390.5,124C 393.859,127.03 397.692,129.196 402,130.5C 405.675,129.172 408.842,127.006 411.5,124C 418.439,120.817 423.939,122.317 428,128.5C 429.137,134.422 427.471,139.422 423,143.5C 422.296,145.278 421.796,147.112 421.5,149C 423.253,153.048 425.42,156.882 428,160.5C 431.268,168.292 428.935,173.292 421,175.5C 418.453,175.238 415.953,174.738 413.5,174C 411.963,172.89 411.297,171.39 411.5,169.5C 407.869,168.588 404.203,168.421 400.5,169C 396.551,172.8 391.884,174.967 386.5,175.5C 383.139,175.888 380.306,174.888 378,172.5C 376.85,164.037 378.683,156.371 383.5,149.5C 382.888,145.927 381.055,143.26 378,141.5C 375.715,137.813 374.548,133.813 374.5,129.5 Z"/></g>
<g><path style="opacity:1" fill="#feebba" d="M 383.5,141.5 C 387.295,144.95 388.461,149.284 387,154.5C 385.92,156.996 384.586,159.33 383,161.5C 382.192,163.579 382.359,165.579 383.5,167.5C 384.086,167.291 384.586,166.957 385,166.5C 386.067,168.283 387.567,168.783 389.5,168C 392.239,166.974 394.572,165.474 396.5,163.5C 401.498,160.867 406.498,161.2 411.5,164.5C 412.386,165.325 412.719,166.325 412.5,167.5C 414.857,167.663 417.19,167.497 419.5,167C 417.627,165.296 415.96,163.463 414.5,161.5C 414.5,161.167 414.5,160.833 414.5,160.5C 416.167,161.833 417.833,163.167 419.5,164.5C 420.002,166.085 421.002,166.585 422.5,166C 421.287,163.313 420.62,160.48 420.5,157.5C 424.163,160.164 425.33,163.831 424,168.5C 421.79,171.29 418.956,172.123 415.5,171C 411.484,168.164 407.151,165.997 402.5,164.5C 399.066,165.448 395.733,166.615 392.5,168C 389.072,172.068 385.072,172.568 380.5,169.5C 379.334,165.473 379.501,161.473 381,157.5C 384.844,152.732 385.677,147.398 383.5,141.5 Z"/></g>
<g><path style="opacity:1" fill="#fee4a3" d="M 420.5,157.5 C 420.62,160.48 421.287,163.313 422.5,166C 421.002,166.585 420.002,166.085 419.5,164.5C 417.343,159.027 415.343,153.527 413.5,148C 414.036,144.093 415.536,140.593 418,137.5C 418.976,133.748 418.31,133.082 416,135.5C 415.326,134.422 414.326,133.755 413,133.5C 410.483,134.507 407.983,135.674 405.5,137C 399.42,138.347 393.92,137.18 389,133.5C 388.5,133.667 388,133.833 387.5,134C 388.71,135.039 389.71,136.206 390.5,137.5C 390.167,137.5 389.833,137.5 389.5,137.5C 388.518,136.859 387.518,136.193 386.5,135.5C 386.167,136.167 385.833,136.833 385.5,137.5C 387.162,140.015 388.662,142.682 390,145.5C 390.167,146.833 390.333,148.167 390.5,149.5C 389.539,154.271 387.872,158.771 385.5,163C 385.667,163.833 385.833,164.667 386,165.5C 387.704,163.627 389.537,161.96 391.5,160.5C 391.833,160.5 392.167,160.5 392.5,160.5C 391.04,162.463 389.373,164.296 387.5,166C 390.606,165.794 393.606,164.961 396.5,163.5C 394.572,165.474 392.239,166.974 389.5,168C 387.567,168.783 386.067,168.283 385,166.5C 384.586,166.957 384.086,167.291 383.5,167.5C 382.359,165.579 382.192,163.579 383,161.5C 384.586,159.33 385.92,156.996 387,154.5C 388.461,149.284 387.295,144.95 383.5,141.5C 381.398,137.846 381.065,134.013 382.5,130C 384.833,129.333 387.167,129.333 389.5,130C 393.285,131.976 397.118,133.81 401,135.5C 407.05,133.879 412.883,131.879 418.5,129.5C 418.351,130.552 418.517,131.552 419,132.5C 419.333,132.167 419.667,131.833 420,131.5C 421.281,135.628 420.281,138.961 417,141.5C 414.774,146.686 415.107,151.686 418,156.5C 418.671,157.252 419.504,157.586 420.5,157.5 Z"/></g>
<g><path style="opacity:1" fill="#fed97d" d="M 414.5,161.5 C 415.96,163.463 417.627,165.296 419.5,167C 417.19,167.497 414.857,167.663 412.5,167.5C 412.719,166.325 412.386,165.325 411.5,164.5C 406.498,161.2 401.498,160.867 396.5,163.5C 393.606,164.961 390.606,165.794 387.5,166C 389.373,164.296 391.04,162.463 392.5,160.5C 400.051,153.688 407.385,154.021 414.5,161.5 Z"/></g>
<g><path style="opacity:1" fill="#fed87b" d="M 389.5,137.5 C 392.726,140.784 395.059,144.618 396.5,149C 395.756,153.313 394.089,157.146 391.5,160.5C 389.537,161.96 387.704,163.627 386,165.5C 385.833,164.667 385.667,163.833 385.5,163C 387.872,158.771 389.539,154.271 390.5,149.5C 390.333,148.167 390.167,146.833 390,145.5C 388.662,142.682 387.162,140.015 385.5,137.5C 385.833,136.833 386.167,136.167 386.5,135.5C 387.518,136.193 388.518,136.859 389.5,137.5 Z"/></g>
<g><path style="opacity:1" fill="#fed777" d="M 419.5,164.5 C 417.833,163.167 416.167,161.833 414.5,160.5C 411.274,157.216 408.941,153.382 407.5,149C 408.753,144.668 410.586,140.834 413,137.5C 405.468,145.453 397.968,145.453 390.5,137.5C 389.71,136.206 388.71,135.039 387.5,134C 388,133.833 388.5,133.667 389,133.5C 393.92,137.18 399.42,138.347 405.5,137C 407.983,135.674 410.483,134.507 413,133.5C 414.326,133.755 415.326,134.422 416,135.5C 418.31,133.082 418.976,133.748 418,137.5C 415.536,140.593 414.036,144.093 413.5,148C 415.343,153.527 417.343,159.027 419.5,164.5 Z"/></g>
<g><path style="opacity:1" fill="#fefbf2" d="M 389.5,137.5 C 389.833,137.5 390.167,137.5 390.5,137.5C 397.968,145.453 405.468,145.453 413,137.5C 410.586,140.834 408.753,144.668 407.5,149C 408.941,153.382 411.274,157.216 414.5,160.5C 414.5,160.833 414.5,161.167 414.5,161.5C 407.385,154.021 400.051,153.688 392.5,160.5C 392.167,160.5 391.833,160.5 391.5,160.5C 394.089,157.146 395.756,153.313 396.5,149C 395.059,144.618 392.726,140.784 389.5,137.5 Z"/></g>
<g><path style="opacity:1" fill="#feeab9" d="M 420.5,157.5 C 419.504,157.586 418.671,157.252 418,156.5C 415.107,151.686 414.774,146.686 417,141.5C 420.281,138.961 421.281,135.628 420,131.5C 419.667,131.833 419.333,132.167 419,132.5C 418.517,131.552 418.351,130.552 418.5,129.5C 412.883,131.879 407.05,133.879 401,135.5C 397.118,133.81 393.285,131.976 389.5,130C 387.167,129.333 384.833,129.333 382.5,130C 381.065,134.013 381.398,137.846 383.5,141.5C 381.005,139.219 379.339,136.385 378.5,133C 378.432,130.966 379.266,129.466 381,128.5C 387.451,126.72 392.951,128.22 397.5,133C 400.5,133.667 403.5,133.667 406.5,133C 410.43,129.021 415.096,127.021 420.5,127C 423.265,129.553 424.098,132.719 423,136.5C 418.118,143.035 417.285,150.035 420.5,157.5 Z"/></g>
<g><path style="opacity:1" fill="#fffcea" d="M 337.5,161.5 C 337.5,160.833 337.833,160.5 338.5,160.5C 347.531,163.106 355.031,168.106 361,175.5C 363.856,179.639 364.19,183.972 362,188.5C 357.232,194.473 351.065,198.306 343.5,200C 324.899,204.164 306.232,204.497 287.5,201C 270.537,198.637 255.537,192.137 242.5,181.5C 244.292,181.366 245.958,181.699 247.5,182.5C 251.791,186.593 256.791,189.76 262.5,192C 289.655,202.596 317.322,204.262 345.5,197C 356.642,193.542 360.476,186.376 357,175.5C 351.587,169.22 345.087,164.553 337.5,161.5 Z"/></g>
<g><path style="opacity:1" fill="#fef9eb" d="M 55.5,150.5 C 62.5597,149.56 67.2264,152.393 69.5,159C 67.0013,164.31 66.3346,169.81 67.5,175.5C 71.4864,178.587 72.4864,182.587 70.5,187.5C 68.0649,192.097 64.2316,194.43 59,194.5C 55.7877,193.123 52.4544,192.123 49,191.5C 44.7718,192.701 40.6051,194.034 36.5,195.5C 29.9351,194.435 26.2685,190.602 25.5,184C 26.3055,179.923 27.3055,175.923 28.5,172C 20.2036,156.668 24.5369,150.001 41.5,152C 46.5521,154.209 51.2188,153.709 55.5,150.5 Z"/></g>
<g><path style="opacity:1" fill="#fef2d3" d="M 32.5,153.5 C 35.5184,153.335 38.5184,153.502 41.5,154C 43.1459,155.656 45.1459,156.489 47.5,156.5C 51.7091,155.031 56.0424,154.031 60.5,153.5C 64.858,154.031 66.858,156.531 66.5,161C 66.2117,164.431 65.2117,167.598 63.5,170.5C 65.0107,174.535 66.0107,178.701 66.5,183C 66.9185,185.981 65.9185,188.314 63.5,190C 58.2505,190.532 53.0838,190.032 48,188.5C 31.8621,194.696 26.3621,189.529 31.5,173C 30.3523,169.205 29.3523,165.371 28.5,161.5C 28.6667,160.167 28.8333,158.833 29,157.5C 30.3756,156.295 31.5423,154.962 32.5,153.5 Z"/></g>
<g><path style="opacity:1" fill="#fee9b3" d="M 34.5,155.5 C 43.4593,157.376 52.4593,158.043 61.5,157.5C 63.7821,161.03 64.1154,165.03 62.5,169.5C 62.6055,173.756 63.2722,177.922 64.5,182C 64.4276,186.667 62.0943,188.834 57.5,188.5C 54.4277,188.584 51.5943,187.917 49,186.5C 33.4255,193.439 28.2588,188.939 33.5,173C 31.8881,168.273 31.3881,163.439 32,158.5C 32.6979,157.309 33.5313,156.309 34.5,155.5 Z"/></g>
<g><path style="opacity:1" fill="#fed674" d="M 55.5,179.5 C 55.9528,180.458 56.6195,181.292 57.5,182C 51.5,182.667 45.5,182.667 39.5,182C 41.0414,180.629 42.3747,179.129 43.5,177.5C 48.0345,174.63 52.0345,175.297 55.5,179.5 Z"/></g>
<g><path style="opacity:1" fill="#fed87b" d="M 41.5,166.5 C 43.7926,169.906 44.1259,173.573 42.5,177.5C 40.2034,179.294 38.0367,181.294 36,183.5C 36.065,176.517 36.3983,169.517 37,162.5C 38.3712,164.041 39.8712,165.375 41.5,166.5 Z"/></g>
<g><path style="opacity:1" fill="#fed061" d="M 56.5,164.5 C 56.5,169.167 56.5,173.833 56.5,178.5C 50.8465,174.895 50.1798,170.562 54.5,165.5C 55.1667,165.167 55.8333,164.833 56.5,164.5 Z"/></g>
<g><path style="opacity:1" fill="#fedc89" d="M 56.5,179.5 C 56.5,179.167 56.5,178.833 56.5,178.5C 56.5,173.833 56.5,169.167 56.5,164.5C 57.1217,163.373 57.955,162.373 59,161.5C 59.3109,167.186 59.8109,172.853 60.5,178.5C 60.1667,179.5 59.8333,180.5 59.5,181.5C 58.4822,180.807 57.4822,180.141 56.5,179.5 Z"/></g>
<g><path style="opacity:1" fill="#fffaef" d="M 54.5,164.5 C 54.5,164.833 54.5,165.167 54.5,165.5C 50.1798,170.562 50.8465,174.895 56.5,178.5C 56.5,178.833 56.5,179.167 56.5,179.5C 56.1667,179.5 55.8333,179.5 55.5,179.5C 52.0345,175.297 48.0345,174.63 43.5,177.5C 43.1667,177.5 42.8333,177.5 42.5,177.5C 44.1259,173.573 43.7926,169.906 41.5,166.5C 41.5,166.167 41.5,165.833 41.5,165.5C 46.0884,168.346 50.4217,168.012 54.5,164.5 Z"/></g>
<g><path style="opacity:1" fill="#fed56f" d="M 54.5,164.5 C 50.4217,168.012 46.0884,168.346 41.5,165.5C 40.7101,164.206 39.7101,163.039 38.5,162C 44.5,161.333 50.5,161.333 56.5,162C 55.6195,162.708 54.9528,163.542 54.5,164.5 Z"/></g>
<g><path style="opacity:1" fill="#fee517" d="M 240.5,210.5 C 243.331,211.079 245.664,212.412 247.5,214.5C 235.814,219.596 226.647,227.596 220,238.5C 217.546,247.427 220.712,253.26 229.5,256C 261.385,260.868 291.385,255.201 319.5,239C 325.446,235.538 330.78,231.371 335.5,226.5C 339.981,225.051 344.648,224.218 349.5,224C 343.792,229.377 337.792,234.377 331.5,239C 300.77,257.683 267.437,266.349 231.5,265C 222.203,264.082 214.203,260.582 207.5,254.5C 204.333,246.837 205.499,239.837 211,233.5C 219.588,224.06 229.422,216.393 240.5,210.5 Z"/></g>
<g><path style="opacity:1" fill="#eb8400" d="M 265.5,220.5 C 267.004,224.348 268.004,228.348 268.5,232.5C 275.725,231.256 282.725,229.256 289.5,226.5C 294.307,225.523 298.974,225.857 303.5,227.5C 293.159,231.836 282.492,235.169 271.5,237.5C 272.498,241.807 272.998,246.14 273,250.5C 269.133,253.262 264.8,254.929 260,255.5C 258.289,255.561 256.956,254.894 256,253.5C 253.149,243.084 249.982,232.75 246.5,222.5C 248.043,219.61 250.376,217.943 253.5,217.5C 257.491,217.589 261.491,218.589 265.5,220.5 Z"/></g>
<g><path style="opacity:1" fill="#fde300" d="M 289.5,226.5 C 282.725,229.256 275.725,231.256 268.5,232.5C 268.004,228.348 267.004,224.348 265.5,220.5C 265.435,220.062 265.601,219.728 266,219.5C 273.803,222.244 281.636,224.578 289.5,226.5 Z"/></g>
<g><path style="opacity:1" fill="#fde50d" d="M 249.5,214.5 C 251.632,214.554 252.965,215.554 253.5,217.5C 250.376,217.943 248.043,219.61 246.5,222.5C 249.982,232.75 253.149,243.084 256,253.5C 256.956,254.894 258.289,255.561 260,255.5C 264.8,254.929 269.133,253.262 273,250.5C 272.998,246.14 272.498,241.807 271.5,237.5C 282.492,235.169 293.159,231.836 303.5,227.5C 312.861,227.687 322.195,227.354 331.5,226.5C 318.645,238.267 303.645,246.434 286.5,251C 271.857,255.854 256.857,257.52 241.5,256C 234.228,255.284 228.395,252.117 224,246.5C 222.889,241.389 223.889,236.722 227,232.5C 233.822,225.496 241.322,219.496 249.5,214.5 Z"/></g>
<g><path style="opacity:1" fill="#fefdf1" d="M 247.5,214.5 C 248.167,214.5 248.833,214.5 249.5,214.5C 241.322,219.496 233.822,225.496 227,232.5C 223.889,236.722 222.889,241.389 224,246.5C 228.395,252.117 234.228,255.284 241.5,256C 256.857,257.52 271.857,255.854 286.5,251C 303.645,246.434 318.645,238.267 331.5,226.5C 332.833,226.5 334.167,226.5 335.5,226.5C 330.78,231.371 325.446,235.538 319.5,239C 291.385,255.201 261.385,260.868 229.5,256C 220.712,253.26 217.546,247.427 220,238.5C 226.647,227.596 235.814,219.596 247.5,214.5 Z"/></g>
<g><path style="opacity:1" fill="#fee29b" d="M 397.5,240.5 C 399.924,240.192 402.257,240.526 404.5,241.5C 404.167,242.167 403.833,242.833 403.5,243.5C 405.412,250.287 406.078,257.287 405.5,264.5C 399.323,266.064 392.99,266.897 386.5,267C 382.647,267.847 380.647,270.18 380.5,274C 382.131,277.29 382.631,280.79 382,284.5C 380.955,283.627 380.122,282.627 379.5,281.5C 376.016,274.351 377.016,268.017 382.5,262.5C 384.167,261.167 385.833,259.833 387.5,258.5C 387.5,258.833 387.5,259.167 387.5,259.5C 386.375,261.129 385.041,262.629 383.5,264C 388.943,263.922 394.276,263.422 399.5,262.5C 400.338,262.158 400.672,261.492 400.5,260.5C 400.234,256.429 400.567,252.429 401.5,248.5C 401.03,247.537 400.363,247.537 399.5,248.5C 399.5,248.167 399.5,247.833 399.5,247.5C 400.29,246.206 401.29,245.039 402.5,244C 396.153,243.357 389.82,243.024 383.5,243C 384.863,245.129 384.529,245.629 382.5,244.5C 378.773,246.272 376.773,249.272 376.5,253.5C 369.766,256.238 362.766,257.071 355.5,256C 352.018,254.08 351.685,254.58 354.5,257.5C 354.167,257.5 353.833,257.5 353.5,257.5C 352.206,256.71 351.039,255.71 350,254.5C 349.833,255 349.667,255.5 349.5,256C 351.247,259.654 352.247,263.487 352.5,267.5C 351.747,272.337 350.414,277.004 348.5,281.5C 347.613,283.735 346.613,284.235 345.5,283C 345.889,278.669 347.389,274.836 350,271.5C 350.667,268.167 350.667,264.833 350,261.5C 346.942,258.944 344.442,255.944 342.5,252.5C 344.878,250.122 347.545,248.122 350.5,246.5C 353.773,247.47 356.773,248.97 359.5,251C 364.694,252.242 369.36,251.242 373.5,248C 375.037,245.254 377.037,242.921 379.5,241C 385.582,241.051 391.582,240.885 397.5,240.5 Z"/></g>
<g><path style="opacity:1" fill="#fed570" d="M 399.5,247.5 C 397.678,249.16 395.511,250.16 393,250.5C 390.718,249.71 388.552,248.71 386.5,247.5C 385.417,247.539 384.417,247.873 383.5,248.5C 381.812,250.854 379.812,252.854 377.5,254.5C 377.5,253.833 377.167,253.5 376.5,253.5C 376.773,249.272 378.773,246.272 382.5,244.5C 384.529,245.629 384.863,245.129 383.5,243C 389.82,243.024 396.153,243.357 402.5,244C 401.29,245.039 400.29,246.206 399.5,247.5 Z"/></g>
<g><path style="opacity:1" fill="#fefaf0" d="M 386.5,247.5 C 388.552,248.71 390.718,249.71 393,250.5C 395.511,250.16 397.678,249.16 399.5,247.5C 399.5,247.833 399.5,248.167 399.5,248.5C 395.368,252.848 395.701,256.848 400.5,260.5C 400.672,261.492 400.338,262.158 399.5,262.5C 396.48,257.412 392.48,256.412 387.5,259.5C 387.5,259.167 387.5,258.833 387.5,258.5C 388.289,257.085 388.956,255.585 389.5,254C 388.609,251.721 387.609,249.554 386.5,247.5 Z"/></g>
<g><path style="opacity:1" fill="#fecf5a" d="M 400.5,260.5 C 395.701,256.848 395.368,252.848 399.5,248.5C 400.363,247.537 401.03,247.537 401.5,248.5C 400.567,252.429 400.234,256.429 400.5,260.5 Z"/></g>
<g><path style="opacity:1" fill="#fef9e9" d="M 139.5,256.5 C 141.527,256.338 143.527,256.505 145.5,257C 150.44,259.386 155.273,261.886 160,264.5C 163.514,263.324 166.681,261.491 169.5,259C 179.296,254.423 185.629,257.257 188.5,267.5C 187.454,272.029 186.287,276.363 185,280.5C 189.357,282.518 193.69,282.185 198,279.5C 203.262,279.797 207.262,282.131 210,286.5C 210.71,291.609 210.21,296.609 208.5,301.5C 214.258,320.242 207.758,326.908 189,321.5C 174.741,327.374 166.741,322.708 165,307.5C 163.53,305.848 161.697,304.848 159.5,304.5C 155.851,306.471 152.184,308.471 148.5,310.5C 136.8,313.629 131.966,309.295 134,297.5C 136.922,293.704 139.089,289.537 140.5,285C 139.324,281.486 137.491,278.319 135,275.5C 131.894,267.862 133.394,261.529 139.5,256.5 Z"/></g>
<g><path style="opacity:1" fill="#fef9ea" d="M 337.5,256.5 C 338.436,255.026 339.77,254.026 341.5,253.5C 342.75,257.631 344.916,261.298 348,264.5C 348.495,266.473 348.662,268.473 348.5,270.5C 345.846,273.788 343.179,277.121 340.5,280.5C 339.167,283.5 339.167,286.5 340.5,289.5C 344.336,291.313 348.336,291.813 352.5,291C 356.06,288.597 359.727,286.43 363.5,284.5C 368.591,285.797 372.925,288.297 376.5,292C 381.117,293.297 384.95,292.13 388,288.5C 388.782,283.701 388.282,279.034 386.5,274.5C 386.653,271.727 388.153,270.393 391,270.5C 396.058,272.173 401.224,272.673 406.5,272C 408,271.167 409.167,270 410,268.5C 409.967,258.843 409.634,249.176 409,239.5C 408.25,238.874 407.416,238.374 406.5,238C 396.844,238.087 387.177,237.754 377.5,237C 374.301,240.566 371.467,244.4 369,248.5C 366.366,250.594 363.533,250.927 360.5,249.5C 358.016,247.041 356.016,244.374 354.5,241.5C 354.5,240.833 354.833,240.5 355.5,240.5C 357.841,240.992 359.841,242.159 361.5,244C 362.833,244.667 364.167,244.667 365.5,244C 368.774,240.05 372.107,236.05 375.5,232C 380.591,229.848 385.591,230.014 390.5,232.5C 396.624,231.751 402.957,231.584 409.5,232C 410.328,232.915 411.328,233.581 412.5,234C 413.285,237.688 414.285,241.355 415.5,245C 414.164,248.684 412.831,252.351 411.5,256C 416.323,264.026 414.989,270.693 407.5,276C 402.074,276.469 396.741,275.969 391.5,274.5C 391.67,275.822 391.337,276.989 390.5,278C 394.781,291.723 389.781,297.39 375.5,295C 371.885,292.371 368.052,290.204 364,288.5C 358.649,291.674 352.982,294.34 347,296.5C 337.438,295.266 333.772,289.932 336,280.5C 338.3,276.037 340.8,271.704 343.5,267.5C 341.765,263.85 339.432,260.684 336.5,258C 337.056,257.617 337.389,257.117 337.5,256.5 Z"/></g>
<g><path style="opacity:1" fill="#fecc50" d="M 386.5,247.5 C 387.609,249.554 388.609,251.721 389.5,254C 388.956,255.585 388.289,257.085 387.5,258.5C 385.833,259.833 384.167,261.167 382.5,262.5C 382.44,261.957 382.107,261.624 381.5,261.5C 379.207,263.23 376.707,264.563 374,265.5C 373.819,268.695 373.319,271.695 372.5,274.5C 369.857,271.66 369.024,268.327 370,264.5C 371.947,260.724 374.447,257.39 377.5,254.5C 379.812,252.854 381.812,250.854 383.5,248.5C 384.417,247.873 385.417,247.539 386.5,247.5 Z"/></g>
<g><path style="opacity:1" fill="#fee8b2" d="M 397.5,240.5 C 400.899,239.18 404.399,239.18 408,240.5C 406.545,248.741 406.212,257.075 407,265.5C 406.228,266.849 405.061,267.682 403.5,268C 399.66,268.406 395.827,268.239 392,267.5C 388.913,267.814 386.08,268.814 383.5,270.5C 384.041,276.311 384.041,282.145 383.5,288C 378.428,289.549 374.428,288.216 371.5,284C 364.204,281.065 357.871,282.398 352.5,288C 349.084,288.893 345.917,288.393 343,286.5C 342.833,285.667 342.667,284.833 342.5,284C 344.133,279.242 346.133,274.742 348.5,270.5C 348.662,268.473 348.495,266.473 348,264.5C 344.916,261.298 342.75,257.631 341.5,253.5C 341.5,252.833 341.833,252.5 342.5,252.5C 344.442,255.944 346.942,258.944 350,261.5C 350.667,264.833 350.667,268.167 350,271.5C 347.389,274.836 345.889,278.669 345.5,283C 346.613,284.235 347.613,283.735 348.5,281.5C 350.167,280.167 351.833,278.833 353.5,277.5C 353.833,277.5 354.167,277.5 354.5,277.5C 353.5,278.833 352.5,280.167 351.5,281.5C 350.038,282.458 348.705,283.624 347.5,285C 348,285.167 348.5,285.333 349,285.5C 358.592,280.242 368.092,280.242 377.5,285.5C 381.041,285.265 381.041,284.265 377.5,282.5C 376.833,281.5 376.167,280.5 375.5,279.5C 375.5,279.167 375.5,278.833 375.5,278.5C 376.833,279.5 378.167,280.5 379.5,281.5C 380.122,282.627 380.955,283.627 382,284.5C 382.631,280.79 382.131,277.29 380.5,274C 380.647,270.18 382.647,267.847 386.5,267C 392.99,266.897 399.323,266.064 405.5,264.5C 406.078,257.287 405.412,250.287 403.5,243.5C 403.833,242.833 404.167,242.167 404.5,241.5C 402.257,240.526 399.924,240.192 397.5,240.5 Z"/></g>
<g><path style="opacity:1" fill="#fed775" d="M 353.5,257.5 C 356.038,260.379 357.705,263.712 358.5,267.5C 357.373,271.086 355.707,274.42 353.5,277.5C 351.833,278.833 350.167,280.167 348.5,281.5C 350.414,277.004 351.747,272.337 352.5,267.5C 352.247,263.487 351.247,259.654 349.5,256C 349.667,255.5 349.833,255 350,254.5C 351.039,255.71 352.206,256.71 353.5,257.5 Z"/></g>
<g><path style="opacity:1" fill="#fed775" d="M 382.5,262.5 C 377.016,268.017 376.016,274.351 379.5,281.5C 378.167,280.5 376.833,279.5 375.5,278.5C 374.5,277.167 373.5,275.833 372.5,274.5C 373.319,271.695 373.819,268.695 374,265.5C 376.707,264.563 379.207,263.23 381.5,261.5C 382.107,261.624 382.44,261.957 382.5,262.5 Z"/></g>
<g><path style="opacity:1" fill="#fed46b" d="M 399.5,262.5 C 394.276,263.422 388.943,263.922 383.5,264C 385.041,262.629 386.375,261.129 387.5,259.5C 392.48,256.412 396.48,257.412 399.5,262.5 Z"/></g>
<g><path style="opacity:1" fill="#fefcf4" d="M 376.5,253.5 C 377.167,253.5 377.5,253.833 377.5,254.5C 374.447,257.39 371.947,260.724 370,264.5C 369.024,268.327 369.857,271.66 372.5,274.5C 373.5,275.833 374.5,277.167 375.5,278.5C 375.5,278.833 375.5,279.167 375.5,279.5C 369.065,272.436 362.065,271.77 354.5,277.5C 354.167,277.5 353.833,277.5 353.5,277.5C 355.707,274.42 357.373,271.086 358.5,267.5C 357.705,263.712 356.038,260.379 353.5,257.5C 353.833,257.5 354.167,257.5 354.5,257.5C 363.14,263.693 370.473,262.36 376.5,253.5 Z"/></g>
<g><path style="opacity:1" fill="#fed46b" d="M 376.5,253.5 C 370.473,262.36 363.14,263.693 354.5,257.5C 351.685,254.58 352.018,254.08 355.5,256C 362.766,257.071 369.766,256.238 376.5,253.5 Z"/></g>
<g><path style="opacity:1" fill="#feeab6" d="M 181.5,283.5 C 181.574,285.411 182.574,286.578 184.5,287C 189.374,287.773 194.041,287.273 198.5,285.5C 200.693,285.326 202.527,285.993 204,287.5C 204.02,296.16 203.687,304.827 203,313.5C 202.626,314.416 202.126,315.25 201.5,316C 195.5,316.333 189.5,316.667 183.5,317C 179.995,318.468 176.661,317.968 173.5,315.5C 171.486,312.489 169.652,309.155 168,305.5C 167.329,304.748 166.496,304.414 165.5,304.5C 164.758,301.862 162.925,300.529 160,300.5C 157.815,300.921 155.649,301.421 153.5,302C 149.181,307.514 144.015,308.681 138,305.5C 137.333,302.5 137.333,299.5 138,296.5C 145.26,290.187 146.426,282.854 141.5,274.5C 137.499,271.546 137.499,268.38 141.5,265C 146.215,263.621 150.215,264.621 153.5,268C 155.366,268.985 157.366,269.485 159.5,269.5C 165.012,267.99 170.346,265.99 175.5,263.5C 179.661,263.431 181.995,265.431 182.5,269.5C 180.539,274.016 179.205,278.683 178.5,283.5C 179.5,283.5 180.5,283.5 181.5,283.5 Z"/></g>
<g><path style="opacity:1" fill="#fedf91" d="M 145.5,272.5 C 149.741,281.134 149.407,289.634 144.5,298C 144.728,298.399 145.062,298.565 145.5,298.5C 144.542,299.962 143.376,301.295 142,302.5C 141.833,301.833 141.667,301.167 141.5,300.5C 143.395,295.224 145.395,290.057 147.5,285C 147.639,280.092 145.639,276.592 141.5,274.5C 140.694,267.588 142.027,266.921 145.5,272.5 Z"/></g>
<g><path style="opacity:1" fill="#fefbf4" d="M 147.5,272.5 C 155.164,281.446 163.164,281.779 171.5,273.5C 171.5,273.833 171.5,274.167 171.5,274.5C 163.323,282.471 163.657,290.137 172.5,297.5C 169.667,295.522 166.667,293.689 163.5,292C 159.019,290.888 155.019,291.721 151.5,294.5C 151.167,294.5 150.833,294.5 150.5,294.5C 152.224,291.546 153.557,288.379 154.5,285C 153.059,280.618 150.726,276.784 147.5,273.5C 147.5,273.167 147.5,272.833 147.5,272.5 Z"/></g>
<g><path style="opacity:1" fill="#fef0cd" d="M 348.5,270.5 C 346.133,274.742 344.133,279.242 342.5,284C 342.667,284.833 342.833,285.667 343,286.5C 345.917,288.393 349.084,288.893 352.5,288C 357.871,282.398 364.204,281.065 371.5,284C 374.428,288.216 378.428,289.549 383.5,288C 384.041,282.145 384.041,276.311 383.5,270.5C 386.08,268.814 388.913,267.814 392,267.5C 395.827,268.239 399.66,268.406 403.5,268C 405.061,267.682 406.228,266.849 407,265.5C 406.212,257.075 406.545,248.741 408,240.5C 404.399,239.18 400.899,239.18 397.5,240.5C 391.582,240.885 385.582,241.051 379.5,241C 377.037,242.921 375.037,245.254 373.5,248C 369.36,251.242 364.694,252.242 359.5,251C 356.773,248.97 353.773,247.47 350.5,246.5C 351.864,244.809 353.197,243.142 354.5,241.5C 356.016,244.374 358.016,247.041 360.5,249.5C 363.533,250.927 366.366,250.594 369,248.5C 371.467,244.4 374.301,240.566 377.5,237C 387.177,237.754 396.844,238.087 406.5,238C 407.416,238.374 408.25,238.874 409,239.5C 409.634,249.176 409.967,258.843 410,268.5C 409.167,270 408,271.167 406.5,272C 401.224,272.673 396.058,272.173 391,270.5C 388.153,270.393 386.653,271.727 386.5,274.5C 388.282,279.034 388.782,283.701 388,288.5C 384.95,292.13 381.117,293.297 376.5,292C 372.925,288.297 368.591,285.797 363.5,284.5C 359.727,286.43 356.06,288.597 352.5,291C 348.336,291.813 344.336,291.313 340.5,289.5C 339.167,286.5 339.167,283.5 340.5,280.5C 343.179,277.121 345.846,273.788 348.5,270.5 Z"/></g>
<g><path style="opacity:1" fill="#fee095" d="M 377.5,282.5 C 381.041,284.265 381.041,285.265 377.5,285.5C 368.092,280.242 358.592,280.242 349,285.5C 348.5,285.333 348,285.167 347.5,285C 348.705,283.624 350.038,282.458 351.5,281.5C 355.391,279.685 359.558,278.685 364,278.5C 368.473,279.711 372.973,281.044 377.5,282.5 Z"/></g>
<g><path style="opacity:1" fill="#fed570" d="M 375.5,279.5 C 376.167,280.5 376.833,281.5 377.5,282.5C 372.973,281.044 368.473,279.711 364,278.5C 359.558,278.685 355.391,279.685 351.5,281.5C 352.5,280.167 353.5,278.833 354.5,277.5C 362.065,271.77 369.065,272.436 375.5,279.5 Z"/></g>
<g><path style="opacity:1" fill="#fed775" d="M 145.5,272.5 C 146.167,272.833 146.833,273.167 147.5,273.5C 150.726,276.784 153.059,280.618 154.5,285C 153.557,288.379 152.224,291.546 150.5,294.5C 148.833,295.833 147.167,297.167 145.5,298.5C 145.062,298.565 144.728,298.399 144.5,298C 149.407,289.634 149.741,281.134 145.5,272.5 Z"/></g>
<g><path style="opacity:1" fill="#fecf5d" d="M 194.5,296.5 C 192.772,297.379 190.939,298.046 189,298.5C 186.378,297.375 183.878,296.041 181.5,294.5C 181.791,293.351 182.624,292.684 184,292.5C 187.865,292.985 191.698,293.652 195.5,294.5C 195.137,295.183 194.804,295.85 194.5,296.5 Z"/></g>
<g><path style="opacity:1" fill="#feca4b" d="M 171.5,274.5 C 171.833,274.5 172.167,274.5 172.5,274.5C 170.833,278.339 170.333,282.339 171,286.5C 174.945,288.616 178.445,291.282 181.5,294.5C 183.231,296.795 184.564,299.295 185.5,302C 185.046,303.939 184.379,305.772 183.5,307.5C 179.812,308.618 177.145,307.284 175.5,303.5C 175.846,302.304 176.346,302.304 177,303.5C 176.573,300.879 175.073,298.879 172.5,297.5C 163.657,290.137 163.323,282.471 171.5,274.5 Z"/></g>
<g><path style="opacity:1" fill="#fffaef" d="M 181.5,294.5 C 183.878,296.041 186.378,297.375 189,298.5C 190.939,298.046 192.772,297.379 194.5,296.5C 194.5,296.833 194.5,297.167 194.5,297.5C 191.869,301.023 192.202,304.356 195.5,307.5C 195.5,307.833 195.5,308.167 195.5,308.5C 193.304,307.237 190.97,306.237 188.5,305.5C 186.823,306.187 185.156,306.854 183.5,307.5C 184.379,305.772 185.046,303.939 185.5,302C 184.564,299.295 183.231,296.795 181.5,294.5 Z"/></g>
<g><path style="opacity:1" fill="#fef1d1" d="M 181.5,283.5 C 180.5,283.5 179.5,283.5 178.5,283.5C 179.205,278.683 180.539,274.016 182.5,269.5C 181.995,265.431 179.661,263.431 175.5,263.5C 170.346,265.99 165.012,267.99 159.5,269.5C 157.366,269.485 155.366,268.985 153.5,268C 150.215,264.621 146.215,263.621 141.5,265C 137.499,268.38 137.499,271.546 141.5,274.5C 146.426,282.854 145.26,290.187 138,296.5C 137.333,299.5 137.333,302.5 138,305.5C 144.015,308.681 149.181,307.514 153.5,302C 155.649,301.421 157.815,300.921 160,300.5C 162.925,300.529 164.758,301.862 165.5,304.5C 162.436,302.657 159.103,302.157 155.5,303C 153.697,303.637 152.364,304.803 151.5,306.5C 147.572,309.202 143.238,310.035 138.5,309C 135.606,306.091 134.773,302.591 136,298.5C 138.415,294.263 140.581,289.93 142.5,285.5C 141.195,281.129 139.028,277.129 136,273.5C 134.178,263.154 138.345,259.154 148.5,261.5C 152.703,265.622 157.703,267.455 163.5,267C 169.116,261.945 175.449,260.278 182.5,262C 183.768,264.141 184.435,266.474 184.5,269C 182.645,273.596 181.645,278.43 181.5,283.5 Z"/></g>
<g><path style="opacity:1" fill="#feda80" d="M 171.5,273.5 C 163.164,281.779 155.164,281.446 147.5,272.5C 146.375,270.871 145.041,269.371 143.5,268C 147.647,267.902 151.313,269.235 154.5,272C 158.5,272.667 162.5,272.667 166.5,272C 169.07,269.541 172.07,268.541 175.5,269C 173.959,270.371 172.625,271.871 171.5,273.5 Z"/></g>
<g><path style="opacity:1" fill="#fef1d0" d="M 181.5,283.5 C 183.91,284.389 186.41,285.055 189,285.5C 194.269,283.505 199.603,283.172 205,284.5C 205.934,287.136 206.768,289.803 207.5,292.5C 205.967,295.35 204.967,298.35 204.5,301.5C 209.853,316.977 204.686,322.643 189,318.5C 184.601,320.034 180.101,320.534 175.5,320C 173.963,318.89 173.297,317.39 173.5,315.5C 176.661,317.968 179.995,318.468 183.5,317C 189.5,316.667 195.5,316.333 201.5,316C 202.126,315.25 202.626,314.416 203,313.5C 203.687,304.827 204.02,296.16 204,287.5C 202.527,285.993 200.693,285.326 198.5,285.5C 194.041,287.273 189.374,287.773 184.5,287C 182.574,286.578 181.574,285.411 181.5,283.5 Z"/></g>
<g><path style="opacity:1" fill="#fee096" d="M 147.5,299.5 C 150.067,298.25 152.733,297.083 155.5,296C 158.5,295.333 161.5,295.333 164.5,296C 166.699,297.697 169.032,299.197 171.5,300.5C 173.711,303.756 176.045,306.922 178.5,310C 179.449,310.617 180.282,310.451 181,309.5C 181.483,310.448 181.649,311.448 181.5,312.5C 186.523,312.073 191.523,311.407 196.5,310.5C 196.137,309.817 195.804,309.15 195.5,308.5C 195.5,308.167 195.5,307.833 195.5,307.5C 196.794,305.952 197.461,303.952 197.5,301.5C 197.333,299.5 197.167,297.5 197,295.5C 196.292,296.381 195.458,297.047 194.5,297.5C 194.5,297.167 194.5,296.833 194.5,296.5C 194.804,295.85 195.137,295.183 195.5,294.5C 191.698,293.652 187.865,292.985 184,292.5C 182.624,292.684 181.791,293.351 181.5,294.5C 178.445,291.282 174.945,288.616 171,286.5C 170.333,282.339 170.833,278.339 172.5,274.5C 174.461,272.037 176.628,269.703 179,267.5C 179.332,272.672 178.166,277.505 175.5,282C 177.766,285.753 181.099,288.087 185.5,289C 191.073,288.773 196.573,288.94 202,289.5C 202.068,297.176 201.568,304.842 200.5,312.5C 197.7,313.732 194.7,314.399 191.5,314.5C 186.486,314.96 181.486,315.127 176.5,315C 174.116,312.274 172.616,309.107 172,305.5C 169.791,303.627 167.958,301.46 166.5,299C 162.572,297.675 158.572,297.342 154.5,298C 151.853,300.216 148.853,301.216 145.5,301C 146.044,300.283 146.711,299.783 147.5,299.5 Z"/></g>
<g><path style="opacity:1" fill="#fed161" d="M 195.5,307.5 C 192.202,304.356 191.869,301.023 194.5,297.5C 195.458,297.047 196.292,296.381 197,295.5C 197.167,297.5 197.333,299.5 197.5,301.5C 197.461,303.952 196.794,305.952 195.5,307.5 Z"/></g>
<g><path style="opacity:1" fill="#fed56e" d="M 172.5,297.5 C 175.073,298.879 176.573,300.879 177,303.5C 176.346,302.304 175.846,302.304 175.5,303.5C 177.145,307.284 179.812,308.618 183.5,307.5C 185.156,306.854 186.823,306.187 188.5,305.5C 190.97,306.237 193.304,307.237 195.5,308.5C 195.804,309.15 196.137,309.817 196.5,310.5C 191.523,311.407 186.523,312.073 181.5,312.5C 181.649,311.448 181.483,310.448 181,309.5C 180.282,310.451 179.449,310.617 178.5,310C 176.045,306.922 173.711,303.756 171.5,300.5C 169.032,299.197 166.699,297.697 164.5,296C 161.5,295.333 158.5,295.333 155.5,296C 152.733,297.083 150.067,298.25 147.5,299.5C 148.833,297.833 150.167,296.167 151.5,294.5C 155.019,291.721 159.019,290.888 163.5,292C 166.667,293.689 169.667,295.522 172.5,297.5 Z"/></g>
</svg>
